<svg width="326" height="318" viewBox="0 0 326 318" fill="none" xmlns="http://www.w3.org/2000/svg">
<path d="M188.683 38.3262C216.999 48.9219 251.575 44.0317 272.909 65.4432C295.416 88.0316 302.283 121.723 303.516 153.575C304.776 186.155 297.786 218.763 279.897 246.03C261.523 274.034 234.56 295.638 202.973 306.818C171.021 318.126 133.7 324.285 103.784 308.36C75.1703 293.128 69.2066 256.248 54.1134 227.575C41.7815 204.148 27.5482 182.495 23.7409 156.299C19.438 126.693 17.8763 95.9049 31.0741 69.0517C45.7075 39.2772 67.5828 7.15534 100.163 0.803813C132.411 -5.48275 157.914 26.8128 188.683 38.3262Z" fill="#0090CC"/>
<path d="M160.714 275.011H148.244V179.039H158.385C158.876 179.039 159.348 179.233 159.696 179.58C160.044 179.926 160.241 180.396 160.243 180.887L160.714 275.011Z" fill="#CCCCCC"/>
<path d="M149.409 275.519H15.499L15.499 207.17H149.409V275.519Z" fill="white"/>
<path d="M96.6283 275.265H15.7531L15.7531 207.424H149.155V222.738C149.139 236.664 143.6 250.016 133.753 259.863C123.906 269.71 110.554 275.249 96.6283 275.265Z" fill="#F2F2F2"/>
<path d="M158.683 181.765C158.615 181.892 158.563 182.027 158.527 182.166L153.909 199.965L148.901 209.45H16.0073V207.088L23.5734 199.965L32.3996 183.082C32.7892 182.337 33.3008 181.662 33.9133 181.086C35.3108 179.771 37.1574 179.039 39.0763 179.039H157.04C157.36 179.039 157.675 179.121 157.953 179.279C158.232 179.436 158.466 179.663 158.631 179.938C158.796 180.212 158.888 180.524 158.897 180.844C158.906 181.164 158.832 181.482 158.683 181.765Z" fill="#F2F2F2"/>
<path d="M149.409 275.519H15.499L15.499 207.17H149.409V275.519ZM16.5156 274.503H148.393V208.187H16.5156V274.503Z" fill="#E6E6E6"/>
<path d="M156.376 190.871L153.909 199.966H23.5736L27.7851 192.395L156.376 190.871Z" fill="#CCCCCC"/>
<path d="M41.7838 242.986H20.4373V244.168H41.7838V242.986Z" fill="white"/>
<path d="M41.7838 247.121H20.4373V248.302H41.7838V247.121Z" fill="white"/>
<path d="M41.7838 251.256H20.4373V252.437H41.7838V251.256Z" fill="white"/>
<path d="M28.7061 229.828C32.9467 229.828 36.3844 226.39 36.3844 222.149C36.3844 217.909 32.9467 214.471 28.7061 214.471C24.4655 214.471 21.0278 217.909 21.0278 222.149C21.0278 226.39 24.4655 229.828 28.7061 229.828Z" fill="white"/>
<path d="M112.862 194.806H106.34V144.617H111.644C111.901 144.617 112.147 144.719 112.329 144.9C112.511 145.081 112.614 145.327 112.616 145.584L112.862 194.806Z" fill="#CCCCCC"/>
<path d="M106.95 195.072H36.9213V159.329H106.95V195.072Z" fill="white"/>
<path d="M79.3482 194.94H37.0542V159.462H106.817V167.471C106.809 174.753 103.912 181.735 98.7626 186.885C93.613 192.035 86.6309 194.931 79.3482 194.94Z" fill="#F2F2F2"/>
<path d="M111.799 146.043C111.764 146.109 111.737 146.18 111.718 146.253L109.303 155.561L106.684 160.521H37.187V159.286L41.1437 155.561L45.7594 146.732C45.9631 146.342 46.2307 145.989 46.551 145.688C47.2819 145 48.2475 144.617 49.251 144.617H110.94C111.108 144.617 111.272 144.66 111.418 144.743C111.564 144.825 111.686 144.944 111.773 145.087C111.859 145.231 111.907 145.394 111.912 145.562C111.916 145.729 111.878 145.895 111.799 146.043Z" fill="#F2F2F2"/>
<path d="M106.95 195.072H36.9213V159.329H106.95V195.072ZM37.4529 194.541H106.418V159.861H37.4529V194.541Z" fill="#E6E6E6"/>
<path d="M110.593 150.805L109.303 155.561H41.1438L43.3461 151.602L110.593 150.805Z" fill="#CCCCCC"/>
<path d="M50.6671 178.059H39.5038V178.677H50.6671V178.059Z" fill="white"/>
<path d="M50.6671 180.222H39.5038V180.839H50.6671V180.222Z" fill="white"/>
<path d="M50.6671 182.383H39.5038V183.001H50.6671V182.383Z" fill="white"/>
<path d="M43.8279 171.178C46.0455 171.178 47.8433 169.38 47.8433 167.162C47.8433 164.945 46.0455 163.147 43.8279 163.147C41.6102 163.147 39.8125 164.945 39.8125 167.162C39.8125 169.38 41.6102 171.178 43.8279 171.178Z" fill="white"/>
<path d="M251.917 120.641L242.66 119.315C239.529 124.55 238.417 138.484 238.417 138.484L229.357 160.017C228.757 160.424 228.275 160.983 227.96 161.636C227.644 162.289 227.506 163.013 227.56 163.737C227.613 164.46 227.856 165.156 228.265 165.756C228.673 166.355 229.232 166.837 229.885 167.152C230.539 167.466 231.263 167.603 231.987 167.549C232.71 167.495 233.406 167.251 234.005 166.842C234.604 166.433 235.085 165.873 235.399 165.22C235.713 164.566 235.849 163.841 235.794 163.118L250.668 138.055L251.917 120.641Z" fill="#FFB8B8"/>
<path d="M250.444 94.9419C251.877 95.1638 253.243 95.6987 254.446 96.5087C255.648 97.3186 256.658 98.3836 257.402 99.628C258.146 100.872 258.607 102.265 258.751 103.708C258.896 105.151 258.721 106.607 258.238 107.975L256.274 113.543C256.274 113.543 255.205 130.308 251.127 135.04L238.613 133.907C238.613 133.907 240.901 125.449 239.144 121.357C238.069 118.85 238.128 110.194 239.188 103.152C239.387 101.874 239.836 100.647 240.509 99.5416C241.183 98.4365 242.068 97.4751 243.113 96.7125C244.159 95.9499 245.344 95.4009 246.602 95.0971C247.86 94.7933 249.166 94.7405 250.444 94.9419Z" fill="#E6E6E6"/>
<path d="M281.036 268.898L275.46 268.898L272.808 247.39L281.037 247.39L281.036 268.898Z" fill="#FFB6B6"/>
<path d="M281.233 274.716L264.085 274.715V274.499C264.086 272.729 264.789 271.031 266.04 269.779C267.292 268.528 268.99 267.825 270.76 267.824L273.892 265.448L279.736 267.825L281.233 267.825L281.233 274.716Z" fill="#2F2E41"/>
<path d="M256.794 242.243L251.643 244.378L240.953 225.527L248.556 222.375L256.794 242.243Z" fill="#FFB6B6"/>
<path d="M259.204 247.54L243.364 254.109L243.281 253.908C242.603 252.273 242.602 250.436 243.279 248.8C243.956 247.165 245.254 245.865 246.889 245.187L248.873 241.792L255.181 241.748L256.564 241.175L259.204 247.54Z" fill="#2F2E41"/>
<path d="M287.412 146.548L247.84 150.682L242.546 168.511L224.214 197.971L244.455 235.16L251.583 228.762L244.741 198.732L265.164 176.684L269.036 175.077L272.11 256.891L283.48 257.078L288.456 166.801C290.846 158.826 290.127 152.241 287.412 146.548Z" fill="#2F2E41"/>
<path d="M272.903 90.1057L266.408 82.792L256.145 83.9324L249.574 93.1284C246.076 93.9324 243.019 96.0465 241.033 99.0355C239.046 102.025 238.281 105.661 238.894 109.197C241.444 123.88 250.11 138.121 247.249 145.366C242.905 156.363 242.64 160.848 253.037 159.307C263.435 157.765 298.267 154.21 291.514 147.457C284.761 140.704 283.277 129.419 283.277 129.419L283.007 103.6C283.294 102.043 283.256 100.444 282.894 98.9019C282.533 97.3602 281.857 95.91 280.908 94.6425C279.959 93.3749 278.758 92.3175 277.38 91.5367C276.003 90.756 274.478 90.2687 272.903 90.1057Z" fill="#E6E6E6"/>
<path d="M260.21 80.921C266.502 80.921 271.603 75.8202 271.603 69.528C271.603 63.2358 266.502 58.135 260.21 58.135C253.918 58.135 248.817 63.2358 248.817 69.528C248.817 75.8202 253.918 80.921 260.21 80.921Z" fill="#FFB8B8"/>
<path d="M274.248 68.8513C273.739 71.1596 272.822 73.3583 271.538 75.3434C271.198 76.0202 270.689 76.5981 270.06 77.0216C269.742 77.2257 269.363 77.3118 268.988 77.265C268.612 77.2181 268.266 77.0411 268.008 76.765L267.73 76.5391C268.274 76.2042 268.759 75.783 269.167 75.292C269.369 75.0457 269.51 74.7546 269.577 74.4431C269.644 74.1316 269.635 73.8086 269.552 73.5009C269.454 73.1975 269.242 72.9441 268.96 72.7939C268.679 72.6436 268.35 72.6083 268.044 72.6952C267.376 72.957 266.971 73.9218 266.273 73.773C265.708 73.6498 265.59 72.9056 265.59 72.3206C265.611 69.2618 264.133 64.915 262.988 65.0484C261.832 65.1116 260.674 64.9567 259.576 64.5916C258.475 64.226 257.314 64.0778 256.158 64.1554C256.075 64.1657 255.993 64.1811 255.906 64.1965C255.721 63.6153 255.466 63.0587 255.147 62.5388C255.183 63.1664 255.152 63.7961 255.054 64.4171C254.134 64.7965 253.182 65.097 252.211 65.3152C251.154 65.4641 248.829 68.6255 248.721 68.3021C248.536 67.721 248.281 67.1644 247.962 66.6445C247.998 67.2721 247.967 67.9017 247.869 68.5228C247.864 68.5485 247.864 68.569 247.859 68.5947C247.346 67.9121 247.033 67.0807 247.207 67.7171C245.488 63.827 246.155 61.0402 248.86 57.7608C249.387 57.0557 250.084 56.4959 250.887 56.1339C251.289 55.9574 251.729 55.8873 252.166 55.9304C252.603 55.9736 253.021 56.1285 253.381 56.3803C254.484 55.3689 255.838 54.6709 257.301 54.3587C258.765 54.0465 260.286 54.1314 261.705 54.6046C264.523 55.5848 266.694 56.1596 267.125 59.1157C269.455 58.741 271.852 60.0651 273.135 62.041C274.412 64.022 274.674 66.5367 274.248 68.8513Z" fill="#2F2E41"/>
<path d="M265.009 163.481H261.228V134.378H264.303C264.452 134.378 264.595 134.437 264.701 134.542C264.806 134.647 264.866 134.789 264.867 134.938L265.009 163.481Z" fill="#3F3D56"/>
<path d="M261.582 163.635H220.974V142.908H261.582V163.635Z" fill="white"/>
<path d="M245.577 163.558H221.052V142.986H261.505V147.629C261.5 151.852 259.82 155.901 256.834 158.887C253.848 161.873 249.8 163.553 245.577 163.558Z" fill="#004866"/>
<path d="M264.394 135.204C264.373 135.243 264.357 135.284 264.346 135.326L262.946 140.723L261.427 143.6H221.128V142.883L223.423 140.723L226.099 135.604C226.217 135.378 226.373 135.173 226.558 134.998C226.982 134.6 227.542 134.378 228.124 134.378H263.895C263.992 134.378 264.088 134.403 264.172 134.451C264.257 134.498 264.328 134.567 264.378 134.65C264.428 134.733 264.456 134.828 264.459 134.925C264.461 135.022 264.439 135.118 264.394 135.204Z" fill="#3F3D56"/>
<path d="M261.582 163.635H220.974V142.908H261.582V163.635ZM221.283 163.326H261.273V143.217H221.283V163.326Z" fill="#3F3D56"/>
<path d="M263.694 137.965L262.946 140.724H223.423L224.7 138.428L263.694 137.965Z" fill="#004866"/>
<path d="M228.945 153.77H222.472V154.128H228.945V153.77Z" fill="white"/>
<path d="M228.945 155.023H222.472V155.381H228.945V155.023Z" fill="white"/>
<path d="M228.945 156.277H222.472V156.635H228.945V156.277Z" fill="white"/>
<path d="M224.979 149.779C226.265 149.779 227.308 148.737 227.308 147.451C227.308 146.165 226.265 145.123 224.979 145.123C223.693 145.123 222.651 146.165 222.651 147.451C222.651 148.737 223.693 149.779 224.979 149.779Z" fill="white"/>
<path d="M280.807 117.98L271.55 116.654C268.419 121.889 267.307 135.823 267.307 135.823L258.247 157.356C257.647 157.763 257.165 158.322 256.85 158.975C256.534 159.628 256.396 160.352 256.45 161.076C256.503 161.799 256.746 162.496 257.155 163.095C257.563 163.694 258.122 164.176 258.775 164.491C259.429 164.805 260.153 164.943 260.877 164.888C261.6 164.834 262.296 164.59 262.895 164.181C263.494 163.772 263.975 163.212 264.289 162.559C264.603 161.905 264.739 161.18 264.684 160.457L279.558 135.394L280.807 117.98Z" fill="#FFB8B8"/>
<path d="M275.79 92.2806C277.223 92.5025 278.589 93.0375 279.791 93.8474C280.994 94.6573 282.003 95.7224 282.747 96.9667C283.492 98.211 283.952 99.6041 284.097 101.047C284.242 102.489 284.066 103.946 283.584 105.313L281.62 110.881C281.62 110.881 284.094 127.646 280.016 132.379L267.502 131.246C267.502 131.246 269.79 122.788 268.034 118.695C266.958 116.189 267.018 107.533 268.078 100.491C268.887 95.1142 270.416 91.4484 275.79 92.2806Z" fill="#E6E6E6"/>
<path d="M98.9889 83.8885C97.6731 83.9745 96.4428 84.5707 95.5598 85.55C94.6768 86.5293 94.2109 87.8146 94.261 89.1322C94.2754 89.3999 94.312 89.6659 94.3703 89.9276L79.4285 99.3408L87.6891 102.994L100.612 93.4952C101.678 93.1694 102.606 92.4999 103.252 91.591C103.898 90.6821 104.224 89.5851 104.181 88.4711C104.15 87.8374 103.995 87.216 103.724 86.6424C103.453 86.0687 103.072 85.5541 102.602 85.1278C102.132 84.7015 101.583 84.3719 100.986 84.1578C100.388 83.9438 99.7549 83.8494 99.1213 83.8802C99.0771 83.8823 99.033 83.8851 98.9889 83.8885Z" fill="#FFB6B6"/>
<path d="M84.5803 95.0625L88.2834 102.703L73.6415 112.125C72.5997 112.802 71.4022 113.2 70.163 113.283C68.9237 113.366 67.6838 113.131 66.5611 112.6C65.1962 111.946 64.0805 110.867 63.3824 109.524C62.6843 108.182 62.4414 106.649 62.6905 105.156L67.4416 78.0324C67.7605 76.1343 68.7947 74.4306 70.3314 73.2717C71.8681 72.1127 73.7904 71.5867 75.703 71.8018C76.6346 71.9036 77.5371 72.188 78.3588 72.6386C79.1805 73.0893 79.9054 73.6973 80.4921 74.4281C81.0788 75.1589 81.5158 75.998 81.7782 76.8977C82.0406 77.7974 82.1233 78.7399 82.0214 79.6716C82.0133 79.7452 82.0041 79.8186 81.9938 79.8919C81.9579 80.1526 81.908 80.4111 81.8442 80.6663L76.6576 99.9561L84.5803 95.0625Z" fill="#0090CC"/>
<path d="M85.6209 106.907H64.6813V127.847H85.6209V106.907Z" fill="#FFB8B8"/>
<path d="M135.279 168.576L143.276 165.886L147.73 187.654L142.311 189.477L135.279 168.576Z" fill="#FFB6B6"/>
<path d="M121.725 166.903L129.658 164.027L134.616 185.686L129.242 187.634L121.725 166.903Z" fill="#FFB6B6"/>
<path d="M65.4325 133.317C61.2356 161.297 117.125 144.755 117.125 144.755L134.649 168.929L144.908 167.064C144.908 167.064 140.292 152.551 132.048 133.097C128.387 124.457 86.8141 126.568 86.8141 126.568L85.9509 119.794L62.1682 119.327L65.4325 133.317Z" fill="#2F2E41"/>
<path d="M105.804 146.631L118.728 138.582C128.189 157.474 130.978 165.656 130.978 165.656L122.034 168.172L105.804 146.631Z" fill="#2F2E41"/>
<path d="M77.3948 72.8805L73.18 67.4628L67.1678 67.2021L66.5678 72.2975L63.5888 73.6712C60.6142 84.9719 60.1548 96.7876 62.243 108.285C62.6422 108.661 62.9339 109.137 63.0881 109.663C63.2422 110.189 63.2531 110.747 63.1197 111.279L62.9265 112.049L62.9444 112.077C63.5783 113.077 63.7933 114.287 63.5432 115.444L62.1205 117.972C61.61 118.881 61.3036 119.891 61.2227 120.93C61.1417 121.97 61.2882 123.014 61.6518 123.991C62.0155 124.969 62.5876 125.855 63.3285 126.588C64.0693 127.322 64.9611 127.886 65.9418 128.24C74.6867 131.409 82.8844 132.59 88.949 123.695L90.856 92.6983L77.3948 72.8805Z" fill="#004866"/>
<path d="M72.9794 68.9016C79.1187 68.9016 84.0956 63.9247 84.0956 57.7854C84.0956 51.6461 79.1187 46.6692 72.9794 46.6692C66.8401 46.6692 61.8632 51.6461 61.8632 57.7854C61.8632 63.9247 66.8401 68.9016 72.9794 68.9016Z" fill="#FFB8B8"/>
<path d="M67.3989 44.3849C62.6922 44.4753 58.9591 48.8411 59.0608 54.1363C55.5777 57.7707 54.734 75.6469 57.6443 80.4024C62.9682 81.0205 66.2065 67.8489 70.8754 69.753L71.4906 66.8785L72.8848 70.6218C74.0713 71.1688 75.2489 71.7693 76.4175 72.4231C77.2573 68.571 77.0491 64.8267 74.7919 61.5653C72.7866 58.6679 77.6666 55.2281 81.1566 55.7143L81.1055 53.0531L81.9821 55.6984C83.3425 56.6981 84.8473 56.3361 86.3905 55.6137C88.8929 42.6081 69.5188 39.0515 67.3989 44.3849Z" fill="#2F2E41"/>
<path d="M139.848 193.158L143.411 192.693L143.607 189.246L145.675 192.397L155.125 191.163C155.578 191.103 156 190.901 156.33 190.585C156.66 190.269 156.88 189.856 156.958 189.406C157.037 188.956 156.969 188.492 156.765 188.083C156.562 187.674 156.233 187.341 155.826 187.133L147.599 182.907L147.155 179.506L139.28 181.016L139.848 193.158Z" fill="#2F2E41"/>
<path d="M130.437 193.189L133.669 191.619L132.764 188.287L135.724 190.621L144.297 186.459C144.708 186.259 145.044 185.934 145.257 185.529C145.47 185.125 145.548 184.663 145.479 184.212C145.411 183.76 145.2 183.342 144.878 183.019C144.555 182.695 144.137 182.483 143.686 182.414L134.544 181.01L133.046 177.925L126.054 181.851L130.437 193.189Z" fill="#2F2E41"/>
<path d="M81.6423 119.061H85.6058V88.5564H82.3824C82.2263 88.5564 82.0765 88.6182 81.9658 88.7283C81.8552 88.8384 81.7926 88.9879 81.7918 89.144L81.6423 119.061Z" fill="#CCCCCC"/>
<path d="M85.2352 97.4978H127.799V119.222H85.2352V97.4978Z" fill="white"/>
<path d="M85.3162 102.446V97.5786H127.718V119.142H102.012C97.5853 119.137 93.3416 117.376 90.2117 114.246C87.0818 111.116 85.3212 106.873 85.3162 102.446Z" fill="#F2F2F2"/>
<path d="M82.2876 89.4229C82.309 89.4633 82.3256 89.5062 82.3371 89.5505L83.8048 95.2077L85.3968 98.2227H127.637V97.4718L125.232 95.2078L122.427 89.8416C122.303 89.6048 122.14 89.3903 121.946 89.2071C121.501 88.7891 120.914 88.5564 120.304 88.5564H82.8098C82.708 88.5564 82.608 88.5827 82.5193 88.6328C82.4307 88.6828 82.3565 88.755 82.304 88.8422C82.2515 88.9293 82.2223 89.0286 82.2195 89.1304C82.2166 89.2321 82.2401 89.3329 82.2876 89.4229Z" fill="#F2F2F2"/>
<path d="M85.2352 97.4978H127.799V119.222H85.2352V97.4978ZM127.475 118.899H85.5583V97.8209H127.475L127.475 118.899Z" fill="#E6E6E6"/>
<path d="M83.0209 92.3169L83.8051 95.2079H125.232L123.894 92.8018L83.0209 92.3169Z" fill="#CCCCCC"/>
<path d="M126.229 108.882H119.444V109.258H126.229V108.882Z" fill="white"/>
<path d="M126.229 110.196H119.444V110.572H126.229V110.196Z" fill="white"/>
<path d="M126.229 111.51H119.444V111.886H126.229V111.51Z" fill="white"/>
<path d="M123.601 104.699C124.949 104.699 126.041 103.607 126.041 102.259C126.041 100.911 124.949 99.8184 123.601 99.8184C122.253 99.8184 121.16 100.911 121.16 102.259C121.16 103.607 122.253 104.699 123.601 104.699Z" fill="white"/>
<path d="M97.6273 94.7253C96.3123 94.6279 95.0112 95.0475 94.0008 95.8947C92.9904 96.742 92.3505 97.9501 92.2173 99.262C92.1944 99.529 92.1937 99.7976 92.2151 100.065L76.1112 107.313L83.7847 112.078L97.9008 104.464C99.0019 104.29 100.014 103.755 100.78 102.945C101.545 102.135 102.021 101.094 102.133 99.9843C102.249 98.7083 101.853 97.4385 101.033 96.4541C100.213 95.4698 99.0355 94.8516 97.7596 94.7355C97.7155 94.7315 97.6714 94.7281 97.6273 94.7253Z" fill="#FFB6B6"/>
<path d="M81.8071 103.791L84.4137 111.872L68.6056 119.17C67.48 119.695 66.2388 119.924 65.0001 119.834C63.7613 119.744 62.5661 119.339 61.528 118.657C60.2669 117.82 59.3119 116.597 58.8069 115.17C58.3019 113.744 58.2743 112.192 58.7282 110.748L67.1984 84.5465C67.7778 82.7111 69.0385 81.1675 70.7211 80.2331C72.4038 79.2987 74.3806 79.0446 76.2448 79.5231C77.1533 79.7533 78.0075 80.1602 78.7587 80.7205C79.5099 81.2809 80.1434 81.9837 80.6229 82.7888C81.1025 83.594 81.4188 84.4857 81.5538 85.4131C81.6888 86.3404 81.6398 87.2853 81.4096 88.1938C81.3914 88.2656 81.3721 88.337 81.3517 88.4082C81.2799 88.6613 81.1945 88.9104 81.096 89.1543L73.2818 107.537L81.8071 103.791Z" fill="#004866"/>
</svg>
