<svg width="250" height="76" viewBox="0 0 250 76" fill="none" xmlns="http://www.w3.org/2000/svg">
<g clip-path="url(#clip0_434_550)">
<path d="M241.106 75.037H8.75741C3.92963 75.037 0 71.0962 0 66.2721V9.71474C0 4.88882 3.92963 0.962891 8.75741 0.962891H241.106C245.931 0.962891 250 4.88882 250 9.71474V66.2721C250 71.0962 245.931 75.037 241.106 75.037Z" fill="#A6A6A6"/>
<path d="M248.207 66.2738C248.207 70.1923 245.033 73.3664 241.107 73.3664H8.75745C4.83338 73.3664 1.64819 70.1923 1.64819 66.2738V9.71269C1.64819 5.79603 4.83338 2.61084 8.75745 2.61084H241.106C245.033 2.61084 248.206 5.79603 248.206 9.71269L248.207 66.2738Z" fill="black"/>
<path d="M55.7926 37.6C55.7389 31.6315 60.6796 28.7278 60.9056 28.5926C58.1074 24.513 53.7704 23.9556 52.2463 23.9112C48.6037 23.5278 45.0704 26.0908 43.2148 26.0908C41.3222 26.0908 38.4648 23.9482 35.3852 24.0112C31.4222 24.0723 27.7148 26.3667 25.6815 29.9297C21.4852 37.1945 24.6148 47.8704 28.6352 53.7426C30.6463 56.6186 32.9963 59.8297 36.0722 59.7167C39.0815 59.5926 40.2056 57.7982 43.837 57.7982C47.4352 57.7982 48.4907 59.7167 51.6278 59.6445C54.8574 59.5926 56.8907 56.7556 58.8315 53.8537C61.1556 50.5574 62.0889 47.3112 62.1259 47.1445C62.05 47.1186 55.8537 44.7537 55.7926 37.6Z" fill="white"/>
<path d="M49.8667 20.0483C51.4852 18.0242 52.5926 15.2705 52.2852 12.4761C49.9426 12.5798 47.013 14.0964 45.326 16.0761C43.8334 17.8205 42.5 20.6798 42.8445 23.3687C45.476 23.565 48.1778 22.0409 49.8667 20.0483Z" fill="white"/>
<path d="M99.3425 59.3036H95.137L92.8333 52.0647H84.8259L82.6314 59.3036H78.537L86.4703 34.6592H91.3703L99.3425 59.3036ZM92.1388 49.0277L90.0555 42.5925C89.8351 41.9351 89.4222 40.387 88.8129 37.9499H88.7388C88.4962 38.9981 88.1055 40.5462 87.5685 42.5925L85.5222 49.0277H92.1388Z" fill="white"/>
<path d="M119.744 50.1999C119.744 53.2222 118.928 55.6111 117.294 57.3648C115.831 58.9259 114.015 59.7055 111.846 59.7055C109.506 59.7055 107.824 58.8648 106.8 57.1833H106.726V66.5444H102.778V47.3833C102.778 45.4833 102.728 43.5333 102.631 41.5333H106.104L106.324 44.3499H106.398C107.715 42.2277 109.713 41.1685 112.394 41.1685C114.491 41.1685 116.241 41.9962 117.641 43.6536C119.044 45.3129 119.744 47.4944 119.744 50.1999ZM115.722 50.3444C115.722 48.6148 115.333 47.1888 114.552 46.0666C113.698 44.8962 112.552 44.3111 111.115 44.3111C110.141 44.3111 109.256 44.637 108.465 45.2796C107.672 45.9277 107.154 46.774 106.911 47.8222C106.789 48.3111 106.728 48.7111 106.728 49.0259V51.9888C106.728 53.2814 107.124 54.3722 107.917 55.2629C108.709 56.1536 109.739 56.5981 111.006 56.5981C112.493 56.5981 113.65 56.024 114.478 54.8796C115.307 53.7333 115.722 52.2222 115.722 50.3444Z" fill="white"/>
<path d="M140.183 50.1999C140.183 53.2222 139.367 55.6111 137.732 57.3648C136.27 58.9259 134.454 59.7055 132.285 59.7055C129.944 59.7055 128.263 58.8648 127.241 57.1833H127.167V66.5444H123.219V47.3833C123.219 45.4833 123.169 43.5333 123.072 41.5333H126.544L126.765 44.3499H126.839C128.154 42.2277 130.152 41.1685 132.835 41.1685C134.93 41.1685 136.68 41.9962 138.083 43.6536C139.482 45.3129 140.183 47.4944 140.183 50.1999ZM136.161 50.3444C136.161 48.6148 135.77 47.1888 134.989 46.0666C134.135 44.8962 132.993 44.3111 131.554 44.3111C130.578 44.3111 129.694 44.637 128.902 45.2796C128.109 45.9277 127.593 46.774 127.35 47.8222C127.23 48.3111 127.167 48.7111 127.167 49.0259V51.9888C127.167 53.2814 127.563 54.3722 128.352 55.2629C129.144 56.1518 130.174 56.5981 131.444 56.5981C132.932 56.5981 134.089 56.024 134.917 54.8796C135.746 53.7333 136.161 52.2222 136.161 50.3444Z" fill="white"/>
<path d="M163.035 52.3923C163.035 54.4886 162.307 56.1941 160.846 57.5108C159.241 58.9497 157.006 59.6682 154.133 59.6682C151.482 59.6682 149.356 59.1571 147.746 58.133L148.661 54.8423C150.394 55.8904 152.296 56.4164 154.369 56.4164C155.856 56.4164 157.013 56.0793 157.844 55.409C158.672 54.7386 159.085 53.8386 159.085 52.7164C159.085 51.7164 158.744 50.8738 158.061 50.1904C157.382 49.5071 156.246 48.8719 154.661 48.2849C150.346 46.6756 148.191 44.3182 148.191 41.2182C148.191 39.1923 148.946 37.5312 150.459 36.2386C151.967 34.9441 153.978 34.2979 156.493 34.2979C158.735 34.2979 160.598 34.6886 162.085 35.4682L161.098 38.6867C159.709 37.9312 158.139 37.5534 156.382 37.5534C154.993 37.5534 153.907 37.896 153.13 38.5775C152.472 39.1867 152.143 39.9293 152.143 40.809C152.143 41.783 152.519 42.5886 153.274 43.2219C153.932 43.8071 155.126 44.4404 156.859 45.1238C158.98 45.9775 160.537 46.9756 161.539 48.1201C162.537 49.2608 163.035 50.6886 163.035 52.3923Z" fill="white"/>
<path d="M176.089 44.4962H171.737V53.124C171.737 55.3184 172.504 56.4147 174.041 56.4147C174.746 56.4147 175.331 56.3536 175.794 56.2314L175.904 59.2295C175.126 59.5203 174.102 59.6666 172.833 59.6666C171.274 59.6666 170.055 59.1907 169.176 58.2407C168.3 57.2888 167.859 55.6925 167.859 53.4499V44.4925H165.267V41.5295H167.859V38.2758L171.737 37.1055V41.5295H176.089V44.4962Z" fill="white"/>
<path d="M195.724 50.2718C195.724 53.0033 194.942 55.2458 193.383 56.9996C191.748 58.8051 189.578 59.7051 186.872 59.7051C184.265 59.7051 182.189 58.8403 180.641 57.1107C179.092 55.381 178.318 53.1977 178.318 50.5662C178.318 47.8125 179.115 45.557 180.713 43.8033C182.307 42.0477 184.459 41.1699 187.165 41.1699C189.772 41.1699 191.87 42.0347 193.454 43.7662C194.968 45.4458 195.724 47.6144 195.724 50.2718ZM191.628 50.3996C191.628 48.7607 191.278 47.3551 190.568 46.1829C189.741 44.7644 188.557 44.057 187.024 44.057C185.437 44.057 184.231 44.7662 183.404 46.1829C182.694 47.357 182.344 48.7847 182.344 50.4736C182.344 52.1125 182.694 53.5181 183.404 54.6884C184.257 56.107 185.45 56.8144 186.989 56.8144C188.496 56.8144 189.679 56.0921 190.533 54.6514C191.261 53.457 191.628 52.0366 191.628 50.3996Z" fill="white"/>
<path d="M208.557 45.0055C208.167 44.9333 207.75 44.8962 207.313 44.8962C205.924 44.8962 204.85 45.4203 204.094 46.4703C203.437 47.3962 203.107 48.5666 203.107 49.9796V59.3036H199.161L199.198 47.1296C199.198 45.0814 199.148 43.2166 199.05 41.5351H202.489L202.633 44.9351H202.743C203.159 43.7666 203.817 42.8259 204.717 42.1203C205.596 41.4851 206.546 41.1685 207.57 41.1685C207.935 41.1685 208.265 41.1944 208.557 41.2407V45.0055Z" fill="white"/>
<path d="M226.215 49.5774C226.215 50.2848 226.168 50.8811 226.07 51.3681H214.226C214.272 53.1237 214.844 54.4662 215.944 55.3922C216.942 56.22 218.233 56.6348 219.818 56.6348C221.572 56.6348 223.172 56.3551 224.611 55.794L225.23 58.5348C223.548 59.2681 221.563 59.6329 219.272 59.6329C216.517 59.6329 214.354 58.8218 212.78 57.2014C211.209 55.5811 210.422 53.4051 210.422 50.6755C210.422 47.9959 211.154 45.7644 212.618 43.9848C214.152 42.0848 216.224 41.1348 218.831 41.1348C221.392 41.1348 223.331 42.0848 224.648 43.9848C225.691 45.494 226.215 47.3607 226.215 49.5774ZM222.45 48.5533C222.476 47.3829 222.218 46.3718 221.683 45.5181C221 44.4199 219.95 43.8718 218.537 43.8718C217.246 43.8718 216.196 44.407 215.394 45.4811C214.737 46.3348 214.346 47.3588 214.226 48.5514L222.45 48.5533Z" fill="white"/>
<path d="M90.8333 19.498C90.8333 21.6777 90.1796 23.3184 88.8741 24.4203C87.6648 25.4369 85.9463 25.9462 83.7204 25.9462C82.6167 25.9462 81.6722 25.898 80.8815 25.8017V13.8925C81.913 13.7258 83.0241 13.6406 84.2241 13.6406C86.3444 13.6406 87.9426 14.1017 89.0204 15.024C90.2278 16.0666 90.8333 17.5573 90.8333 19.498ZM88.787 19.5517C88.787 18.1388 88.413 17.0554 87.6648 16.2999C86.9167 15.5462 85.8241 15.1684 84.3852 15.1684C83.7741 15.1684 83.2537 15.2091 82.8222 15.2943V24.348C83.0611 24.3851 83.4981 24.4017 84.1333 24.4017C85.6185 24.4017 86.7648 23.9888 87.5722 23.1628C88.3796 22.3369 88.787 21.1332 88.787 19.5517Z" fill="white"/>
<path d="M101.683 21.4015C101.683 22.7441 101.3 23.8441 100.533 24.7071C99.7296 25.5941 98.6648 26.0367 97.3352 26.0367C96.0537 26.0367 95.0333 25.6126 94.2722 24.7608C93.5129 23.9108 93.1333 22.8386 93.1333 21.546C93.1333 20.1941 93.524 19.0849 94.3092 18.2237C95.0944 17.3626 96.15 16.9312 97.4796 16.9312C98.7611 16.9312 99.7907 17.3552 100.57 18.2052C101.311 19.0312 101.683 20.0978 101.683 21.4015ZM99.6703 21.4645C99.6703 20.6589 99.4963 19.9682 99.15 19.3923C98.7426 18.696 98.1629 18.3478 97.4092 18.3478C96.6296 18.3478 96.037 18.696 95.6296 19.3923C95.2814 19.9682 95.1092 20.67 95.1092 21.4997C95.1092 22.3052 95.2833 22.996 95.6296 23.5719C96.05 24.2682 96.6352 24.6163 97.3907 24.6163C98.1314 24.6163 98.7129 24.2626 99.1314 23.5534C99.4907 22.9663 99.6703 22.27 99.6703 21.4645Z" fill="white"/>
<path d="M116.232 17.1089L113.5 25.8385H111.722L110.591 22.0478C110.304 21.1015 110.07 20.1607 109.889 19.2274H109.854C109.685 20.1867 109.452 21.1256 109.152 22.0478L107.95 25.8385H106.152L103.583 17.1089H105.578L106.565 21.2589C106.804 22.2404 107 23.1756 107.157 24.0607H107.193C107.337 23.3311 107.576 22.4015 107.913 21.2774L109.152 17.1107H110.733L111.92 21.1885C112.207 22.183 112.441 23.1404 112.62 24.0626H112.674C112.806 23.1644 113.004 22.207 113.267 21.1885L114.326 17.1107H116.232V17.1089Z" fill="white"/>
<path d="M126.292 25.8387H124.352V20.8387C124.352 19.298 123.767 18.5276 122.592 18.5276C122.017 18.5276 121.552 18.7387 121.191 19.1628C120.833 19.5869 120.652 20.0869 120.652 20.6591V25.8369H118.711V19.6036C118.711 18.8369 118.687 18.0054 118.641 17.1054H120.346L120.437 18.4702H120.491C120.717 18.0462 121.054 17.6962 121.496 17.4165C122.022 17.0906 122.611 16.9258 123.255 16.9258C124.07 16.9258 124.748 17.1887 125.287 17.7165C125.957 18.3628 126.292 19.3276 126.292 20.6091V25.8387Z" fill="white"/>
<path d="M131.644 25.8387H129.706V13.1035H131.644V25.8387Z" fill="white"/>
<path d="M143.07 21.4015C143.07 22.7441 142.687 23.8441 141.92 24.7071C141.117 25.5941 140.05 26.0367 138.722 26.0367C137.439 26.0367 136.418 25.6126 135.659 24.7608C134.9 23.9108 134.52 22.8386 134.52 21.546C134.52 20.1941 134.911 19.0849 135.696 18.2237C136.481 17.3626 137.537 16.9312 138.865 16.9312C140.148 16.9312 141.176 17.3552 141.957 18.2052C142.698 19.0312 143.07 20.0978 143.07 21.4015ZM141.055 21.4645C141.055 20.6589 140.881 19.9682 140.535 19.3923C140.13 18.696 139.548 18.3478 138.796 18.3478C138.015 18.3478 137.422 18.696 137.017 19.3923C136.668 19.9682 136.496 20.67 136.496 21.4997C136.496 22.3052 136.67 22.996 137.017 23.5719C137.437 24.2682 138.022 24.6163 138.778 24.6163C139.518 24.6163 140.098 24.2626 140.517 23.5534C140.878 22.9663 141.055 22.27 141.055 21.4645Z" fill="white"/>
<path d="M152.463 25.8386H150.72L150.576 24.833H150.522C149.926 25.6349 149.076 26.0367 147.972 26.0367C147.148 26.0367 146.482 25.7719 145.98 25.246C145.524 24.7682 145.296 24.1737 145.296 23.4682C145.296 22.4015 145.741 21.5886 146.635 21.0256C147.528 20.4626 148.783 20.1867 150.4 20.1997V20.0367C150.4 18.8867 149.796 18.3126 148.587 18.3126C147.726 18.3126 146.967 18.5293 146.311 18.9589L145.917 17.6849C146.728 17.183 147.73 16.9312 148.911 16.9312C151.193 16.9312 152.337 18.1349 152.337 20.5423V23.7571C152.337 24.6293 152.38 25.3237 152.463 25.8386ZM150.448 22.8386V21.4923C148.307 21.4552 147.237 22.0423 147.237 23.2515C147.237 23.7071 147.359 24.0478 147.609 24.2756C147.859 24.5034 148.178 24.6163 148.558 24.6163C148.983 24.6163 149.382 24.4812 149.745 24.2126C150.109 23.9423 150.333 23.5997 150.417 23.1793C150.437 23.0849 150.448 22.97 150.448 22.8386Z" fill="white"/>
<path d="M163.491 25.8387H161.769L161.678 24.4368H161.624C161.074 25.5035 160.137 26.0368 158.82 26.0368C157.769 26.0368 156.893 25.6239 156.198 24.798C155.504 23.972 155.157 22.8998 155.157 21.5831C155.157 20.1702 155.533 19.0257 156.289 18.1517C157.02 17.3368 157.917 16.9294 158.983 16.9294C160.156 16.9294 160.976 17.3239 161.443 18.1146H161.48V13.1035H163.422V23.4868C163.422 24.3368 163.445 25.1202 163.491 25.8387ZM161.48 22.1572V20.7017C161.48 20.4498 161.461 20.2461 161.426 20.0906C161.317 19.6239 161.082 19.2313 160.724 18.9146C160.363 18.598 159.928 18.4387 159.426 18.4387C158.702 18.4387 158.135 18.7257 157.719 19.3017C157.306 19.8776 157.096 20.6128 157.096 21.5109C157.096 22.3739 157.294 23.0739 157.693 23.6128C158.113 24.1868 158.68 24.4739 159.389 24.4739C160.026 24.4739 160.535 24.235 160.922 23.7554C161.296 23.3128 161.48 22.7794 161.48 22.1572Z" fill="white"/>
<path d="M180.089 21.4015C180.089 22.7441 179.705 23.8441 178.939 24.7071C178.135 25.5941 177.072 26.0367 175.741 26.0367C174.461 26.0367 173.441 25.6126 172.678 24.7608C171.918 23.9108 171.539 22.8386 171.539 21.546C171.539 20.1941 171.93 19.0849 172.715 18.2237C173.5 17.3626 174.555 16.9312 175.887 16.9312C177.167 16.9312 178.198 17.3552 178.976 18.2052C179.717 19.0312 180.089 20.0978 180.089 21.4015ZM178.078 21.4645C178.078 20.6589 177.904 19.9682 177.557 19.3923C177.148 18.696 176.57 18.3478 175.815 18.3478C175.037 18.3478 174.444 18.696 174.035 19.3923C173.687 19.9682 173.515 20.67 173.515 21.4997C173.515 22.3052 173.689 22.996 174.035 23.5719C174.455 24.2682 175.041 24.6163 175.796 24.6163C176.537 24.6163 177.12 24.2626 177.539 23.5534C177.896 22.9663 178.078 22.27 178.078 21.4645Z" fill="white"/>
<path d="M190.524 25.8387H188.585V20.8387C188.585 19.298 188 18.5276 186.824 18.5276C186.248 18.5276 185.783 18.7387 185.424 19.1628C185.065 19.5869 184.885 20.0869 184.885 20.6591V25.8369H182.943V19.6036C182.943 18.8369 182.92 18.0054 182.874 17.1054H184.578L184.668 18.4702H184.722C184.95 18.0462 185.287 17.6962 185.728 17.4165C186.256 17.0906 186.843 16.9258 187.489 16.9258C188.302 16.9258 188.98 17.1887 189.518 17.7165C190.191 18.3628 190.524 19.3276 190.524 20.6091V25.8387Z" fill="white"/>
<path d="M203.585 18.5628H201.448V22.8036C201.448 23.8814 201.828 24.4202 202.58 24.4202C202.928 24.4202 203.217 24.3906 203.444 24.3295L203.494 25.8017C203.111 25.9462 202.607 26.0184 201.987 26.0184C201.22 26.0184 200.624 25.7851 200.193 25.3184C199.759 24.8517 199.544 24.0665 199.544 22.9647V18.5628H198.269V17.1091H199.544V15.5091L201.446 14.9351V17.1073H203.583L203.585 18.5628Z" fill="white"/>
<path d="M213.859 25.8387H211.917V20.8757C211.917 19.3109 211.332 18.5276 210.159 18.5276C209.259 18.5276 208.644 18.9813 208.307 19.8887C208.25 20.0794 208.217 20.3128 208.217 20.5868V25.8368H206.278V13.1035H208.217V18.3646H208.254C208.865 17.4072 209.741 16.9294 210.876 16.9294C211.68 16.9294 212.344 17.1924 212.872 17.7202C213.53 18.3776 213.859 19.3554 213.859 20.648V25.8387Z" fill="white"/>
<path d="M224.457 21.0608C224.457 21.409 224.431 21.7016 224.385 21.9405H218.565C218.591 22.8034 218.869 23.4608 219.407 23.9164C219.9 24.3238 220.535 24.5275 221.313 24.5275C222.174 24.5275 222.959 24.3905 223.667 24.1145L223.97 25.4627C223.143 25.822 222.169 26.0016 221.041 26.0016C219.689 26.0016 218.624 25.6034 217.854 24.8071C217.08 24.0108 216.696 22.9423 216.696 21.6016C216.696 20.2849 217.054 19.1886 217.774 18.3145C218.526 17.3812 219.543 16.9146 220.826 16.9146C222.081 16.9146 223.035 17.3812 223.68 18.3145C224.2 19.0553 224.457 19.972 224.457 21.0608ZM222.606 20.559C222.62 19.9831 222.493 19.4868 222.23 19.0683C221.893 18.5294 221.38 18.259 220.685 18.259C220.052 18.259 219.535 18.522 219.141 19.0497C218.819 19.4701 218.628 19.972 218.565 20.559H222.606Z" fill="white"/>
</g>
<defs>
<clipPath id="clip0_434_550">
<rect width="250" height="74.0741" fill="white" transform="translate(0 0.962891)"/>
</clipPath>
</defs>
</svg>
