<svg width="24" height="25" viewBox="0 0 24 25" fill="none" xmlns="http://www.w3.org/2000/svg">
<path d="M15.75 11L20.47 6.28C20.5749 6.17524 20.7085 6.10392 20.8539 6.07503C20.9993 6.04615 21.15 6.061 21.2869 6.11771C21.4239 6.17442 21.541 6.27045 21.6234 6.39367C21.7058 6.51688 21.7499 6.66176 21.75 6.81V18.19C21.7499 18.3382 21.7058 18.4831 21.6234 18.6063C21.541 18.7295 21.4239 18.8256 21.2869 18.8823C21.15 18.939 20.9993 18.9538 20.8539 18.925C20.7085 18.8961 20.5749 18.8248 20.47 18.72L15.75 14M4.5 19.25H13.5C14.0967 19.25 14.669 19.0129 15.091 18.591C15.5129 18.169 15.75 17.5967 15.75 17V8C15.75 7.40326 15.5129 6.83097 15.091 6.40901C14.669 5.98705 14.0967 5.75 13.5 5.75H4.5C3.90326 5.75 3.33097 5.98705 2.90901 6.40901C2.48705 6.83097 2.25 7.40326 2.25 8V17C2.25 17.5967 2.48705 18.169 2.90901 18.591C3.33097 19.0129 3.90326 19.25 4.5 19.25Z" stroke="#010101" stroke-width="1.5" stroke-linecap="round"/>
</svg>
