<svg width="32" height="33" viewBox="0 0 32 33" fill="none" xmlns="http://www.w3.org/2000/svg">
<path d="M9.10267 8.73312C8.86265 9.113 8.54243 9.43576 8.16445 9.67876C7.78647 9.92176 7.3599 10.0791 6.91467 10.1398C6.408 10.2118 5.90533 10.2891 5.40267 10.3731C3.99867 10.6065 3 11.8425 3 13.2651V24.4998C3 25.2954 3.31607 26.0585 3.87868 26.6211C4.44129 27.1837 5.20435 27.4998 6 27.4998H26C26.7957 27.4998 27.5587 27.1837 28.1213 26.6211C28.6839 26.0585 29 25.2954 29 24.4998V13.2651C29 11.8425 28 10.6065 26.5973 10.3731C26.0943 10.2893 25.5902 10.2115 25.0853 10.1398C24.6403 10.0789 24.214 9.92149 23.8363 9.6785C23.4586 9.43551 23.1385 9.11284 22.8987 8.73312L21.8027 6.97845C21.5565 6.57858 21.2176 6.24391 20.8147 6.00277C20.4118 5.76162 19.9567 5.62111 19.488 5.59312C17.1643 5.46831 14.8357 5.46831 12.512 5.59312C12.0433 5.62111 11.5882 5.76162 11.1853 6.00277C10.7824 6.24391 10.4435 6.57858 10.1973 6.97845L9.10267 8.73312Z" stroke="#0A506E" stroke-width="1.5" stroke-linecap="round" stroke-linejoin="round"/>
<path d="M22 17.5C22 19.0913 21.3679 20.6174 20.2426 21.7426C19.1174 22.8679 17.5913 23.5 16 23.5C14.4087 23.5 12.8826 22.8679 11.7574 21.7426C10.6321 20.6174 10 19.0913 10 17.5C10 15.9087 10.6321 14.3826 11.7574 13.2574C12.8826 12.1321 14.4087 11.5 16 11.5C17.5913 11.5 19.1174 12.1321 20.2426 13.2574C21.3679 14.3826 22 15.9087 22 17.5ZM25 14.5H25.0107V14.5107H25V14.5Z" stroke="#0A506E" stroke-width="1.5" stroke-linecap="round" stroke-linejoin="round"/>
</svg>
