<svg width="345" height="308" viewBox="0 0 345 308" fill="none" xmlns="http://www.w3.org/2000/svg">
<path d="M248.431 30.8866C279.755 47.9941 313.527 67.7218 324.688 100.102C335.437 131.288 313.962 162.574 304.716 194.181C296.459 222.409 297.565 255.991 273.61 274.716C249.982 293.186 215.058 283.085 184.758 287.95C152.792 293.083 120.459 317.486 91.394 303.973C62.3541 290.473 61.3235 252.489 48.4244 224.569C36.1545 198.01 15.6554 173.722 17.8781 144.846C20.2262 114.341 39.9908 88.4807 60.7154 64.8913C84.0337 38.3495 107.95 7.89412 143.923 1.37773C180.536 -5.25487 216.195 13.281 248.431 30.8866Z" fill="#0090CC"/>
<g clip-path="url(#clip0_356_50)">
<path d="M5.28527 54.9734H94.6299C95.8426 54.9748 97.0052 55.4571 97.8627 56.3146C98.7203 57.1721 99.2026 58.3348 99.204 59.5475V192.031C99.2026 193.244 98.7203 194.407 97.8627 195.264C97.0052 196.122 95.8426 196.604 94.6299 196.605H5.28527C4.07256 196.604 2.90993 196.122 2.05241 195.264C1.1949 194.407 0.712545 193.244 0.711182 192.031V59.5475C0.712552 58.3348 1.19491 57.1721 2.05242 56.3146C2.90993 55.4571 4.07257 54.9748 5.28527 54.9734Z" fill="#F2F2F2"/>
<path d="M6.39406 58.2998H93.5209C94.1457 58.3005 94.7446 58.549 95.1863 58.9907C95.6281 59.4325 95.8766 60.0314 95.8773 60.6561V190.922C95.8766 191.547 95.6281 192.146 95.1863 192.588C94.7446 193.029 94.1457 193.278 93.5209 193.279H6.39406C5.76933 193.278 5.17039 193.029 4.72864 192.588C4.28689 192.146 4.03842 191.547 4.03772 190.922V60.6561C4.03842 60.0314 4.28689 59.4325 4.72864 58.9907C5.17039 58.549 5.76933 58.3005 6.39406 58.2998Z" fill="white"/>
<path d="M66.9415 106.955C66.9415 115.329 59.198 114.063 49.6459 114.063C40.0938 114.063 32.3503 115.329 32.3503 106.955C32.3503 98.5804 36.1328 83.7361 49.6459 83.7361C63.6245 83.7361 66.9415 98.5804 66.9415 106.955Z" fill="#2F2E41"/>
<path d="M87.2878 177.842C87.6343 177.183 87.8321 176.457 87.8675 175.713C87.9028 174.97 87.7747 174.228 87.4922 173.54C87.2097 172.851 86.7797 172.233 86.2325 171.729C85.6852 171.224 85.0341 170.846 84.3249 170.621L64.5102 128.704L55.4464 135.06L77.7736 174.264C77.4739 175.48 77.6308 176.765 78.2147 177.873C78.7985 178.982 79.7687 179.838 80.9415 180.279C82.1142 180.72 83.408 180.715 84.5776 180.266C85.7473 179.817 86.7116 178.955 87.2878 177.842Z" fill="#A0616A"/>
<path d="M70.0459 132.386L68.9133 130.614L68.3353 129.704L63.8858 122.729C63.2007 121.198 61.9364 120.001 60.3702 119.4C58.804 118.8 57.0635 118.844 55.5302 119.525C53.9969 120.205 52.7959 121.466 52.1904 123.03C51.585 124.594 51.6244 126.335 52.3 127.87L53.319 131.505L55.399 138.935C55.5253 139.392 55.7942 139.797 56.1667 140.091C56.3078 140.209 56.464 140.308 56.6311 140.385C56.9222 140.522 57.2392 140.596 57.561 140.602C57.8829 140.608 58.2023 140.545 58.4981 140.418C58.5075 140.413 58.5219 140.409 58.5314 140.404L63.9143 137.997L63.9237 137.992L68.032 136.153L69.0556 135.698C69.3491 135.568 69.611 135.376 69.8233 135.135C70.0482 134.886 70.2134 134.589 70.3064 134.267C70.4025 133.954 70.429 133.623 70.384 133.298C70.339 132.973 70.2236 132.662 70.0459 132.386Z" fill="#CCCCCC"/>
<path d="M41.6478 191.817C41.4465 191.483 41.1631 191.206 40.8244 191.012C40.4858 190.819 40.1032 190.715 39.7132 190.712C39.3232 190.708 38.9388 190.804 38.5964 190.991C38.2541 191.178 37.9653 191.449 37.7575 191.779C37.6677 191.914 37.5961 192.061 37.5444 192.215L37.2742 192.959H42.335L41.6478 191.817Z" fill="#2F2E41"/>
<path d="M49.5372 113.582C55.9649 113.582 61.1755 108.371 61.1755 101.944C61.1755 95.5161 55.9649 90.3054 49.5372 90.3054C43.1096 90.3054 37.8989 95.5161 37.8989 101.944C37.8989 108.371 43.1096 113.582 49.5372 113.582Z" fill="#A0616A"/>
<path d="M69.937 136.367C69.9086 135.95 69.8706 135.538 69.8234 135.135C69.6552 133.604 69.3507 132.091 68.9134 130.614C68.8234 130.292 68.7239 129.979 68.6149 129.671C67.2293 125.588 64.8216 121.928 61.621 119.038C60.3538 117.903 58.712 117.275 57.0104 117.275H40.6151C39.6084 117.275 38.6138 117.496 37.701 117.92C36.7882 118.345 35.9792 118.964 35.3306 119.734C34.682 120.504 34.2095 121.406 33.9461 122.378C33.6827 123.35 33.6349 124.367 33.8058 125.359C33.801 125.364 33.801 125.364 33.8058 125.369C33.9215 126.031 34.1339 126.673 34.4361 127.274L35.0994 128.596L39.5441 137.485L45.0739 148.545L45.3962 149.189L66.0041 154.857L66.0893 154.662C66.1652 154.492 66.2457 154.316 66.3167 154.146C66.4306 153.89 66.5395 153.634 66.6485 153.383C68.4839 149.208 69.599 144.752 69.9465 140.205V140.2C70.0241 138.924 70.0209 137.643 69.937 136.367Z" fill="#3F3D56"/>
<path d="M66.6482 153.383C66.5781 153.141 66.4676 152.914 66.3212 152.71C65.7906 152 65.1564 151.374 64.4399 150.852L64.4353 150.847C61.9381 148.952 56.9816 146.744 47.4051 146.687H47.3908C46.9519 146.687 46.5224 146.814 46.1536 147.052C45.7847 147.29 45.492 147.628 45.3105 148.028L45.0736 148.545L43.5479 151.899C43.4178 152.186 43.2133 152.433 42.9556 152.615C40.5343 154.33 28.8064 163.949 35.6914 185.069C36.3642 187.13 37.056 189.381 37.7573 191.779C37.8712 192.167 37.9849 192.561 38.0986 192.959H58.7396L58.2988 189.642C58.2695 189.425 58.2808 189.205 58.3322 188.992L66.6387 154.714L66.6766 154.567C66.7716 154.177 66.7618 153.768 66.6482 153.383Z" fill="#2F2E41"/>
<path d="M73.1259 115.01H82.1291C82.5061 115.01 82.8677 115.16 83.1343 115.427C83.4009 115.693 83.5506 116.055 83.5506 116.432V118.801C83.6762 118.801 83.7965 118.851 83.8853 118.94C83.9741 119.029 84.0241 119.149 84.0245 119.275V120.223C84.0241 120.348 83.9741 120.468 83.8853 120.557C83.7965 120.646 83.6762 120.696 83.5506 120.696V121.644C83.6762 121.645 83.7965 121.695 83.8853 121.783C83.9741 121.872 84.0241 121.992 84.0245 122.118V123.066C84.0241 123.191 83.9741 123.312 83.8853 123.4C83.7965 123.489 83.6762 123.539 83.5506 123.54V136.334C83.5506 136.711 83.4009 137.072 83.1343 137.339C82.8677 137.605 82.5061 137.755 82.1291 137.755H73.1259C72.7489 137.755 72.3873 137.605 72.1207 137.339C71.8541 137.072 71.7044 136.711 71.7043 136.334V116.432C71.7044 116.055 71.8541 115.693 72.1207 115.427C72.3873 115.16 72.7489 115.01 73.1259 115.01Z" fill="#3F3D56"/>
<path d="M72.652 136.334V116.432C72.6521 116.055 72.8018 115.693 73.0684 115.427C73.335 115.16 73.6966 115.01 74.0736 115.01H73.1259C72.7489 115.01 72.3873 115.16 72.1207 115.427C71.8541 115.693 71.7044 116.055 71.7043 116.432V136.334C71.7044 136.711 71.8541 137.072 72.1207 137.339C72.3873 137.605 72.7489 137.755 73.1259 137.755H74.0736C73.6966 137.755 73.335 137.605 73.0684 137.339C72.8018 137.072 72.6521 136.711 72.652 136.334Z" fill="#0090CC"/>
<path d="M77.3906 123.54C78.4374 123.54 79.2861 122.691 79.2861 121.644C79.2861 120.597 78.4374 119.749 77.3906 119.749C76.3438 119.749 75.4952 120.597 75.4952 121.644C75.4952 122.691 76.3438 123.54 77.3906 123.54Z" fill="white"/>
<path d="M74.9857 128.284C74.8318 128.497 74.6949 128.721 74.5762 128.954L51.2441 131.757L47.813 127.194L40.25 131.472L45.539 140.14C45.9663 140.841 46.6092 141.383 47.3712 141.687C48.1332 141.991 48.9732 142.039 49.7651 141.825L75.5726 134.843C76.3059 135.537 77.2334 135.992 78.2316 136.147C79.2298 136.301 80.2514 136.148 81.1605 135.708C82.0696 135.268 82.8232 134.561 83.321 133.682C83.8188 132.804 84.0372 131.794 83.9472 130.788C83.8572 129.782 83.463 128.827 82.8171 128.05C82.1711 127.274 81.3041 126.712 80.3313 126.441C79.3584 126.169 78.3259 126.2 77.371 126.529C76.4161 126.858 75.5842 127.471 74.9857 128.284Z" fill="#A0616A"/>
<path d="M51.0492 128.837L44.5099 120.365C43.7802 119.059 42.5835 118.078 41.1601 117.618C39.7367 117.159 38.1922 117.255 36.8368 117.887C35.4814 118.52 34.4154 119.642 33.8532 121.028C33.2909 122.414 33.2739 123.961 33.8057 125.359C33.8008 125.364 33.8008 125.364 33.8057 125.369C33.9032 125.627 34.0204 125.877 34.1562 126.117L35.0993 128.596L37.966 136.154C38.0744 136.44 38.2436 136.7 38.462 136.915C38.6805 137.131 38.943 137.296 39.2314 137.4C39.333 137.437 39.4376 137.465 39.544 137.485C40.0405 137.586 40.5569 137.506 40.9988 137.258L43.0743 136.097L50.4 132.003C50.6665 131.851 50.8978 131.645 51.0783 131.398C51.2589 131.15 51.3847 130.867 51.4472 130.567C51.5087 130.267 51.505 129.957 51.4363 129.659C51.3677 129.36 51.2357 129.08 51.0492 128.837Z" fill="#3F3D56"/>
<path d="M36.1412 104.111H40.7444L42.7752 97.1128L43.1812 104.111H45.3813L46.566 100.029L46.8029 104.111H63.1508C63.1508 95.7368 57.6349 88.948 50.8306 88.948H48.4613C41.6571 88.948 36.1412 95.7368 36.1412 104.111Z" fill="#2F2E41"/>
<path d="M171.131 95.2154H74.6597C73.447 95.214 72.2843 94.7317 71.4268 93.8742C70.5693 93.0166 70.0869 91.854 70.0856 90.6413V41.5741C70.0869 40.3614 70.5693 39.1987 71.4268 38.3412C72.2843 37.4837 73.447 37.0014 74.6597 37H171.131C172.344 37.0014 173.506 37.4837 174.364 38.3412C175.221 39.1987 175.704 40.3614 175.705 41.5741V90.6413C175.704 91.854 175.221 93.0167 174.364 93.8742C173.506 94.7317 172.344 95.214 171.131 95.2154Z" fill="#CCCCCC"/>
<path d="M170.022 91.8888H75.7685C75.1437 91.8881 74.5448 91.6397 74.103 91.1979C73.6613 90.7562 73.4128 90.1572 73.4121 89.5325V42.683C73.4128 42.0583 73.6613 41.4593 74.103 41.0176C74.5448 40.5758 75.1437 40.3274 75.7685 40.3267H170.022C170.647 40.3274 171.246 40.5758 171.687 41.0176C172.129 41.4593 172.378 42.0583 172.378 42.683V89.5325C172.378 90.1572 172.129 90.7562 171.687 91.1979C171.246 91.6397 170.647 91.8881 170.022 91.8888Z" fill="white"/>
<path d="M80.4436 104.235C80.2097 104.234 79.9781 104.187 79.7623 104.097C79.4401 103.967 79.1645 103.744 78.9716 103.455C78.7787 103.166 78.6775 102.826 78.6811 102.479V93.4605L92.2712 93.1169L81.6709 103.717C81.5108 103.88 81.3198 104.01 81.1092 104.099C80.8985 104.188 80.6723 104.234 80.4436 104.235Z" fill="#CCCCCC"/>
<path d="M158.546 64.0067H110.865C110.573 64.0072 110.285 63.9501 110.015 63.8389C109.746 63.7276 109.501 63.5643 109.295 63.3583C109.088 63.1524 108.925 62.9077 108.813 62.6385C108.701 62.3692 108.644 62.0805 108.644 61.789C108.644 61.4975 108.701 61.2089 108.813 60.9396C108.925 60.6703 109.088 60.4257 109.295 60.2197C109.501 60.0137 109.746 59.8504 110.015 59.7392C110.285 59.6279 110.573 59.5709 110.865 59.5713H158.546C159.134 59.5713 159.698 59.8049 160.114 60.2208C160.53 60.6368 160.764 61.2008 160.764 61.789C160.764 62.3772 160.53 62.9413 160.114 63.3572C159.698 63.7731 159.134 64.0067 158.546 64.0067Z" fill="#CCCCCC"/>
<path d="M143.022 54.5812H110.865C110.277 54.5812 109.713 54.3476 109.297 53.9316C108.881 53.5157 108.647 52.9517 108.647 52.3635C108.647 51.7753 108.881 51.2112 109.297 50.7953C109.713 50.3794 110.277 50.1458 110.865 50.1458H143.022C143.61 50.1458 144.174 50.3794 144.59 50.7953C145.006 51.2112 145.24 51.7753 145.24 52.3635C145.24 52.9517 145.006 53.5157 144.59 53.9316C144.174 54.3476 143.61 54.5812 143.022 54.5812Z" fill="#CCCCCC"/>
<path d="M91.1268 64.0066C94.9544 64.0066 98.0572 60.9037 98.0572 57.0762C98.0572 53.2486 94.9544 50.1458 91.1268 50.1458C87.2993 50.1458 84.1964 53.2486 84.1964 57.0762C84.1964 60.9037 87.2993 64.0066 91.1268 64.0066Z" fill="#0090CC"/>
<path d="M143.852 82.0692C145.077 82.0692 146.07 81.0763 146.07 79.8515C146.07 78.6267 145.077 77.6338 143.852 77.6338C142.627 77.6338 141.634 78.6267 141.634 79.8515C141.634 81.0763 142.627 82.0692 143.852 82.0692Z" fill="#E6E6E6"/>
<path d="M151.614 82.0692C152.839 82.0692 153.832 81.0763 153.832 79.8515C153.832 78.6267 152.839 77.6338 151.614 77.6338C150.389 77.6338 149.396 78.6267 149.396 79.8515C149.396 81.0763 150.389 82.0692 151.614 82.0692Z" fill="#E6E6E6"/>
<path d="M159.376 82.0692C160.601 82.0692 161.594 81.0763 161.594 79.8515C161.594 78.6267 160.601 77.6338 159.376 77.6338C158.151 77.6338 157.158 78.6267 157.158 79.8515C157.158 81.0763 158.151 82.0692 159.376 82.0692Z" fill="#E6E6E6"/>
<path d="M250.74 129.368H340.085C341.298 129.37 342.46 129.852 343.318 130.709C344.175 131.567 344.658 132.73 344.659 133.942V266.426C344.658 267.639 344.175 268.801 343.318 269.659C342.46 270.516 341.298 270.999 340.085 271H250.74C249.528 270.999 248.365 270.516 247.507 269.659C246.65 268.801 246.168 267.639 246.166 266.426V133.942C246.168 132.73 246.65 131.567 247.507 130.709C248.365 129.852 249.528 129.37 250.74 129.368Z" fill="#F2F2F2"/>
<path d="M251.849 132.695H338.976C339.601 132.696 340.2 132.944 340.641 133.386C341.083 133.827 341.332 134.426 341.332 135.051V265.317C341.332 265.942 341.083 266.541 340.641 266.983C340.2 267.424 339.601 267.673 338.976 267.674H251.849C251.224 267.673 250.625 267.424 250.184 266.983C249.742 266.541 249.493 265.942 249.493 265.317V135.051C249.493 134.426 249.742 133.827 250.184 133.386C250.625 132.944 251.224 132.696 251.849 132.695Z" fill="white"/>
<path d="M254.493 196.444H158.022C156.809 196.443 155.647 195.96 154.789 195.103C153.931 194.245 153.449 193.082 153.448 191.87V142.803C153.449 141.59 153.931 140.427 154.789 139.57C155.647 138.712 156.809 138.23 158.022 138.229H254.493C255.706 138.23 256.868 138.712 257.726 139.57C258.583 140.427 259.066 141.59 259.067 142.803V191.87C259.066 193.083 258.583 194.245 257.726 195.103C256.868 195.96 255.706 196.443 254.493 196.444Z" fill="#CCCCCC"/>
<path d="M253.384 193.118H159.131C158.506 193.117 157.907 192.869 157.465 192.427C157.024 191.985 156.775 191.386 156.774 190.762V143.912C156.775 143.287 157.024 142.688 157.465 142.247C157.907 141.805 158.506 141.556 159.131 141.556H253.384C254.009 141.556 254.608 141.805 255.05 142.247C255.491 142.688 255.74 143.287 255.741 143.912V190.762C255.74 191.386 255.491 191.985 255.05 192.427C254.608 192.869 254.009 193.117 253.384 193.118Z" fill="white"/>
<path d="M247.926 204.946L237.325 194.346L250.915 194.69V203.708C250.919 204.055 250.818 204.395 250.625 204.684C250.432 204.973 250.156 205.196 249.834 205.326C249.618 205.416 249.387 205.463 249.153 205.464C248.924 205.463 248.698 205.417 248.487 205.328C248.277 205.239 248.086 205.109 247.926 204.946Z" fill="#CCCCCC"/>
<path d="M241.908 165.236H194.227C193.935 165.236 193.647 165.179 193.377 165.068C193.108 164.957 192.863 164.793 192.657 164.587C192.45 164.381 192.287 164.137 192.175 163.867C192.063 163.598 192.006 163.31 192.006 163.018C192.006 162.727 192.063 162.438 192.175 162.169C192.287 161.899 192.45 161.655 192.657 161.449C192.863 161.243 193.108 161.079 193.377 160.968C193.647 160.857 193.935 160.8 194.227 160.8H241.908C242.2 160.8 242.488 160.857 242.758 160.968C243.027 161.079 243.272 161.243 243.478 161.449C243.685 161.655 243.848 161.899 243.96 162.169C244.072 162.438 244.129 162.727 244.129 163.018C244.129 163.31 244.072 163.598 243.96 163.867C243.848 164.137 243.685 164.381 243.478 164.587C243.272 164.793 243.027 164.957 242.758 165.068C242.488 165.179 242.2 165.236 241.908 165.236Z" fill="#CCCCCC"/>
<path d="M226.384 155.81H194.227C193.936 155.81 193.647 155.753 193.378 155.641C193.109 155.53 192.865 155.366 192.659 155.16C192.453 154.954 192.29 154.71 192.178 154.441C192.067 154.172 192.009 153.883 192.009 153.592C192.009 153.301 192.067 153.013 192.178 152.744C192.29 152.474 192.453 152.23 192.659 152.024C192.865 151.818 193.109 151.655 193.378 151.543C193.647 151.432 193.936 151.375 194.227 151.375H226.384C226.972 151.375 227.536 151.608 227.952 152.024C228.368 152.44 228.602 153.004 228.602 153.592C228.602 154.18 228.368 154.745 227.952 155.16C227.536 155.576 226.972 155.81 226.384 155.81Z" fill="#CCCCCC"/>
<path d="M174.489 165.235C178.317 165.235 181.42 162.132 181.42 158.305C181.42 154.477 178.317 151.375 174.489 151.375C170.662 151.375 167.559 154.477 167.559 158.305C167.559 162.132 170.662 165.235 174.489 165.235Z" fill="#0090CC"/>
<path d="M227.214 183.298C228.439 183.298 229.432 182.305 229.432 181.08C229.432 179.855 228.439 178.863 227.214 178.863C225.99 178.863 224.997 179.855 224.997 181.08C224.997 182.305 225.99 183.298 227.214 183.298Z" fill="#E6E6E6"/>
<path d="M234.976 183.298C236.201 183.298 237.194 182.305 237.194 181.08C237.194 179.855 236.201 178.863 234.976 178.863C233.751 178.863 232.759 179.855 232.759 181.08C232.759 182.305 233.751 183.298 234.976 183.298Z" fill="#E6E6E6"/>
<path d="M242.738 183.298C243.963 183.298 244.956 182.305 244.956 181.08C244.956 179.855 243.963 178.863 242.738 178.863C241.514 178.863 240.521 179.855 240.521 181.08C240.521 182.305 241.514 183.298 242.738 183.298Z" fill="#E6E6E6"/>
<path d="M255.553 226.143C255.937 225.561 256.444 225.072 257.037 224.707C257.631 224.343 258.298 224.113 258.99 224.035C259.682 223.956 260.383 224.03 261.043 224.251C261.704 224.473 262.308 224.836 262.813 225.316L277.859 217.55L276.924 226.299L262.779 232.333C261.916 233.128 260.792 233.578 259.619 233.599C258.446 233.62 257.307 233.21 256.416 232.447C255.526 231.684 254.946 230.621 254.787 229.459C254.628 228.297 254.9 227.117 255.553 226.143Z" fill="#FFB8B8"/>
<path d="M302.404 187.244C301.236 186.331 299.805 185.819 298.324 185.786C296.842 185.753 295.389 186.199 294.182 187.059C293.638 187.45 293.151 187.916 292.737 188.443L279.526 212.946L267.334 222.157C266.93 222.462 266.648 222.9 266.538 223.394C266.455 223.756 266.47 224.134 266.58 224.489L267.779 228.355C267.908 228.771 268.159 229.138 268.5 229.407C268.633 229.507 268.775 229.593 268.926 229.663C268.944 229.673 268.963 229.681 268.983 229.687C269.249 229.801 269.535 229.86 269.824 229.859C270.114 229.858 270.4 229.798 270.665 229.682L284.956 223.484L285.113 223.413C289.93 221.282 293.82 217.489 296.073 212.728L303.588 196.868C304.702 195.433 305.203 193.615 304.981 191.812C304.759 190.009 303.832 188.366 302.404 187.244Z" fill="#3F3D56"/>
<path d="M303.918 178.215C310.346 178.215 315.556 173.004 315.556 166.576C315.556 160.149 310.346 154.938 303.918 154.938C297.49 154.938 292.28 160.149 292.28 166.576C292.28 173.004 297.49 178.215 303.918 178.215Z" fill="#FFB8B8"/>
<path d="M311.796 244.405L311.677 243.5L311.127 239.373L310.526 234.866L308.389 235.231L307.564 235.368L306.73 235.511L306.455 235.558L285.255 239.159L282.616 237.572L282.559 237.539L282.583 237.78L283.08 242.941L285.454 267.59H314.89L311.796 244.405Z" fill="#2F2E41"/>
<path d="M319.946 197.053C319.568 192.831 317.573 188.919 314.378 186.135C311.303 183.412 307.272 182.021 303.171 182.268C299.262 182.529 296.258 184.135 294.182 187.059C293.115 188.624 292.326 190.362 291.851 192.196C289.491 200.687 287.003 213.126 285.113 223.413C284.051 229.156 283.18 234.231 282.616 237.572C282.606 237.643 282.597 237.709 282.583 237.78C282.365 239.083 282.199 240.102 282.09 240.78C282.021 241.197 282.078 241.626 282.255 242.011C282.431 242.396 282.719 242.72 283.08 242.94C283.085 242.945 283.094 242.95 283.099 242.955C285.491 244.385 288.221 245.153 291.008 245.177C294.382 245.177 298.428 244.002 302.688 240.206C302.977 239.944 303.35 239.791 303.74 239.774C304.131 239.758 304.515 239.879 304.825 240.116L305.29 240.476L309.876 244.044C310.235 244.324 310.673 244.482 311.127 244.495C311.354 244.505 311.58 244.474 311.796 244.405C311.815 244.402 311.834 244.397 311.852 244.39C312.183 244.283 312.482 244.096 312.723 243.845C312.965 243.595 313.141 243.289 313.236 242.955C313.492 242.064 313.776 241.035 314.089 239.889C314.217 239.41 314.349 238.908 314.487 238.387C315.089 236.084 315.757 233.411 316.411 230.502C318.695 220.333 320.865 207.269 319.946 197.053Z" fill="#3F3D56"/>
<path d="M300.78 245.621C300.723 244.927 300.82 244.228 301.062 243.575C301.305 242.922 301.687 242.33 302.183 241.841C302.679 241.352 303.276 240.978 303.933 240.744C304.589 240.511 305.289 240.424 305.982 240.491L313.029 225.094L317.693 232.556L310.286 246.033C310.097 247.19 309.491 248.239 308.581 248.979C307.671 249.719 306.522 250.1 305.35 250.049C304.178 249.998 303.066 249.52 302.223 248.703C301.381 247.887 300.867 246.791 300.78 245.621Z" fill="#FFB8B8"/>
<path d="M324.386 210.06L320.51 192.94C320.5 191.251 319.87 189.624 318.74 188.37C317.609 187.115 316.057 186.32 314.378 186.135C314.136 186.111 313.89 186.097 313.639 186.097C312.734 186.1 311.838 186.28 311.003 186.629C310.168 186.978 309.41 187.488 308.772 188.13C308.134 188.772 307.63 189.534 307.287 190.371C306.943 191.209 306.769 192.106 306.773 193.011L311.502 220.442L311.488 220.499L308.981 229.962L307.593 235.217C307.578 235.266 307.569 235.317 307.564 235.368C307.475 235.809 307.534 236.267 307.73 236.671C307.888 237.011 308.133 237.302 308.441 237.515L311.127 239.372L311.767 239.818C312.123 240.066 312.547 240.198 312.98 240.197C313.148 240.197 313.315 240.178 313.478 240.14C313.497 240.135 313.511 240.13 313.53 240.126C313.727 240.074 313.915 239.995 314.089 239.889C314.412 239.693 314.677 239.415 314.857 239.083L322.277 225.384C324.812 220.7 325.561 215.255 324.386 210.06Z" fill="#3F3D56"/>
<path opacity="0.2" d="M307.716 204.578L311.981 222.584L305.821 237.747L310.085 223.058L307.716 204.578Z" fill="black"/>
<path d="M313.337 173.571C314.312 173.223 315.209 172.686 315.975 171.989C316.314 171.687 316.678 171.406 317.016 171.104C320 168.435 320.897 163.845 319.565 160.069C318.234 156.293 314.922 153.39 311.138 152.082C307.354 150.774 303.16 150.953 299.318 152.079C295.179 153.291 291.034 156.022 290.051 160.221C289.789 161.339 289.779 162.579 290.54 163.522C290.769 163.807 291.069 164.026 291.409 164.159C292.751 164.673 293.498 163.624 294.499 163.178C295.875 162.565 297.568 163.227 298.526 164.389C299.484 165.552 299.838 167.096 299.985 168.595C300.015 169.519 300.16 170.436 300.417 171.324C300.551 171.767 300.795 172.17 301.128 172.492C301.461 172.814 301.87 173.047 302.318 173.167C303.397 173.366 304.435 172.623 305.115 171.76C305.794 170.897 306.275 169.873 307.078 169.124C307.881 168.375 309.19 167.979 310.07 168.636C310.364 168.885 310.613 169.183 310.804 169.518C312.153 171.589 311.988 171.499 313.337 173.571Z" fill="#2F2E41"/>
<path d="M257.602 216.178L249.392 219.872C249.048 220.027 248.779 220.312 248.646 220.664C248.512 221.017 248.524 221.408 248.678 221.752L249.65 223.913C249.536 223.964 249.447 224.059 249.402 224.177C249.358 224.294 249.362 224.425 249.413 224.539L249.802 225.403C249.853 225.518 249.948 225.607 250.066 225.651C250.183 225.696 250.313 225.692 250.428 225.641L250.817 226.505C250.703 226.557 250.613 226.652 250.569 226.77C250.524 226.887 250.528 227.017 250.579 227.132L250.968 227.996C251.02 228.111 251.115 228.2 251.232 228.244C251.35 228.289 251.48 228.285 251.595 228.234L256.844 239.901C256.999 240.245 257.284 240.514 257.636 240.647C257.989 240.781 258.38 240.769 258.724 240.615L266.934 236.921C267.278 236.766 267.546 236.481 267.68 236.129C267.814 235.776 267.802 235.385 267.647 235.041L259.482 216.892C259.327 216.548 259.042 216.279 258.69 216.146C258.337 216.012 257.946 216.024 257.602 216.178Z" fill="#3F3D56"/>
<path d="M266.125 233.971L264.969 231.398L261.937 224.66L259.273 218.741C259.126 218.412 258.853 218.154 258.515 218.025C258.178 217.896 257.803 217.907 257.473 218.054L252.952 220.087L250.882 221.02C250.553 221.17 250.297 221.443 250.169 221.78C250.041 222.117 250.052 222.492 250.199 222.821L252.952 228.943L254.009 231.289L257.051 238.055C257.201 238.384 257.475 238.641 257.813 238.769C258.151 238.896 258.526 238.885 258.857 238.738L265.443 235.771C265.772 235.623 266.028 235.35 266.156 235.012C266.284 234.675 266.273 234.3 266.125 233.971Z" fill="#0090CC"/>
</g>
<defs>
<clipPath id="clip0_356_50">
<rect width="343.948" height="234" fill="white" transform="translate(0.711182 37)"/>
</clipPath>
</defs>
</svg>
