<svg width="50" height="64" viewBox="0 0 50 64" fill="none" xmlns="http://www.w3.org/2000/svg">
<path d="M31.25 0.75L50 19.5V57C50 58.6576 49.3415 60.2473 48.1694 61.4194C46.9973 62.5915 45.4076 63.25 43.75 63.25H6.25C4.5924 63.25 3.00268 62.5915 1.83058 61.4194C0.65848 60.2473 0 58.6576 0 57V7C0 5.3424 0.65848 3.75268 1.83058 2.58058C3.00268 1.40848 4.5924 0.75 6.25 0.75H31.25ZM43.75 57V22.625H28.125V7H6.25V57H43.75ZM40.625 35.125V53.875H9.375L25 38.25L31.25 44.5M18.75 27.3125C18.75 28.5557 18.2561 29.748 17.3771 30.6271C16.498 31.5061 15.3057 32 14.0625 32C12.8193 32 11.627 31.5061 10.7479 30.6271C9.86886 29.748 9.375 28.5557 9.375 27.3125C9.375 26.0693 9.86886 24.877 10.7479 23.9979C11.627 23.1189 12.8193 22.625 14.0625 22.625C15.3057 22.625 16.498 23.1189 17.3771 23.9979C18.2561 24.877 18.75 26.0693 18.75 27.3125Z" fill="#0E296B"/>
</svg>
