<svg width="60" height="60" viewBox="0 0 60 60" fill="none" xmlns="http://www.w3.org/2000/svg">
<rect x="0.25" y="0.25" width="59.5" height="59.5" rx="14.75" fill="white"/>
<path d="M46 30.0967C46 21.258 38.8387 14.0967 30 14.0967C21.1613 14.0967 14 21.258 14 30.0967C14 38.0825 19.851 44.7018 27.5 45.9031V34.7218H23.4355V30.0967H27.5V26.5715C27.5 22.5618 29.8871 20.347 33.5432 20.347C35.2942 20.347 37.1252 20.6593 37.1252 20.6593V24.5947H35.1071C33.12 24.5947 32.5 25.8283 32.5 27.0935V30.0967H36.9374L36.2277 34.7218H32.5V45.9031C40.149 44.7018 46 38.0825 46 30.0967Z" fill="#105CA0"/>
<rect x="0.25" y="0.25" width="59.5" height="59.5" rx="14.75" stroke="black" stroke-width="0.5"/>
</svg>
