<svg width="335" height="308" viewBox="0 0 335 308" fill="none" xmlns="http://www.w3.org/2000/svg">
<path d="M249.69 22.5872C274.775 37.0982 288.068 63.5586 302.139 88.292C316.966 114.354 338.624 140.863 333.673 170.205C328.743 199.425 296.238 214.842 276.906 237.837C257.233 261.238 249.12 298.501 219.026 306.575C188.845 314.673 162.113 286.028 132.341 276.625C104.499 267.832 71.6566 271.88 49.7539 253.114C27.1015 233.705 18.937 203.436 13.3868 174.706C7.74101 145.482 1.83713 112.893 17.7459 87.4314C33.3402 62.4734 68.1919 58.6745 94.6624 44.628C118.405 32.0293 138.49 12.9444 165.299 9.13292C194.09 5.03968 224.733 8.15016 249.69 22.5872Z" fill="#0090CC"/>
<g clip-path="url(#clip0_356_37)">
<path d="M164.476 98.0625H165.734V63.6031C165.734 58.3136 167.836 53.2407 171.576 49.5005C175.316 45.7602 180.389 43.6589 185.679 43.6589H258.686C263.976 43.6589 269.049 45.7602 272.789 49.5005C276.529 53.2407 278.63 58.3136 278.63 63.6031V252.651C278.63 257.94 276.529 263.013 272.789 266.753C269.049 270.494 263.976 272.595 258.686 272.595H185.679C180.389 272.595 175.316 270.494 171.576 266.753C167.836 263.013 165.734 257.94 165.734 252.651V122.591H164.476V98.0625Z" fill="#3F3D56"/>
<path d="M184.874 48.8479H194.404C193.966 49.9223 193.798 51.0881 193.917 52.2424C194.035 53.3968 194.435 54.5043 195.083 55.4674C195.73 56.4305 196.604 57.2197 197.628 57.7653C198.652 58.311 199.795 58.5964 200.955 58.5965H242.78C243.94 58.5964 245.083 58.311 246.107 57.7653C247.131 57.2197 248.005 56.4305 248.653 55.4674C249.3 54.5043 249.7 53.3968 249.819 52.2424C249.937 51.0881 249.77 49.9223 249.332 48.8479H258.232C260.188 48.8478 262.125 49.233 263.932 49.9815C265.739 50.73 267.381 51.827 268.764 53.2101C270.147 54.5931 271.244 56.235 271.993 58.042C272.741 59.8491 273.127 61.7858 273.127 63.7418V252.512C273.127 256.463 271.558 260.251 268.764 263.044C265.971 265.838 262.183 267.407 258.233 267.407H184.874C180.924 267.407 177.135 265.838 174.342 263.044C171.549 260.251 169.979 256.463 169.979 252.512V63.7426C169.979 59.7924 171.549 56.0039 174.342 53.2107C177.135 50.4175 180.924 48.8483 184.874 48.8483V48.8479Z" fill="white"/>
<path d="M221.553 218.011C230.894 218.011 238.467 210.439 238.467 201.098C238.467 191.757 230.894 184.185 221.553 184.185C212.212 184.185 204.64 191.757 204.64 201.098C204.64 210.439 212.212 218.011 221.553 218.011Z" fill="#CCCCCC"/>
<path d="M221.553 217.167C230.429 217.167 237.624 209.972 237.624 201.097C237.624 192.221 230.429 185.026 221.553 185.026C212.678 185.026 205.483 192.221 205.483 201.097C205.483 209.972 212.678 217.167 221.553 217.167Z" fill="white"/>
<path d="M218.87 208.127L213.808 201.618L216.752 199.328L219.148 202.41L227.246 193.862L229.954 196.428L218.87 208.127Z" fill="#0090CC"/>
<path d="M180.807 233.989L190.586 229.426V232.034H213.404V235.945H190.586V238.553L180.807 233.989Z" fill="#0090CC"/>
<path d="M260.029 233.989L250.25 229.426V232.034H227.432V235.946H250.25V238.553L260.029 233.989Z" fill="#0090CC"/>
<path d="M261.047 78.998H181.825V162.202H261.047V78.998Z" fill="#E6E6E6"/>
<path d="M109 128.967C107.901 125.461 105.399 122.246 101.939 121.06C98.4801 119.873 92.4448 120.982 90.8137 124.272C88.4626 129.013 89.5187 134.819 90.7656 139.967C91.4157 139.933 92.0717 139.906 92.7297 139.881L93.6607 136.778V139.85C98.7964 139.691 104.144 139.791 109.494 139.894C109.973 136.25 110.101 132.472 109 128.967Z" fill="#2F2E41"/>
<path d="M61.8076 262.549L66.1284 264.359L75.1681 248.557L68.7914 245.884L61.8076 262.549Z" fill="#A0616A"/>
<path d="M58.9507 266.275L72.8814 272.113L72.9553 271.937C73.5575 270.499 73.5641 268.88 72.9734 267.437C72.3827 265.994 71.2433 264.845 69.8055 264.242L61.297 260.676L58.9507 266.275Z" fill="#2F2E41"/>
<path d="M125.165 187.9C125.435 187.511 125.616 187.067 125.696 186.6C125.776 186.133 125.752 185.654 125.627 185.197C125.501 184.74 125.277 184.316 124.97 183.955C124.664 183.594 124.281 183.305 123.851 183.108L114.565 155.086L108.346 158.404L119.429 184.904C119.145 185.649 119.144 186.474 119.427 187.22C119.711 187.966 120.258 188.582 120.965 188.952C121.673 189.321 122.491 189.418 123.265 189.224C124.04 189.03 124.716 188.559 125.165 187.9V187.9Z" fill="#A0616A"/>
<path d="M113.716 267.572H118.401L120.629 249.503H113.715L113.716 267.572Z" fill="#A0616A"/>
<path d="M112.522 272.113H127.626V271.922C127.626 270.363 127.007 268.867 125.904 267.765C124.802 266.662 123.307 266.042 121.747 266.042H112.521L112.522 272.113Z" fill="#2F2E41"/>
<path d="M94.9344 164.801L93.8727 167.561L94.0849 170.32L114.465 167.773L113.829 165.438L111.494 162.678L94.9344 164.801Z" fill="#A0616A"/>
<path d="M101.502 139.966C105.6 139.966 108.922 136.644 108.922 132.547C108.922 128.449 105.6 125.127 101.502 125.127C97.4049 125.127 94.0831 128.449 94.0831 132.547C94.0831 136.644 97.4049 139.966 101.502 139.966Z" fill="#A0616A"/>
<path d="M93.7603 167.759L113.969 165.609L114.843 162.746C115.115 162.373 117.68 158.738 117.111 155.104C116.97 154.248 116.655 153.43 116.184 152.701C115.714 151.971 115.099 151.347 114.377 150.866L109.465 145.113L105.143 142.54L96.6216 141.688L96.5922 141.694L88.942 143.426L89.035 157.449L93.7603 167.759Z" fill="#E6E6E6"/>
<path d="M113.46 169.245L119.122 168.572L119.107 168.394C119.055 167.769 117.817 153.045 116.548 149.663C115.253 146.209 109.642 145.133 109.404 145.088L109.335 145.076L108.088 145.824L111.529 156.578L113.46 169.245Z" fill="#E6E6E6"/>
<path d="M93.5352 170.277V174.938C93.5352 174.938 88.078 182.03 91.0183 187.486C91.0183 187.486 84.7219 199.239 84.3031 203.437L78.4224 222.746C78.4224 222.746 63.7312 237.437 64.9919 247.93L64.1523 251.288L73.808 255.486L75.9068 252.548L92.2776 224.424L106.129 198.82L108.648 229.042C108.648 229.042 106.969 252.548 111.586 255.068L112.006 258.846H121.803V255.254C121.803 255.254 125.438 242.475 123.339 232.82L124.178 192.105C124.178 192.105 120.401 174.895 115.784 171.957L114.104 167.758L93.5352 170.277Z" fill="#2F2E41"/>
<path d="M100.931 179.009C100.759 179.048 100.591 179.1 100.428 179.164L87.4746 170.249L87.7711 166.44L82.0818 165.242L80.9021 171.933C80.8067 172.474 80.8894 173.031 81.1377 173.521C81.3859 174.01 81.7864 174.406 82.2789 174.649L98.3235 182.562C98.3844 183.235 98.6487 183.873 99.0814 184.393C99.5141 184.912 100.095 185.287 100.746 185.468C101.397 185.649 102.088 185.628 102.726 185.407C103.365 185.186 103.921 184.776 104.321 184.231C104.721 183.686 104.946 183.033 104.965 182.357C104.984 181.682 104.797 181.016 104.429 180.449C104.061 179.883 103.529 179.441 102.904 179.184C102.279 178.927 101.591 178.866 100.931 179.01V179.009Z" fill="#A0616A"/>
<path d="M87.598 170.74L90.2344 153.152L92.3983 144.067L89.1651 143.392C89.0773 143.359 86.4445 142.469 84.3174 143.902C82.7876 144.935 81.9401 146.891 81.7986 149.719L80.9427 169.844L87.598 170.74Z" fill="#E6E6E6"/>
<path d="M106.6 122.885C105.175 122.016 103.542 121.546 101.872 121.524C100.203 121.502 98.5582 121.929 97.1101 122.76C95.6621 123.591 94.464 124.796 93.641 126.249C92.8181 127.702 92.4005 129.349 92.4321 131.018C96.5792 131.209 100.935 131.256 105.354 131.267L106.397 128.712L107.013 131.269C108.359 131.269 109.707 131.267 111.059 131.264C111.114 129.599 110.731 127.949 109.949 126.479C109.166 125.008 108.012 123.769 106.6 122.885Z" fill="#2F2E41"/>
<g clip-path="url(#clip1_356_37)">
<path d="M209.116 117.045L196.217 121.658L196.591 122.703L209.49 118.09L209.116 117.045Z" fill="#3F3D56"/>
<path d="M212.134 134.89L208.772 131.987C208.539 131.785 208.395 131.499 208.372 131.19C208.349 130.882 208.45 130.578 208.652 130.344C208.854 130.11 209.141 129.965 209.449 129.943C209.757 129.92 210.062 130.021 210.296 130.223L213.657 133.125C213.773 133.225 213.868 133.347 213.937 133.484C214.006 133.62 214.047 133.769 214.058 133.922C214.069 134.075 214.051 134.228 214.002 134.374C213.954 134.519 213.878 134.653 213.778 134.769C213.678 134.885 213.556 134.98 213.419 135.049C213.282 135.118 213.133 135.159 212.981 135.17C212.828 135.181 212.675 135.162 212.529 135.114C212.384 135.066 212.249 134.99 212.134 134.89Z" fill="#3F3D56"/>
<path d="M231.261 129.875L227.254 131.79C226.976 131.923 226.655 131.94 226.364 131.837C226.072 131.734 225.833 131.519 225.7 131.24C225.567 130.962 225.55 130.641 225.653 130.35C225.756 130.058 225.971 129.819 226.249 129.686L230.256 127.772C230.535 127.639 230.856 127.622 231.147 127.725C231.439 127.828 231.677 128.042 231.811 128.321C231.944 128.6 231.961 128.921 231.858 129.212C231.755 129.504 231.54 129.742 231.261 129.875Z" fill="#3F3D56"/>
<path d="M246.46 145.157C243.958 145.157 241.511 144.415 239.43 143.025C237.349 141.634 235.728 139.658 234.77 137.346C233.812 135.034 233.562 132.489 234.05 130.035C234.538 127.58 235.743 125.325 237.513 123.556C239.282 121.786 241.537 120.581 243.992 120.093C246.446 119.605 248.991 119.855 251.303 120.813C253.615 121.771 255.591 123.392 256.982 125.473C258.372 127.554 259.114 130.001 259.114 132.503C259.11 135.858 257.776 139.074 255.404 141.447C253.032 143.819 249.815 145.153 246.46 145.157ZM246.46 121.021C244.189 121.021 241.969 121.695 240.081 122.956C238.193 124.218 236.721 126.011 235.852 128.109C234.983 130.207 234.756 132.516 235.199 134.743C235.642 136.971 236.736 139.017 238.341 140.622C239.947 142.228 241.993 143.322 244.22 143.765C246.448 144.208 248.756 143.98 250.854 143.111C252.952 142.242 254.746 140.771 256.007 138.882C257.269 136.994 257.942 134.774 257.942 132.503C257.939 129.459 256.728 126.541 254.576 124.388C252.423 122.236 249.505 121.025 246.46 121.021Z" fill="#3F3D56"/>
<path d="M247.018 135.165C247.999 135.165 248.794 134.37 248.794 133.389C248.794 132.408 247.999 131.613 247.018 131.613C246.037 131.613 245.241 132.408 245.241 133.389C245.241 134.37 246.037 135.165 247.018 135.165Z" fill="#3F3D56"/>
<path d="M194.455 145.329C192.084 145.329 189.766 144.626 187.794 143.308C185.823 141.991 184.286 140.118 183.378 137.928C182.471 135.737 182.233 133.326 182.696 131C183.159 128.674 184.301 126.538 185.977 124.861C187.654 123.184 189.791 122.042 192.116 121.58C194.442 121.117 196.853 121.355 199.044 122.262C201.235 123.17 203.107 124.706 204.425 126.678C205.742 128.65 206.445 130.968 206.445 133.339C206.442 136.518 205.177 139.566 202.93 141.813C200.682 144.061 197.634 145.326 194.455 145.329ZM194.455 122.46C192.304 122.46 190.2 123.098 188.411 124.293C186.622 125.489 185.227 127.188 184.404 129.176C183.58 131.164 183.365 133.351 183.785 135.462C184.205 137.572 185.241 139.511 186.762 141.032C188.284 142.554 190.222 143.59 192.333 144.01C194.443 144.43 196.631 144.214 198.619 143.391C200.607 142.567 202.306 141.173 203.502 139.384C204.697 137.595 205.335 135.491 205.335 133.339C205.332 130.455 204.185 127.689 202.145 125.65C200.105 123.61 197.34 122.463 194.455 122.46Z" fill="#3F3D56"/>
<path d="M194.455 135.115C195.436 135.115 196.232 134.32 196.232 133.339C196.232 132.358 195.436 131.563 194.455 131.563C193.474 131.563 192.679 132.358 192.679 133.339C192.679 134.32 193.474 135.115 194.455 135.115Z" fill="#3F3D56"/>
<path d="M218.546 135.177C219.684 135.177 220.606 134.255 220.606 133.117C220.606 131.98 219.684 131.058 218.546 131.058C217.409 131.058 216.486 131.98 216.486 133.117C216.486 134.255 217.409 135.177 218.546 135.177Z" fill="#3F3D56"/>
<path d="M194.912 133.213L194.102 132.454L208.56 117.03L234.362 109.308L247.167 131.782L246.202 132.331L233.834 110.625L209.165 118.008L194.912 133.213Z" fill="#3F3D56"/>
<path d="M216.797 132.513H205.887V133.623H216.797V132.513Z" fill="#3F3D56"/>
<path d="M209.418 111.715H208.307V117.519H209.418V111.715Z" fill="#3F3D56"/>
<path d="M231.004 98.581L229.948 98.9221L233.57 110.137L234.626 109.796L231.004 98.581Z" fill="#3F3D56"/>
<path d="M209.307 116.789L208.349 117.35L217.452 132.892L218.41 132.331L209.307 116.789Z" fill="#3F3D56"/>
<path d="M239.267 119.053L219.729 132.376L220.354 133.293L239.892 119.97L239.267 119.053Z" fill="#3F3D56"/>
<path d="M210.992 112.407H206.552C206.243 112.407 205.946 112.284 205.728 112.065C205.509 111.847 205.386 111.55 205.386 111.241C205.386 110.932 205.509 110.635 205.728 110.417C205.946 110.198 206.243 110.075 206.552 110.075H210.992C211.302 110.075 211.598 110.198 211.817 110.417C212.035 110.635 212.158 110.932 212.158 111.241C212.158 111.55 212.035 111.847 211.817 112.065C211.598 112.284 211.302 112.407 210.992 112.407Z" fill="#0090CC"/>
<path d="M232.641 99.8616H228.2C227.891 99.8616 227.595 99.7388 227.376 99.5202C227.158 99.3016 227.035 99.0051 227.035 98.696C227.035 98.3868 227.158 98.0903 227.376 97.8717C227.595 97.6531 227.891 97.5303 228.2 97.5303H232.641C232.95 97.5303 233.247 97.6531 233.465 97.8717C233.684 98.0903 233.807 98.3868 233.807 98.696C233.807 99.0051 233.684 99.3016 233.465 99.5202C233.247 99.7388 232.95 99.8616 232.641 99.8616Z" fill="#0090CC"/>
<path d="M235.934 113.52L232.227 105.694L232.277 105.67C232.534 105.549 232.812 105.479 233.096 105.465C233.38 105.45 233.664 105.492 233.932 105.588C234.199 105.684 234.446 105.831 234.656 106.022C234.867 106.213 235.038 106.443 235.16 106.7L237.014 110.613C237.135 110.87 237.205 111.148 237.219 111.432C237.233 111.716 237.192 112 237.096 112.268C237 112.535 236.853 112.782 236.662 112.992C236.471 113.203 236.241 113.374 235.984 113.496L235.934 113.52Z" fill="#3F3D56"/>
<path d="M224.601 114.895C224.135 114.894 223.681 114.742 223.307 114.462C222.934 114.182 222.66 113.79 222.528 113.342L222.512 113.289L230.818 110.838L230.833 110.891C230.914 111.164 230.94 111.45 230.91 111.733C230.88 112.015 230.794 112.289 230.658 112.539C230.522 112.789 230.339 113.009 230.118 113.188C229.896 113.367 229.642 113.5 229.37 113.58L225.217 114.806C225.017 114.865 224.81 114.895 224.601 114.895Z" fill="#3F3D56"/>
<path d="M203.797 137.444H185.064V137.666H203.797V137.444Z" fill="#3F3D56"/>
<path d="M203.797 139.665H185.064V139.887H203.797V139.665Z" fill="#3F3D56"/>
<path d="M256.419 137.444H237.687V137.666H256.419V137.444Z" fill="#3F3D56"/>
<path d="M256.419 139.665H237.687V139.887H256.419V139.665Z" fill="#3F3D56"/>
<path d="M236.877 110.736C237.539 110.492 237.773 109.478 237.401 108.471C237.029 107.465 236.191 106.847 235.53 107.092C234.869 107.336 234.634 108.35 235.006 109.356C235.378 110.363 236.216 110.981 236.877 110.736Z" fill="#0090CC"/>
</g>
</g>
<defs>
<clipPath id="clip0_356_37">
<rect width="275.794" height="228.936" fill="white" transform="translate(32.901 43.6589)"/>
</clipPath>
<clipPath id="clip1_356_37">
<rect width="88.2221" height="68.3102" fill="white" transform="translate(177.553 77.0403)"/>
</clipPath>
</defs>
</svg>
