<svg width="257" height="62" viewBox="0 0 257 62" fill="none" xmlns="http://www.w3.org/2000/svg">
<path d="M37.5445 1H39.095V48.7175H37.5445V1Z" fill="#383838"/>
<path d="M0.928703 1H34.8013V42.9914C33.6563 65.5141 11.7425 62.2374 0.928703 57.7838C0.72992 55.3979 0.451624 50.7216 0.928703 51.1034C1.52505 51.5805 6.0573 54.9208 16.553 55.1594C24.9496 55.3502 26.8898 47.1269 26.8102 42.9914V6.96469H0.928703V1Z" fill="url(#paint0_radial_332_34)"/>
<path d="M0.928703 9.82774H22.5165V45.0194C22.5165 51.2227 18.0638 52.1372 15.8374 51.8191V14.8381H0.928703V9.82774Z" fill="#383838"/>
<path d="M37.5445 1H39.095V48.7175H37.5445V1Z" stroke="url(#paint1_diamond_332_34)" stroke-width="0.743802"/>
<path d="M0.928703 1H34.8013V42.9914C33.6563 65.5141 11.7425 62.2374 0.928703 57.7838C0.72992 55.3979 0.451624 50.7216 0.928703 51.1034C1.52505 51.5805 6.0573 54.9208 16.553 55.1594C24.9496 55.3502 26.8898 47.1269 26.8102 42.9914V6.96469H0.928703V1Z" stroke="url(#paint2_diamond_332_34)" stroke-width="0.743802"/>
<path d="M0.928703 9.82774H22.5165V45.0194C22.5165 51.2227 18.0638 52.1372 15.8374 51.8191V14.8381H0.928703V9.82774Z" stroke="url(#paint3_diamond_332_34)" stroke-width="0.743802"/>
<path d="M47.659 4.23933V5.88819L44.7644 5.88819C44.1567 5.88819 43.6942 5.83371 43.377 5.72475C43.0599 5.61822 42.7911 5.40152 42.5708 5.07465C42.3504 4.75021 42.2403 4.33376 42.2403 3.8253C42.2403 3.28779 42.3129 2.87133 42.4582 2.57594C42.6035 2.28055 42.8153 2.05175 43.0938 1.88953C43.3746 1.72973 43.7209 1.6353 44.1325 1.60624L44.3467 3.17883C44.1119 3.18125 43.9376 3.20183 43.8238 3.24057C43.71 3.27931 43.618 3.34469 43.5477 3.43669C43.5017 3.49964 43.4787 3.58923 43.4787 3.70545C43.4787 3.88946 43.5465 4.02384 43.6821 4.10858C43.8201 4.19575 44.0514 4.23933 44.3758 4.23933H47.659ZM47.659 10.4498V12.0914H44.4848C44.17 12.0914 43.8722 12.0417 43.5913 11.9425C43.3129 11.8456 43.0683 11.6919 42.8577 11.4812C42.6495 11.273 42.503 11.0539 42.4182 10.8239C42.2996 10.5043 42.2403 10.1205 42.2403 9.67257C42.2403 9.4135 42.2584 9.13021 42.2948 8.82272C42.3311 8.51764 42.4025 8.2622 42.509 8.0564C42.618 7.85059 42.7717 7.66174 42.9703 7.48983C43.1688 7.32034 43.3734 7.20412 43.5841 7.14117C43.923 7.03948 44.2233 6.98864 44.4848 6.98864L47.659 6.98864V8.63023H44.4085C44.1179 8.63023 43.8903 8.71013 43.7257 8.86993C43.5635 9.03215 43.4824 9.25612 43.4824 9.54182C43.4824 9.82511 43.5623 10.0466 43.7221 10.2064C43.8843 10.3687 44.1131 10.4498 44.4085 10.4498H47.659ZM47.659 13.1918V14.7281L44.7136 16.7329H47.659V18.2837H42.3347V16.7329L45.2583 14.739H42.3347V13.1918H47.659ZM47.659 19.4422V21.0911H42.3347V19.4422H47.659ZM47.659 25.7398V27.3814H44.4848C44.17 27.3814 43.8722 27.3318 43.5913 27.2325C43.3129 27.1357 43.0683 26.9819 42.8577 26.7713C42.6495 26.5631 42.503 26.3439 42.4182 26.1139C42.2996 25.7943 42.2403 25.4106 42.2403 24.9626C42.2403 24.7036 42.2584 24.4203 42.2948 24.1128C42.3311 23.8077 42.4025 23.5523 42.509 23.3465C42.618 23.1407 42.7717 22.9518 42.9703 22.7799C43.1688 22.6104 43.3734 22.4942 43.5841 22.4312C43.923 22.3295 44.2233 22.2787 44.4848 22.2787H47.659V23.9203H44.4085C44.1179 23.9203 43.8903 24.0002 43.7257 24.16C43.5635 24.3222 43.4824 24.5462 43.4824 24.8319C43.4824 25.1152 43.5623 25.3367 43.7221 25.4965C43.8843 25.6587 44.1131 25.7398 44.4085 25.7398H47.659ZM44.0961 28.1841L44.1942 29.7494C43.94 29.7833 43.7463 29.8523 43.6131 29.9564C43.3976 30.1259 43.2899 30.368 43.2899 30.6828C43.2899 30.9176 43.3444 31.098 43.4533 31.2239C43.5647 31.3523 43.693 31.4164 43.8383 31.4164C43.9763 31.4164 44.0998 31.3559 44.2087 31.2348C44.3177 31.1138 44.4206 30.8329 44.5174 30.3922C44.6797 29.6707 44.8952 29.1562 45.1639 28.8487C45.4327 28.5388 45.7753 28.3838 46.1917 28.3838C46.4653 28.3838 46.7232 28.4625 46.9653 28.6199C47.2098 28.7797 47.4011 29.0182 47.5391 29.3354C47.6796 29.655 47.7498 30.092 47.7498 30.6465C47.7498 31.3268 47.6227 31.845 47.3684 32.2009C47.1166 32.5592 46.7147 32.7723 46.1627 32.8401L46.0719 31.2893C46.3116 31.2481 46.4859 31.161 46.5949 31.0278C46.7038 30.8971 46.7583 30.7155 46.7583 30.483C46.7583 30.2918 46.7171 30.1477 46.6348 30.0508C46.5549 29.954 46.4568 29.9056 46.3406 29.9056C46.2559 29.9056 46.1796 29.9455 46.1118 30.0254C46.0416 30.1029 45.9762 30.2869 45.9157 30.5775C45.7607 31.2966 45.6034 31.8111 45.4436 32.121C45.2862 32.4333 45.0901 32.6597 44.8552 32.8002C44.6203 32.943 44.3576 33.0144 44.0671 33.0144C43.7257 33.0144 43.4109 32.92 43.1228 32.7311C42.8347 32.5423 42.6156 32.2784 42.4654 31.9394C42.3178 31.6004 42.2439 31.1731 42.2439 30.6574C42.2439 29.7518 42.4182 29.1247 42.7669 28.7761C43.1155 28.4274 43.5586 28.2301 44.0961 28.1841Z" fill="white"/>
<path d="M47.659 35.9562V40.9573H46.3443V39.2794H42.3347V37.6341H46.3443V35.9562H47.659ZM47.659 41.7018V46.1109H46.5222V43.3507H45.676V45.9111H44.5901V43.3507H43.5405V46.1908H42.3347V41.7018H47.659ZM44.5102 50.6252L44.0744 52.0671C43.67 51.9702 43.3322 51.8177 43.0611 51.6095C42.7899 51.4013 42.5853 51.1422 42.4473 50.8323C42.3093 50.5248 42.2403 50.1325 42.2403 49.6555C42.2403 49.0769 42.3238 48.6035 42.4909 48.2355C42.6604 47.8699 42.957 47.5539 43.3807 47.2876C43.8044 47.0212 44.3467 46.8881 45.0077 46.8881C45.8891 46.8881 46.5658 47.1217 47.0379 47.589C47.5125 48.0587 47.7498 48.7222 47.7498 49.5793C47.7498 50.25 47.6142 50.7766 47.343 51.1591C47.0718 51.5441 46.6554 51.8298 46.0937 52.0162L45.7704 50.5635C45.9326 50.5127 46.0513 50.4594 46.1263 50.4037C46.2523 50.3117 46.3491 50.1991 46.4169 50.0659C46.4847 49.9328 46.5186 49.7839 46.5186 49.6192C46.5186 49.2464 46.3685 48.9607 46.0682 48.7621C45.8455 48.612 45.4956 48.5369 45.0186 48.5369C44.4279 48.5369 44.0223 48.6265 43.802 48.8057C43.5841 48.9849 43.4751 49.2367 43.4751 49.5611C43.4751 49.8759 43.5635 50.1132 43.7402 50.273C43.917 50.4352 44.1736 50.5526 44.5102 50.6252ZM47.659 52.877V54.5222H45.7958V56.32H47.659V57.9725H42.3347V56.32H44.4884V54.5222H42.3347V52.877H47.659Z" fill="#1A8ACD"/>
<path d="M60.8113 34.2031C60.8113 34.4531 60.879 34.6562 61.0144 34.8125C61.1602 34.9688 61.3581 35.0469 61.6081 35.0469C61.9936 35.0469 62.3529 34.8802 62.6863 34.5469C63.03 34.2135 63.3061 33.7604 63.5144 33.1875C63.7331 32.6042 63.8425 31.9375 63.8425 31.1875C63.8425 30.9375 63.8061 30.7396 63.7331 30.5938C63.6602 30.4479 63.5665 30.375 63.4519 30.375C63.3165 30.375 63.1394 30.4635 62.9206 30.6406C62.7019 30.8177 62.4675 31.0573 62.2175 31.3594C61.9779 31.651 61.7488 31.9688 61.53 32.3125C61.3217 32.6458 61.1498 32.9792 61.0144 33.3125C60.879 33.6458 60.8113 33.9427 60.8113 34.2031ZM59.2175 32.8906L60.8113 26.5625L59.6863 26.4062L59.8113 25.8594L62.5769 25.125L62.8894 25.375C62.7748 25.75 62.6758 26.0833 62.5925 26.375C62.5196 26.6562 62.4571 26.901 62.405 27.1094C62.3529 27.3177 62.3008 27.5052 62.2488 27.6719L61.6706 29.7031C61.5144 30.2448 61.3477 30.8073 61.1706 31.3906C60.9936 31.9635 60.7696 32.6354 60.4988 33.4062H60.3738C60.7175 32.4896 61.1133 31.7083 61.5613 31.0625C62.0196 30.4167 62.4831 29.9219 62.9519 29.5781C63.4311 29.2344 63.8738 29.0625 64.28 29.0625C64.7071 29.0625 65.0456 29.224 65.2956 29.5469C65.5561 29.8698 65.6863 30.2812 65.6863 30.7812C65.6863 31.5208 65.5404 32.2135 65.2488 32.8594C64.9571 33.5052 64.5821 34.0729 64.1238 34.5625C63.6654 35.0521 63.1758 35.4375 62.655 35.7188C62.1342 35.9896 61.6446 36.125 61.1863 36.125C60.6133 36.125 60.1498 36 59.7956 35.75C59.4415 35.4896 59.2123 35.1198 59.1081 34.6406C59.0144 34.151 59.0508 33.5677 59.2175 32.8906ZM71.2175 30.5938C71.0196 30.5938 70.8217 30.6927 70.6238 30.8906C70.4363 31.0781 70.2488 31.3385 70.0613 31.6719C69.8738 31.9948 69.6811 32.3698 69.4831 32.7969C69.2227 33.3594 68.9936 33.9323 68.7956 34.5156C68.6081 35.099 68.4675 35.5938 68.3738 36H66.6081C66.7644 35.5104 66.9206 34.9844 67.0769 34.4219C67.2331 33.8594 67.379 33.3073 67.5144 32.7656C67.6498 32.2135 67.754 31.7188 67.8269 31.2812C67.9102 30.8333 67.9519 30.4948 67.9519 30.2656C67.7436 30.3906 67.5352 30.5521 67.3269 30.75C67.129 30.9479 66.9258 31.1979 66.7175 31.5L66.28 30.9219C66.5404 30.5781 66.8217 30.2656 67.1238 29.9844C67.4363 29.7031 67.7436 29.4792 68.0456 29.3125C68.3581 29.1458 68.6446 29.0625 68.905 29.0625C69.1133 29.0625 69.2696 29.125 69.3738 29.25C69.4883 29.3646 69.5456 29.5729 69.5456 29.875C69.5456 30.0208 69.5144 30.2812 69.4519 30.6562C69.3894 31.0208 69.2748 31.5104 69.1081 32.125C68.9415 32.7396 68.6915 33.5 68.3581 34.4062H68.2956C68.5977 33.5938 68.879 32.8594 69.1394 32.2031C69.4102 31.5469 69.6758 30.9844 69.9363 30.5156C70.2071 30.0469 70.4831 29.6875 70.7644 29.4375C71.0561 29.1875 71.3738 29.0625 71.7175 29.0625C71.9779 29.0625 72.1758 29.1354 72.3113 29.2812C72.4467 29.4167 72.5144 29.6094 72.5144 29.8594C72.5144 30.0365 72.4727 30.224 72.3894 30.4219C72.3165 30.6198 72.2019 30.8021 72.0456 30.9688C71.9311 30.8542 71.7956 30.7656 71.6394 30.7031C71.4936 30.6302 71.3529 30.5938 71.2175 30.5938ZM74.6394 36.125C74.1706 36.125 73.7592 36.026 73.405 35.8281C73.0508 35.6302 72.7748 35.349 72.5769 34.9844C72.379 34.6198 72.28 34.1875 72.28 33.6875C72.28 33.0938 72.3842 32.5208 72.5925 31.9688C72.8008 31.4062 73.0873 30.9115 73.4519 30.4844C73.8165 30.0469 74.2331 29.7031 74.7019 29.4531C75.1811 29.1927 75.6811 29.0625 76.2019 29.0625C76.6706 29.0625 77.0821 29.1615 77.4363 29.3594C77.8008 29.5573 78.0821 29.8385 78.28 30.2031C78.4779 30.5677 78.5769 31.0052 78.5769 31.5156C78.5769 32.1094 78.4727 32.6823 78.2644 33.2344C78.0561 33.7865 77.7696 34.2812 77.405 34.7188C77.0404 35.1562 76.6186 35.5 76.1394 35.75C75.6706 36 75.1706 36.125 74.6394 36.125ZM75.0456 35.2344C75.2956 35.2344 75.5248 35.1406 75.7331 34.9531C75.9519 34.7552 76.1394 34.4896 76.2956 34.1562C76.4519 33.8229 76.5717 33.4375 76.655 33C76.7383 32.5625 76.78 32.1042 76.78 31.625C76.78 31.1042 76.6915 30.6875 76.5144 30.375C76.3477 30.0625 76.129 29.9062 75.8581 29.9062C75.5977 29.9062 75.3581 30.0052 75.1394 30.2031C74.9311 30.401 74.7488 30.6719 74.5925 31.0156C74.4363 31.349 74.3165 31.7344 74.2331 32.1719C74.1498 32.599 74.1081 33.0521 74.1081 33.5312C74.1081 34.0729 74.1915 34.4948 74.3581 34.7969C74.5352 35.0885 74.7644 35.2344 75.0456 35.2344ZM82.0613 29.0625C82.3008 29.0625 82.4883 29.1302 82.6238 29.2656C82.7592 29.401 82.8269 29.6042 82.8269 29.875C82.8269 30.0417 82.7852 30.2812 82.7019 30.5938C82.629 30.9062 82.5352 31.2552 82.4206 31.6406C82.3061 32.026 82.1863 32.4115 82.0613 32.7969C81.9467 33.1719 81.8477 33.5104 81.7644 33.8125C81.6915 34.1146 81.655 34.3385 81.655 34.4844C81.655 34.5781 81.6758 34.6562 81.7175 34.7188C81.7696 34.7708 81.8477 34.7969 81.9519 34.7969C82.1394 34.7969 82.3529 34.6875 82.5925 34.4688C82.8425 34.25 83.0977 33.9531 83.3581 33.5781C83.629 33.2031 83.8894 32.776 84.1394 32.2969C84.3998 31.8177 84.6394 31.3125 84.8581 30.7812C85.0769 30.25 85.254 29.7188 85.3894 29.1875H87.0456C86.8894 29.6771 86.7279 30.2083 86.5613 30.7812C86.405 31.3438 86.2592 31.901 86.1238 32.4531C85.9883 32.9948 85.879 33.4844 85.7956 33.9219C85.7227 34.3594 85.6863 34.6979 85.6863 34.9375C85.905 34.8125 86.1133 34.651 86.3113 34.4531C86.5196 34.2552 86.7279 34.026 86.9363 33.7656L87.3738 34.2656C87.1133 34.6094 86.8269 34.9219 86.5144 35.2031C86.2123 35.4844 85.8998 35.7083 85.5769 35.875C85.2644 36.0417 84.9675 36.125 84.6863 36.125C84.4675 36.125 84.2956 36.0573 84.1706 35.9219C84.0561 35.7865 83.9988 35.5885 83.9988 35.3281C83.9988 35.1719 84.03 34.9323 84.0925 34.6094C84.155 34.276 84.2488 33.8542 84.3738 33.3438C84.5092 32.8333 84.6863 32.2188 84.905 31.5H85.0456C84.8373 32.1667 84.5821 32.7812 84.28 33.3438C83.9779 33.9062 83.6446 34.3958 83.28 34.8125C82.9258 35.2292 82.5508 35.5521 82.155 35.7812C81.7696 36.0104 81.3894 36.125 81.0144 36.125C80.6602 36.125 80.379 36.0365 80.1706 35.8594C79.9727 35.6719 79.8738 35.401 79.8738 35.0469C79.8738 34.8802 79.9102 34.6406 79.9831 34.3281C80.0665 34.0156 80.1654 33.6667 80.28 33.2812C80.405 32.8854 80.5248 32.4896 80.6394 32.0938C80.7644 31.6979 80.8633 31.3385 80.9363 31.0156C81.0196 30.6927 81.0613 30.4427 81.0613 30.2656C80.8425 30.3906 80.629 30.5521 80.4206 30.75C80.2227 30.9479 80.0196 31.1979 79.8113 31.5L79.3738 30.9219C79.6342 30.5781 79.9154 30.2656 80.2175 29.9844C80.53 29.7031 80.8425 29.4792 81.155 29.3125C81.4779 29.1458 81.78 29.0625 82.0613 29.0625ZM90.0769 39.5625C89.3894 39.5625 88.8113 39.4792 88.3425 39.3125C87.8842 39.1562 87.5404 38.9479 87.3113 38.6875C87.0717 38.4271 86.9519 38.151 86.9519 37.8594C86.9519 37.4948 87.1238 37.1562 87.4675 36.8438C87.8008 36.5312 88.3165 36.276 89.0144 36.0781L89.7488 36.25C89.3738 36.4167 89.0821 36.6198 88.8738 36.8594C88.6758 37.1094 88.5769 37.3802 88.5769 37.6719C88.5769 37.9948 88.7175 38.2604 88.9988 38.4688C89.2904 38.6875 89.7383 38.7969 90.3425 38.7969C90.7175 38.7969 91.0508 38.7396 91.3425 38.625C91.6446 38.5104 91.879 38.3542 92.0456 38.1562C92.2123 37.9583 92.2956 37.7344 92.2956 37.4844C92.2956 37.2448 92.2019 37.0625 92.0144 36.9375C91.8373 36.8125 91.4936 36.7031 90.9831 36.6094L89.3269 36.2656L89.1706 36.2031C88.7748 36.1406 88.4675 36.026 88.2488 35.8594C88.0404 35.6823 87.9363 35.4635 87.9363 35.2031C87.9363 34.8698 88.1133 34.5625 88.4675 34.2812C88.8321 34 89.3581 33.7865 90.0456 33.6406L90.3425 34.0156C90.1342 34.0469 89.9519 34.1146 89.7956 34.2188C89.6498 34.3229 89.5769 34.4375 89.5769 34.5625C89.5769 34.6458 89.6186 34.7135 89.7019 34.7656C89.7852 34.8177 89.9102 34.8698 90.0769 34.9219L91.8738 35.3594C92.5821 35.526 93.0821 35.7292 93.3738 35.9688C93.6758 36.1979 93.8269 36.5365 93.8269 36.9844C93.8269 37.4323 93.655 37.8542 93.3113 38.25C92.9779 38.6458 92.5248 38.9635 91.9519 39.2031C91.3894 39.4427 90.7644 39.5625 90.0769 39.5625ZM90.905 34.1094C90.1758 34.1094 89.5925 33.9323 89.155 33.5781C88.7175 33.224 88.4988 32.7448 88.4988 32.1406C88.4988 31.5781 88.6446 31.0625 88.9363 30.5938C89.2383 30.125 89.6394 29.75 90.1394 29.4688C90.6498 29.1875 91.2071 29.0469 91.8113 29.0469C92.28 29.0469 92.6915 29.1354 93.0456 29.3125C93.3998 29.4896 93.6758 29.7292 93.8738 30.0312C94.0717 30.3333 94.1706 30.6823 94.1706 31.0781C94.1706 31.6302 94.0196 32.1354 93.7175 32.5938C93.4258 33.0521 93.03 33.4219 92.53 33.7031C92.0404 33.974 91.4988 34.1094 90.905 34.1094ZM91.1238 33.3125C91.3738 33.3125 91.6029 33.2135 91.8113 33.0156C92.0196 32.8177 92.1811 32.5521 92.2956 32.2188C92.4206 31.875 92.4831 31.4948 92.4831 31.0781C92.4831 30.6823 92.4102 30.375 92.2644 30.1562C92.1186 29.9375 91.9258 29.8281 91.6863 29.8281C91.4258 29.8281 91.1863 29.9323 90.9675 30.1406C90.7592 30.3385 90.5873 30.6094 90.4519 30.9531C90.3269 31.2865 90.2644 31.6562 90.2644 32.0625C90.2644 32.4583 90.3477 32.7656 90.5144 32.9844C90.6811 33.2031 90.8842 33.3125 91.1238 33.3125ZM95.2019 30.3594L93.3113 30.1875L92.8425 29.5L95.4519 29.2188L95.2019 30.3594ZM98.1706 30.6875C98.0873 31.0208 97.9988 31.3438 97.905 31.6562C97.8113 31.9583 97.7123 32.276 97.6081 32.6094C97.5144 32.9427 97.3998 33.3073 97.2644 33.7031H97.155C97.3738 33.0469 97.6394 32.4375 97.9519 31.875C98.2644 31.3021 98.6081 30.8073 98.9831 30.3906C99.3581 29.974 99.7436 29.651 100.139 29.4219C100.546 29.1823 100.941 29.0625 101.327 29.0625C101.671 29.0625 101.941 29.1562 102.139 29.3438C102.348 29.5208 102.452 29.7917 102.452 30.1562C102.452 30.3125 102.41 30.5521 102.327 30.875C102.254 31.1875 102.155 31.5417 102.03 31.9375C101.915 32.3229 101.796 32.7135 101.671 33.1094C101.556 33.5052 101.457 33.8646 101.374 34.1875C101.301 34.5104 101.264 34.7604 101.264 34.9375C101.473 34.8125 101.681 34.651 101.889 34.4531C102.098 34.2552 102.306 34.026 102.514 33.7656L102.952 34.2656C102.691 34.6094 102.405 34.9219 102.093 35.2031C101.79 35.4844 101.483 35.7083 101.171 35.875C100.869 36.0417 100.577 36.125 100.296 36.125C100.046 36.125 99.8477 36.0573 99.7019 35.9219C99.5665 35.7865 99.4988 35.5885 99.4988 35.3281C99.4988 35.1615 99.5352 34.9219 99.6081 34.6094C99.6915 34.2865 99.7904 33.9323 99.905 33.5469C100.03 33.151 100.15 32.7656 100.264 32.3906C100.379 32.0052 100.473 31.6615 100.546 31.3594C100.629 31.0469 100.671 30.8229 100.671 30.6875C100.671 30.4896 100.577 30.3906 100.389 30.3906C100.202 30.3906 99.9831 30.5 99.7331 30.7188C99.4831 30.9375 99.2175 31.2344 98.9363 31.6094C98.655 31.9844 98.379 32.4115 98.1081 32.8906C97.8373 33.3698 97.5925 33.8802 97.3738 34.4219C97.155 34.9531 96.9831 35.4792 96.8581 36H95.1706C95.379 35.3438 95.5665 34.7135 95.7331 34.1094C95.8998 33.4948 96.0561 32.8906 96.2019 32.2969C96.3581 31.6927 96.504 31.0833 96.6394 30.4688L97.53 26.5625L96.405 26.4062L96.53 25.8594L99.28 25.125L99.6081 25.375C99.504 25.75 99.3946 26.1406 99.28 26.5469C99.1654 26.9427 99.0561 27.3438 98.9519 27.75C98.8477 28.1458 98.7436 28.5312 98.6394 28.9062L98.1706 30.6875ZM108.233 34.1094C107.712 34.849 107.191 35.3698 106.671 35.6719C106.16 35.974 105.676 36.125 105.218 36.125C104.832 36.125 104.535 36.026 104.327 35.8281C104.119 35.6302 104.014 35.3542 104.014 35C104.014 34.8854 104.025 34.7552 104.046 34.6094C104.077 34.4531 104.113 34.276 104.155 34.0781L105.124 30.125H104.03L104.124 29.6719L106.952 27.6875H107.374L106.858 29.7344L105.905 33.7656C105.863 33.9531 105.832 34.099 105.811 34.2031C105.79 34.2969 105.78 34.375 105.78 34.4375C105.78 34.7083 105.9 34.8438 106.139 34.8438C106.316 34.8438 106.54 34.7448 106.811 34.5469C107.082 34.3385 107.41 33.9792 107.796 33.4688L108.233 34.1094ZM105.999 30.125L106.186 29.2188H108.718L108.53 30.125H105.999ZM116.421 34.1094C115.9 34.849 115.379 35.3698 114.858 35.6719C114.348 35.974 113.863 36.125 113.405 36.125C113.02 36.125 112.723 36.026 112.514 35.8281C112.306 35.6302 112.202 35.3542 112.202 35C112.202 34.8854 112.212 34.7552 112.233 34.6094C112.264 34.4531 112.301 34.276 112.343 34.0781L113.311 30.125H112.218L112.311 29.6719L115.139 27.6875H115.561L115.046 29.7344L114.093 33.7656C114.051 33.9531 114.02 34.099 113.999 34.2031C113.978 34.2969 113.968 34.375 113.968 34.4375C113.968 34.7083 114.087 34.8438 114.327 34.8438C114.504 34.8438 114.728 34.7448 114.999 34.5469C115.27 34.3385 115.598 33.9792 115.983 33.4688L116.421 34.1094ZM114.186 30.125L114.374 29.2188H116.905L116.718 30.125H114.186ZM119.452 36.125C118.983 36.125 118.572 36.026 118.218 35.8281C117.863 35.6302 117.587 35.349 117.389 34.9844C117.191 34.6198 117.093 34.1875 117.093 33.6875C117.093 33.0938 117.197 32.5208 117.405 31.9688C117.613 31.4062 117.9 30.9115 118.264 30.4844C118.629 30.0469 119.046 29.7031 119.514 29.4531C119.994 29.1927 120.494 29.0625 121.014 29.0625C121.483 29.0625 121.895 29.1615 122.249 29.3594C122.613 29.5573 122.895 29.8385 123.093 30.2031C123.29 30.5677 123.389 31.0052 123.389 31.5156C123.389 32.1094 123.285 32.6823 123.077 33.2344C122.869 33.7865 122.582 34.2812 122.218 34.7188C121.853 35.1562 121.431 35.5 120.952 35.75C120.483 36 119.983 36.125 119.452 36.125ZM119.858 35.2344C120.108 35.2344 120.337 35.1406 120.546 34.9531C120.764 34.7552 120.952 34.4896 121.108 34.1562C121.264 33.8229 121.384 33.4375 121.468 33C121.551 32.5625 121.593 32.1042 121.593 31.625C121.593 31.1042 121.504 30.6875 121.327 30.375C121.16 30.0625 120.941 29.9062 120.671 29.9062C120.41 29.9062 120.171 30.0052 119.952 30.2031C119.744 30.401 119.561 30.6719 119.405 31.0156C119.249 31.349 119.129 31.7344 119.046 32.1719C118.962 32.599 118.921 33.0521 118.921 33.5312C118.921 34.0729 119.004 34.4948 119.171 34.7969C119.348 35.0885 119.577 35.2344 119.858 35.2344ZM126.061 39.5781C125.676 39.5781 125.389 39.4948 125.202 39.3281C125.004 39.1615 124.905 38.9635 124.905 38.7344C124.905 38.5573 124.952 38.3802 125.046 38.2031C125.139 38.0365 125.27 37.875 125.436 37.7188C125.603 37.8646 125.801 37.9844 126.03 38.0781C126.249 38.1823 126.494 38.2344 126.764 38.2344C127.119 38.2344 127.52 38.1198 127.968 37.8906C128.426 37.6719 128.915 37.2917 129.436 36.75L130.061 36.1562C130.572 35.5104 130.978 34.8906 131.28 34.2969C131.593 33.7031 131.816 33.1042 131.952 32.5C132.098 31.8854 132.171 31.2396 132.171 30.5625C132.171 30.3229 132.145 30.0885 132.093 29.8594C132.04 29.6302 131.983 29.4479 131.921 29.3125C132.046 29.2396 132.181 29.1823 132.327 29.1406C132.473 29.0885 132.619 29.0625 132.764 29.0625C133.077 29.0625 133.332 29.1562 133.53 29.3438C133.728 29.5312 133.827 29.8385 133.827 30.2656C133.827 30.7656 133.728 31.3021 133.53 31.875C133.343 32.4375 133.082 33.0156 132.749 33.6094C132.415 34.2031 132.035 34.7865 131.608 35.3594C131.181 35.9219 130.733 36.4479 130.264 36.9375C129.889 37.3333 129.514 37.6927 129.139 38.0156C128.764 38.3385 128.395 38.6146 128.03 38.8438C127.665 39.0833 127.316 39.2656 126.983 39.3906C126.65 39.5156 126.343 39.5781 126.061 39.5781ZM128.874 37.6406C128.863 37.0885 128.843 36.5156 128.811 35.9219C128.78 35.3177 128.744 34.724 128.702 34.1406C128.66 33.5573 128.613 33.0104 128.561 32.5C128.509 31.9896 128.457 31.5469 128.405 31.1719C128.363 30.7865 128.322 30.5 128.28 30.3125C127.936 30.5938 127.613 30.9896 127.311 31.5L126.827 30.9688C127.077 30.5729 127.337 30.2344 127.608 29.9531C127.879 29.6719 128.145 29.4531 128.405 29.2969C128.665 29.1406 128.9 29.0625 129.108 29.0625C129.358 29.0625 129.546 29.1302 129.671 29.2656C129.796 29.3906 129.884 29.6146 129.936 29.9375C129.968 30.0938 129.999 30.349 130.03 30.7031C130.072 31.0573 130.113 31.474 130.155 31.9531C130.197 32.4219 130.233 32.9167 130.264 33.4375C130.306 33.9583 130.343 34.4688 130.374 34.9688C130.405 35.4583 130.426 35.8958 130.436 36.2812L128.874 37.6406ZM136.858 36.125C136.389 36.125 135.978 36.026 135.624 35.8281C135.27 35.6302 134.994 35.349 134.796 34.9844C134.598 34.6198 134.499 34.1875 134.499 33.6875C134.499 33.0938 134.603 32.5208 134.811 31.9688C135.02 31.4062 135.306 30.9115 135.671 30.4844C136.035 30.0469 136.452 29.7031 136.921 29.4531C137.4 29.1927 137.9 29.0625 138.421 29.0625C138.889 29.0625 139.301 29.1615 139.655 29.3594C140.02 29.5573 140.301 29.8385 140.499 30.2031C140.697 30.5677 140.796 31.0052 140.796 31.5156C140.796 32.1094 140.691 32.6823 140.483 33.2344C140.275 33.7865 139.988 34.2812 139.624 34.7188C139.259 35.1562 138.837 35.5 138.358 35.75C137.889 36 137.389 36.125 136.858 36.125ZM137.264 35.2344C137.514 35.2344 137.744 35.1406 137.952 34.9531C138.171 34.7552 138.358 34.4896 138.514 34.1562C138.671 33.8229 138.79 33.4375 138.874 33C138.957 32.5625 138.999 32.1042 138.999 31.625C138.999 31.1042 138.91 30.6875 138.733 30.375C138.566 30.0625 138.348 29.9062 138.077 29.9062C137.816 29.9062 137.577 30.0052 137.358 30.2031C137.15 30.401 136.968 30.6719 136.811 31.0156C136.655 31.349 136.535 31.7344 136.452 32.1719C136.369 32.599 136.327 33.0521 136.327 33.5312C136.327 34.0729 136.41 34.4948 136.577 34.7969C136.754 35.0885 136.983 35.2344 137.264 35.2344ZM144.28 29.0625C144.52 29.0625 144.707 29.1302 144.843 29.2656C144.978 29.401 145.046 29.6042 145.046 29.875C145.046 30.0417 145.004 30.2812 144.921 30.5938C144.848 30.9062 144.754 31.2552 144.639 31.6406C144.525 32.026 144.405 32.4115 144.28 32.7969C144.165 33.1719 144.066 33.5104 143.983 33.8125C143.91 34.1146 143.874 34.3385 143.874 34.4844C143.874 34.5781 143.895 34.6562 143.936 34.7188C143.988 34.7708 144.066 34.7969 144.171 34.7969C144.358 34.7969 144.572 34.6875 144.811 34.4688C145.061 34.25 145.316 33.9531 145.577 33.5781C145.848 33.2031 146.108 32.776 146.358 32.2969C146.619 31.8177 146.858 31.3125 147.077 30.7812C147.296 30.25 147.473 29.7188 147.608 29.1875H149.264C149.108 29.6771 148.947 30.2083 148.78 30.7812C148.624 31.3438 148.478 31.901 148.343 32.4531C148.207 32.9948 148.098 33.4844 148.014 33.9219C147.941 34.3594 147.905 34.6979 147.905 34.9375C148.124 34.8125 148.332 34.651 148.53 34.4531C148.738 34.2552 148.947 34.026 149.155 33.7656L149.593 34.2656C149.332 34.6094 149.046 34.9219 148.733 35.2031C148.431 35.4844 148.119 35.7083 147.796 35.875C147.483 36.0417 147.186 36.125 146.905 36.125C146.686 36.125 146.514 36.0573 146.389 35.9219C146.275 35.7865 146.218 35.5885 146.218 35.3281C146.218 35.1719 146.249 34.9323 146.311 34.6094C146.374 34.276 146.468 33.8542 146.593 33.3438C146.728 32.8333 146.905 32.2188 147.124 31.5H147.264C147.056 32.1667 146.801 32.7812 146.499 33.3438C146.197 33.9062 145.863 34.3958 145.499 34.8125C145.145 35.2292 144.77 35.5521 144.374 35.7812C143.988 36.0104 143.608 36.125 143.233 36.125C142.879 36.125 142.598 36.0365 142.389 35.8594C142.191 35.6719 142.093 35.401 142.093 35.0469C142.093 34.8802 142.129 34.6406 142.202 34.3281C142.285 34.0156 142.384 33.6667 142.499 33.2812C142.624 32.8854 142.744 32.4896 142.858 32.0938C142.983 31.6979 143.082 31.3385 143.155 31.0156C143.238 30.6927 143.28 30.4427 143.28 30.2656C143.061 30.3906 142.848 30.5521 142.639 30.75C142.441 30.9479 142.238 31.1979 142.03 31.5L141.593 30.9219C141.853 30.5781 142.134 30.2656 142.436 29.9844C142.749 29.7031 143.061 29.4792 143.374 29.3125C143.697 29.1458 143.999 29.0625 144.28 29.0625ZM155.311 34.2031C155.311 34.4531 155.379 34.6562 155.514 34.8125C155.66 34.9688 155.858 35.0469 156.108 35.0469C156.494 35.0469 156.853 34.8802 157.186 34.5469C157.53 34.2135 157.806 33.7604 158.014 33.1875C158.233 32.6042 158.343 31.9375 158.343 31.1875C158.343 30.9375 158.306 30.7396 158.233 30.5938C158.16 30.4479 158.066 30.375 157.952 30.375C157.816 30.375 157.639 30.4635 157.421 30.6406C157.202 30.8177 156.968 31.0573 156.718 31.3594C156.478 31.651 156.249 31.9688 156.03 32.3125C155.822 32.6458 155.65 32.9792 155.514 33.3125C155.379 33.6458 155.311 33.9427 155.311 34.2031ZM153.718 32.8906L155.311 26.5625L154.186 26.4062L154.311 25.8594L157.077 25.125L157.389 25.375C157.275 25.75 157.176 26.0833 157.093 26.375C157.02 26.6562 156.957 26.901 156.905 27.1094C156.853 27.3177 156.801 27.5052 156.749 27.6719L156.171 29.7031C156.014 30.2448 155.848 30.8073 155.671 31.3906C155.494 31.9635 155.27 32.6354 154.999 33.4062H154.874C155.218 32.4896 155.613 31.7083 156.061 31.0625C156.52 30.4167 156.983 29.9219 157.452 29.5781C157.931 29.2344 158.374 29.0625 158.78 29.0625C159.207 29.0625 159.546 29.224 159.796 29.5469C160.056 29.8698 160.186 30.2812 160.186 30.7812C160.186 31.5208 160.04 32.2135 159.749 32.8594C159.457 33.5052 159.082 34.0729 158.624 34.5625C158.165 35.0521 157.676 35.4375 157.155 35.7188C156.634 35.9896 156.145 36.125 155.686 36.125C155.113 36.125 154.65 36 154.296 35.75C153.941 35.4896 153.712 35.1198 153.608 34.6406C153.514 34.151 153.551 33.5677 153.718 32.8906ZM159.733 39.5781C159.348 39.5781 159.061 39.4948 158.874 39.3281C158.676 39.1615 158.577 38.9635 158.577 38.7344C158.577 38.5573 158.624 38.3802 158.718 38.2031C158.811 38.0365 158.941 37.875 159.108 37.7188C159.275 37.8646 159.473 37.9844 159.702 38.0781C159.921 38.1823 160.165 38.2344 160.436 38.2344C160.79 38.2344 161.191 38.1198 161.639 37.8906C162.098 37.6719 162.587 37.2917 163.108 36.75L163.733 36.1562C164.244 35.5104 164.65 34.8906 164.952 34.2969C165.264 33.7031 165.488 33.1042 165.624 32.5C165.77 31.8854 165.843 31.2396 165.843 30.5625C165.843 30.3229 165.816 30.0885 165.764 29.8594C165.712 29.6302 165.655 29.4479 165.593 29.3125C165.718 29.2396 165.853 29.1823 165.999 29.1406C166.145 29.0885 166.29 29.0625 166.436 29.0625C166.749 29.0625 167.004 29.1562 167.202 29.3438C167.4 29.5312 167.499 29.8385 167.499 30.2656C167.499 30.7656 167.4 31.3021 167.202 31.875C167.014 32.4375 166.754 33.0156 166.421 33.6094C166.087 34.2031 165.707 34.7865 165.28 35.3594C164.853 35.9219 164.405 36.4479 163.936 36.9375C163.561 37.3333 163.186 37.6927 162.811 38.0156C162.436 38.3385 162.066 38.6146 161.702 38.8438C161.337 39.0833 160.988 39.2656 160.655 39.3906C160.322 39.5156 160.014 39.5781 159.733 39.5781ZM162.546 37.6406C162.535 37.0885 162.514 36.5156 162.483 35.9219C162.452 35.3177 162.415 34.724 162.374 34.1406C162.332 33.5573 162.285 33.0104 162.233 32.5C162.181 31.9896 162.129 31.5469 162.077 31.1719C162.035 30.7865 161.994 30.5 161.952 30.3125C161.608 30.5938 161.285 30.9896 160.983 31.5L160.499 30.9688C160.749 30.5729 161.009 30.2344 161.28 29.9531C161.551 29.6719 161.816 29.4531 162.077 29.2969C162.337 29.1406 162.572 29.0625 162.78 29.0625C163.03 29.0625 163.218 29.1302 163.343 29.2656C163.468 29.3906 163.556 29.6146 163.608 29.9375C163.639 30.0938 163.671 30.349 163.702 30.7031C163.744 31.0573 163.785 31.474 163.827 31.9531C163.869 32.4219 163.905 32.9167 163.936 33.4375C163.978 33.9583 164.014 34.4688 164.046 34.9688C164.077 35.4583 164.098 35.8958 164.108 36.2812L162.546 37.6406ZM173.827 34.6875C173.691 35.3438 173.478 35.9427 173.186 36.4844C172.905 37.0365 172.572 37.5104 172.186 37.9062C171.801 38.3125 171.389 38.625 170.952 38.8438C170.525 39.0625 170.093 39.1719 169.655 39.1719C169.29 39.1719 168.988 39.0885 168.749 38.9219C168.509 38.7656 168.389 38.5469 168.389 38.2656C168.389 38.0781 168.447 37.8958 168.561 37.7188C168.676 37.5417 168.827 37.3802 169.014 37.2344C169.191 37.3906 169.389 37.5156 169.608 37.6094C169.827 37.7031 170.072 37.75 170.343 37.75C170.738 37.75 171.035 37.6302 171.233 37.3906C171.431 37.1615 171.593 36.7604 171.718 36.1875L173.014 30.1094C173.108 29.6927 173.181 29.3229 173.233 29C173.296 28.6667 173.343 28.3958 173.374 28.1875C173.405 27.9688 173.421 27.8229 173.421 27.75L172.389 27.5312L172.593 26.8281H176.514L176.405 27.5312L175.389 27.7656C175.348 27.8594 175.27 28.1146 175.155 28.5312C175.051 28.9375 174.926 29.4688 174.78 30.125L173.827 34.6875ZM178.936 29.0625C179.176 29.0625 179.363 29.1302 179.499 29.2656C179.634 29.401 179.702 29.6042 179.702 29.875C179.702 30.0417 179.66 30.2812 179.577 30.5938C179.504 30.9062 179.41 31.2552 179.296 31.6406C179.181 32.026 179.061 32.4115 178.936 32.7969C178.822 33.1719 178.723 33.5104 178.639 33.8125C178.566 34.1146 178.53 34.3385 178.53 34.4844C178.53 34.5781 178.551 34.6562 178.593 34.7188C178.645 34.7708 178.723 34.7969 178.827 34.7969C179.014 34.7969 179.228 34.6875 179.468 34.4688C179.718 34.25 179.973 33.9531 180.233 33.5781C180.504 33.2031 180.764 32.776 181.014 32.2969C181.275 31.8177 181.514 31.3125 181.733 30.7812C181.952 30.25 182.129 29.7188 182.264 29.1875H183.921C183.764 29.6771 183.603 30.2083 183.436 30.7812C183.28 31.3438 183.134 31.901 182.999 32.4531C182.863 32.9948 182.754 33.4844 182.671 33.9219C182.598 34.3594 182.561 34.6979 182.561 34.9375C182.78 34.8125 182.988 34.651 183.186 34.4531C183.395 34.2552 183.603 34.026 183.811 33.7656L184.249 34.2656C183.988 34.6094 183.702 34.9219 183.389 35.2031C183.087 35.4844 182.775 35.7083 182.452 35.875C182.139 36.0417 181.843 36.125 181.561 36.125C181.343 36.125 181.171 36.0573 181.046 35.9219C180.931 35.7865 180.874 35.5885 180.874 35.3281C180.874 35.1719 180.905 34.9323 180.968 34.6094C181.03 34.276 181.124 33.8542 181.249 33.3438C181.384 32.8333 181.561 32.2188 181.78 31.5H181.921C181.712 32.1667 181.457 32.7812 181.155 33.3438C180.853 33.9062 180.52 34.3958 180.155 34.8125C179.801 35.2292 179.426 35.5521 179.03 35.7812C178.645 36.0104 178.264 36.125 177.889 36.125C177.535 36.125 177.254 36.0365 177.046 35.8594C176.848 35.6719 176.749 35.401 176.749 35.0469C176.749 34.8802 176.785 34.6406 176.858 34.3281C176.941 34.0156 177.04 33.6667 177.155 33.2812C177.28 32.8854 177.4 32.4896 177.514 32.0938C177.639 31.6979 177.738 31.3385 177.811 31.0156C177.895 30.6927 177.936 30.4427 177.936 30.2656C177.718 30.3906 177.504 30.5521 177.296 30.75C177.098 30.9479 176.895 31.1979 176.686 31.5L176.249 30.9219C176.509 30.5781 176.79 30.2656 177.093 29.9844C177.405 29.7031 177.718 29.4792 178.03 29.3125C178.353 29.1458 178.655 29.0625 178.936 29.0625ZM190.139 36.125C189.879 36.125 189.681 36.0573 189.546 35.9219C189.41 35.7865 189.343 35.5885 189.343 35.3281C189.343 35.1615 189.379 34.9219 189.452 34.6094C189.535 34.2865 189.634 33.9323 189.749 33.5469C189.874 33.151 189.994 32.7656 190.108 32.3906C190.223 32.0052 190.316 31.6615 190.389 31.3594C190.473 31.0469 190.514 30.8229 190.514 30.6875C190.514 30.4896 190.421 30.3906 190.233 30.3906C190.046 30.3906 189.822 30.5 189.561 30.7188C189.311 30.9375 189.046 31.2344 188.764 31.6094C188.494 31.9844 188.223 32.4115 187.952 32.8906C187.691 33.3698 187.452 33.8802 187.233 34.4219C187.025 34.9531 186.858 35.4792 186.733 36H185.046C185.202 35.5104 185.358 34.9844 185.514 34.4219C185.681 33.8594 185.827 33.3073 185.952 32.7656C186.087 32.2135 186.197 31.7188 186.28 31.2812C186.363 30.8333 186.405 30.4948 186.405 30.2656C186.186 30.3906 185.973 30.5521 185.764 30.75C185.566 30.9479 185.363 31.1979 185.155 31.5L184.718 30.9219C184.978 30.5781 185.259 30.2656 185.561 29.9844C185.874 29.7031 186.186 29.4792 186.499 29.3125C186.811 29.1458 187.103 29.0625 187.374 29.0625C187.603 29.0625 187.775 29.1354 187.889 29.2812C188.014 29.4167 188.077 29.6146 188.077 29.875C188.077 30.0208 188.046 30.2604 187.983 30.5938C187.921 30.9271 187.822 31.349 187.686 31.8594C187.561 32.3698 187.389 32.9844 187.171 33.7031H187.03C187.249 33.0469 187.514 32.4375 187.827 31.875C188.139 31.3021 188.478 30.8073 188.843 30.3906C189.218 29.974 189.603 29.651 189.999 29.4219C190.395 29.1823 190.78 29.0625 191.155 29.0625C191.509 29.0625 191.785 29.1562 191.983 29.3438C192.191 29.5208 192.296 29.7917 192.296 30.1562C192.296 30.3125 192.254 30.5521 192.171 30.875C192.098 31.1875 191.999 31.5417 191.874 31.9375C191.759 32.3229 191.639 32.7135 191.514 33.1094C191.4 33.5052 191.301 33.8646 191.218 34.1875C191.145 34.5104 191.108 34.7604 191.108 34.9375C191.327 34.8125 191.535 34.651 191.733 34.4531C191.941 34.2552 192.15 34.026 192.358 33.7656L192.796 34.2656C192.535 34.6094 192.249 34.9219 191.936 35.2031C191.634 35.4844 191.327 35.7083 191.014 35.875C190.702 36.0417 190.41 36.125 190.139 36.125ZM194.827 36.125C194.566 36.125 194.363 36.0573 194.218 35.9219C194.082 35.7865 194.014 35.5729 194.014 35.2812C194.014 35.1146 194.056 34.8698 194.139 34.5469C194.223 34.2135 194.327 33.8438 194.452 33.4375C194.577 33.0208 194.697 32.6042 194.811 32.1875C194.936 31.7708 195.04 31.3906 195.124 31.0469C195.207 30.7031 195.249 30.4427 195.249 30.2656C195.04 30.3906 194.832 30.5521 194.624 30.75C194.415 30.9479 194.207 31.1979 193.999 31.5L193.561 30.9219C193.822 30.5781 194.103 30.2656 194.405 29.9844C194.718 29.7031 195.03 29.4792 195.343 29.3125C195.665 29.1458 195.962 29.0625 196.233 29.0625C196.494 29.0625 196.691 29.1354 196.827 29.2812C196.973 29.4271 197.046 29.6406 197.046 29.9219C197.046 30.0885 197.004 30.3385 196.921 30.6719C196.837 30.9948 196.733 31.3646 196.608 31.7812C196.494 32.1979 196.374 32.6146 196.249 33.0312C196.124 33.4479 196.02 33.8281 195.936 34.1719C195.853 34.5052 195.811 34.7604 195.811 34.9375C196.03 34.8125 196.238 34.651 196.436 34.4531C196.645 34.2552 196.853 34.026 197.061 33.7656L197.499 34.2656C197.238 34.6094 196.952 34.9219 196.639 35.2031C196.337 35.4844 196.03 35.7083 195.718 35.875C195.405 36.0417 195.108 36.125 194.827 36.125ZM196.671 27.625C196.348 27.625 196.098 27.5312 195.921 27.3438C195.744 27.1562 195.655 26.9219 195.655 26.6406C195.655 26.4115 195.707 26.2031 195.811 26.0156C195.926 25.8177 196.077 25.6615 196.264 25.5469C196.462 25.4323 196.681 25.375 196.921 25.375C197.233 25.375 197.473 25.4688 197.639 25.6562C197.816 25.8333 197.905 26.0573 197.905 26.3281C197.905 26.5677 197.853 26.7865 197.749 26.9844C197.645 27.1823 197.499 27.3385 197.311 27.4531C197.124 27.5677 196.91 27.625 196.671 27.625ZM200.936 29.0625C201.176 29.0625 201.363 29.1302 201.499 29.2656C201.634 29.401 201.702 29.6042 201.702 29.875C201.702 30.0417 201.66 30.2812 201.577 30.5938C201.504 30.9062 201.41 31.2552 201.296 31.6406C201.181 32.026 201.061 32.4115 200.936 32.7969C200.822 33.1719 200.723 33.5104 200.639 33.8125C200.566 34.1146 200.53 34.3385 200.53 34.4844C200.53 34.5781 200.551 34.6562 200.593 34.7188C200.645 34.7708 200.723 34.7969 200.827 34.7969C201.014 34.7969 201.228 34.6875 201.468 34.4688C201.718 34.25 201.973 33.9531 202.233 33.5781C202.504 33.2031 202.764 32.776 203.014 32.2969C203.275 31.8177 203.514 31.3125 203.733 30.7812C203.952 30.25 204.129 29.7188 204.264 29.1875H205.921C205.764 29.6771 205.603 30.2083 205.436 30.7812C205.28 31.3438 205.134 31.901 204.999 32.4531C204.863 32.9948 204.754 33.4844 204.671 33.9219C204.598 34.3594 204.561 34.6979 204.561 34.9375C204.78 34.8125 204.988 34.651 205.186 34.4531C205.395 34.2552 205.603 34.026 205.811 33.7656L206.249 34.2656C205.988 34.6094 205.702 34.9219 205.389 35.2031C205.087 35.4844 204.775 35.7083 204.452 35.875C204.139 36.0417 203.843 36.125 203.561 36.125C203.343 36.125 203.171 36.0573 203.046 35.9219C202.931 35.7865 202.874 35.5885 202.874 35.3281C202.874 35.1719 202.905 34.9323 202.968 34.6094C203.03 34.276 203.124 33.8542 203.249 33.3438C203.384 32.8333 203.561 32.2188 203.78 31.5H203.921C203.712 32.1667 203.457 32.7812 203.155 33.3438C202.853 33.9062 202.52 34.3958 202.155 34.8125C201.801 35.2292 201.426 35.5521 201.03 35.7812C200.645 36.0104 200.264 36.125 199.889 36.125C199.535 36.125 199.254 36.0365 199.046 35.8594C198.848 35.6719 198.749 35.401 198.749 35.0469C198.749 34.8802 198.785 34.6406 198.858 34.3281C198.941 34.0156 199.04 33.6667 199.155 33.2812C199.28 32.8854 199.4 32.4896 199.514 32.0938C199.639 31.6979 199.738 31.3385 199.811 31.0156C199.895 30.6927 199.936 30.4427 199.936 30.2656C199.718 30.3906 199.504 30.5521 199.296 30.75C199.098 30.9479 198.895 31.1979 198.686 31.5L198.249 30.9219C198.509 30.5781 198.79 30.2656 199.093 29.9844C199.405 29.7031 199.718 29.4792 200.03 29.3125C200.353 29.1458 200.655 29.0625 200.936 29.0625ZM208.468 36.125C208.072 36.125 207.718 36.0677 207.405 35.9531C207.093 35.8281 206.848 35.6719 206.671 35.4844C206.504 35.2865 206.421 35.0781 206.421 34.8594C206.421 34.6823 206.457 34.5156 206.53 34.3594C206.603 34.2031 206.702 34.0625 206.827 33.9375C207.129 34.3021 207.462 34.6094 207.827 34.8594C208.202 35.099 208.535 35.2188 208.827 35.2188C209.077 35.2188 209.27 35.1562 209.405 35.0312C209.551 34.9062 209.624 34.7188 209.624 34.4688C209.624 34.2917 209.556 34.1198 209.421 33.9531C209.285 33.776 209.014 33.5417 208.608 33.25C208.275 32.9896 208.009 32.7604 207.811 32.5625C207.613 32.3542 207.473 32.1562 207.389 31.9688C207.306 31.7708 207.264 31.5625 207.264 31.3438C207.264 30.9062 207.389 30.5156 207.639 30.1719C207.889 29.8281 208.223 29.5573 208.639 29.3594C209.056 29.1615 209.514 29.0625 210.014 29.0625C210.337 29.0625 210.634 29.1042 210.905 29.1875C211.176 29.2708 211.395 29.3958 211.561 29.5625C211.738 29.7188 211.827 29.9219 211.827 30.1719C211.827 30.3385 211.796 30.4896 211.733 30.625C211.671 30.7604 211.582 30.8906 211.468 31.0156C211.145 30.651 210.827 30.3802 210.514 30.2031C210.212 30.0156 209.936 29.9219 209.686 29.9219C209.436 29.9219 209.228 29.9948 209.061 30.1406C208.905 30.2865 208.827 30.474 208.827 30.7031C208.827 30.8281 208.858 30.9479 208.921 31.0625C208.983 31.1771 209.093 31.3073 209.249 31.4531C209.415 31.599 209.645 31.7865 209.936 32.0156C210.27 32.2656 210.525 32.4896 210.702 32.6875C210.889 32.8854 211.02 33.0729 211.093 33.25C211.176 33.4271 211.218 33.6198 211.218 33.8281C211.218 34.2448 211.093 34.6302 210.843 34.9844C210.593 35.3281 210.259 35.6042 209.843 35.8125C209.426 36.0208 208.968 36.125 208.468 36.125ZM224.78 26.75L224.561 29.4219L223.718 29.5L223.468 27.7188C223.363 27.6979 223.259 27.6875 223.155 27.6875C223.051 27.6771 222.941 27.6719 222.827 27.6719H222.264C222.171 27.6719 222.051 27.6719 221.905 27.6719C221.759 27.6719 221.639 27.6823 221.546 27.7031C221.525 27.7865 221.488 27.9375 221.436 28.1562C221.384 28.375 221.316 28.651 221.233 28.9844C221.16 29.3073 221.077 29.6875 220.983 30.125L220.436 32.7188C220.343 33.1562 220.264 33.5312 220.202 33.8438C220.15 34.1562 220.108 34.4115 220.077 34.6094C220.056 34.7969 220.035 34.9479 220.014 35.0625L221.311 35.2656L221.108 36H216.577L216.686 35.2656L218.077 35.0625C218.108 34.9583 218.15 34.8073 218.202 34.6094C218.254 34.4115 218.316 34.1562 218.389 33.8438C218.462 33.5208 218.546 33.1458 218.639 32.7188L219.186 30.125C219.332 29.4375 219.447 28.8906 219.53 28.4844C219.613 28.0677 219.66 27.8073 219.671 27.7031C219.577 27.6823 219.457 27.6719 219.311 27.6719C219.176 27.6719 219.056 27.6719 218.952 27.6719H218.436C218.311 27.6719 218.197 27.6771 218.093 27.6875C217.988 27.6875 217.879 27.6979 217.764 27.7188L216.749 29.5312L215.889 29.4375L216.78 26.75C216.936 26.7604 217.129 26.7708 217.358 26.7812C217.587 26.7917 217.822 26.8021 218.061 26.8125C218.301 26.8229 218.509 26.8281 218.686 26.8281H222.874C223.051 26.8281 223.254 26.8229 223.483 26.8125C223.723 26.8021 223.957 26.7917 224.186 26.7812C224.426 26.7708 224.624 26.7604 224.78 26.75ZM226.421 36.125C225.691 36.125 225.103 35.9062 224.655 35.4688C224.218 35.0312 223.999 34.4375 223.999 33.6875C223.999 33.0833 224.103 32.5052 224.311 31.9531C224.53 31.401 224.822 30.9115 225.186 30.4844C225.561 30.0469 225.994 29.7031 226.483 29.4531C226.973 29.1927 227.494 29.0625 228.046 29.0625C228.619 29.0625 229.051 29.1875 229.343 29.4375C229.634 29.6771 229.78 29.974 229.78 30.3281C229.78 30.5781 229.707 30.8281 229.561 31.0781C229.426 31.3281 229.197 31.5833 228.874 31.8438C228.561 32.0938 228.134 32.3594 227.593 32.6406C227.051 32.9115 226.379 33.1927 225.577 33.4844V32.7188C226.181 32.4792 226.671 32.2396 227.046 32C227.421 31.75 227.691 31.5 227.858 31.25C228.035 30.9896 228.124 30.724 228.124 30.4531C228.124 30.276 228.072 30.1354 227.968 30.0312C227.863 29.9167 227.718 29.8594 227.53 29.8594C227.249 29.8594 226.973 30.0052 226.702 30.2969C226.441 30.5885 226.223 30.9948 226.046 31.5156C225.879 32.026 225.796 32.6198 225.796 33.2969C225.796 33.8073 225.905 34.1927 226.124 34.4531C226.353 34.7135 226.65 34.8438 227.014 34.8438C227.275 34.8438 227.582 34.7656 227.936 34.6094C228.301 34.4427 228.65 34.151 228.983 33.7344L229.421 34.375C228.994 34.9583 228.509 35.3958 227.968 35.6875C227.426 35.9792 226.91 36.125 226.421 36.125ZM233.905 30C233.613 30 233.332 30.1458 233.061 30.4375C232.801 30.7292 232.587 31.125 232.421 31.625C232.264 32.1146 232.191 32.6719 232.202 33.2969C232.212 33.8073 232.322 34.1927 232.53 34.4531C232.749 34.7031 233.025 34.8281 233.358 34.8281C233.598 34.8281 233.889 34.7448 234.233 34.5781C234.577 34.401 234.91 34.1198 235.233 33.7344L235.671 34.375C235.244 34.9583 234.764 35.3958 234.233 35.6875C233.702 35.9792 233.223 36.125 232.796 36.125C232.337 36.125 231.921 36.026 231.546 35.8281C231.181 35.6302 230.889 35.349 230.671 34.9844C230.462 34.6198 230.358 34.1875 230.358 33.6875C230.358 33.1146 230.457 32.5521 230.655 32C230.863 31.4479 231.15 30.9531 231.514 30.5156C231.889 30.0677 232.327 29.7135 232.827 29.4531C233.327 29.1927 233.874 29.0625 234.468 29.0625C234.947 29.0625 235.332 29.1615 235.624 29.3594C235.915 29.5469 236.061 29.8229 236.061 30.1875C236.061 30.3542 236.025 30.5208 235.952 30.6875C235.879 30.8438 235.785 30.9792 235.671 31.0938C235.389 30.7604 235.087 30.4948 234.764 30.2969C234.441 30.099 234.155 30 233.905 30ZM238.999 30.6875C238.915 31.0208 238.827 31.3438 238.733 31.6562C238.639 31.9583 238.54 32.276 238.436 32.6094C238.343 32.9427 238.228 33.3073 238.093 33.7031H237.983C238.202 33.0469 238.468 32.4375 238.78 31.875C239.093 31.3021 239.436 30.8073 239.811 30.3906C240.186 29.974 240.572 29.651 240.968 29.4219C241.374 29.1823 241.77 29.0625 242.155 29.0625C242.499 29.0625 242.77 29.1562 242.968 29.3438C243.176 29.5208 243.28 29.7917 243.28 30.1562C243.28 30.3125 243.238 30.5521 243.155 30.875C243.082 31.1875 242.983 31.5417 242.858 31.9375C242.744 32.3229 242.624 32.7135 242.499 33.1094C242.384 33.5052 242.285 33.8646 242.202 34.1875C242.129 34.5104 242.093 34.7604 242.093 34.9375C242.301 34.8125 242.509 34.651 242.718 34.4531C242.926 34.2552 243.134 34.026 243.343 33.7656L243.78 34.2656C243.52 34.6094 243.233 34.9219 242.921 35.2031C242.619 35.4844 242.311 35.7083 241.999 35.875C241.697 36.0417 241.405 36.125 241.124 36.125C240.874 36.125 240.676 36.0573 240.53 35.9219C240.395 35.7865 240.327 35.5885 240.327 35.3281C240.327 35.1615 240.363 34.9219 240.436 34.6094C240.52 34.2865 240.619 33.9323 240.733 33.5469C240.858 33.151 240.978 32.7656 241.093 32.3906C241.207 32.0052 241.301 31.6615 241.374 31.3594C241.457 31.0469 241.499 30.8229 241.499 30.6875C241.499 30.4896 241.405 30.3906 241.218 30.3906C241.03 30.3906 240.811 30.5 240.561 30.7188C240.311 30.9375 240.046 31.2344 239.764 31.6094C239.483 31.9844 239.207 32.4115 238.936 32.8906C238.665 33.3698 238.421 33.8802 238.202 34.4219C237.983 34.9531 237.811 35.4792 237.686 36H235.999C236.207 35.3438 236.395 34.7135 236.561 34.1094C236.728 33.4948 236.884 32.8906 237.03 32.2969C237.186 31.6927 237.332 31.0833 237.468 30.4688L238.358 26.5625L237.233 26.4062L237.358 25.8594L240.108 25.125L240.436 25.375C240.332 25.75 240.223 26.1406 240.108 26.5469C239.994 26.9427 239.884 27.3438 239.78 27.75C239.676 28.1458 239.572 28.5312 239.468 28.9062L238.999 30.6875ZM245.749 36.1562C245.395 36.1562 245.098 36.0417 244.858 35.8125C244.619 35.5729 244.499 35.2812 244.499 34.9375C244.499 34.5833 244.619 34.2865 244.858 34.0469C245.098 33.8073 245.395 33.6875 245.749 33.6875C246.113 33.6875 246.415 33.8073 246.655 34.0469C246.895 34.2865 247.014 34.5833 247.014 34.9375C247.014 35.2812 246.895 35.5729 246.655 35.8125C246.415 36.0417 246.113 36.1562 245.749 36.1562ZM246.733 31.5C246.379 31.5 246.077 31.3854 245.827 31.1562C245.587 30.9271 245.468 30.6354 245.468 30.2812C245.468 29.9271 245.587 29.6302 245.827 29.3906C246.077 29.151 246.379 29.0312 246.733 29.0312C247.098 29.0312 247.4 29.151 247.639 29.3906C247.879 29.6302 247.999 29.9271 247.999 30.2812C247.999 30.6354 247.879 30.9271 247.639 31.1562C247.4 31.3854 247.098 31.5 246.733 31.5Z" fill="#004A62"/>
<defs>
<radialGradient id="paint0_radial_332_34" cx="0" cy="0" r="1" gradientUnits="userSpaceOnUse" gradientTransform="translate(29.5535 34.7601) rotate(180) scale(24.0925 44.6159)">
<stop stop-color="#067BC1"/>
<stop offset="1" stop-color="#48ADEA"/>
</radialGradient>
<radialGradient id="paint1_diamond_332_34" cx="0" cy="0" r="1" gradientUnits="userSpaceOnUse" gradientTransform="translate(19.8802 31) rotate(90) scale(30 19.2149)">
<stop stop-color="#7B7B7B"/>
<stop offset="1" stop-color="#383838"/>
</radialGradient>
<radialGradient id="paint2_diamond_332_34" cx="0" cy="0" r="1" gradientUnits="userSpaceOnUse" gradientTransform="translate(19.8802 31) rotate(90) scale(30 19.2149)">
<stop stop-color="#7B7B7B"/>
<stop offset="1" stop-color="#383838"/>
</radialGradient>
<radialGradient id="paint3_diamond_332_34" cx="0" cy="0" r="1" gradientUnits="userSpaceOnUse" gradientTransform="translate(19.8802 31) rotate(90) scale(30 19.2149)">
<stop stop-color="#7B7B7B"/>
<stop offset="1" stop-color="#383838"/>
</radialGradient>
</defs>
</svg>
