<svg width="250" height="75" viewBox="0 0 250 75" fill="none" xmlns="http://www.w3.org/2000/svg">
<g clip-path="url(#clip0_434_541)">
<path d="M240.736 74.9853H9.26379C4.17129 74.9853 0.00476074 70.8217 0.00476074 65.7327V10.217C0.00476074 5.128 4.17129 0.964355 9.26379 0.964355H240.736C245.829 0.964355 249.995 5.128 249.995 10.217V65.7327C249.995 70.8217 245.829 74.9853 240.736 74.9853Z" fill="#100F0D"/>
<path d="M240.736 0.964355H9.26379C4.17129 0.964355 0.00476074 5.128 0.00476074 10.217V65.7327C0.00476074 70.8217 4.17129 74.9853 9.26379 74.9853H240.736C245.829 74.9853 249.995 70.8217 249.995 65.7327V10.217C249.995 5.128 245.829 0.964355 240.736 0.964355ZM240.736 2.44403C245.025 2.44403 248.514 5.93119 248.514 10.217V65.7327C248.514 70.0185 245.025 73.5056 240.736 73.5056H9.26379C4.97504 73.5056 1.48698 70.0185 1.48698 65.7327V10.217C1.48698 5.93119 4.97504 2.44403 9.26379 2.44403H240.736Z" fill="#A2A2A1"/>
<path d="M198.028 56.4802H201.483V33.3448H198.028V56.4802ZM229.151 41.6793L225.19 51.709H225.072L220.961 41.6793H217.239L223.405 55.6974L219.889 63.4955H223.492L232.994 41.68L229.151 41.6793ZM209.554 53.8523C208.425 53.8523 206.845 53.2862 206.845 51.8875C206.845 50.102 208.812 49.4174 210.508 49.4174C212.026 49.4174 212.743 49.7442 213.665 50.191C213.397 52.3342 211.55 53.8523 209.554 53.8523ZM209.973 41.1733C207.471 41.1733 204.88 42.2749 203.808 44.7154L206.875 45.9949C207.53 44.7154 208.75 44.2991 210.032 44.2991C211.819 44.2991 213.636 45.3696 213.665 47.2751V47.5129C213.039 47.1557 211.699 46.6202 210.062 46.6202C206.754 46.6202 203.389 48.4352 203.389 51.8282C203.389 54.9236 206.101 56.9179 209.138 56.9179C211.46 56.9179 212.743 55.8762 213.545 54.6555H213.665V56.4423H217.002V47.572C217.002 43.4647 213.932 41.1733 209.973 41.1733ZM188.617 44.4956H183.702V36.5659H188.617C191.2 36.5659 192.667 38.7028 192.667 40.5307C192.667 42.3235 191.2 44.4956 188.617 44.4956ZM188.528 33.3454H180.249V56.4807H183.703V47.7161H188.528C192.358 47.7161 196.123 44.9461 196.123 40.5315C196.123 36.1178 192.358 33.3454 188.528 33.3454ZM143.38 53.8562C140.992 53.8562 138.994 51.8581 138.994 49.1164C138.994 46.3428 140.992 44.3165 143.38 44.3165C145.736 44.3165 147.586 46.3429 147.586 49.1164C147.586 51.8581 145.736 53.8562 143.38 53.8562ZM147.347 42.9744H147.228C146.452 42.0504 144.96 41.2156 143.082 41.2156C139.143 41.2156 135.533 44.6745 135.533 49.1164C135.533 53.5281 139.143 56.9565 143.082 56.9565C144.96 56.9565 146.452 56.1215 147.228 55.1682H147.347V56.3001C147.347 59.3124 145.736 60.9214 143.141 60.9214C141.024 60.9214 139.711 59.4012 139.173 58.1194L136.161 59.3714C137.025 61.4575 139.322 64.0224 143.141 64.0224C147.199 64.0224 150.63 61.6368 150.63 55.8229V41.6924H147.347L147.347 42.9744ZM153.017 56.4795H156.476V33.3441H153.017V56.4795ZM161.578 48.8476C161.489 45.8065 163.936 44.2566 165.695 44.2566C167.068 44.2566 168.231 44.9425 168.62 45.9257L161.578 48.8476ZM172.318 46.2235C171.662 44.4656 169.663 41.2156 165.576 41.2156C161.518 41.2156 158.147 44.4055 158.147 49.0861C158.147 53.4985 161.489 56.9567 165.963 56.9567C169.573 56.9567 171.662 54.7512 172.528 53.4688L169.842 51.6798C168.947 52.9918 167.724 53.8563 165.963 53.8563C164.204 53.8563 162.95 53.0511 162.146 51.471L172.676 47.1186L172.318 46.2235ZM88.4164 43.6306V46.9695H96.4116C96.1729 48.8477 95.5464 50.2188 94.5916 51.173C93.4277 52.3353 91.6078 53.6177 88.4163 53.6177C83.4936 53.6177 79.6455 49.6528 79.6455 44.7337C79.6455 39.8146 83.4936 35.8492 88.4163 35.8492C91.0716 35.8492 93.0103 36.8929 94.4424 38.2345L96.7999 35.8788C94.8005 33.971 92.1457 32.5103 88.4163 32.5103C81.673 32.5103 76.0048 37.9959 76.0048 44.7337C76.0048 51.4709 81.673 56.9567 88.4163 56.9567C92.0555 56.9567 94.8006 55.764 96.9482 53.5282C99.156 51.3219 99.8424 48.2216 99.8424 45.7169C99.8424 44.9427 99.7822 44.2271 99.663 43.6306H88.4164ZM108.933 53.8562C106.546 53.8562 104.487 51.8885 104.487 49.0861C104.487 46.2539 106.546 44.3167 108.933 44.3167C111.319 44.3167 113.378 46.2539 113.378 49.0861C113.378 51.8885 111.319 53.8562 108.933 53.8562ZM108.933 41.2156C104.576 41.2156 101.027 44.5247 101.027 49.0861C101.027 53.6177 104.576 56.9567 108.933 56.9567C113.288 56.9567 116.839 53.6177 116.839 49.0861C116.839 44.5247 113.288 41.2156 108.933 41.2156ZM126.179 53.8562C123.793 53.8562 121.734 51.8885 121.734 49.0861C121.734 46.2539 123.794 44.3167 126.179 44.3167C128.566 44.3167 130.624 46.2539 130.624 49.0861C130.624 51.8885 128.566 53.8562 126.179 53.8562ZM126.179 41.2156C121.824 41.2156 118.274 44.5247 118.274 49.0861C118.274 53.6177 121.824 56.9567 126.179 56.9567C130.536 56.9567 134.085 53.6177 134.085 49.0861C134.085 44.5247 130.536 41.2156 126.179 41.2156Z" fill="white"/>
<path d="M38.3639 36.9089L18.65 57.8195C18.6508 57.8238 18.6522 57.8274 18.6529 57.8318C19.2576 60.1025 21.3329 61.7744 23.796 61.7744C24.7806 61.7744 25.705 61.5083 26.4978 61.0414L26.5608 61.0045L48.7524 48.2078L38.3639 36.9089Z" fill="#EB3131"/>
<path d="M58.3098 33.3489L58.2909 33.336L48.71 27.7856L37.916 37.384L48.7475 48.2066L58.2778 42.7116C59.9487 41.8102 61.083 40.0499 61.083 38.0201C61.083 36.0048 59.9641 34.2532 58.3098 33.3489Z" fill="#F6B60B"/>
<path d="M18.6472 18.1313C18.5287 18.5681 18.4664 19.0255 18.4664 19.5006V56.4514C18.4664 56.9255 18.528 57.3845 18.648 57.8197L39.0424 37.4435L18.6472 18.1313Z" fill="#5778C5"/>
<path d="M38.5097 37.9763L48.7143 27.7818L26.5476 14.9388C25.7419 14.4565 24.8015 14.1782 23.7953 14.1782C21.3322 14.1782 19.254 15.8532 18.6493 18.1265C18.6486 18.1287 18.6486 18.1302 18.6486 18.1322L38.5097 37.9763Z" fill="#3BAD49"/>
<path d="M87.7681 19.0642H82.366V20.4001H86.4141C86.3041 21.4903 85.87 22.3461 85.138 22.9678C84.406 23.5896 83.4713 23.9017 82.366 23.9017C81.1537 23.9017 80.1265 23.4796 79.2847 22.6412C78.4599 21.7853 78.0404 20.7269 78.0404 19.4518C78.0404 18.1768 78.4599 17.1185 79.2847 16.2627C80.1265 15.4242 81.1537 15.0049 82.366 15.0049C82.9883 15.0049 83.5814 15.1118 84.1252 15.3461C84.6693 15.5802 85.1061 15.907 85.4476 16.3263L86.4748 15.2998C86.0089 14.7706 85.4187 14.3659 84.6864 14.0709C83.9544 13.7759 83.1906 13.6344 82.3659 13.6344C80.7485 13.6344 79.3771 14.1953 78.2573 15.3143C77.1375 16.4361 76.5762 17.8183 76.5762 19.4519C76.5762 21.0855 77.1374 22.4706 78.2573 23.5897C79.3771 24.7085 80.7485 25.2697 82.3659 25.2697C84.0644 25.2697 85.4185 24.726 86.4602 23.6213C87.3774 22.702 87.8461 21.4587 87.8461 19.9031C87.8461 19.6399 87.8144 19.3592 87.7681 19.0642ZM89.8609 13.8828V25.0208H96.3681V23.6531H91.2931V20.1198H95.8706V18.7839H91.2931V15.2534H96.3681V13.8828L89.8609 13.8828ZM105.493 15.2535V13.8828H97.8338V15.2535H100.947V25.0208H102.379V15.2535H105.493ZM112.427 13.8828H110.995V25.0208H112.427V13.8828ZM121.88 15.2535V13.8828H114.222V15.2535H117.335V25.0208H118.767V15.2535H121.88ZM136.333 15.3316C135.228 14.1952 133.874 13.6343 132.256 13.6343C130.636 13.6343 129.282 14.1952 128.177 15.3142C127.071 16.4188 126.527 17.8038 126.527 19.4518C126.527 21.0998 127.071 22.485 128.177 23.5896C129.282 24.7084 130.636 25.2696 132.256 25.2696C133.859 25.2696 135.228 24.7085 136.333 23.5896C137.439 22.485 137.982 21.0999 137.982 19.4518C137.982 17.8182 137.439 16.4359 136.333 15.3316ZM129.204 16.2626C130.028 15.4241 131.041 15.0048 132.256 15.0048C133.469 15.0048 134.481 15.4241 135.292 16.2626C136.116 17.0866 136.521 18.1621 136.521 19.4517C136.521 20.7443 136.116 21.8169 135.292 22.6411C134.481 23.4795 133.469 23.9016 132.256 23.9016C131.041 23.9016 130.028 23.4795 129.204 22.6411C128.396 21.7996 127.991 20.7443 127.991 19.4517C127.991 18.1621 128.396 17.1039 129.204 16.2626ZM141.385 18.0842L141.325 15.9357H141.385L147.051 25.0207H148.546V13.8827H147.114V20.4L147.175 22.5485H147.114L141.698 13.8827H139.953V25.0207H141.385V18.0842Z" fill="white" stroke="white" stroke-width="0.26666" stroke-miterlimit="10"/>
</g>
<defs>
<clipPath id="clip0_434_541">
<rect width="250" height="74.0223" fill="white" transform="translate(0 0.962891)"/>
</clipPath>
</defs>
</svg>
