<svg width="60" height="60" viewBox="0 0 60 60" fill="none" xmlns="http://www.w3.org/2000/svg">
<rect x="0.25" y="0.25" width="59.5" height="59.5" rx="14.75" fill="white"/>
<mask id="mask0_416_318" style="mask-type:luminance" maskUnits="userSpaceOnUse" x="14" y="14" width="32" height="32">
<path d="M45.2727 27.0909H30.3636V33.2727H38.9455C38.1455 37.2 34.8 39.4545 30.3636 39.4545C25.1273 39.4545 20.9091 35.2364 20.9091 30C20.9091 24.7636 25.1273 20.5455 30.3636 20.5455C32.6182 20.5455 34.6546 21.3455 36.2546 22.6545L40.9091 18C38.0727 15.5273 34.4364 14 30.3636 14C21.4909 14 14.3636 21.1273 14.3636 30C14.3636 38.8727 21.4909 46 30.3636 46C38.3636 46 45.6364 40.1818 45.6364 30C45.6364 29.0545 45.4909 28.0364 45.2727 27.0909Z" fill="white"/>
</mask>
<g mask="url(#mask0_416_318)">
<path d="M12.9091 39.4545V20.5454L25.2728 30L12.9091 39.4545Z" fill="#FBBC05"/>
</g>
<mask id="mask1_416_318" style="mask-type:luminance" maskUnits="userSpaceOnUse" x="14" y="14" width="32" height="32">
<path d="M45.2727 27.0909H30.3636V33.2727H38.9455C38.1455 37.2 34.8 39.4545 30.3636 39.4545C25.1273 39.4545 20.9091 35.2364 20.9091 30C20.9091 24.7636 25.1273 20.5455 30.3636 20.5455C32.6182 20.5455 34.6546 21.3455 36.2546 22.6545L40.9091 18C38.0727 15.5273 34.4364 14 30.3636 14C21.4909 14 14.3636 21.1273 14.3636 30C14.3636 38.8727 21.4909 46 30.3636 46C38.3636 46 45.6364 40.1818 45.6364 30C45.6364 29.0545 45.4909 28.0364 45.2727 27.0909Z" fill="white"/>
</mask>
<g mask="url(#mask1_416_318)">
<path d="M12.9091 20.5454L25.2728 30L30.3637 25.5636L47.8182 22.7272V12.5454H12.9091V20.5454Z" fill="#EA4335"/>
</g>
<mask id="mask2_416_318" style="mask-type:luminance" maskUnits="userSpaceOnUse" x="14" y="14" width="32" height="32">
<path d="M45.2727 27.0909H30.3636V33.2727H38.9455C38.1455 37.2 34.8 39.4545 30.3636 39.4545C25.1273 39.4545 20.9091 35.2364 20.9091 30C20.9091 24.7636 25.1273 20.5455 30.3636 20.5455C32.6182 20.5455 34.6546 21.3455 36.2546 22.6545L40.9091 18C38.0727 15.5273 34.4364 14 30.3636 14C21.4909 14 14.3636 21.1273 14.3636 30C14.3636 38.8727 21.4909 46 30.3636 46C38.3636 46 45.6364 40.1818 45.6364 30C45.6364 29.0545 45.4909 28.0364 45.2727 27.0909Z" fill="white"/>
</mask>
<g mask="url(#mask2_416_318)">
<path d="M12.9091 39.4545L34.7273 22.7272L40.4728 23.4545L47.8182 12.5454V47.4545H12.9091V39.4545Z" fill="#34A853"/>
</g>
<mask id="mask3_416_318" style="mask-type:luminance" maskUnits="userSpaceOnUse" x="14" y="14" width="32" height="32">
<path d="M45.2727 27.0909H30.3636V33.2727H38.9455C38.1455 37.2 34.8 39.4545 30.3636 39.4545C25.1273 39.4545 20.9091 35.2364 20.9091 30C20.9091 24.7636 25.1273 20.5455 30.3636 20.5455C32.6182 20.5455 34.6546 21.3455 36.2546 22.6545L40.9091 18C38.0727 15.5273 34.4364 14 30.3636 14C21.4909 14 14.3636 21.1273 14.3636 30C14.3636 38.8727 21.4909 46 30.3636 46C38.3636 46 45.6364 40.1818 45.6364 30C45.6364 29.0545 45.4909 28.0364 45.2727 27.0909Z" fill="white"/>
</mask>
<g mask="url(#mask3_416_318)">
<path d="M47.8182 47.4545L25.2727 30L22.3636 27.8181L47.8182 20.5454V47.4545Z" fill="#4285F4"/>
</g>
<rect x="0.25" y="0.25" width="59.5" height="59.5" rx="14.75" stroke="black" stroke-width="0.5"/>
</svg>
