<svg width="80" height="80" viewBox="0 0 80 80" fill="none" xmlns="http://www.w3.org/2000/svg">
<path d="M37.7617 52.2812C37.1289 52.2812 36.625 52.1289 36.25 51.8242C35.8984 51.4961 35.7227 50.9688 35.7227 50.2422C35.7227 49.8906 35.8164 49.3633 36.0039 48.6602C36.2148 47.957 36.4609 47.1602 36.7422 46.2695C37.0234 45.3789 37.293 44.4883 37.5508 43.5977C37.832 42.6836 38.0664 41.8516 38.2539 41.1016C38.4414 40.3516 38.5352 39.7773 38.5352 39.3789C38.0898 39.6602 37.6328 40.0234 37.1641 40.4688C36.7188 40.9141 36.2617 41.4766 35.793 42.1562L34.7031 40.7852C35.2891 39.9883 35.9453 39.25 36.6719 38.5703C37.4219 37.8672 38.1953 37.3164 38.9922 36.918C39.7891 36.4961 40.5391 36.2852 41.2422 36.2852C41.875 36.2852 42.3672 36.4609 42.7188 36.8125C43.0703 37.1641 43.2461 37.668 43.2461 38.3242C43.2461 38.6758 43.1523 39.2148 42.9648 39.9414C42.7773 40.6445 42.543 41.4531 42.2617 42.3672C42.0039 43.2812 41.7344 44.1953 41.4531 45.1094C41.1719 46 40.9258 46.8203 40.7148 47.5703C40.5273 48.2969 40.4336 48.8477 40.4336 49.2227C40.9023 48.9414 41.3594 48.5781 41.8047 48.1328C42.2734 47.6641 42.7422 47.1367 43.2109 46.5508L44.3008 47.7812C43.7148 48.5781 43.0469 49.3281 42.2969 50.0312C41.5703 50.7109 40.8086 51.2617 40.0117 51.6836C39.2383 52.082 38.4883 52.2812 37.7617 52.2812ZM42.1562 33.4375C41.2891 33.4375 40.6328 33.1914 40.1875 32.6992C39.7422 32.207 39.5195 31.5977 39.5195 30.8711C39.5195 30.3555 39.6484 29.8633 39.9062 29.3945C40.1875 28.9258 40.5625 28.5508 41.0312 28.2695C41.5 27.9648 42.0391 27.8125 42.6484 27.8125C43.4922 27.8125 44.125 28.0586 44.5469 28.5508C44.9922 29.0195 45.2148 29.5938 45.2148 30.2734C45.2148 30.8125 45.0859 31.3281 44.8281 31.8203C44.5703 32.3125 44.207 32.7109 43.7383 33.0156C43.293 33.2969 42.7656 33.4375 42.1562 33.4375Z" fill="#616161"/>
<rect x="2" y="2" width="76" height="76" rx="38" stroke="#616161" stroke-width="4"/>
</svg>
