<svg width="31" height="31" viewBox="0 0 31 31" fill="none" xmlns="http://www.w3.org/2000/svg">
<path d="M27.2494 6.15137L25.5744 5.45137V16.7389L28.6119 9.41387C29.1244 8.13887 28.5369 6.67637 27.2494 6.15137ZM2.8744 10.7764L9.0744 25.7139C9.25697 26.1683 9.56839 26.5595 9.97036 26.8394C10.3723 27.1192 10.8473 27.2754 11.3369 27.2889C11.6619 27.2889 11.9994 27.2264 12.3244 27.0889L21.5369 23.2764C22.4744 22.8889 23.0494 21.9639 23.0744 21.0389C23.0869 20.7139 23.0244 20.3514 22.9119 20.0264L16.6619 5.08887C16.4852 4.63139 16.1749 4.23769 15.7714 3.95901C15.3679 3.68033 14.8898 3.52958 14.3994 3.52637C14.0744 3.52637 13.7494 3.60137 13.4369 3.71387L4.2369 7.52637C3.62536 7.7768 3.13829 8.25984 2.88279 8.86928C2.62729 9.47873 2.62428 10.1647 2.8744 10.7764ZM23.0619 6.02637C23.0619 5.36333 22.7985 4.72744 22.3297 4.2586C21.8608 3.78976 21.2249 3.52637 20.5619 3.52637H18.7494L23.0619 13.9514" fill="#004866"/>
</svg>
