<svg width="225" height="36" viewBox="0 0 225 36" fill="none" xmlns="http://www.w3.org/2000/svg">
<path d="M2.224 35C1.904 35 1.616 34.888 1.36 34.664C1.104 34.408 0.976 34.104 0.976 33.752V2.648C0.976 2.296 1.104 2.008 1.36 1.784C1.616 1.528 1.904 1.4 2.224 1.4H9.856C10.208 1.4 10.496 1.528 10.72 1.784C10.976 2.008 11.104 2.296 11.104 2.648V12.728L18.256 2.408C18.416 2.184 18.64 1.96 18.928 1.736C19.216 1.512 19.616 1.4 20.128 1.4H28.912C29.2 1.4 29.44 1.512 29.632 1.736C29.856 1.928 29.968 2.168 29.968 2.456C29.968 2.648 29.904 2.824 29.776 2.984L19.696 17.48L30.64 33.416C30.768 33.544 30.832 33.72 30.832 33.944C30.832 34.232 30.72 34.488 30.496 34.712C30.304 34.904 30.064 35 29.776 35H20.704C20.096 35 19.632 34.856 19.312 34.568C19.024 34.28 18.848 34.072 18.784 33.944L11.104 22.808V33.752C11.104 34.104 10.976 34.408 10.72 34.664C10.496 34.888 10.208 35 9.856 35H2.224ZM33.3978 35C33.0778 35 32.7897 34.888 32.5337 34.664C32.2778 34.44 32.1498 34.136 32.1498 33.752V2.648C32.1498 2.296 32.2778 2.008 32.5337 1.784C32.7897 1.528 33.0778 1.4 33.3978 1.4H41.2218C41.5738 1.4 41.8618 1.528 42.0858 1.784C42.3418 2.008 42.4698 2.296 42.4698 2.648V13.496H52.2618V2.648C52.2618 2.296 52.3738 2.008 52.5978 1.784C52.8538 1.528 53.1578 1.4 53.5098 1.4H61.3338C61.6858 1.4 61.9738 1.528 62.1978 1.784C62.4538 2.008 62.5818 2.296 62.5818 2.648V33.752C62.5818 34.104 62.4538 34.408 62.1978 34.664C61.9738 34.888 61.6858 35 61.3338 35H53.5098C53.1578 35 52.8538 34.888 52.5978 34.664C52.3738 34.408 52.2618 34.104 52.2618 33.752V22.616H42.4698V33.752C42.4698 34.104 42.3418 34.408 42.0858 34.664C41.8618 34.888 41.5738 35 41.2218 35H33.3978ZM67.8996 35C67.5796 35 67.2916 34.888 67.0356 34.664C66.7796 34.408 66.6516 34.104 66.6516 33.752V2.648C66.6516 2.296 66.7796 2.008 67.0356 1.784C67.2916 1.528 67.5796 1.4 67.8996 1.4H91.4196C91.7716 1.4 92.0756 1.528 92.3316 1.784C92.5876 2.008 92.7156 2.296 92.7156 2.648V8.312C92.7156 8.632 92.5876 8.92 92.3316 9.176C92.0756 9.432 91.7716 9.56 91.4196 9.56H76.5876V14.312H90.3636C90.7156 14.312 91.0196 14.44 91.2756 14.696C91.5316 14.92 91.6596 15.208 91.6596 15.56V20.744C91.6596 21.096 91.5316 21.4 91.2756 21.656C91.0196 21.88 90.7156 21.992 90.3636 21.992H76.5876V26.84H91.8036C92.1556 26.84 92.4596 26.968 92.7156 27.224C92.9716 27.48 93.0996 27.784 93.0996 28.136V33.752C93.0996 34.104 92.9716 34.408 92.7156 34.664C92.4596 34.888 92.1556 35 91.8036 35H67.8996ZM97.339 35C97.019 35 96.731 34.888 96.475 34.664C96.219 34.408 96.091 34.104 96.091 33.752V2.648C96.091 2.296 96.219 2.008 96.475 1.784C96.731 1.528 97.019 1.4 97.339 1.4H111.019C115.371 1.4 118.779 2.392 121.243 4.376C123.739 6.36 124.987 9.128 124.987 12.68C124.987 14.92 124.475 16.824 123.451 18.392C122.427 19.96 121.083 21.192 119.419 22.088L125.659 33.416C125.755 33.608 125.803 33.784 125.803 33.944C125.803 34.232 125.707 34.488 125.515 34.712C125.323 34.904 125.083 35 124.795 35H116.683C116.075 35 115.611 34.856 115.291 34.568C114.971 34.248 114.763 33.96 114.667 33.704L109.867 23.816H106.411V33.752C106.411 34.104 106.283 34.408 106.027 34.664C105.803 34.888 105.515 35 105.163 35H97.339ZM106.411 15.896H110.971C112.091 15.896 112.923 15.592 113.467 14.984C114.011 14.344 114.283 13.56 114.283 12.632C114.283 11.672 114.011 10.856 113.467 10.184C112.955 9.512 112.123 9.176 110.971 9.176H106.411V15.896ZM129.404 35C129.052 35 128.748 34.888 128.492 34.664C128.236 34.408 128.108 34.104 128.108 33.752V2.648C128.108 2.296 128.236 2.008 128.492 1.784C128.748 1.528 129.052 1.4 129.404 1.4H135.789C136.365 1.4 136.797 1.56 137.085 1.88C137.373 2.2 137.565 2.424 137.661 2.552L145.341 15.896L153.021 2.552C153.117 2.424 153.309 2.2 153.597 1.88C153.885 1.56 154.317 1.4 154.892 1.4H161.277C161.629 1.4 161.917 1.528 162.141 1.784C162.397 2.008 162.525 2.296 162.525 2.648V33.752C162.525 34.104 162.397 34.408 162.141 34.664C161.917 34.888 161.629 35 161.277 35H154.077C153.725 35 153.421 34.888 153.165 34.664C152.941 34.408 152.829 34.104 152.829 33.752V18.2L148.509 25.784C148.349 26.04 148.141 26.296 147.885 26.552C147.629 26.808 147.261 26.936 146.781 26.936H143.853C143.405 26.936 143.053 26.808 142.797 26.552C142.541 26.296 142.333 26.04 142.173 25.784L137.853 18.2V33.752C137.853 34.104 137.725 34.408 137.468 34.664C137.244 34.888 136.956 35 136.605 35H129.404ZM167.843 35C167.523 35 167.235 34.888 166.979 34.664C166.723 34.408 166.595 34.104 166.595 33.752V2.648C166.595 2.296 166.723 2.008 166.979 1.784C167.235 1.528 167.523 1.4 167.843 1.4H191.363C191.715 1.4 192.019 1.528 192.275 1.784C192.531 2.008 192.659 2.296 192.659 2.648V8.312C192.659 8.632 192.531 8.92 192.275 9.176C192.019 9.432 191.715 9.56 191.363 9.56H176.531V14.312H190.307C190.659 14.312 190.963 14.44 191.219 14.696C191.475 14.92 191.603 15.208 191.603 15.56V20.744C191.603 21.096 191.475 21.4 191.219 21.656C190.963 21.88 190.659 21.992 190.307 21.992H176.531V26.84H191.747C192.099 26.84 192.403 26.968 192.659 27.224C192.915 27.48 193.043 27.784 193.043 28.136V33.752C193.043 34.104 192.915 34.408 192.659 34.664C192.403 34.888 192.099 35 191.747 35H167.843ZM209.33 35.48C205.97 35.48 203.17 35.016 200.93 34.088C198.722 33.128 197.058 31.896 195.938 30.392C194.85 28.856 194.274 27.24 194.21 25.544C194.21 25.256 194.306 25.016 194.498 24.824C194.69 24.632 194.93 24.536 195.218 24.536H202.85C203.298 24.536 203.65 24.616 203.906 24.776C204.162 24.904 204.434 25.096 204.722 25.352C205.01 25.704 205.346 26.04 205.73 26.36C206.114 26.648 206.61 26.888 207.218 27.08C207.826 27.24 208.53 27.32 209.33 27.32C210.802 27.32 211.938 27.128 212.738 26.744C213.538 26.328 213.938 25.768 213.938 25.064C213.938 24.52 213.714 24.072 213.266 23.72C212.85 23.368 212.13 23.048 211.106 22.76C210.082 22.472 208.69 22.168 206.93 21.848C204.466 21.432 202.338 20.824 200.546 20.024C198.754 19.192 197.378 18.088 196.418 16.712C195.49 15.304 195.026 13.576 195.026 11.528C195.026 9.448 195.602 7.608 196.754 6.008C197.938 4.408 199.57 3.16 201.65 2.264C203.762 1.368 206.21 0.919998 208.994 0.919998C211.298 0.919998 213.33 1.224 215.09 1.832C216.882 2.44 218.386 3.24 219.602 4.232C220.818 5.192 221.746 6.232 222.386 7.352C223.026 8.472 223.362 9.544 223.394 10.568C223.394 10.856 223.282 11.112 223.058 11.336C222.866 11.528 222.642 11.624 222.386 11.624H214.37C213.986 11.624 213.65 11.56 213.362 11.432C213.106 11.304 212.866 11.096 212.642 10.808C212.482 10.36 212.082 9.96 211.442 9.608C210.802 9.256 209.986 9.08 208.994 9.08C207.906 9.08 207.074 9.272 206.498 9.656C205.922 10.008 205.634 10.536 205.634 11.24C205.634 11.72 205.81 12.136 206.162 12.488C206.514 12.84 207.138 13.16 208.034 13.448C208.93 13.704 210.178 13.992 211.778 14.312C214.818 14.76 217.266 15.4 219.122 16.232C221.01 17.064 222.386 18.152 223.25 19.496C224.114 20.84 224.546 22.52 224.546 24.536C224.546 26.808 223.89 28.76 222.578 30.392C221.266 32.024 219.458 33.288 217.154 34.184C214.882 35.048 212.274 35.48 209.33 35.48Z" fill="#004866"/>
</svg>
