<svg width="42" height="42" viewBox="0 0 42 42" fill="none" xmlns="http://www.w3.org/2000/svg">
<path d="M24.9999 15.6667V9C24.9999 7.93913 24.5785 6.92172 23.8283 6.17157C23.0782 5.42143 22.0608 5 20.9999 5H10.3333C9.27239 5 8.25497 5.42143 7.50483 6.17157C6.75468 6.92172 6.33325 7.93913 6.33325 9V33C6.33325 34.0609 6.75468 35.0783 7.50483 35.8284C8.25497 36.5786 9.27239 37 10.3333 37H20.9999C22.0608 37 23.0782 36.5786 23.8283 35.8284C24.5785 35.0783 24.9999 34.0609 24.9999 33V26.3333M30.3333 26.3333L35.6666 21M35.6666 21L30.3333 15.6667M35.6666 21H12.9999" stroke="white" stroke-width="1.5" stroke-linecap="round" stroke-linejoin="round"/>
</svg>
