<svg width="74" height="50" viewBox="0 0 74 50" fill="none" xmlns="http://www.w3.org/2000/svg">
<path d="M0 25C0 11.1929 11.1929 0 25 0H74V30C74 41.0457 65.0457 50 54 50H0V25Z" fill="black" fill-opacity="0.27"/>
<path d="M43.0231 22.3479H48.0151L44.8341 19.1649C43.81 18.1408 42.5343 17.4043 41.1353 17.0295C39.7363 16.6548 38.2633 16.6549 36.8644 17.0299C35.4654 17.4049 34.1899 18.1415 33.1659 19.1658C32.1419 20.1901 31.4057 21.4659 31.0311 22.8649M29.9851 32.6439V27.6519M29.9851 27.6519H34.9771M29.9851 27.6519L33.1651 30.8349C34.1892 31.8591 35.4649 32.5955 36.8639 32.9703C38.2629 33.3451 39.7359 33.345 41.1348 32.97C42.5338 32.595 43.8093 31.8584 44.8333 30.8341C45.8573 29.8098 46.5935 28.534 46.9681 27.1349M48.0151 17.3559V22.3459" stroke="white" stroke-width="1.5" stroke-linecap="round" stroke-linejoin="round"/>
</svg>
