<svg width="22" height="23" viewBox="0 0 22 23" fill="none" xmlns="http://www.w3.org/2000/svg">
<path d="M2.78516 8.24152C2.78516 7.4598 3.6293 6.97032 4.30787 7.35756L10.7389 11.0327C10.8946 11.1218 11.024 11.2504 11.114 11.4055C11.204 11.5607 11.2513 11.7369 11.2513 11.9162C11.2513 12.0956 11.204 12.2717 11.114 12.4269C11.024 12.582 10.8946 12.7106 10.7389 12.7997L4.30787 16.4748C4.153 16.5633 3.97759 16.6095 3.79924 16.6089C3.62088 16.6082 3.44582 16.5607 3.29161 16.4711C3.1374 16.3815 3.00944 16.2529 2.92055 16.0983C2.83167 15.9436 2.78498 15.7684 2.78516 15.59V8.24152ZM11.6066 8.24152C11.6066 7.4598 12.4507 6.97032 13.1293 7.35756L19.5603 11.0327C19.716 11.1218 19.8454 11.2504 19.9354 11.4055C20.0254 11.5607 20.0728 11.7369 20.0728 11.9162C20.0728 12.0956 20.0254 12.2717 19.9354 12.4269C19.8454 12.582 19.716 12.7106 19.5603 12.7997L13.1293 16.4748C12.9745 16.5633 12.7992 16.6095 12.6209 16.6089C12.4426 16.6082 12.2676 16.5608 12.1134 16.4713C11.9592 16.3818 11.8313 16.2534 11.7423 16.0989C11.6534 15.9443 11.6066 15.7692 11.6066 15.5909V8.24152Z" stroke="white" stroke-width="1.35714" stroke-linecap="round" stroke-linejoin="round"/>
</svg>
