<svg width="32" height="32" viewBox="0 0 32 32" fill="none" xmlns="http://www.w3.org/2000/svg">
<path d="M5.30667 10.964C4.05928 12.4362 3.13043 14.1509 2.57867 16C4.30134 21.784 9.65867 26 16 26C17.324 26 18.604 25.816 19.8173 25.4733M8.30401 8.304C10.5875 6.79708 13.2641 5.99576 16 6C22.3413 6 27.6973 10.216 29.42 15.9973C28.4758 19.1564 26.4493 21.882 23.696 23.696M8.30401 8.304L4.00001 4M8.30401 8.304L13.1707 13.1707M23.696 23.696L28 28M23.696 23.696L18.8293 18.8293C19.2008 18.4579 19.4955 18.0169 19.6965 17.5315C19.8975 17.0462 20.001 16.526 20.001 16.0007C20.001 15.4753 19.8975 14.9551 19.6965 14.4698C19.4955 13.9845 19.2008 13.5435 18.8293 13.172C18.4579 12.8005 18.0169 12.5059 17.5315 12.3048C17.0462 12.1038 16.526 12.0003 16.0007 12.0003C15.4753 12.0003 14.9552 12.1038 14.4698 12.3048C13.9845 12.5059 13.5435 12.8005 13.172 13.172M18.828 18.828L13.1733 13.1733" stroke="black" stroke-width="1.5" stroke-linecap="round" stroke-linejoin="round"/>
</svg>
