<svg width="32" height="32" viewBox="0 0 32 32" fill="none" xmlns="http://www.w3.org/2000/svg">
<path d="M2.71467 16.4293C2.62266 16.1528 2.62266 15.8539 2.71467 15.5773C4.56401 10.0133 9.81334 6 16 6C22.184 6 27.4307 10.0093 29.284 15.5707C29.3773 15.8467 29.3773 16.1453 29.284 16.4227C27.436 21.9867 22.1867 26 16 26C9.81601 26 4.56801 21.9907 2.71467 16.4293Z" stroke="black" stroke-width="1.5" stroke-linecap="round" stroke-linejoin="round"/>
<path d="M20 16C20 17.0609 19.5786 18.0783 18.8284 18.8284C18.0783 19.5786 17.0609 20 16 20C14.9391 20 13.9217 19.5786 13.1716 18.8284C12.4214 18.0783 12 17.0609 12 16C12 14.9391 12.4214 13.9217 13.1716 13.1716C13.9217 12.4214 14.9391 12 16 12C17.0609 12 18.0783 12.4214 18.8284 13.1716C19.5786 13.9217 20 14.9391 20 16Z" stroke="black" stroke-width="1.5" stroke-linecap="round" stroke-linejoin="round"/>
</svg>
