<svg width="20" height="21" viewBox="0 0 20 21" fill="none" xmlns="http://www.w3.org/2000/svg">
<path d="M1.875 6.125C1.875 13.0283 7.47167 18.625 14.375 18.625H16.25C16.7473 18.625 17.2242 18.4275 17.5758 18.0758C17.9275 17.7242 18.125 17.2473 18.125 16.75V15.6067C18.125 15.1767 17.8325 14.8017 17.415 14.6975L13.7292 13.7758C13.3625 13.6842 12.9775 13.8217 12.7517 14.1233L11.9433 15.2008C11.7083 15.5142 11.3025 15.6525 10.935 15.5175C9.57073 15.0159 8.33179 14.2238 7.30398 13.196C6.27618 12.1682 5.48406 10.9293 4.9825 9.565C4.8475 9.1975 4.98583 8.79167 5.29917 8.55667L6.37667 7.74833C6.67917 7.5225 6.81583 7.13667 6.72417 6.77083L5.8025 3.085C5.75178 2.88225 5.63477 2.70225 5.47004 2.57361C5.30532 2.44498 5.10234 2.37507 4.89333 2.375H3.75C3.25272 2.375 2.77581 2.57254 2.42417 2.92417C2.07254 3.27581 1.875 3.75272 1.875 4.25V6.125Z" stroke="#010101" stroke-width="1.5" stroke-linecap="round" stroke-linejoin="round"/>
</svg>
