<svg width="400" height="400" viewBox="0 0 400 400" fill="none" xmlns="http://www.w3.org/2000/svg">
<path opacity="0.7" d="M54.3461 133.939C54.3461 133.939 32.0968 191.398 63.364 249.255C94.6312 307.113 159.033 337.678 210.578 363.814C262.124 389.95 315.648 377.221 341.082 334.414C366.515 291.607 331.633 261.05 331.585 200.008C331.537 138.966 340.723 122.806 307.644 71.2366C274.565 19.6673 193.476 8.24734 132.155 46.4974C70.8336 84.7475 54.3461 133.939 54.3461 133.939Z" fill="white"/>
<path d="M198.145 21.4467C20.589 31.3823 -17.5254 266.884 41.9366 338.907C88.0872 394.81 170.373 385.584 213.802 330.863C249.571 285.813 307.46 319.092 355.183 270.379C417.359 206.911 397.376 10.2981 198.145 21.4467Z" fill="#004866"/>
<path opacity="0.7" d="M198.145 21.4467C20.589 31.3823 -17.5254 266.884 41.9366 338.907C88.0872 394.81 170.373 385.584 213.802 330.863C249.571 285.813 307.46 319.092 355.183 270.379C417.359 206.911 397.376 10.2981 198.145 21.4467Z" fill="white"/>
<path d="M346.771 61.6515V286.651C346.771 287.249 346.534 287.822 346.113 288.245C345.691 288.668 345.118 288.907 344.521 288.909H209.468C208.869 288.909 208.295 288.671 207.871 288.248C207.448 287.824 207.21 287.25 207.21 286.651V61.6515C207.21 61.0525 207.448 60.4781 207.871 60.0546C208.295 59.631 208.869 59.3931 209.468 59.3931H246.729L247.95 63.5429H306.111L307.34 59.3931H344.561C345.151 59.4056 345.713 59.6491 346.127 60.0712C346.54 60.4934 346.771 61.0607 346.771 61.6515Z" fill="#004866"/>
<mask id="mask0_433_361" style="mask-type:luminance" maskUnits="userSpaceOnUse" x="207" y="59" width="140" height="230">
<path d="M346.771 61.6515V286.651C346.771 287.249 346.534 287.822 346.113 288.245C345.691 288.668 345.118 288.907 344.521 288.909H209.468C208.869 288.909 208.295 288.671 207.871 288.248C207.448 287.824 207.21 287.25 207.21 286.651V61.6515C207.21 61.0525 207.448 60.4781 207.871 60.0546C208.295 59.631 208.869 59.3931 209.468 59.3931H246.729L247.95 63.5429H306.111L307.34 59.3931H344.561C345.151 59.4056 345.713 59.6491 346.127 60.0712C346.54 60.4934 346.771 61.0607 346.771 61.6515Z" fill="white"/>
</mask>
<g mask="url(#mask0_433_361)">
<path opacity="0.5" d="M346.771 81.1479V286.651C346.771 287.249 346.534 287.822 346.113 288.245C345.691 288.669 345.118 288.908 344.521 288.91H209.468C208.869 288.91 208.295 288.672 207.871 288.248C207.448 287.825 207.21 287.25 207.21 286.651V81.1479H346.771Z" fill="white"/>
<g opacity="0.2">
<path d="M323.093 102.041H207.002V152.533H323.093C323.813 152.533 324.503 152.247 325.012 151.738C325.521 151.229 325.807 150.539 325.807 149.819V104.754C325.807 104.034 325.521 103.344 325.012 102.835C324.503 102.326 323.813 102.041 323.093 102.041Z" fill="black"/>
<path d="M311.083 155.884H207.002V208.938H311.083C311.838 208.938 312.563 208.638 313.097 208.104C313.632 207.569 313.932 206.845 313.932 206.089V158.725C313.932 158.352 313.858 157.981 313.715 157.636C313.572 157.291 313.362 156.977 313.097 156.714C312.832 156.45 312.518 156.241 312.172 156.098C311.827 155.956 311.457 155.883 311.083 155.884Z" fill="black"/>
<path d="M323.093 207.893H207.002V258.361H323.093C323.812 258.361 324.501 258.076 325.009 257.569C325.518 257.062 325.805 256.373 325.807 255.655V210.606C325.807 209.886 325.521 209.196 325.012 208.687C324.503 208.178 323.813 207.893 323.093 207.893Z" fill="black"/>
<path d="M325.799 263.532V288.91H209.468C208.869 288.91 208.295 288.672 207.871 288.248C207.448 287.825 207.21 287.25 207.21 286.651V260.819H323.093C323.812 260.821 324.5 261.108 325.007 261.616C325.514 262.125 325.799 262.814 325.799 263.532Z" fill="black"/>
<path d="M336.7 105.137V118.113C336.698 118.65 336.556 119.177 336.287 119.642C336.018 120.107 335.632 120.494 335.168 120.763V288.91H332.119V120.731C331.654 120.462 331.268 120.075 331 119.61C330.731 119.146 330.588 118.618 330.587 118.081V105.137C330.627 104.35 330.968 103.609 331.539 103.066C332.11 102.524 332.868 102.221 333.655 102.221C334.443 102.221 335.201 102.524 335.772 103.066C336.343 103.609 336.684 104.35 336.724 105.137H336.7Z" fill="black"/>
</g>
</g>
<path d="M346.771 61.6515V286.651C346.771 287.249 346.534 287.822 346.112 288.245C345.691 288.668 345.118 288.907 344.521 288.909H209.468C208.869 288.909 208.295 288.671 207.871 288.248C207.448 287.824 207.21 287.25 207.21 286.651V61.6515C207.21 61.0525 207.448 60.4781 207.871 60.0546C208.295 59.631 208.869 59.3931 209.468 59.3931H246.729L247.95 63.5429H306.111L307.34 59.3931H344.561C345.151 59.4056 345.713 59.6491 346.127 60.0712C346.54 60.4934 346.771 61.0607 346.771 61.6515Z" stroke="#263238" stroke-width="1.60806" stroke-linecap="round" stroke-linejoin="round"/>
<path d="M207.21 81.3394H346.771" stroke="#263238" stroke-width="1.60806" stroke-linecap="round" stroke-linejoin="round"/>
<path d="M308.473 95.6479H193.947C192.448 95.6479 191.233 96.8628 191.233 98.3613V140.977C191.233 142.475 192.448 143.69 193.947 143.69H308.473C309.972 143.69 311.187 142.475 311.187 140.977V98.3613C311.187 96.8628 309.972 95.6479 308.473 95.6479Z" fill="white"/>
<mask id="mask1_433_361" style="mask-type:luminance" maskUnits="userSpaceOnUse" x="191" y="95" width="121" height="49">
<path d="M308.473 95.6479H193.947C192.448 95.6479 191.233 96.8628 191.233 98.3613V140.977C191.233 142.475 192.448 143.69 193.947 143.69H308.473C309.972 143.69 311.187 142.475 311.187 140.977V98.3613C311.187 96.8628 309.972 95.6479 308.473 95.6479Z" fill="white"/>
</mask>
<g mask="url(#mask1_433_361)">
<path d="M236.068 101.242H197.06V138.087H236.068V101.242Z" fill="white" stroke="#263238" stroke-width="1.60806" stroke-linecap="round" stroke-linejoin="round"/>
<path d="M279.449 104.482H244.542C244.119 104.482 243.713 104.314 243.414 104.014C243.114 103.715 242.946 103.309 242.946 102.886C242.946 102.462 243.114 102.056 243.414 101.757C243.713 101.458 244.119 101.29 244.542 101.29H279.449C279.872 101.29 280.278 101.458 280.577 101.757C280.877 102.056 281.045 102.462 281.045 102.886C281.045 103.309 280.877 103.715 280.577 104.014C280.278 104.314 279.872 104.482 279.449 104.482Z" fill="#263238"/>
<path d="M258.907 111.633H244.542C244.119 111.633 243.713 111.464 243.414 111.165C243.114 110.866 242.946 110.46 242.946 110.037C242.946 109.613 243.114 109.207 243.414 108.908C243.713 108.609 244.119 108.44 244.542 108.44H258.907C259.33 108.44 259.736 108.609 260.036 108.908C260.335 109.207 260.503 109.613 260.503 110.037C260.503 110.46 260.335 110.866 260.036 111.165C259.736 111.464 259.33 111.633 258.907 111.633Z" fill="#263238"/>
<path d="M288.914 129.628C288.311 129.426 287.658 129.435 287.061 129.652C286.464 129.87 285.958 130.283 285.626 130.825C285.302 130.278 284.803 129.856 284.208 129.628C283.614 129.401 282.961 129.381 282.354 129.572C280.455 130.147 279.784 132.549 281.356 134.768C282.411 136.107 283.749 137.197 285.275 137.96L285.578 138.103L285.873 137.968C287.418 137.235 288.78 136.169 289.864 134.847C291.42 132.637 290.805 130.219 288.914 129.628Z" fill="#004866" stroke="#263238" stroke-width="1.60806" stroke-linecap="round" stroke-linejoin="round"/>
<path d="M206.029 117.035L208.423 130.674H224.384L227.481 117.035C227.481 117.035 224.735 114.266 224.847 107.754L222.9 107.068C222.9 107.068 223.474 112.654 216.595 112.654C209.716 112.654 209.493 107.619 209.493 107.619L207.546 108.369C207.546 108.369 208.775 113.915 206.029 117.035Z" fill="#004866" stroke="#263238" stroke-width="1.60806" stroke-linecap="round" stroke-linejoin="round"/>
<path d="M221.312 117.905C220.096 117.793 218.873 117.793 217.657 117.905L216.739 115.846L216.021 117.977C214.177 118.065 212.549 118.161 212.549 118.161L215.358 119.948C214.872 121.353 214.401 122.685 214.185 123.14C214.185 123.14 215.582 122.175 217.138 121.073L219.859 122.797L218.614 120.02C219.579 119.403 220.482 118.695 221.312 117.905Z" fill="#004866" stroke="#263238" stroke-width="1.60806" stroke-linecap="round" stroke-linejoin="round"/>
<path opacity="0.2" d="M305.201 135.174H191.233V140.976C191.233 141.696 191.519 142.386 192.028 142.895C192.537 143.404 193.227 143.689 193.947 143.689H307.819V137.792C307.819 137.448 307.751 137.108 307.62 136.79C307.488 136.473 307.295 136.184 307.052 135.941C306.809 135.698 306.521 135.505 306.203 135.374C305.886 135.242 305.545 135.174 305.201 135.174Z" fill="black"/>
</g>
<path d="M308.473 95.6479H193.947C192.448 95.6479 191.233 96.8628 191.233 98.3613V140.977C191.233 142.475 192.448 143.69 193.947 143.69H308.473C309.972 143.69 311.187 142.475 311.187 140.977V98.3613C311.187 96.8628 309.972 95.6479 308.473 95.6479Z" stroke="#263238" stroke-width="1.60806" stroke-linecap="round" stroke-linejoin="round"/>
<path d="M311.187 199.066V241.697C311.186 242.052 311.115 242.404 310.978 242.732C310.841 243.06 310.641 243.357 310.389 243.608C310.137 243.858 309.838 244.057 309.509 244.192C309.181 244.327 308.829 244.395 308.473 244.394H193.947C193.591 244.395 193.239 244.327 192.911 244.192C192.582 244.057 192.283 243.858 192.031 243.608C191.779 243.357 191.579 243.06 191.442 242.732C191.305 242.404 191.234 242.052 191.233 241.697V199.066C191.236 198.347 191.522 197.659 192.031 197.152C192.54 196.645 193.228 196.36 193.947 196.36H308.473C309.192 196.36 309.881 196.645 310.389 197.152C310.898 197.659 311.185 198.347 311.187 199.066Z" fill="white"/>
<mask id="mask2_433_361" style="mask-type:luminance" maskUnits="userSpaceOnUse" x="191" y="196" width="121" height="49">
<path d="M311.187 199.066V241.697C311.186 242.052 311.115 242.404 310.978 242.732C310.841 243.06 310.641 243.357 310.389 243.608C310.137 243.858 309.838 244.057 309.509 244.192C309.181 244.327 308.829 244.395 308.473 244.394H193.947C193.591 244.395 193.239 244.327 192.911 244.192C192.582 244.057 192.283 243.858 192.031 243.608C191.779 243.357 191.579 243.06 191.442 242.732C191.305 242.404 191.234 242.052 191.233 241.697V199.066C191.236 198.347 191.522 197.659 192.031 197.152C192.54 196.645 193.228 196.36 193.947 196.36H308.473C309.192 196.36 309.881 196.645 310.389 197.152C310.898 197.659 311.185 198.347 311.187 199.066Z" fill="white"/>
</mask>
<g mask="url(#mask2_433_361)">
<path d="M236.068 201.955H197.06V238.8H236.068V201.955Z" fill="white" stroke="#263238" stroke-width="1.60806" stroke-linecap="round" stroke-linejoin="round"/>
<path d="M279.449 205.195H244.542C244.119 205.195 243.713 205.026 243.414 204.727C243.114 204.428 242.946 204.022 242.946 203.599C242.946 203.175 243.114 202.769 243.414 202.47C243.713 202.171 244.119 202.002 244.542 202.002H279.449C279.872 202.002 280.278 202.171 280.577 202.47C280.877 202.769 281.045 203.175 281.045 203.599C281.045 204.022 280.877 204.428 280.577 204.727C280.278 205.026 279.872 205.195 279.449 205.195Z" fill="#263238"/>
<path d="M259.115 209.105H244.335C243.555 209.105 242.923 209.737 242.923 210.518V210.932C242.923 211.713 243.555 212.345 244.335 212.345H259.115C259.895 212.345 260.528 211.713 260.528 210.932V210.518C260.528 209.737 259.895 209.105 259.115 209.105Z" fill="#263238"/>
<path d="M288.914 230.341C288.31 230.14 287.656 230.15 287.059 230.368C286.462 230.587 285.957 231.003 285.626 231.546C285.303 230.997 284.804 230.575 284.209 230.347C283.615 230.119 282.961 230.1 282.354 230.293C280.455 230.86 279.784 233.27 281.356 235.48C282.409 236.822 283.748 237.913 285.275 238.672L285.578 238.824L285.873 238.68C287.418 237.948 288.78 236.882 289.864 235.56C291.42 233.358 290.805 230.939 288.914 230.341Z" fill="#004866" stroke="#263238" stroke-width="1.60806" stroke-linecap="round" stroke-linejoin="round"/>
<path d="M207.051 231.49V233.023H216.22C216.22 233.023 218.997 229.743 220.546 230.142C222.094 230.541 221.918 233.023 221.918 233.023H224.241L225.039 231.49L224.384 223.063L207.051 231.49Z" fill="white" stroke="#263238" stroke-width="1.60806" stroke-linecap="round" stroke-linejoin="round"/>
<path d="M207.051 231.49H215.694C215.694 231.49 218.399 229 220.482 228.298C222.565 227.595 223.059 231.49 223.059 231.49H225.039C225.039 231.49 226.635 227.188 226.635 226.701C226.635 226.215 225.086 218.793 225.086 213.981C225.086 213.981 219.843 213.893 219.157 214.779C219.157 214.779 218.04 213.143 217.345 213.318C217.739 215.269 217.883 217.261 217.776 219.248C217.521 221.825 213.994 225.951 210.642 227.156C208.463 227.899 207.57 228.736 207.051 231.49Z" fill="#004866" stroke="#263238" stroke-width="1.60806" stroke-linecap="round" stroke-linejoin="round"/>
<path d="M219.173 214.731C219.173 214.731 219.34 219.799 219.173 220.828C219.005 221.857 214.44 226.933 214.009 227.109" stroke="#263238" stroke-width="1.60806" stroke-linecap="round" stroke-linejoin="round"/>
<path d="M217.808 216.686H220.027" stroke="#263238" stroke-width="1.60806" stroke-linecap="round" stroke-linejoin="round"/>
<path d="M217.792 219.2L220.027 218.857" stroke="#263238" stroke-width="1.60806" stroke-linecap="round" stroke-linejoin="round"/>
<path d="M217.17 220.917L220.027 221.26" stroke="#263238" stroke-width="1.60806" stroke-linecap="round" stroke-linejoin="round"/>
<path d="M216.22 222.369L218.918 223.063" stroke="#263238" stroke-width="1.60806" stroke-linecap="round" stroke-linejoin="round"/>
<path d="M215.007 223.885L217.17 225.13" stroke="#263238" stroke-width="1.60806" stroke-linecap="round" stroke-linejoin="round"/>
<path d="M210.658 227.109C211.454 227.534 212.121 228.165 212.59 228.935C213.059 229.706 213.312 230.589 213.323 231.491H207.051C207.206 230.505 207.622 229.578 208.257 228.808C208.891 228.037 209.72 227.451 210.658 227.109Z" fill="white" stroke="#263238" stroke-width="1.60806" stroke-linecap="round" stroke-linejoin="round"/>
<path d="M223.746 224.97C223.746 225.185 223.682 225.395 223.563 225.573C223.444 225.752 223.274 225.891 223.076 225.973C222.878 226.055 222.659 226.076 222.449 226.035C222.238 225.993 222.045 225.889 221.893 225.738C221.741 225.586 221.638 225.392 221.596 225.182C221.554 224.971 221.576 224.753 221.658 224.555C221.74 224.356 221.879 224.187 222.058 224.068C222.236 223.948 222.446 223.885 222.661 223.885C222.948 223.885 223.224 223.999 223.428 224.203C223.632 224.406 223.746 224.682 223.746 224.97Z" fill="white" stroke="#263238" stroke-width="1.60806" stroke-linecap="round" stroke-linejoin="round"/>
<path opacity="0.2" d="M307.819 196.36H193.947C193.228 196.36 192.54 196.645 192.031 197.152C191.522 197.659 191.236 198.347 191.233 199.066V215.266H305.201C305.896 215.266 306.562 214.99 307.052 214.499C307.543 214.008 307.819 213.343 307.819 212.648V196.36Z" fill="black"/>
</g>
<path d="M311.187 199.066V241.697C311.186 242.052 311.115 242.404 310.978 242.732C310.841 243.06 310.641 243.357 310.389 243.608C310.137 243.858 309.838 244.057 309.509 244.192C309.181 244.327 308.829 244.395 308.473 244.394H193.947C193.591 244.395 193.239 244.327 192.911 244.192C192.582 244.057 192.283 243.858 192.031 243.608C191.779 243.357 191.579 243.06 191.442 242.732C191.305 242.404 191.234 242.052 191.233 241.697V199.066C191.236 198.347 191.522 197.659 192.031 197.152C192.54 196.645 193.228 196.36 193.947 196.36H308.473C309.192 196.36 309.881 196.645 310.389 197.152C310.898 197.659 311.185 198.347 311.187 199.066Z" stroke="#263238" stroke-width="1.60806" stroke-linecap="round" stroke-linejoin="round"/>
<path d="M308.817 246.717H193.604C192.295 246.717 191.233 247.778 191.233 249.087V292.389C191.233 293.698 192.295 294.759 193.604 294.759H308.817C310.126 294.759 311.187 293.698 311.187 292.389V249.087C311.187 247.778 310.126 246.717 308.817 246.717Z" fill="white" stroke="#263238" stroke-width="1.60806" stroke-linecap="round" stroke-linejoin="round"/>
<path d="M236.067 252.311H197.059V289.157H236.067V252.311Z" fill="white" stroke="#263238" stroke-width="1.60806" stroke-linecap="round" stroke-linejoin="round"/>
<path d="M279.449 255.559H244.542C244.119 255.559 243.713 255.391 243.414 255.092C243.114 254.793 242.946 254.387 242.946 253.963C242.946 253.54 243.114 253.134 243.414 252.835C243.713 252.535 244.119 252.367 244.542 252.367H279.449C279.872 252.367 280.278 252.535 280.577 252.835C280.877 253.134 281.045 253.54 281.045 253.963C281.045 254.387 280.877 254.793 280.577 255.092C280.278 255.391 279.872 255.559 279.449 255.559Z" fill="#263238"/>
<path d="M258.907 262.71H244.542C244.119 262.71 243.713 262.542 243.414 262.242C243.114 261.943 242.946 261.537 242.946 261.114C242.946 260.69 243.114 260.284 243.414 259.985C243.713 259.686 244.119 259.518 244.542 259.518H258.907C259.33 259.518 259.736 259.686 260.036 259.985C260.335 260.284 260.503 260.69 260.503 261.114C260.503 261.537 260.335 261.943 260.036 262.242C259.736 262.542 259.33 262.71 258.907 262.71Z" fill="#263238"/>
<path d="M288.914 280.705C288.31 280.504 287.656 280.514 287.059 280.733C286.462 280.952 285.957 281.367 285.626 281.91C285.303 281.362 284.804 280.939 284.209 280.711C283.615 280.484 282.961 280.465 282.354 280.657C280.455 281.224 279.784 283.634 281.356 285.845C282.409 287.187 283.748 288.277 285.275 289.037L285.578 289.188L285.873 289.045C287.421 288.318 288.785 287.251 289.864 285.924C291.42 283.714 290.805 281.296 288.914 280.705Z" fill="#004866" stroke="#263238" stroke-width="1.60806" stroke-linecap="round" stroke-linejoin="round"/>
<path d="M220.027 264.067C220.027 264.067 221.423 256.757 224.759 259.47C230.433 264.067 225.845 277.594 225.845 277.594" stroke="#263238" stroke-width="1.60806" stroke-linecap="round" stroke-linejoin="round"/>
<path d="M212.549 264.066C212.549 264.066 211.248 259.078 208.12 259.334C204.992 259.589 202.239 269.796 206.021 278.958" stroke="#263238" stroke-width="1.60806" stroke-linecap="round" stroke-linejoin="round"/>
<path d="M213.323 261.704C213.485 261.086 213.84 260.535 214.336 260.133C214.833 259.731 215.446 259.498 216.084 259.47C216.701 259.481 217.293 259.713 217.754 260.122C218.215 260.532 218.515 261.093 218.598 261.704" stroke="#263238" stroke-width="1.60806" stroke-linecap="round" stroke-linejoin="round"/>
<path d="M209.341 261.768L222.66 261.544V264.593C222.66 264.593 228.542 278.08 226.938 281.025C225.334 283.969 206.133 284.791 205.335 280.498C204.537 276.204 209.684 265.207 209.684 265.207L209.341 261.768Z" fill="#004866" stroke="#263238" stroke-width="1.60806" stroke-linecap="round" stroke-linejoin="round"/>
<path d="M209.684 265.207C209.684 265.207 209.341 270.706 211.28 271.743C213.219 272.781 220.625 272.884 221.567 271.28C222.509 269.676 222.652 264.593 222.652 264.593" stroke="#263238" stroke-width="1.60806" stroke-linecap="round" stroke-linejoin="round"/>
<path d="M209.66 274.034C209.66 274.034 213.898 275.175 216.044 274.832C216.044 274.832 215.542 281.137 214.512 281.137C213.483 281.137 208.551 281.336 208.208 280.203C207.865 279.07 208.782 275.064 208.782 275.064" stroke="#263238" stroke-width="1.60806" stroke-linecap="round" stroke-linejoin="round"/>
<path d="M223.745 274.034C221.808 274.567 219.816 274.875 217.808 274.952C217.808 274.952 217.768 279.557 218.606 280.538C219.444 281.52 223.905 280.993 224.591 279.924C225.278 278.854 223.753 275.311 223.753 275.311" stroke="#263238" stroke-width="1.60806" stroke-linecap="round" stroke-linejoin="round"/>
<path d="M217.441 270.172C217.441 270.375 217.38 270.574 217.267 270.744C217.154 270.913 216.993 271.045 216.805 271.123C216.617 271.201 216.41 271.221 216.21 271.181C216.011 271.142 215.827 271.043 215.683 270.9C215.539 270.756 215.441 270.572 215.402 270.372C215.362 270.173 215.382 269.966 215.46 269.778C215.538 269.59 215.67 269.429 215.839 269.316C216.009 269.203 216.208 269.142 216.411 269.142C216.547 269.141 216.681 269.167 216.807 269.218C216.932 269.27 217.046 269.345 217.142 269.441C217.237 269.537 217.313 269.651 217.365 269.776C217.416 269.902 217.442 270.036 217.441 270.172Z" stroke="#263238" stroke-width="1.60806" stroke-linecap="round" stroke-linejoin="round"/>
<path d="M301.514 137.346H153.502C152.193 137.346 151.132 138.407 151.132 139.716V196.153C151.132 197.462 152.193 198.523 153.502 198.523H301.514C302.824 198.523 303.885 197.462 303.885 196.153V139.716C303.885 138.407 302.824 137.346 301.514 137.346Z" fill="white" stroke="#263238" stroke-width="1.60806" stroke-linecap="round" stroke-linejoin="round"/>
<path d="M208.215 144.472H158.545V191.397H208.215V144.472Z" fill="white" stroke="#263238" stroke-width="1.60806" stroke-linecap="round" stroke-linejoin="round"/>
<path d="M264.039 144.472H218.431C217.611 144.472 216.946 145.137 216.946 145.957V147.114C216.946 147.933 217.611 148.598 218.431 148.598H264.039C264.858 148.598 265.523 147.933 265.523 147.114V145.957C265.523 145.137 264.858 144.472 264.039 144.472Z" fill="#263238"/>
<path d="M218.431 153.578H237.879C238.074 153.578 238.267 153.616 238.447 153.691C238.627 153.765 238.791 153.875 238.929 154.012C239.066 154.15 239.176 154.314 239.25 154.494C239.325 154.674 239.363 154.867 239.363 155.062V156.211C239.363 156.607 239.206 156.987 238.926 157.266C238.646 157.546 238.267 157.704 237.871 157.704H218.431C218.035 157.704 217.655 157.546 217.376 157.266C217.096 156.987 216.938 156.607 216.938 156.211V155.062C216.938 154.866 216.977 154.673 217.052 154.492C217.127 154.312 217.237 154.148 217.376 154.01C217.515 153.872 217.679 153.762 217.86 153.688C218.041 153.614 218.235 153.577 218.431 153.578Z" fill="#263238"/>
<path d="M275.523 180.616C274.754 180.361 273.921 180.374 273.161 180.652C272.4 180.93 271.756 181.457 271.333 182.148C270.918 181.451 270.28 180.915 269.523 180.626C268.766 180.336 267.933 180.31 267.159 180.552C264.765 181.278 263.887 184.342 265.89 187.167C267.235 188.867 268.938 190.248 270.878 191.214L271.261 191.397L271.644 191.214C273.603 190.279 275.327 188.915 276.688 187.223C278.747 184.454 277.925 181.374 275.523 180.616Z" fill="#004866" stroke="#263238" stroke-width="1.60806" stroke-linecap="round" stroke-linejoin="round"/>
<path d="M175.56 151.471H190.954L191.321 154.663L202.997 177.008C202.997 177.008 201.975 182.682 199.206 180.719C196.437 178.756 194.968 185.707 191.178 183.983C187.387 182.259 185.464 186.273 181.17 185.14C176.877 184.007 175.584 184.342 173.374 185.347C171.163 186.353 169.288 181.166 167.532 181.493C165.776 181.82 164.044 178.764 164.044 178.764L174.834 155.996L175.56 151.471Z" fill="#004866" stroke="#263238" stroke-width="1.60806" stroke-linecap="round" stroke-linejoin="round"/>
<path d="M176.725 154.687H189.422" stroke="#263238" stroke-width="1.60806" stroke-linecap="round" stroke-linejoin="round"/>
<path d="M183.597 153.019C183.597 153.157 183.542 153.289 183.445 153.386C183.347 153.483 183.215 153.538 183.078 153.538C182.94 153.538 182.808 153.483 182.711 153.386C182.614 153.289 182.559 153.157 182.559 153.019C182.559 152.882 182.614 152.75 182.711 152.652C182.808 152.555 182.94 152.5 183.078 152.5C183.215 152.5 183.347 152.555 183.445 152.652C183.542 152.75 183.597 152.882 183.597 153.019Z" fill="#263238"/>
<path d="M169.559 178.556C169.559 178.556 173.389 168.708 173.996 166.466" stroke="#263238" stroke-width="1.60806" stroke-linecap="round" stroke-linejoin="round"/>
<path d="M181.617 175.995C181.673 172.156 181.713 168.015 181.713 168.015L181.553 175.995H181.617Z" fill="white" stroke="#263238" stroke-width="1.60806" stroke-linecap="round" stroke-linejoin="round"/>
<path d="M181.513 178.428L181.433 182.355C181.489 181.987 181.537 180.415 181.569 178.444L181.513 178.428Z" fill="white" stroke="#263238" stroke-width="1.60806" stroke-linecap="round" stroke-linejoin="round"/>
<path d="M192.271 180.496C192.271 180.273 188.712 167.911 188.608 166.435L192.271 180.496Z" fill="white"/>
<path d="M192.271 180.496C192.271 180.273 188.712 167.911 188.608 166.435" stroke="#263238" stroke-width="1.60806" stroke-linecap="round" stroke-linejoin="round"/>
<path d="M194.769 166.426L193.476 163.313L194.769 166.426Z" fill="white"/>
<path d="M194.769 166.426L193.476 163.313" stroke="#263238" stroke-width="1.60806" stroke-linecap="round" stroke-linejoin="round"/>
<path d="M199.278 177.319C198.139 174.574 197.001 171.826 195.862 169.076L199.278 177.319Z" fill="white"/>
<path d="M199.278 177.319C198.139 174.574 197.001 171.826 195.862 169.076" stroke="#263238" stroke-width="1.60806" stroke-linecap="round" stroke-linejoin="round"/>
<path d="M174.81 164.296L175.528 162.652" stroke="#263238" stroke-width="1.60806" stroke-linecap="round" stroke-linejoin="round"/>
<path d="M319.016 295.613C318.609 295.613 318.22 295.451 317.932 295.164C317.645 294.876 317.483 294.487 317.483 294.08V101.09C317.483 100.684 317.645 100.294 317.932 100.007C318.22 99.7195 318.609 99.5581 319.016 99.5581C319.422 99.5581 319.812 99.7195 320.099 100.007C320.386 100.294 320.548 100.684 320.548 101.09V294.08C320.548 294.487 320.386 294.876 320.099 295.164C319.812 295.451 319.422 295.613 319.016 295.613Z" fill="#263238"/>
<path d="M319.016 114.753C318.613 114.754 318.213 114.676 317.841 114.522C317.468 114.369 317.129 114.143 316.844 113.859C316.558 113.574 316.332 113.236 316.177 112.863C316.023 112.491 315.943 112.092 315.943 111.689V98.7526C315.943 97.9378 316.267 97.1563 316.843 96.5801C317.419 96.0039 318.201 95.6802 319.016 95.6802C319.419 95.6802 319.819 95.7596 320.192 95.914C320.564 96.0685 320.903 96.2948 321.188 96.5801C321.474 96.8654 321.7 97.2041 321.854 97.5769C322.009 97.9496 322.088 98.3491 322.088 98.7526V111.721C322.078 112.529 321.749 113.3 321.174 113.868C320.599 114.435 319.824 114.753 319.016 114.753Z" fill="white" stroke="#263238" stroke-width="1.60806" stroke-linecap="round" stroke-linejoin="round"/>
<path d="M44.339 87.5801C43.7564 70.909 59.4379 56.8396 79.357 56.1453C99.276 55.451 115.899 68.4271 116.474 85.0742C117.016 100.429 103.745 113.572 86.0765 116.094C84.6799 125.208 88.9893 129.445 88.9893 129.445C86.0265 128.259 83.3357 126.483 81.0804 124.225C78.825 121.967 77.0522 119.274 75.8695 116.309C58.5201 114.713 44.8657 102.671 44.339 87.5801Z" fill="white" stroke="#263238" stroke-width="1.60806" stroke-linecap="round" stroke-linejoin="round"/>
<path d="M71.2649 75.3307C76.2367 73.9102 79.1735 77.0066 80.4823 78.9937C81.8708 77.0624 84.9353 74.0778 89.8433 75.6898C95.1742 77.4455 96.9059 84.3086 92.2374 90.4615C88.9016 94.8827 83.6106 97.8514 80.9052 99.1602C80.586 99.3198 80.2907 99.4475 80.0513 99.5592L79.2054 99.1282C76.5559 97.7157 71.3846 94.5475 68.2323 89.9987C63.8671 83.6782 65.8701 76.8789 71.2649 75.3307Z" fill="url(#paint0_linear_433_361)"/>
<path d="M68.7668 235.648C68.7668 235.648 45.3124 258.496 37.9943 274.034C30.6763 289.572 34.8022 288.902 41.9845 293.818C56.3493 303.697 87.0818 316.41 87.0818 316.41C87.0818 316.41 87.6883 326.433 92.8676 329.785C98.0468 333.137 112.675 314.024 110.544 310.784C108.413 307.544 93.7853 308.573 93.7853 308.573C93.7853 308.573 86.4593 305.645 76.1007 297.145C68.7029 291.243 60.9761 285.765 52.9576 280.738C52.9576 280.738 65.7262 262.965 72.4936 258.113C79.261 253.261 90.1303 246.302 90.1303 246.302" fill="white"/>
<path d="M68.7668 235.648C68.7668 235.648 45.3124 258.496 37.9943 274.034C30.6763 289.572 34.8022 288.902 41.9845 293.818C56.3493 303.697 87.0818 316.41 87.0818 316.41C87.0818 316.41 87.6883 326.433 92.8676 329.785C98.0468 333.137 112.675 314.024 110.544 310.784C108.413 307.544 93.7853 308.573 93.7853 308.573C93.7853 308.573 86.4593 305.645 76.1007 297.145C68.7029 291.243 60.9761 285.765 52.9576 280.738C52.9576 280.738 65.7262 262.965 72.4936 258.113C79.261 253.261 90.1303 246.302 90.1303 246.302" stroke="#263238" stroke-width="1.60806" stroke-linecap="round" stroke-linejoin="round"/>
<path d="M168.522 367.508C154.62 372.169 141.3 375.568 129.729 376.462C128.875 376.526 128.021 376.582 127.183 376.622C127.031 373.845 126.784 368.641 126.505 367.045C126.23 365.463 125.445 364.014 124.27 362.92L119.394 365.513L118.038 376.63C96.7698 376.311 83.2749 370.246 83.2749 370.246L85.1982 358.642C84.2132 355.153 83.7797 351.531 83.9133 347.908C84.5039 326.25 100.999 301.359 100.999 301.359C100.999 301.359 138.898 274.616 151.451 296.299C164.005 317.982 168.522 367.508 168.522 367.508Z" fill="#BFBFBF"/>
<path opacity="0.2" d="M149.824 365.801C149.584 367.964 135.459 370.868 129.737 365.849C130.28 366.36 135.084 370.956 133.815 372.544C132.546 374.132 129.689 372.544 129.689 372.544C130.063 373.824 130.063 375.183 129.689 376.463C128.835 376.527 127.981 376.582 127.144 376.622C126.992 373.845 126.744 368.642 126.465 367.046C126.19 365.464 125.405 364.015 124.231 362.92L119.355 365.514L117.998 376.63C96.7302 376.311 83.2354 370.246 83.2354 370.246L85.1586 358.642C84.1736 355.153 83.7401 351.532 83.8738 347.909C86.1961 351.899 90.2581 357.134 95.8444 358.004C105.165 359.433 112.491 352.793 112.491 352.793C112.491 352.793 110.329 346.784 112.491 340.87C112.491 340.87 111.454 355.921 129.665 358.004C147.414 360.031 151.212 356.121 151.38 355.945C151.093 356.352 146.592 362.92 143.902 363.63C143.926 363.638 150.071 363.638 149.824 365.801Z" fill="black"/>
<path d="M168.522 367.508C168.522 367.508 163.997 318.03 151.452 296.307C138.907 274.585 101 301.367 101 301.367C101 301.367 78.3434 335.531 85.1586 358.658L83.2354 370.246" stroke="#263238" stroke-width="1.60806" stroke-linecap="round" stroke-linejoin="round"/>
<path d="M87.6719 358.339C96.8254 361.467 107.431 360.262 114.414 355.945" stroke="#263238" stroke-width="1.60806" stroke-linecap="round" stroke-linejoin="round"/>
<path d="M115.556 318.35C115.556 318.35 108.693 344.725 115.556 352.665C122.419 360.606 142.482 361.18 147.9 360.087C153.319 358.994 155.122 355.195 155.122 355.195" stroke="#263238" stroke-width="1.60806" stroke-linecap="round" stroke-linejoin="round"/>
<path d="M125.858 322.204C125.858 322.204 123.959 335.69 126.05 342.194L135.913 345.81L143.894 340.511C143.894 340.511 143.008 327.981 143.152 322.204C143.175 322.204 133.216 320.512 125.858 322.204Z" stroke="#263238" stroke-width="1.60806" stroke-linecap="round" stroke-linejoin="round"/>
<path d="M125.068 336.417C125.068 336.417 130.997 334.175 134.493 339.306C134.493 339.306 135.083 334.007 143.175 334.973" stroke="#263238" stroke-width="1.60806" stroke-linecap="round" stroke-linejoin="round"/>
<path d="M127.119 324.494C127.119 324.494 139.178 323.696 143.176 325.292" stroke="#263238" stroke-width="1.60806" stroke-linecap="round" stroke-linejoin="round"/>
<path d="M92.6517 324.541C92.6517 324.541 87.9193 336.568 88.0869 342.84L96.0673 346.376L104.678 340.67C104.678 340.67 106.083 328.627 107.152 323.504C107.112 323.504 98.9881 322.69 92.6517 324.541Z" stroke="#263238" stroke-width="1.60806" stroke-linecap="round" stroke-linejoin="round"/>
<path d="M88.7178 337.231C88.7178 337.231 94.3041 334.9 96.2513 339.737C96.2513 339.737 97.9112 334.573 104.966 335.172" stroke="#263238" stroke-width="1.60806" stroke-linecap="round" stroke-linejoin="round"/>
<path d="M93.1787 326.401C93.1787 326.401 103.426 325.045 106.618 326.186" stroke="#263238" stroke-width="1.60806" stroke-linecap="round" stroke-linejoin="round"/>
<path d="M94.2397 316.409C94.2397 316.409 105.261 314.438 114.837 321.453C126.854 314.897 140.673 312.413 154.22 314.374" stroke="#263238" stroke-width="1.60806" stroke-linecap="round" stroke-linejoin="round"/>
<path d="M157.038 313.68C161.925 331.43 164.8 349.674 165.609 368.067" stroke="#263238" stroke-width="1.60806" stroke-linecap="round" stroke-linejoin="round"/>
<path d="M102.188 364.595C102.188 364.595 114.47 360.079 118.269 356.831C118.269 356.831 127.175 364.963 139.617 364.595" stroke="#263238" stroke-width="1.60806" stroke-linecap="round" stroke-linejoin="round"/>
<path d="M127.143 376.622C127.143 376.622 127.311 367.125 125.858 365.864C124.406 364.603 124.039 360.717 124.039 360.717" stroke="#263238" stroke-width="1.60806" stroke-linecap="round" stroke-linejoin="round"/>
<path d="M124.23 362.002C122.843 363.469 121.188 364.658 119.354 365.505L117.998 376.622" stroke="#263238" stroke-width="1.60806" stroke-linecap="round" stroke-linejoin="round"/>
<path d="M151.363 222.896C153.941 229.448 178.728 261.944 180.755 271.289C182.782 280.634 182.583 288.758 171.179 285.917C159.775 283.076 155.002 248.361 142.401 229.855" fill="white"/>
<path d="M151.363 222.896C153.941 229.448 178.728 261.944 180.755 271.289C182.782 280.634 182.583 288.758 171.179 285.917C159.775 283.076 155.002 248.361 142.401 229.855" stroke="#263238" stroke-width="1.60806" stroke-linecap="round" stroke-linejoin="round"/>
<path d="M150.206 226.758C150.746 226.12 151.12 225.359 151.294 224.541C151.468 223.724 151.437 222.876 151.204 222.074C150.62 218.78 149.493 215.605 147.868 212.681C145.418 208.691 147.198 204.828 145.554 204.908C143.91 204.988 143.567 208.595 143.567 208.595C143.567 208.595 140.375 205.012 138.395 203.95C137.494 203.463 131.836 201.141 131.836 201.141L126.05 201.42C126.05 201.42 126.002 204.158 131.317 203.815L134.86 206.624C134.86 206.624 131.516 207.613 131.341 209.114C131.165 210.614 129.346 210.71 129.537 212.745C129.729 214.78 128.787 215.051 130.463 217.645C132.466 220.757 134.509 219.735 134.509 219.735C134.509 219.735 136.209 228.514 138.052 230.238C138.994 231.108 140.941 231.243 143.072 230.796" fill="white"/>
<path d="M150.206 226.758C150.746 226.12 151.12 225.359 151.294 224.541C151.468 223.724 151.437 222.876 151.204 222.074C150.62 218.78 149.493 215.605 147.868 212.681C145.418 208.691 147.198 204.828 145.554 204.908C143.91 204.988 143.567 208.595 143.567 208.595C143.567 208.595 140.375 205.012 138.395 203.95C137.494 203.463 131.836 201.141 131.836 201.141L126.05 201.42C126.05 201.42 126.002 204.158 131.317 203.815L134.86 206.624C134.86 206.624 131.516 207.613 131.341 209.114C131.165 210.614 129.346 210.71 129.537 212.745C129.729 214.78 128.787 215.051 130.463 217.645C132.466 220.757 134.509 219.735 134.509 219.735C134.509 219.735 136.209 228.514 138.052 230.238C138.994 231.108 140.941 231.243 143.072 230.796" stroke="#263238" stroke-width="1.60806" stroke-linecap="round" stroke-linejoin="round"/>
<path d="M131.341 209.145C131.341 209.145 133.392 213.822 134.605 215.051C135.818 216.28 137.988 214.979 138.818 214.875C139.888 214.748 140.63 214.875 140.462 214.436C139.553 212.042 136.959 212.649 136.959 212.649C136.959 212.649 136.161 210.071 134.661 209.018" stroke="#263238" stroke-width="1.60806" stroke-linecap="round" stroke-linejoin="round"/>
<path d="M143.567 208.595C143.516 209.797 143.634 211.001 143.918 212.17C143.918 212.17 142.162 216.24 142.474 218.163" stroke="#263238" stroke-width="1.60806" stroke-linecap="round" stroke-linejoin="round"/>
<path d="M129.537 213.12C130.335 214.852 132.043 217.19 133.527 217.549C135.012 217.908 140.023 216.504 139.624 214.812" stroke="#263238" stroke-width="1.60806" stroke-linecap="round" stroke-linejoin="round"/>
<path d="M135.658 210.015C135.658 210.015 136.712 210.015 136.712 208.332" stroke="#263238" stroke-width="1.60806" stroke-linecap="round" stroke-linejoin="round"/>
<path d="M134.86 206.656C134.86 206.656 136.935 207.39 137.877 205.754" stroke="#263238" stroke-width="1.60806" stroke-linecap="round" stroke-linejoin="round"/>
<path d="M82.8515 159.403C87.7515 142.597 117.79 142.988 124.693 156.459C131.596 169.93 128.755 166.921 129.162 171.677C129.569 176.434 133.224 179.921 132.418 188.125C131.612 196.329 132.011 199.449 129.976 201.548C127.941 203.647 113.033 201.3 109.929 199.425C109.929 199.425 74.3524 188.683 82.8515 159.403Z" fill="white" stroke="#263238" stroke-width="1.60806" stroke-linecap="round" stroke-linejoin="round"/>
<path d="M93.2022 190.407C95.4447 195.124 96.1789 214.819 91.5503 219.496C91.5503 219.496 103.776 224.779 121.245 218.482C121.245 218.482 115.962 211.779 115.962 205.985C115.962 200.191 122.666 199.385 122.666 199.385" fill="white"/>
<path d="M93.2022 190.407C95.4447 195.124 96.1789 214.819 91.5503 219.496C91.5503 219.496 103.776 224.779 121.245 218.482C121.245 218.482 115.962 211.779 115.962 205.985C115.962 200.191 122.666 199.385 122.666 199.385" stroke="#263238" stroke-width="1.60806" stroke-linecap="round" stroke-linejoin="round"/>
<path d="M128.907 167.464C129.625 167.911 127.853 171.35 125.563 172.747H127.231C127.231 172.747 126.321 175.939 125.563 176.226C124.805 176.514 122.666 168.501 117.487 172.747C117.487 172.747 119.314 161.447 128.907 167.464Z" fill="#004866" stroke="#263238" stroke-width="1.60806" stroke-linecap="round" stroke-linejoin="round"/>
<path d="M113.521 143.594C113.521 143.594 126.928 145.765 130.28 154.296C133.631 162.827 127.534 171.645 122.666 172.747C115.045 174.47 115.659 182.954 118.397 190.407C121.134 197.861 125.579 203.176 124.39 210.813C124.39 210.813 119.658 205.227 116.306 208.738C112.954 212.25 109.179 212.625 101.941 210.981C94.7029 209.337 94.8944 211.898 91.5666 214.013C88.2388 216.128 81.0963 209.488 80.4818 214.62C79.8673 219.751 77.8962 220.246 77.8962 220.246C77.8962 220.246 68.4474 214.396 71.1926 205.985C73.9379 197.574 76.6752 195.499 75.4542 188.428C74.2332 181.358 72.3897 168.98 75.1509 156.459C77.9121 143.937 100.441 137.856 113.521 143.594Z" fill="#004866" stroke="#263238" stroke-width="1.60806" stroke-linecap="round" stroke-linejoin="round"/>
<path d="M123.784 176.434C123.784 176.434 122.666 170.44 121.445 170.44C120.224 170.44 119.722 174.431 119.722 174.431C119.722 174.431 118.277 176.027 118.197 179.642C118.117 183.257 120.535 184.518 120.535 184.518C120.535 184.518 121.653 187.973 123.784 187.263C125.914 186.553 121.749 183.808 121.852 175.293" fill="white"/>
<path d="M123.784 176.434C123.784 176.434 122.666 170.44 121.445 170.44C120.224 170.44 119.722 174.431 119.722 174.431C119.722 174.431 118.277 176.027 118.197 179.642C118.117 183.257 120.535 184.518 120.535 184.518C120.535 184.518 121.653 187.973 123.784 187.263C125.914 186.553 121.749 183.808 121.852 175.293" stroke="#263238" stroke-width="1.60806" stroke-linecap="round" stroke-linejoin="round"/>
<path d="M123.887 191.237C123.887 191.237 124.342 196.871 127.877 200.526L123.887 191.237Z" fill="white"/>
<path d="M123.887 191.237C123.887 191.237 124.342 196.871 127.877 200.526" stroke="#263238" stroke-width="1.60806" stroke-linecap="round" stroke-linejoin="round"/>
<path d="M127.431 158.805C125.938 161.878 123.44 163.849 120.815 165.908C113.297 171.797 102.109 177.519 101.933 188.548C101.929 190.811 102.385 193.051 103.274 195.132" stroke="#263238" stroke-width="1.60806" stroke-linecap="round" stroke-linejoin="round"/>
<path d="M114.854 198.101C115.093 199.521 115.34 200.95 115.556 202.378" stroke="#263238" stroke-width="1.60806" stroke-linecap="round" stroke-linejoin="round"/>
<path d="M118.197 175.452C112.412 179.737 113.409 188.699 114.343 194.908" stroke="#263238" stroke-width="1.60806" stroke-linecap="round" stroke-linejoin="round"/>
<path d="M91.9098 168.103C93.45 180.201 95.2775 192.985 89.6992 204.765" stroke="#263238" stroke-width="1.60806" stroke-linecap="round" stroke-linejoin="round"/>
<path d="M111.861 144.304C108.072 144.022 104.274 144.709 100.824 146.3C93.9527 149.651 92.4604 157.6 92.0454 164.575" stroke="#263238" stroke-width="1.60806" stroke-linecap="round" stroke-linejoin="round"/>
<path d="M79.0056 204.652C78.6236 206.126 78.4861 207.651 78.5986 209.169" stroke="#263238" stroke-width="1.60806" stroke-linecap="round" stroke-linejoin="round"/>
<path d="M78.9333 159.771C78.3029 166.953 78.9333 174.231 79.907 181.389C80.3858 184.973 80.9284 188.572 81.4232 192.131C81.918 195.69 80.9205 198.699 79.8272 201.987" stroke="#263238" stroke-width="1.60806" stroke-linecap="round" stroke-linejoin="round"/>
<path d="M81.5351 149.724C80.1066 151.783 79.6438 154.512 79.2847 156.962" stroke="#263238" stroke-width="1.60806" stroke-linecap="round" stroke-linejoin="round"/>
<path d="M115.851 205.243C116.728 204.788 117.723 204.615 118.702 204.748C119.681 204.881 120.594 205.313 121.318 205.986" stroke="#263238" stroke-width="1.60806" stroke-linecap="round" stroke-linejoin="round"/>
<path d="M96.5225 205.897C99.571 205.426 102.165 207.366 104.926 208.291C108.014 209.297 110.464 208.603 113.114 206.863" stroke="#263238" stroke-width="1.60806" stroke-linecap="round" stroke-linejoin="round"/>
<path d="M75.6299 215.266C77.3297 215.809 77.7287 213.407 78.2315 212.313C79.1971 210.223 79.8834 209.816 82.1579 210.334C87.4489 211.547 90.7926 212.728 94.1285 207.717" stroke="#263238" stroke-width="1.60806" stroke-linecap="round" stroke-linejoin="round"/>
<path d="M73.3077 226.311C73.3077 226.311 84.2728 217.629 104.08 215.977C123.888 214.325 136.983 215.538 141.859 220.414C146.735 225.29 155.083 242.328 155.163 250.572C155.219 255.759 149.01 270.379 149.01 270.379L158.283 312.843C158.283 312.843 131.365 310.792 107.105 312.93C94.783 314.008 91.5509 316.41 91.5509 316.41C91.5509 316.41 96.7701 297.983 97.6799 293.474C98.5896 288.965 68.7669 242.272 73.3077 226.311Z" fill="#263238"/>
<path d="M181.219 282.621C179.335 292.413 175.88 290.386 169.384 287.337C162.888 284.289 151.891 273.324 139.617 257.474L153.702 239.846C153.702 239.846 164.707 255.447 169.384 260.523C174.06 265.598 176.694 273.292 176.694 273.292" fill="white"/>
<path d="M181.219 282.621C179.335 292.413 175.88 290.386 169.384 287.337C162.888 284.289 151.891 273.324 139.617 257.474L153.702 239.846C153.702 239.846 164.707 255.447 169.384 260.523C174.06 265.598 176.694 273.292 176.694 273.292" stroke="#263238" stroke-width="1.60806" stroke-linecap="round" stroke-linejoin="round"/>
<path d="M122.666 215.578C122.666 215.578 134.525 214.349 140.486 219.288C146.448 224.228 153.255 236.694 157.038 242.432C157.038 242.432 149.121 257.084 139.856 259.526C139.856 259.526 135.866 253.022 132.53 250.995C129.194 248.968 126.05 244.084 126.05 244.084" fill="#263238"/>
<path d="M81.7106 221.571C71.783 224.676 62.0309 240.214 56.2451 245.393C56.2451 245.393 60.3071 256.749 72.4294 260.915C72.4294 260.915 78.5344 255.751 81.7106 256.972C84.8868 258.193 81.7106 221.571 81.7106 221.571Z" fill="#263238"/>
<path d="M127.822 151.774C127.886 153.147 127.973 154.519 127.934 155.892" stroke="#263238" stroke-width="1.60806" stroke-linecap="round" stroke-linejoin="round"/>
<path d="M52.8937 280.706C52.8937 280.706 49.6138 285.254 44.5542 285.071" stroke="#263238" stroke-width="1.60806" stroke-linecap="round" stroke-linejoin="round"/>
<path d="M139.616 257.475C139.616 257.475 134.876 248.816 132.53 248.968C130.183 249.12 125.794 233.63 134.86 222.896" stroke="white" stroke-width="1.60806" stroke-linecap="round" stroke-linejoin="round"/>
<path d="M89.7231 220.246C89.7231 220.246 95.3094 224.779 115.915 218.163" stroke="white" stroke-width="1.60806" stroke-linecap="round" stroke-linejoin="round"/>
<path d="M89.7231 229.456C89.7231 229.456 105.061 229.105 112.507 222.896" stroke="white" stroke-width="1.60806" stroke-linecap="round" stroke-linejoin="round"/>
<path d="M72.4054 232.592C72.4054 232.592 70.8572 250.061 81.535 254.698" stroke="white" stroke-width="1.60806" stroke-linecap="round" stroke-linejoin="round"/>
<path d="M69.6841 248.967C69.6841 248.967 72.0782 255.12 80.1224 254.697" stroke="white" stroke-width="1.60806" stroke-linecap="round" stroke-linejoin="round"/>
<path d="M124.23 242.464C124.23 242.464 125.292 249.75 135.148 250.803" stroke="white" stroke-width="1.60806" stroke-linecap="round" stroke-linejoin="round"/>
<path d="M100.959 289.843C100.959 289.843 125.156 285.342 129.058 277.641" stroke="white" stroke-width="1.60806" stroke-linecap="round" stroke-linejoin="round"/>
<path d="M106.618 296.188C106.618 296.188 115.205 307.752 129.386 305.102" stroke="white" stroke-width="1.60806" stroke-linecap="round" stroke-linejoin="round"/>
<defs>
<linearGradient id="paint0_linear_433_361" x1="80.3989" y1="74.9697" x2="80.3989" y2="99.5592" gradientUnits="userSpaceOnUse">
<stop stop-color="#FF8A00"/>
<stop offset="1" stop-color="#FFE600"/>
</linearGradient>
</defs>
</svg>
