<svg width="283" height="283" viewBox="0 0 283 283" fill="none" xmlns="http://www.w3.org/2000/svg">
<path opacity="0.7" d="M38.7923 94.705C38.7923 94.705 23.0753 135.294 45.1626 176.165C67.2499 217.037 112.744 238.628 149.156 257.09C185.568 275.553 223.378 266.561 241.344 236.322C259.311 206.083 234.669 184.497 234.636 141.377C234.602 98.2566 241.09 86.8408 217.723 50.4119C194.356 13.9831 137.075 5.91595 93.757 32.936C50.4392 59.9561 38.7923 94.705 38.7923 94.705Z" fill="white"/>
<path d="M140.373 15.2402C14.9464 22.2588 -11.9778 188.618 30.0265 239.496C62.6276 278.986 120.755 272.469 151.434 233.813C176.7 201.99 217.594 225.498 251.306 191.088C295.227 146.253 281.111 7.36477 140.373 15.2402Z" fill="#004866"/>
<path opacity="0.7" d="M140.373 15.2402C14.9464 22.2588 -11.9778 188.618 30.0265 239.496C62.6276 278.986 120.755 272.469 151.434 233.813C176.7 201.99 217.594 225.498 251.306 191.088C295.227 146.253 281.111 7.36477 140.373 15.2402Z" fill="white"/>
<path d="M245.364 43.6408V202.582C245.364 203.004 245.196 203.409 244.898 203.708C244.6 204.007 244.196 204.176 243.774 204.177H148.372C147.949 204.177 147.543 204.009 147.244 203.71C146.945 203.411 146.777 203.005 146.777 202.582V43.6408C146.777 43.2177 146.945 42.8119 147.244 42.5127C147.543 42.2135 147.949 42.0454 148.372 42.0454H174.693L175.556 44.9769H216.641L217.509 42.0454H243.802C244.219 42.0543 244.616 42.2262 244.908 42.5245C245.2 42.8227 245.364 43.2235 245.364 43.6408Z" fill="#004866"/>
<mask id="mask0_443_4315" style="mask-type:luminance" maskUnits="userSpaceOnUse" x="146" y="42" width="100" height="163">
<path d="M245.364 43.6408V202.582C245.364 203.004 245.196 203.409 244.898 203.708C244.6 204.007 244.196 204.176 243.774 204.177H148.372C147.949 204.177 147.543 204.009 147.244 203.71C146.945 203.411 146.777 203.005 146.777 202.582V43.6408C146.777 43.2177 146.945 42.8119 147.244 42.5127C147.543 42.2135 147.949 42.0454 148.372 42.0454H174.693L175.556 44.9769H216.641L217.509 42.0454H243.802C244.219 42.0543 244.616 42.2262 244.908 42.5245C245.2 42.8227 245.364 43.2235 245.364 43.6408Z" fill="white"/>
</mask>
<g mask="url(#mask0_443_4315)">
<path opacity="0.5" d="M245.364 57.4136V202.582C245.364 203.004 245.196 203.409 244.898 203.708C244.6 204.007 244.196 204.176 243.774 204.178H148.372C147.949 204.178 147.543 204.01 147.244 203.71C146.945 203.411 146.777 203.005 146.777 202.582V57.4136H245.364Z" fill="white"/>
<g opacity="0.2">
<path d="M228.638 72.1714H146.63V107.839H228.638C229.146 107.839 229.634 107.637 229.993 107.278C230.352 106.918 230.554 106.431 230.554 105.923V74.0881C230.554 73.5798 230.352 73.0922 229.993 72.7328C229.634 72.3733 229.146 72.1714 228.638 72.1714Z" fill="black"/>
<path d="M220.153 110.208H146.63V147.685H220.153C220.687 147.685 221.199 147.473 221.576 147.096C221.954 146.718 222.166 146.206 222.166 145.672V112.214C222.166 111.95 222.114 111.689 222.013 111.445C221.911 111.201 221.763 110.98 221.576 110.793C221.389 110.607 221.167 110.459 220.923 110.359C220.679 110.258 220.417 110.207 220.153 110.208Z" fill="black"/>
<path d="M228.638 146.946H146.63V182.597H228.638C229.145 182.597 229.632 182.396 229.991 182.038C230.35 181.68 230.553 181.193 230.554 180.686V148.863C230.554 148.355 230.352 147.867 229.993 147.508C229.634 147.148 229.146 146.946 228.638 146.946Z" fill="black"/>
<path d="M230.549 186.25V204.177H148.372C147.949 204.177 147.543 204.009 147.244 203.71C146.945 203.411 146.777 203.005 146.777 202.582V184.333H228.638C229.145 184.335 229.631 184.538 229.989 184.897C230.348 185.256 230.549 185.743 230.549 186.25Z" fill="black"/>
<path d="M238.249 74.3591V83.5255C238.248 83.9049 238.148 84.2773 237.958 84.6057C237.768 84.9341 237.495 85.207 237.167 85.3972V204.177H235.014V85.3746C234.685 85.1844 234.413 84.9116 234.223 84.5832C234.033 84.2548 233.932 83.8824 233.931 83.503V74.3591C233.96 73.8034 234.2 73.2797 234.604 72.8964C235.007 72.5131 235.542 72.2993 236.099 72.2993C236.655 72.2993 237.19 72.5131 237.594 72.8964C237.997 73.2797 238.238 73.8034 238.266 74.3591H238.249Z" fill="black"/>
</g>
</g>
<path d="M245.364 43.6408V202.582C245.364 203.004 245.196 203.409 244.898 203.708C244.6 204.007 244.196 204.176 243.774 204.177H148.372C147.949 204.177 147.543 204.009 147.244 203.71C146.945 203.411 146.777 203.005 146.777 202.582V43.6408C146.777 43.2177 146.945 42.8119 147.244 42.5127C147.543 42.2135 147.949 42.0454 148.372 42.0454H174.693L175.556 44.9769H216.641L217.509 42.0454H243.802C244.219 42.0543 244.616 42.2262 244.908 42.5245C245.2 42.8227 245.364 43.2235 245.364 43.6408Z" stroke="#263238" stroke-width="1.13594" stroke-linecap="round" stroke-linejoin="round"/>
<path d="M146.777 57.5483H245.364" stroke="#263238" stroke-width="1.13594" stroke-linecap="round" stroke-linejoin="round"/>
<path d="M218.31 67.6562H137.408C136.349 67.6562 135.491 68.5144 135.491 69.573V99.6767C135.491 100.735 136.349 101.593 137.408 101.593H218.31C219.368 101.593 220.227 100.735 220.227 99.6767V69.573C220.227 68.5144 219.368 67.6562 218.31 67.6562Z" fill="white"/>
<mask id="mask1_443_4315" style="mask-type:luminance" maskUnits="userSpaceOnUse" x="135" y="67" width="86" height="35">
<path d="M218.31 67.6562H137.408C136.349 67.6562 135.491 68.5144 135.491 69.573V99.6767C135.491 100.735 136.349 101.593 137.408 101.593H218.31C219.368 101.593 220.227 100.735 220.227 99.6767V69.573C220.227 68.5144 219.368 67.6562 218.31 67.6562Z" fill="white"/>
</mask>
<g mask="url(#mask1_443_4315)">
<path d="M167.162 71.6079H139.606V97.6358H167.162V71.6079Z" fill="white" stroke="#263238" stroke-width="1.13594" stroke-linecap="round" stroke-linejoin="round"/>
<path d="M197.807 73.8966H173.149C172.85 73.8966 172.563 73.7778 172.352 73.5663C172.14 73.3549 172.021 73.0681 172.021 72.7691C172.021 72.4701 172.14 72.1833 172.352 71.9718C172.563 71.7604 172.85 71.6416 173.149 71.6416H197.807C198.106 71.6416 198.393 71.7604 198.604 71.9718C198.816 72.1833 198.934 72.4701 198.934 72.7691C198.934 73.0681 198.816 73.3549 198.604 73.5663C198.393 73.7778 198.106 73.8966 197.807 73.8966Z" fill="#263238"/>
<path d="M183.296 78.9478H173.149C172.85 78.9478 172.563 78.829 172.352 78.6176C172.14 78.4062 172.021 78.1194 172.021 77.8204C172.021 77.5213 172.14 77.2345 172.352 77.0231C172.563 76.8117 172.85 76.6929 173.149 76.6929H183.296C183.595 76.6929 183.882 76.8117 184.093 77.0231C184.305 77.2345 184.424 77.5213 184.424 77.8204C184.424 78.1194 184.305 78.4062 184.093 78.6176C183.882 78.829 183.595 78.9478 183.296 78.9478Z" fill="#263238"/>
<path d="M204.493 91.6599C204.067 91.5173 203.606 91.5233 203.184 91.6769C202.762 91.8305 202.405 92.1226 202.17 92.5055C201.941 92.1186 201.589 91.8206 201.169 91.6599C200.749 91.4992 200.287 91.4853 199.859 91.6204C198.517 92.0263 198.044 93.7232 199.154 95.2904C199.899 96.2368 200.845 97.0068 201.922 97.5453L202.136 97.6468L202.345 97.551C203.436 97.0334 204.398 96.2806 205.164 95.3467C206.263 93.7852 205.829 92.077 204.493 91.6599Z" fill="#004866" stroke="#263238" stroke-width="1.13594" stroke-linecap="round" stroke-linejoin="round"/>
<path d="M145.943 82.7643L147.634 92.3986H158.909L161.096 82.7643C161.096 82.7643 159.157 80.8081 159.236 76.208L157.86 75.7231C157.86 75.7231 158.266 79.6693 153.407 79.6693C148.547 79.6693 148.389 76.1121 148.389 76.1121L147.014 76.642C147.014 76.642 147.882 80.56 145.943 82.7643Z" fill="#004866" stroke="#263238" stroke-width="1.13594" stroke-linecap="round" stroke-linejoin="round"/>
<path d="M156.738 83.3788C155.88 83.2998 155.015 83.2998 154.157 83.3788L153.508 81.9243L153.001 83.4295C151.699 83.4915 150.549 83.5592 150.549 83.5592L152.533 84.8219C152.189 85.8141 151.856 86.7556 151.704 87.0769C151.704 87.0769 152.691 86.3948 153.79 85.6168L155.712 86.8345L154.833 84.8727C155.514 84.4366 156.152 83.9364 156.738 83.3788Z" fill="#004866" stroke="#263238" stroke-width="1.13594" stroke-linecap="round" stroke-linejoin="round"/>
<path opacity="0.2" d="M215.999 95.5781H135.491V99.6765C135.491 100.185 135.693 100.672 136.052 101.032C136.412 101.391 136.899 101.593 137.408 101.593H217.848V97.4272C217.848 97.1844 217.8 96.9439 217.707 96.7196C217.614 96.4952 217.478 96.2914 217.306 96.1197C217.134 95.948 216.931 95.8118 216.706 95.7189C216.482 95.626 216.242 95.5781 215.999 95.5781Z" fill="black"/>
</g>
<path d="M218.31 67.6562H137.408C136.349 67.6562 135.491 68.5144 135.491 69.573V99.6767C135.491 100.735 136.349 101.593 137.408 101.593H218.31C219.368 101.593 220.227 100.735 220.227 99.6767V69.573C220.227 68.5144 219.368 67.6562 218.31 67.6562Z" stroke="#263238" stroke-width="1.13594" stroke-linecap="round" stroke-linejoin="round"/>
<path d="M220.227 140.711V170.826C220.226 171.077 220.176 171.326 220.079 171.557C219.982 171.789 219.841 171.999 219.663 172.176C219.485 172.353 219.274 172.493 219.042 172.588C218.81 172.684 218.561 172.733 218.31 172.732H137.408C137.157 172.733 136.908 172.684 136.676 172.588C136.444 172.493 136.233 172.353 136.055 172.176C135.877 171.999 135.735 171.789 135.638 171.557C135.542 171.326 135.492 171.077 135.491 170.826V140.711C135.492 140.204 135.695 139.718 136.054 139.36C136.414 139.001 136.9 138.8 137.408 138.8H218.31C218.817 138.8 219.304 139.001 219.663 139.36C220.023 139.718 220.225 140.204 220.227 140.711Z" fill="white"/>
<mask id="mask2_443_4315" style="mask-type:luminance" maskUnits="userSpaceOnUse" x="135" y="138" width="86" height="35">
<path d="M220.227 140.711V170.826C220.226 171.077 220.176 171.326 220.079 171.557C219.982 171.789 219.841 171.999 219.663 172.176C219.485 172.353 219.274 172.493 219.042 172.588C218.81 172.684 218.561 172.733 218.31 172.732H137.408C137.157 172.733 136.908 172.684 136.676 172.588C136.444 172.493 136.233 172.353 136.055 172.176C135.877 171.999 135.735 171.789 135.638 171.557C135.542 171.326 135.492 171.077 135.491 170.826V140.711C135.492 140.204 135.695 139.718 136.054 139.36C136.414 139.001 136.9 138.8 137.408 138.8H218.31C218.817 138.8 219.304 139.001 219.663 139.36C220.023 139.718 220.225 140.204 220.227 140.711Z" fill="white"/>
</mask>
<g mask="url(#mask2_443_4315)">
<path d="M167.162 142.752H139.606V168.78H167.162V142.752Z" fill="white" stroke="#263238" stroke-width="1.13594" stroke-linecap="round" stroke-linejoin="round"/>
<path d="M197.807 145.041H173.149C172.85 145.041 172.563 144.922 172.351 144.71C172.14 144.499 172.021 144.212 172.021 143.913C172.021 143.614 172.14 143.327 172.351 143.116C172.563 142.904 172.85 142.786 173.149 142.786H197.807C198.106 142.786 198.393 142.904 198.604 143.116C198.815 143.327 198.934 143.614 198.934 143.913C198.934 144.212 198.815 144.499 198.604 144.71C198.393 144.922 198.106 145.041 197.807 145.041Z" fill="#263238"/>
<path d="M183.443 147.803H173.002C172.451 147.803 172.004 148.249 172.004 148.801V149.094C172.004 149.645 172.451 150.092 173.002 150.092H183.443C183.994 150.092 184.44 149.645 184.44 149.094V148.801C184.44 148.249 183.994 147.803 183.443 147.803Z" fill="#263238"/>
<path d="M204.493 162.804C204.066 162.662 203.604 162.669 203.182 162.824C202.761 162.978 202.404 163.272 202.17 163.656C201.942 163.268 201.589 162.969 201.169 162.808C200.749 162.648 200.287 162.634 199.859 162.77C198.517 163.171 198.043 164.873 199.154 166.435C199.898 167.383 200.843 168.153 201.922 168.69L202.136 168.797L202.345 168.695C203.436 168.178 204.398 167.425 205.164 166.491C206.263 164.935 205.829 163.227 204.493 162.804Z" fill="#004866" stroke="#263238" stroke-width="1.13594" stroke-linecap="round" stroke-linejoin="round"/>
<path d="M146.664 163.616V164.698H153.141C153.141 164.698 155.103 162.381 156.197 162.663C157.291 162.945 157.167 164.698 157.167 164.698H158.807L159.371 163.616L158.908 157.663L146.664 163.616Z" fill="white" stroke="#263238" stroke-width="1.13594" stroke-linecap="round" stroke-linejoin="round"/>
<path d="M146.664 163.616H152.769C152.769 163.616 154.68 161.857 156.152 161.361C157.623 160.865 157.973 163.616 157.973 163.616H159.371C159.371 163.616 160.498 160.577 160.498 160.233C160.498 159.889 159.405 154.647 159.405 151.247C159.405 151.247 155.701 151.185 155.216 151.811C155.216 151.811 154.427 150.655 153.936 150.779C154.214 152.157 154.316 153.564 154.241 154.968C154.06 156.789 151.569 159.703 149.201 160.555C147.662 161.079 147.03 161.671 146.664 163.616Z" fill="#004866" stroke="#263238" stroke-width="1.13594" stroke-linecap="round" stroke-linejoin="round"/>
<path d="M155.227 151.777C155.227 151.777 155.346 155.357 155.227 156.084C155.109 156.811 151.884 160.396 151.58 160.52" stroke="#263238" stroke-width="1.13594" stroke-linecap="round" stroke-linejoin="round"/>
<path d="M154.263 153.158H155.831" stroke="#263238" stroke-width="1.13594" stroke-linecap="round" stroke-linejoin="round"/>
<path d="M154.252 154.934L155.831 154.692" stroke="#263238" stroke-width="1.13594" stroke-linecap="round" stroke-linejoin="round"/>
<path d="M153.812 156.146L155.831 156.389" stroke="#263238" stroke-width="1.13594" stroke-linecap="round" stroke-linejoin="round"/>
<path d="M153.142 157.173L155.047 157.663" stroke="#263238" stroke-width="1.13594" stroke-linecap="round" stroke-linejoin="round"/>
<path d="M152.285 158.243L153.812 159.123" stroke="#263238" stroke-width="1.13594" stroke-linecap="round" stroke-linejoin="round"/>
<path d="M149.212 160.521C149.774 160.821 150.246 161.266 150.577 161.811C150.908 162.355 151.087 162.979 151.095 163.616H146.664C146.774 162.919 147.068 162.265 147.516 161.721C147.964 161.177 148.55 160.762 149.212 160.521Z" fill="white" stroke="#263238" stroke-width="1.13594" stroke-linecap="round" stroke-linejoin="round"/>
<path d="M158.458 159.01C158.458 159.161 158.413 159.31 158.328 159.436C158.244 159.562 158.124 159.66 157.984 159.718C157.844 159.776 157.69 159.791 157.541 159.762C157.393 159.732 157.256 159.659 157.149 159.552C157.042 159.445 156.969 159.308 156.939 159.159C156.909 159.011 156.925 158.857 156.983 158.716C157.041 158.576 157.139 158.457 157.265 158.372C157.391 158.288 157.539 158.243 157.691 158.243C157.894 158.243 158.089 158.324 158.233 158.468C158.377 158.612 158.458 158.807 158.458 159.01Z" fill="white" stroke="#263238" stroke-width="1.13594" stroke-linecap="round" stroke-linejoin="round"/>
<path opacity="0.2" d="M217.848 138.8H137.408C136.9 138.8 136.414 139.001 136.054 139.36C135.695 139.718 135.492 140.204 135.491 140.711V152.155H215.999C216.489 152.155 216.959 151.96 217.306 151.614C217.653 151.267 217.848 150.797 217.848 150.306V138.8Z" fill="black"/>
</g>
<path d="M220.227 140.711V170.826C220.226 171.077 220.176 171.326 220.079 171.557C219.982 171.789 219.841 171.999 219.663 172.176C219.485 172.353 219.274 172.493 219.042 172.588C218.81 172.684 218.561 172.733 218.31 172.732H137.408C137.157 172.733 136.908 172.684 136.676 172.588C136.444 172.493 136.233 172.353 136.055 172.176C135.877 171.999 135.735 171.789 135.638 171.557C135.542 171.326 135.492 171.077 135.491 170.826V140.711C135.492 140.204 135.695 139.718 136.054 139.36C136.414 139.001 136.9 138.8 137.408 138.8H218.31C218.817 138.8 219.304 139.001 219.663 139.36C220.023 139.718 220.225 140.204 220.227 140.711Z" stroke="#263238" stroke-width="1.13594" stroke-linecap="round" stroke-linejoin="round"/>
<path d="M218.552 174.372H137.165C136.24 174.372 135.491 175.121 135.491 176.046V206.634C135.491 207.559 136.24 208.309 137.165 208.309H218.552C219.477 208.309 220.227 207.559 220.227 206.634V176.046C220.227 175.121 219.477 174.372 218.552 174.372Z" fill="white" stroke="#263238" stroke-width="1.13594" stroke-linecap="round" stroke-linejoin="round"/>
<path d="M167.162 178.324H139.606V204.352H167.162V178.324Z" fill="white" stroke="#263238" stroke-width="1.13594" stroke-linecap="round" stroke-linejoin="round"/>
<path d="M197.807 180.618H173.149C172.85 180.618 172.563 180.499 172.351 180.288C172.14 180.077 172.021 179.79 172.021 179.491C172.021 179.192 172.14 178.905 172.351 178.694C172.563 178.482 172.85 178.363 173.149 178.363H197.807C198.106 178.363 198.392 178.482 198.604 178.694C198.815 178.905 198.934 179.192 198.934 179.491C198.934 179.79 198.815 180.077 198.604 180.288C198.392 180.499 198.106 180.618 197.807 180.618Z" fill="#263238"/>
<path d="M183.296 185.67H173.149C172.85 185.67 172.563 185.551 172.351 185.34C172.14 185.128 172.021 184.842 172.021 184.543C172.021 184.243 172.14 183.957 172.351 183.745C172.563 183.534 172.85 183.415 173.149 183.415H183.296C183.595 183.415 183.882 183.534 184.093 183.745C184.305 183.957 184.423 184.243 184.423 184.543C184.423 184.842 184.305 185.128 184.093 185.34C183.882 185.551 183.595 185.67 183.296 185.67Z" fill="#263238"/>
<path d="M204.493 198.381C204.066 198.239 203.604 198.246 203.182 198.401C202.76 198.555 202.403 198.849 202.17 199.233C201.942 198.845 201.589 198.546 201.169 198.386C200.749 198.225 200.287 198.211 199.859 198.348C198.517 198.748 198.043 200.45 199.154 202.012C199.898 202.96 200.843 203.73 201.922 204.267L202.136 204.374L202.345 204.272C203.438 203.759 204.401 203.005 205.163 202.068C206.263 200.507 205.829 198.799 204.493 198.381Z" fill="#004866" stroke="#263238" stroke-width="1.13594" stroke-linecap="round" stroke-linejoin="round"/>
<path d="M155.83 186.628C155.83 186.628 156.817 181.464 159.173 183.381C163.182 186.628 159.94 196.184 159.94 196.184" stroke="#263238" stroke-width="1.13594" stroke-linecap="round" stroke-linejoin="round"/>
<path d="M150.548 186.628C150.548 186.628 149.629 183.104 147.419 183.285C145.21 183.465 143.265 190.675 145.937 197.147" stroke="#263238" stroke-width="1.13594" stroke-linecap="round" stroke-linejoin="round"/>
<path d="M151.095 184.959C151.209 184.522 151.46 184.133 151.811 183.849C152.162 183.565 152.594 183.401 153.046 183.381C153.481 183.389 153.899 183.552 154.225 183.842C154.551 184.131 154.762 184.528 154.821 184.959" stroke="#263238" stroke-width="1.13594" stroke-linecap="round" stroke-linejoin="round"/>
<path d="M148.282 185.004L157.691 184.846V187C157.691 187 161.846 196.527 160.713 198.607C159.579 200.687 146.016 201.268 145.452 198.235C144.888 195.202 148.524 187.434 148.524 187.434L148.282 185.004Z" fill="#004866" stroke="#263238" stroke-width="1.13594" stroke-linecap="round" stroke-linejoin="round"/>
<path d="M148.524 187.434C148.524 187.434 148.282 191.318 149.652 192.051C151.022 192.783 156.253 192.857 156.918 191.724C157.584 190.591 157.685 187 157.685 187" stroke="#263238" stroke-width="1.13594" stroke-linecap="round" stroke-linejoin="round"/>
<path d="M148.507 193.669C148.507 193.669 151.501 194.475 153.017 194.233C153.017 194.233 152.662 198.686 151.935 198.686C151.208 198.686 147.724 198.827 147.481 198.027C147.239 197.226 147.887 194.396 147.887 194.396" stroke="#263238" stroke-width="1.13594" stroke-linecap="round" stroke-linejoin="round"/>
<path d="M158.458 193.669C157.089 194.045 155.682 194.263 154.263 194.317C154.263 194.317 154.235 197.57 154.827 198.263C155.419 198.957 158.57 198.585 159.055 197.829C159.54 197.074 158.463 194.571 158.463 194.571" stroke="#263238" stroke-width="1.13594" stroke-linecap="round" stroke-linejoin="round"/>
<path d="M154.004 190.941C154.004 191.084 153.961 191.225 153.881 191.345C153.801 191.464 153.688 191.557 153.555 191.612C153.422 191.668 153.276 191.682 153.135 191.654C152.994 191.626 152.864 191.557 152.762 191.455C152.661 191.353 152.591 191.224 152.563 191.082C152.535 190.941 152.55 190.795 152.605 190.662C152.66 190.529 152.753 190.416 152.873 190.336C152.992 190.256 153.133 190.213 153.277 190.213C153.372 190.213 153.467 190.231 153.556 190.267C153.644 190.303 153.725 190.357 153.793 190.425C153.86 190.492 153.914 190.573 153.95 190.661C153.986 190.75 154.005 190.845 154.004 190.941Z" stroke="#263238" stroke-width="1.13594" stroke-linecap="round" stroke-linejoin="round"/>
<path d="M213.394 97.1118H108.837C107.912 97.1118 107.163 97.8614 107.163 98.7861V138.654C107.163 139.579 107.912 140.328 108.837 140.328H213.394C214.319 140.328 215.068 139.579 215.068 138.654V98.7861C215.068 97.8614 214.319 97.1118 213.394 97.1118Z" fill="white" stroke="#263238" stroke-width="1.13594" stroke-linecap="round" stroke-linejoin="round"/>
<path d="M147.487 102.146H112.4V135.293H147.487V102.146Z" fill="white" stroke="#263238" stroke-width="1.13594" stroke-linecap="round" stroke-linejoin="round"/>
<path d="M186.921 102.146H154.703C154.124 102.146 153.654 102.615 153.654 103.194V104.011C153.654 104.591 154.124 105.06 154.703 105.06H186.921C187.5 105.06 187.969 104.591 187.969 104.011V103.194C187.969 102.615 187.5 102.146 186.921 102.146Z" fill="#263238"/>
<path d="M154.703 108.578H168.441C168.579 108.578 168.715 108.605 168.843 108.658C168.97 108.711 169.085 108.788 169.183 108.885C169.28 108.983 169.357 109.098 169.41 109.225C169.463 109.353 169.49 109.489 169.49 109.627V110.438C169.49 110.718 169.379 110.986 169.181 111.184C168.983 111.382 168.715 111.493 168.436 111.493H154.703C154.423 111.493 154.155 111.382 153.958 111.184C153.76 110.986 153.649 110.718 153.649 110.438V109.627C153.649 109.489 153.676 109.352 153.729 109.224C153.782 109.097 153.86 108.981 153.958 108.883C154.056 108.786 154.172 108.709 154.3 108.656C154.428 108.604 154.565 108.577 154.703 108.578Z" fill="#263238"/>
<path d="M195.033 127.678C194.49 127.498 193.902 127.507 193.365 127.703C192.827 127.9 192.372 128.272 192.073 128.76C191.78 128.268 191.33 127.889 190.795 127.685C190.26 127.48 189.671 127.462 189.125 127.632C187.434 128.145 186.814 130.31 188.228 132.306C189.178 133.506 190.382 134.482 191.752 135.164L192.022 135.294L192.293 135.164C193.677 134.504 194.895 133.54 195.856 132.345C197.31 130.389 196.73 128.213 195.033 127.678Z" fill="#004866" stroke="#263238" stroke-width="1.13594" stroke-linecap="round" stroke-linejoin="round"/>
<path d="M124.419 107.089H135.293L135.553 109.344L143.8 125.129C143.8 125.129 143.079 129.137 141.122 127.75C139.166 126.364 138.129 131.274 135.451 130.056C132.773 128.838 131.415 131.674 128.382 130.874C125.349 130.073 124.436 130.31 122.874 131.02C121.313 131.73 119.988 128.066 118.748 128.297C117.507 128.528 116.284 126.369 116.284 126.369L123.906 110.286L124.419 107.089Z" fill="#004866" stroke="#263238" stroke-width="1.13594" stroke-linecap="round" stroke-linejoin="round"/>
<path d="M125.242 109.362H134.211" stroke="#263238" stroke-width="1.13594" stroke-linecap="round" stroke-linejoin="round"/>
<path d="M130.096 108.183C130.096 108.281 130.057 108.374 129.988 108.442C129.92 108.511 129.827 108.55 129.729 108.55C129.632 108.55 129.539 108.511 129.47 108.442C129.402 108.374 129.363 108.281 129.363 108.183C129.363 108.086 129.402 107.993 129.47 107.924C129.539 107.855 129.632 107.817 129.729 107.817C129.827 107.817 129.92 107.855 129.988 107.924C130.057 107.993 130.096 108.086 130.096 108.183Z" fill="#263238"/>
<path d="M120.18 126.223C120.18 126.223 122.886 119.266 123.314 117.682" stroke="#263238" stroke-width="1.13594" stroke-linecap="round" stroke-linejoin="round"/>
<path d="M128.698 124.414C128.737 121.702 128.765 118.776 128.765 118.776L128.652 124.414H128.698Z" fill="white" stroke="#263238" stroke-width="1.13594" stroke-linecap="round" stroke-linejoin="round"/>
<path d="M128.624 126.133L128.568 128.906C128.607 128.647 128.641 127.537 128.664 126.144L128.624 126.133Z" fill="white" stroke="#263238" stroke-width="1.13594" stroke-linecap="round" stroke-linejoin="round"/>
<path d="M136.223 127.593C136.223 127.435 133.709 118.703 133.636 117.66L136.223 127.593Z" fill="white"/>
<path d="M136.223 127.593C136.223 127.435 133.709 118.703 133.636 117.66" stroke="#263238" stroke-width="1.13594" stroke-linecap="round" stroke-linejoin="round"/>
<path d="M137.988 117.654L137.075 115.456L137.988 117.654Z" fill="white"/>
<path d="M137.988 117.654L137.075 115.456" stroke="#263238" stroke-width="1.13594" stroke-linecap="round" stroke-linejoin="round"/>
<path d="M141.173 125.349C140.369 123.41 139.565 121.469 138.76 119.526L141.173 125.349Z" fill="white"/>
<path d="M141.173 125.349C140.369 123.41 139.565 121.469 138.76 119.526" stroke="#263238" stroke-width="1.13594" stroke-linecap="round" stroke-linejoin="round"/>
<path d="M123.889 116.149L124.396 114.988" stroke="#263238" stroke-width="1.13594" stroke-linecap="round" stroke-linejoin="round"/>
<path d="M225.757 208.912C225.47 208.912 225.194 208.798 224.991 208.595C224.788 208.392 224.674 208.117 224.674 207.83V71.5008C224.674 71.2138 224.788 70.9385 224.991 70.7355C225.194 70.5325 225.47 70.4185 225.757 70.4185C226.044 70.4185 226.319 70.5325 226.522 70.7355C226.725 70.9385 226.839 71.2138 226.839 71.5008V207.83C226.839 208.117 226.725 208.392 226.522 208.595C226.319 208.798 226.044 208.912 225.757 208.912Z" fill="#263238"/>
<path d="M225.757 81.1521C225.472 81.1528 225.19 81.0974 224.927 80.9889C224.663 80.8805 224.424 80.7211 224.223 80.5201C224.021 80.319 223.861 80.0801 223.752 79.8171C223.643 79.5541 223.587 79.2721 223.587 78.9873V69.8491C223.587 69.2735 223.815 68.7214 224.222 68.3144C224.629 67.9074 225.181 67.6787 225.757 67.6787C226.042 67.6787 226.324 67.7348 226.588 67.8439C226.851 67.953 227.09 68.1129 227.292 68.3144C227.493 68.5159 227.653 68.7552 227.762 69.0185C227.871 69.2819 227.927 69.5641 227.927 69.8491V79.0099C227.92 79.5806 227.688 80.1254 227.282 80.5264C226.876 80.9274 226.328 81.1521 225.757 81.1521Z" fill="white" stroke="#263238" stroke-width="1.13594" stroke-linecap="round" stroke-linejoin="round"/>
<path d="M31.7234 61.9569C31.3119 50.1804 42.3893 40.2417 56.4603 39.7512C70.5312 39.2608 82.2739 48.4272 82.6798 60.1868C83.0632 71.0332 73.6882 80.318 61.207 82.0994C60.2204 88.5373 63.2646 91.5307 63.2646 91.5307C61.1717 90.6927 59.2709 89.4381 57.6777 87.843C56.0845 86.2478 54.8322 84.3455 53.9968 82.2516C41.741 81.1241 32.0955 72.6173 31.7234 61.9569Z" fill="white" stroke="#263238" stroke-width="1.13594" stroke-linecap="round" stroke-linejoin="round"/>
<path d="M50.7439 53.3038C54.256 52.3004 56.3306 54.4877 57.2551 55.8914C58.236 54.5271 60.4008 52.4187 63.8678 53.5575C67.6336 54.7977 68.8569 59.6459 65.559 63.9923C63.2026 67.1154 59.465 69.2126 57.5539 70.1371C57.3284 70.2498 57.1198 70.34 56.9507 70.419L56.3531 70.1145C54.4815 69.1167 50.8285 66.8787 48.6017 63.6654C45.518 59.2005 46.933 54.3975 50.7439 53.3038Z" fill="url(#paint0_linear_443_4315)"/>
<path d="M48.9792 166.553C48.9792 166.553 32.4108 182.693 27.2413 193.669C22.0718 204.645 24.9864 204.172 30.06 207.644C40.2074 214.623 61.917 223.604 61.917 223.604C61.917 223.604 62.3454 230.684 66.0041 233.052C69.6628 235.42 79.9961 221.918 78.4909 219.629C76.9858 217.341 66.6524 218.068 66.6524 218.068C66.6524 218.068 61.4773 215.999 54.1599 209.995C48.934 205.825 43.4758 201.956 37.8115 198.405C37.8115 198.405 46.8313 185.85 51.6118 182.422C56.3923 178.995 64.0705 174.079 64.0705 174.079" fill="white"/>
<path d="M48.9792 166.553C48.9792 166.553 32.4108 182.693 27.2413 193.669C22.0718 204.645 24.9864 204.172 30.06 207.644C40.2074 214.623 61.917 223.604 61.917 223.604C61.917 223.604 62.3454 230.684 66.0041 233.052C69.6628 235.42 79.9961 221.918 78.4909 219.629C76.9858 217.341 66.6524 218.068 66.6524 218.068C66.6524 218.068 61.4773 215.999 54.1599 209.995C48.934 205.825 43.4758 201.956 37.8115 198.405C37.8115 198.405 46.8313 185.85 51.6118 182.422C56.3923 178.995 64.0705 174.079 64.0705 174.079" stroke="#263238" stroke-width="1.13594" stroke-linecap="round" stroke-linejoin="round"/>
<path d="M119.447 259.699C109.626 262.992 100.218 265.393 92.0433 266.025C91.4401 266.07 90.8369 266.109 90.245 266.137C90.1379 264.176 89.9631 260.5 89.7658 259.372C89.5714 258.255 89.0171 257.231 88.1874 256.458L84.7429 258.29L83.7845 266.143C68.7609 265.917 59.228 261.633 59.228 261.633L60.5866 253.436C59.8908 250.972 59.5846 248.413 59.679 245.854C60.0962 230.554 71.7487 212.971 71.7487 212.971C71.7487 212.971 98.5207 194.08 107.388 209.397C116.256 224.714 119.447 259.699 119.447 259.699Z" fill="#BFBFBF"/>
<path opacity="0.2" d="M106.238 258.494C106.069 260.021 96.091 262.073 92.049 258.527C92.4323 258.888 95.826 262.135 94.9297 263.257C94.0333 264.379 92.0151 263.257 92.0151 263.257C92.279 264.161 92.279 265.121 92.0151 266.025C91.4119 266.07 90.8087 266.11 90.2168 266.138C90.1097 264.176 89.9349 260.5 89.7376 259.373C89.5432 258.255 88.9889 257.232 88.1592 256.458L84.7147 258.291L83.7563 266.144C68.7327 265.918 59.1998 261.634 59.1998 261.634L60.5584 253.437C59.8626 250.972 59.5564 248.414 59.6508 245.854C61.2913 248.673 64.1607 252.371 68.1069 252.986C74.6914 253.995 79.8665 249.305 79.8665 249.305C79.8665 249.305 78.3388 245.06 79.8665 240.882C79.8665 240.882 79.1337 251.514 91.9982 252.986C104.536 254.418 107.219 251.655 107.338 251.531C107.135 251.819 103.955 256.458 102.055 256.96C102.072 256.966 106.413 256.966 106.238 258.494Z" fill="black"/>
<path d="M119.447 259.7C119.447 259.7 116.25 224.748 107.388 209.403C98.5263 194.058 71.7487 212.977 71.7487 212.977C71.7487 212.977 55.7441 237.111 60.5584 253.448L59.1998 261.633" stroke="#263238" stroke-width="1.13594" stroke-linecap="round" stroke-linejoin="round"/>
<path d="M62.334 253.222C68.8001 255.432 76.2922 254.581 81.2249 251.531" stroke="#263238" stroke-width="1.13594" stroke-linecap="round" stroke-linejoin="round"/>
<path d="M82.0312 224.974C82.0312 224.974 77.183 243.606 82.0312 249.215C86.8794 254.824 101.052 255.23 104.88 254.458C108.707 253.685 109.981 251.002 109.981 251.002" stroke="#263238" stroke-width="1.13594" stroke-linecap="round" stroke-linejoin="round"/>
<path d="M89.309 227.696C89.309 227.696 87.9673 237.223 89.4443 241.818L96.4121 244.372L102.05 240.628C102.05 240.628 101.424 231.778 101.525 227.696C101.542 227.696 94.5067 226.501 89.309 227.696Z" stroke="#263238" stroke-width="1.13594" stroke-linecap="round" stroke-linejoin="round"/>
<path d="M88.7509 237.736C88.7509 237.736 92.9394 236.152 95.4086 239.777C95.4086 239.777 95.8258 236.034 101.542 236.716" stroke="#263238" stroke-width="1.13594" stroke-linecap="round" stroke-linejoin="round"/>
<path d="M90.1998 229.314C90.1998 229.314 98.7179 228.751 101.542 229.878" stroke="#263238" stroke-width="1.13594" stroke-linecap="round" stroke-linejoin="round"/>
<path d="M65.8521 229.348C65.8521 229.348 62.5091 237.843 62.6275 242.274L68.2649 244.771L74.3476 240.741C74.3476 240.741 75.3398 232.234 76.0952 228.615C76.067 228.615 70.3282 228.04 65.8521 229.348Z" stroke="#263238" stroke-width="1.13594" stroke-linecap="round" stroke-linejoin="round"/>
<path d="M63.0728 238.311C63.0728 238.311 67.0189 236.665 68.3945 240.081C68.3945 240.081 69.567 236.434 74.5505 236.857" stroke="#263238" stroke-width="1.13594" stroke-linecap="round" stroke-linejoin="round"/>
<path d="M66.224 230.662C66.224 230.662 73.4624 229.704 75.7174 230.51" stroke="#263238" stroke-width="1.13594" stroke-linecap="round" stroke-linejoin="round"/>
<path d="M66.9736 223.603C66.9736 223.603 74.7589 222.211 81.5238 227.166C90.0125 222.534 99.7741 220.78 109.344 222.166" stroke="#263238" stroke-width="1.13594" stroke-linecap="round" stroke-linejoin="round"/>
<path d="M111.334 221.676C114.787 234.215 116.818 247.102 117.389 260.095" stroke="#263238" stroke-width="1.13594" stroke-linecap="round" stroke-linejoin="round"/>
<path d="M72.5886 257.642C72.5886 257.642 81.2646 254.452 83.948 252.157C83.948 252.157 90.2393 257.902 99.028 257.642" stroke="#263238" stroke-width="1.13594" stroke-linecap="round" stroke-linejoin="round"/>
<path d="M90.2168 266.138C90.2168 266.138 90.3351 259.43 89.3091 258.539C88.2831 257.648 88.0238 254.903 88.0238 254.903" stroke="#263238" stroke-width="1.13594" stroke-linecap="round" stroke-linejoin="round"/>
<path d="M88.1589 255.81C87.1787 256.847 86.0096 257.687 84.7145 258.285L83.7561 266.138" stroke="#263238" stroke-width="1.13594" stroke-linecap="round" stroke-linejoin="round"/>
<path d="M107.326 157.544C109.147 162.173 126.657 185.128 128.089 191.73C129.521 198.331 129.38 204.07 121.324 202.063C113.268 200.056 109.897 175.533 100.995 162.46" fill="white"/>
<path d="M107.326 157.544C109.147 162.173 126.657 185.128 128.089 191.73C129.521 198.331 129.38 204.07 121.324 202.063C113.268 200.056 109.897 175.533 100.995 162.46" stroke="#263238" stroke-width="1.13594" stroke-linecap="round" stroke-linejoin="round"/>
<path d="M106.509 160.273C106.89 159.823 107.154 159.285 107.277 158.707C107.4 158.13 107.378 157.531 107.214 156.964C106.801 154.637 106.005 152.395 104.857 150.329C103.127 147.51 104.384 144.782 103.222 144.838C102.061 144.894 101.819 147.443 101.819 147.443C101.819 147.443 99.5637 144.911 98.1656 144.162C97.5286 143.818 93.5317 142.177 93.5317 142.177L89.4446 142.375C89.4446 142.375 89.4108 144.308 93.1653 144.066L95.6683 146.05C95.6683 146.05 93.3062 146.749 93.1822 147.809C93.0582 148.869 91.7728 148.936 91.9081 150.374C92.0434 151.812 91.3782 152.003 92.5621 153.835C93.9771 156.034 95.4202 155.312 95.4202 155.312C95.4202 155.312 96.621 161.514 97.9232 162.731C98.5885 163.346 99.964 163.442 101.469 163.126" fill="white"/>
<path d="M106.509 160.273C106.89 159.823 107.154 159.285 107.277 158.707C107.4 158.13 107.378 157.531 107.214 156.964C106.801 154.637 106.005 152.395 104.857 150.329C103.127 147.51 104.384 144.782 103.222 144.838C102.061 144.894 101.819 147.443 101.819 147.443C101.819 147.443 99.5637 144.911 98.1656 144.162C97.5286 143.818 93.5317 142.177 93.5317 142.177L89.4446 142.375C89.4446 142.375 89.4108 144.308 93.1653 144.066L95.6683 146.05C95.6683 146.05 93.3062 146.749 93.1822 147.809C93.0582 148.869 91.7728 148.936 91.9081 150.374C92.0434 151.812 91.3782 152.003 92.5621 153.835C93.9771 156.034 95.4202 155.312 95.4202 155.312C95.4202 155.312 96.621 161.514 97.9232 162.731C98.5885 163.346 99.964 163.442 101.469 163.126" stroke="#263238" stroke-width="1.13594" stroke-linecap="round" stroke-linejoin="round"/>
<path d="M93.182 147.832C93.182 147.832 94.6308 151.135 95.4877 152.004C96.3446 152.872 97.878 151.953 98.4642 151.88C99.2197 151.789 99.7439 151.88 99.6256 151.569C98.9829 149.878 97.1507 150.307 97.1507 150.307C97.1507 150.307 96.587 148.486 95.5272 147.742" stroke="#263238" stroke-width="1.13594" stroke-linecap="round" stroke-linejoin="round"/>
<path d="M101.819 147.442C101.783 148.292 101.866 149.142 102.067 149.968C102.067 149.968 100.826 152.843 101.046 154.202" stroke="#263238" stroke-width="1.13594" stroke-linecap="round" stroke-linejoin="round"/>
<path d="M91.908 150.639C92.4717 151.862 93.6781 153.514 94.7267 153.768C95.7752 154.022 99.3155 153.029 99.0336 151.834" stroke="#263238" stroke-width="1.13594" stroke-linecap="round" stroke-linejoin="round"/>
<path d="M96.2317 148.446C96.2317 148.446 96.9758 148.446 96.9758 147.257" stroke="#263238" stroke-width="1.13594" stroke-linecap="round" stroke-linejoin="round"/>
<path d="M95.6681 146.073C95.6681 146.073 97.1338 146.591 97.799 145.436" stroke="#263238" stroke-width="1.13594" stroke-linecap="round" stroke-linejoin="round"/>
<path d="M58.9291 112.693C62.3904 100.821 83.6096 101.097 88.486 110.613C93.3623 120.129 91.3554 118.004 91.6429 121.363C91.9304 124.723 94.5123 127.187 93.943 132.982C93.3736 138.777 93.6555 140.982 92.2179 142.464C90.7804 143.947 80.2497 142.29 78.0568 140.965C78.0568 140.965 52.9252 133.377 58.9291 112.693Z" fill="white" stroke="#263238" stroke-width="1.13594" stroke-linecap="round" stroke-linejoin="round"/>
<path d="M66.2407 134.595C67.8248 137.926 68.3434 151.84 65.0737 155.143C65.0737 155.143 73.7102 158.875 86.0505 154.427C86.0505 154.427 82.3185 149.692 82.3185 145.599C82.3185 141.506 87.0539 140.937 87.0539 140.937" fill="white"/>
<path d="M66.2407 134.595C67.8248 137.926 68.3434 151.84 65.0737 155.143C65.0737 155.143 73.7102 158.875 86.0505 154.427C86.0505 154.427 82.3185 149.692 82.3185 145.599C82.3185 141.506 87.0539 140.937 87.0539 140.937" stroke="#263238" stroke-width="1.13594" stroke-linecap="round" stroke-linejoin="round"/>
<path d="M91.4626 118.387C91.97 118.703 90.7185 121.133 89.1006 122.119H90.2788C90.2788 122.119 89.6361 124.374 89.1006 124.577C88.565 124.78 87.0542 119.12 83.3955 122.119C83.3955 122.119 84.6865 114.137 91.4626 118.387Z" fill="#004866" stroke="#263238" stroke-width="1.13594" stroke-linecap="round" stroke-linejoin="round"/>
<path d="M80.5937 101.526C80.5937 101.526 90.0646 103.059 92.4323 109.085C94.8 115.112 90.493 121.341 87.0542 122.119C81.6705 123.337 82.1046 129.329 84.0382 134.594C85.9718 139.86 89.1119 143.614 88.2719 149.009C88.2719 149.009 84.9289 145.063 82.5612 147.544C80.1935 150.024 77.527 150.289 72.4139 149.128C67.3008 147.966 67.4361 149.776 65.0853 151.27C62.7345 152.764 57.689 148.074 57.2549 151.698C56.8208 155.323 55.4284 155.673 55.4284 155.673C55.4284 155.673 48.7537 151.541 50.693 145.599C52.6322 139.657 54.5659 138.191 53.7033 133.196C52.8408 128.202 51.5386 119.458 53.4891 110.613C55.4397 101.768 71.354 97.4722 80.5937 101.526Z" fill="#004866" stroke="#263238" stroke-width="1.13594" stroke-linecap="round" stroke-linejoin="round"/>
<path d="M87.8434 124.724C87.8434 124.724 87.0542 120.49 86.1917 120.49C85.3291 120.49 84.974 123.309 84.974 123.309C84.974 123.309 83.9536 124.436 83.8972 126.99C83.8409 129.544 85.549 130.435 85.549 130.435C85.549 130.435 86.3382 132.876 87.8434 132.374C89.3486 131.872 86.4059 129.933 86.4792 123.918" fill="white"/>
<path d="M87.8434 124.724C87.8434 124.724 87.0542 120.49 86.1917 120.49C85.3291 120.49 84.974 123.309 84.974 123.309C84.974 123.309 83.9536 124.436 83.8972 126.99C83.8409 129.544 85.549 130.435 85.549 130.435C85.549 130.435 86.3382 132.876 87.8434 132.374C89.3486 131.872 86.4059 129.933 86.4792 123.918" stroke="#263238" stroke-width="1.13594" stroke-linecap="round" stroke-linejoin="round"/>
<path d="M87.9166 135.181C87.9166 135.181 88.238 139.161 90.7353 141.743L87.9166 135.181Z" fill="white"/>
<path d="M87.9166 135.181C87.9166 135.181 88.238 139.161 90.7353 141.743" stroke="#263238" stroke-width="1.13594" stroke-linecap="round" stroke-linejoin="round"/>
<path d="M90.4198 112.271C89.3656 114.441 87.6011 115.834 85.7464 117.288C80.436 121.449 72.5324 125.491 72.4083 133.282C72.4056 134.88 72.7278 136.462 73.3554 137.932" stroke="#263238" stroke-width="1.13594" stroke-linecap="round" stroke-linejoin="round"/>
<path d="M81.5353 140.03C81.7044 141.033 81.8792 142.042 82.0314 143.051" stroke="#263238" stroke-width="1.13594" stroke-linecap="round" stroke-linejoin="round"/>
<path d="M83.8973 124.03C79.8101 127.058 80.5148 133.388 81.1744 137.774" stroke="#263238" stroke-width="1.13594" stroke-linecap="round" stroke-linejoin="round"/>
<path d="M65.3275 118.838C66.4156 127.385 67.7065 136.416 63.766 144.737" stroke="#263238" stroke-width="1.13594" stroke-linecap="round" stroke-linejoin="round"/>
<path d="M79.421 102.027C76.7447 101.828 74.0617 102.313 71.6245 103.436C66.7707 105.804 65.7165 111.419 65.4233 116.346" stroke="#263238" stroke-width="1.13594" stroke-linecap="round" stroke-linejoin="round"/>
<path d="M56.2121 144.658C55.9422 145.698 55.8451 146.776 55.9246 147.848" stroke="#263238" stroke-width="1.13594" stroke-linecap="round" stroke-linejoin="round"/>
<path d="M56.1611 112.952C55.7158 118.026 56.1611 123.167 56.8489 128.224C57.1871 130.755 57.5705 133.298 57.92 135.812C58.2695 138.326 57.5649 140.451 56.7925 142.774" stroke="#263238" stroke-width="1.13594" stroke-linecap="round" stroke-linejoin="round"/>
<path d="M57.999 105.855C56.99 107.31 56.663 109.238 56.4093 110.969" stroke="#263238" stroke-width="1.13594" stroke-linecap="round" stroke-linejoin="round"/>
<path d="M82.24 145.075C82.8591 144.753 83.5626 144.631 84.2539 144.725C84.9452 144.819 85.5906 145.124 86.1016 145.599" stroke="#263238" stroke-width="1.13594" stroke-linecap="round" stroke-linejoin="round"/>
<path d="M68.5861 145.537C70.7395 145.204 72.5717 146.574 74.5222 147.228C76.7039 147.938 78.4346 147.448 80.3062 146.219" stroke="#263238" stroke-width="1.13594" stroke-linecap="round" stroke-linejoin="round"/>
<path d="M53.8274 152.155C55.0282 152.539 55.31 150.842 55.6652 150.069C56.3473 148.592 56.8321 148.305 58.4388 148.671C62.1764 149.528 64.5385 150.363 66.8949 146.822" stroke="#263238" stroke-width="1.13594" stroke-linecap="round" stroke-linejoin="round"/>
<path d="M52.1868 159.957C52.1868 159.957 59.9326 153.824 73.9247 152.657C87.9167 151.49 97.1677 152.347 100.612 155.791C104.057 159.236 109.953 171.272 110.01 177.095C110.049 180.759 105.663 191.087 105.663 191.087L112.214 221.084C112.214 221.084 93.1989 219.635 76.0612 221.146C67.3571 221.907 65.0739 223.604 65.0739 223.604C65.0739 223.604 68.7608 210.587 69.4035 207.402C70.0461 204.217 48.9792 171.232 52.1868 159.957Z" fill="#263238"/>
<path d="M128.416 199.735C127.086 206.652 124.645 205.22 120.056 203.066C115.467 200.913 107.699 193.167 99.0282 181.971L108.978 169.518C108.978 169.518 116.752 180.539 120.056 184.125C123.359 187.71 125.22 193.144 125.22 193.144" fill="white"/>
<path d="M128.416 199.735C127.086 206.652 124.645 205.22 120.056 203.066C115.467 200.913 107.699 193.167 99.0282 181.971L108.978 169.518C108.978 169.518 116.752 180.539 120.056 184.125C123.359 187.71 125.22 193.144 125.22 193.144" stroke="#263238" stroke-width="1.13594" stroke-linecap="round" stroke-linejoin="round"/>
<path d="M87.0541 152.375C87.0541 152.375 95.4313 151.507 99.6424 154.997C103.854 158.486 108.662 167.292 111.334 171.345C111.334 171.345 105.742 181.695 99.197 183.42C99.197 183.42 96.3783 178.826 94.0219 177.394C91.6655 175.962 89.4443 172.512 89.4443 172.512" fill="#263238"/>
<path d="M58.123 156.609C51.1101 158.802 44.2211 169.778 40.134 173.437C40.134 173.437 43.0035 181.459 51.5667 184.401C51.5667 184.401 55.8793 180.754 58.123 181.616C60.3667 182.479 58.123 156.609 58.123 156.609Z" fill="#263238"/>
<path d="M90.696 107.304C90.7411 108.273 90.8032 109.243 90.775 110.213" stroke="#263238" stroke-width="1.13594" stroke-linecap="round" stroke-linejoin="round"/>
<path d="M37.7664 198.382C37.7664 198.382 35.4495 201.595 31.8754 201.465" stroke="#263238" stroke-width="1.13594" stroke-linecap="round" stroke-linejoin="round"/>
<path d="M99.0281 181.971C99.0281 181.971 95.6795 175.855 94.0221 175.962C92.3647 176.069 89.2642 165.127 95.6683 157.544" stroke="white" stroke-width="1.13594" stroke-linecap="round" stroke-linejoin="round"/>
<path d="M63.783 155.673C63.783 155.673 67.7291 158.875 82.2849 154.201" stroke="white" stroke-width="1.13594" stroke-linecap="round" stroke-linejoin="round"/>
<path d="M63.783 162.178C63.783 162.178 74.618 161.93 79.8777 157.544" stroke="white" stroke-width="1.13594" stroke-linecap="round" stroke-linejoin="round"/>
<path d="M51.5495 164.394C51.5495 164.394 50.4559 176.734 57.9987 180.01" stroke="white" stroke-width="1.13594" stroke-linecap="round" stroke-linejoin="round"/>
<path d="M49.6274 175.961C49.6274 175.961 51.3187 180.308 57.0012 180.009" stroke="white" stroke-width="1.13594" stroke-linecap="round" stroke-linejoin="round"/>
<path d="M88.1592 171.368C88.1592 171.368 88.9089 176.515 95.8711 177.259" stroke="white" stroke-width="1.13594" stroke-linecap="round" stroke-linejoin="round"/>
<path d="M71.7205 204.836C71.7205 204.836 88.8131 201.657 91.5697 196.217" stroke="white" stroke-width="1.13594" stroke-linecap="round" stroke-linejoin="round"/>
<path d="M75.7177 209.319C75.7177 209.319 81.7835 217.487 91.8012 215.616" stroke="white" stroke-width="1.13594" stroke-linecap="round" stroke-linejoin="round"/>
<defs>
<linearGradient id="paint0_linear_443_4315" x1="57.1962" y1="53.0488" x2="57.1962" y2="70.419" gradientUnits="userSpaceOnUse">
<stop stop-color="#FF8A00"/>
<stop offset="1" stop-color="#FFE600"/>
</linearGradient>
</defs>
</svg>
