<svg width="466" height="469" viewBox="0 0 466 469" fill="none" xmlns="http://www.w3.org/2000/svg">
<path fill-rule="evenodd" clip-rule="evenodd" d="M226.814 45.3517C256.58 52.5794 276.608 78.5137 305.027 89.9415C342.944 105.188 395.37 90.9442 420.445 123.214C444.744 154.485 438.307 203.834 421.325 239.609C405.462 273.028 356.746 275.372 334.273 304.756C309.338 337.358 322.788 396.056 286.707 415.621C252.232 434.315 211.372 403.416 173.946 391.694C137.241 380.198 94.1536 377.467 69.8107 347.687C45.5911 318.058 55.2636 274.915 47.806 237.38C39.8191 197.182 10.0769 157.605 24.4157 119.211C38.7942 80.7102 81.0699 59.0234 119.677 44.9348C153.919 32.4392 191.393 36.7506 226.814 45.3517Z" fill="#99E1FF"/>
<path d="M263.494 422.323C247.737 414.865 241.458 397.133 239.237 380.617C238.862 377.875 238.076 375.024 238.972 372.391C239.867 369.759 242.628 367.611 245.278 368.352C247.481 368.964 248.77 371.176 250.241 372.922C252.198 375.277 254.785 377.027 257.699 377.967C259.601 378.579 261.858 378.771 263.421 377.528C265.56 375.819 265.249 372.51 264.81 369.787C263.915 364.735 263.037 359.684 262.178 354.632C261.559 351.937 261.377 349.16 261.639 346.406C262.041 343.664 263.512 340.922 265.98 339.789C268.448 338.656 271.912 339.579 272.908 342.156C273.202 343.265 273.422 344.391 273.566 345.529C273.831 346.653 274.572 347.814 275.696 347.951C276.82 348.088 277.798 347.128 278.484 346.187C280.824 342.961 282.14 339.094 283.328 335.265C284.516 331.435 285.631 327.532 287.679 324.096C289.726 320.659 292.852 317.698 296.718 316.784C300.584 315.87 305.154 317.606 306.772 321.271C308.39 324.937 306.827 329.223 304.944 332.751C302.085 337.975 298.486 342.759 294.259 346.955C293.417 347.626 292.808 348.548 292.523 349.587C292.239 351.507 294.269 353.024 296.179 353.316C298.318 353.645 300.493 353.06 302.659 352.951C304.825 352.841 307.284 353.389 308.436 355.263C310.017 357.859 308.18 361.177 306.215 363.489C302.268 368.096 297.559 371.991 292.294 375.005C290.411 376.075 288.41 377.08 287.03 378.762C285.65 380.444 285.092 383.058 286.39 384.813C287.688 386.568 290.311 386.76 292.34 386.01C294.369 385.261 296.06 383.807 297.934 382.72C301.443 380.672 306.324 380.106 309.276 382.939C310.197 383.93 310.875 385.121 311.258 386.418C311.64 387.715 311.716 389.084 311.479 390.416C310.993 393.068 309.976 395.596 308.49 397.846C303.757 405.983 296.951 412.72 288.766 417.369C280.586 421.848 272.671 424.032 263.503 422.332" fill="#F5F5F5"/>
<path d="M265.989 411.301C267.202 401.894 268.953 392.565 271.236 383.36L272.991 376.112C273.566 373.726 274.142 371.368 274.819 369.101C276.185 364.751 277.79 360.479 279.626 356.305C281.354 352.302 283.136 348.555 284.827 345.072C286.518 341.59 288.172 338.373 289.799 335.512C292.339 330.974 295.236 326.646 298.464 322.57C299.606 321.126 300.529 320.038 301.16 319.307C301.462 318.959 301.708 318.685 301.882 318.475C302.056 318.265 302.138 318.201 302.147 318.21C302.081 318.315 302.008 318.416 301.928 318.511L301.233 319.371C300.63 320.12 299.734 321.199 298.619 322.688C295.462 326.805 292.618 331.153 290.11 335.695C288.51 338.565 286.883 341.782 285.202 345.264C283.52 348.747 281.765 352.494 280.056 356.497C278.236 360.671 276.649 364.943 275.303 369.293C274.599 371.551 274.033 373.863 273.475 376.276L271.72 383.533C269.443 392.72 267.682 402.027 266.446 411.41" fill="#E0E0E0"/>
<path d="M274.974 369.064C274.776 368.709 274.619 368.331 274.508 367.94C274.234 367.218 273.877 366.112 273.457 364.823C272.616 362.173 271.574 358.471 270.441 354.395C269.307 350.318 268.22 346.635 267.333 344.012C266.894 342.695 266.529 341.626 266.273 340.904C266.119 340.529 266 340.14 265.916 339.743C266.137 340.084 266.318 340.449 266.456 340.831C266.775 341.535 267.187 342.586 267.671 343.884C268.649 346.498 269.792 350.163 270.934 354.257C272.077 358.352 273.036 361.935 273.804 364.714C274.161 365.975 274.453 367.035 274.718 367.885C274.838 368.27 274.923 368.665 274.974 369.064Z" fill="#E0E0E0"/>
<path d="M308.929 356.579C308.488 356.763 308.028 356.901 307.558 356.99C306.644 357.218 305.392 357.547 303.82 358.004C300.666 358.918 296.362 360.271 291.673 362.008C286.984 363.744 282.807 365.508 279.791 366.861C278.292 367.528 277.094 368.104 276.263 368.497C275.845 368.725 275.407 368.914 274.956 369.064C275.334 368.772 275.741 368.521 276.171 368.314C276.976 367.867 278.155 367.245 279.635 366.486C282.588 365.042 286.755 363.223 291.453 361.478C295.463 359.977 299.548 358.687 303.692 357.611C305.282 357.191 306.58 356.917 307.485 356.743C307.96 356.643 308.444 356.588 308.929 356.579Z" fill="#E0E0E0"/>
<path d="M266.309 410.596C266.192 410.476 266.088 410.344 265.998 410.203L265.185 409.042C264.481 408.018 263.503 406.529 262.324 404.664C259.948 400.935 256.84 395.679 253.486 389.83C250.131 383.98 247.088 378.706 244.775 374.941L242.033 370.471L241.302 369.256C241.206 369.121 241.129 368.973 241.074 368.817C241.074 368.817 241.193 368.936 241.384 369.201C241.576 369.466 241.878 369.895 242.198 370.371C242.902 371.385 243.88 372.875 245.068 374.749C247.435 378.478 250.552 383.724 253.906 389.574C257.261 395.423 260.304 400.697 262.608 404.472L265.35 408.932C265.642 409.417 265.889 409.846 266.081 410.148C266.179 410.285 266.256 410.436 266.309 410.596Z" fill="#E0E0E0"/>
<path d="M310.346 387.701C310.217 387.813 310.072 387.906 309.916 387.975L308.646 388.651L303.93 391.11C299.945 393.194 294.479 396.128 288.446 399.336C282.414 402.544 276.921 405.478 272.908 407.471C270.898 408.467 269.252 409.299 268.119 409.783L266.748 410.386C266.598 410.466 266.438 410.527 266.273 410.569C266.404 410.459 266.548 410.367 266.702 410.295L267.982 409.618L272.698 407.151C276.674 405.076 282.14 402.142 288.172 398.925C294.205 395.707 299.707 392.792 303.71 390.799C305.721 389.803 307.366 388.971 308.5 388.487L309.816 387.883C309.982 387.796 310.161 387.734 310.346 387.701Z" fill="#E0E0E0"/>
<path d="M149.208 226.133C149.208 226.133 138.349 227.641 144.446 251.423C150.542 275.205 155.715 287.471 155.715 287.471C155.715 287.471 156.529 292.855 152.187 292.69C147.846 292.526 138.989 289.034 135.982 293.687C132.874 298.549 135.598 304.399 142.38 310.532C149.162 316.664 163.621 330.64 164.919 331.91C166.217 333.18 167.168 335.794 164.188 336.151C161.208 336.507 140.077 334.03 139.51 344.13C138.943 354.23 160.724 368.196 163.073 369.768C165.422 371.34 165.815 372.565 165.267 373.936C164.718 375.307 157.717 373.799 151.675 373.332C145.634 372.866 138.541 373.406 138.697 379.255C138.852 385.105 150.295 399.912 183.656 410.916L199.459 415.002L211.131 403.504C234.621 377.372 237.189 358.846 234.42 353.691C231.65 348.536 225.28 351.598 220.216 354.998C215.153 358.398 209.852 363.224 208.718 362.31C207.585 361.396 207.292 360.134 208.554 357.603C209.815 355.071 221.779 332.129 216.259 323.647C210.738 315.166 193.628 327.797 190.886 328.958C188.144 330.119 187.65 327.358 188.144 325.64C188.638 323.922 194.213 304.618 197.083 295.889C199.953 287.161 199.405 280.744 194.286 278.075C189.351 275.507 183.419 282.965 179.726 285.269C176.034 287.572 174.078 282.527 174.078 282.527C174.078 282.527 172.469 269.319 165.943 245.647C159.417 221.974 149.007 226.215 149.007 226.215" fill="#EBEBEB"/>
<path d="M199.45 418.932C194.725 401.566 186.837 370.49 179.936 343.81C173.036 317.131 166.766 293.074 162.123 275.653C159.801 266.952 157.918 259.914 156.639 255.024C155.999 252.602 155.496 250.71 155.149 249.412L154.765 247.95C154.683 247.621 154.655 247.447 154.655 247.447C154.655 247.447 154.719 247.603 154.82 247.932C154.92 248.261 155.057 248.763 155.24 249.385C155.615 250.683 156.154 252.557 156.83 254.969C158.201 259.823 160.139 266.851 162.497 275.553C167.223 292.919 173.557 317.057 180.457 343.682C187.358 370.307 195.182 401.411 199.825 418.831" fill="#E0E0E0"/>
<path d="M148.175 299.116C148.54 299.266 148.889 299.453 149.217 299.673C149.866 300.057 150.798 300.642 151.959 301.373C154.235 302.845 157.333 304.956 160.706 307.342L169.316 313.484L171.939 315.312C172.27 315.517 172.576 315.76 172.853 316.034C172.484 315.885 172.132 315.698 171.802 315.476C171.153 315.092 170.22 314.507 169.06 313.767C166.802 312.277 163.731 310.111 160.358 307.735L151.703 301.657L149.071 299.829C148.747 299.624 148.447 299.385 148.175 299.116Z" fill="#E0E0E0"/>
<path d="M174.178 315.275C174.059 315.202 178.127 308.631 183.254 300.597C188.382 292.562 192.65 286.11 192.769 286.183C192.888 286.256 188.82 292.837 183.684 300.871C178.547 308.905 174.297 315.33 174.178 315.275Z" fill="#E0E0E0"/>
<path d="M182.934 356.661C183.187 356.346 183.479 356.063 183.803 355.82L186.261 353.663C188.336 351.835 191.197 349.313 194.25 346.406C197.302 343.5 199.989 340.785 201.909 338.802C202.823 337.888 203.572 337.074 204.185 336.453C204.461 336.146 204.768 335.868 205.099 335.621C204.896 335.97 204.651 336.293 204.368 336.581C203.874 337.175 203.134 338.016 202.201 339.039C200.373 341.096 197.704 343.865 194.633 346.772C191.562 349.678 188.674 352.183 186.535 353.938C185.457 354.852 184.579 355.51 183.958 355.976C183.643 356.241 183.3 356.471 182.934 356.661Z" fill="#E0E0E0"/>
<path d="M156.2 347.22C156.569 347.264 156.931 347.353 157.278 347.485L160.176 348.399C162.607 349.176 165.961 350.282 169.654 351.525C173.346 352.768 176.683 353.938 179.086 354.806L181.929 355.848C182.283 355.959 182.623 356.109 182.943 356.296C182.574 356.258 182.212 356.172 181.865 356.04L178.968 355.126C176.536 354.349 173.182 353.243 169.489 351.991C165.797 350.739 162.461 349.578 160.057 348.719L157.214 347.668C156.858 347.564 156.516 347.414 156.2 347.22Z" fill="#E0E0E0"/>
<path d="M159.289 384.739C159.759 384.809 160.222 384.925 160.669 385.086L164.38 386.219C167.506 387.197 171.811 388.578 176.564 390.141C181.317 391.703 185.603 393.129 188.702 394.199L192.358 395.478C192.813 395.624 193.256 395.804 193.683 396.018C193.21 395.948 192.744 395.832 192.294 395.67L188.583 394.537C185.457 393.559 181.152 392.179 176.399 390.616C171.646 389.053 167.36 387.618 164.27 386.558L160.614 385.269C160.158 385.132 159.714 384.955 159.289 384.739Z" fill="#E0E0E0"/>
<path d="M192.933 395.516C193.255 395.121 193.613 394.757 194.003 394.428L197.028 391.586C199.578 389.182 203.088 385.846 206.863 382.053C210.638 378.259 213.974 374.741 216.368 372.181L219.202 369.147C219.535 368.759 219.899 368.399 220.289 368.068C220.023 368.498 219.717 368.902 219.375 369.275C218.754 370.033 217.822 371.103 216.633 372.419C214.303 375.051 211.012 378.616 207.219 382.409C203.426 386.202 199.907 389.511 197.275 391.851C195.959 393.011 194.889 393.953 194.131 394.593C193.758 394.933 193.358 395.242 192.933 395.516Z" fill="#E0E0E0"/>
<path d="M102.045 84.3081L93.1247 81.5661C93.1247 81.5661 90.7849 89.0609 82.961 86.7667C81.4463 86.3496 80.0988 85.472 79.1048 84.2554C78.1108 83.0387 77.5196 81.5431 77.413 79.9757C77.2959 78.6539 77.4961 77.3232 77.9968 76.0944C78.4976 74.8655 79.2845 73.774 80.2921 72.9105C82.5863 70.8814 86.6079 69.6475 92.2838 72.5814L98.563 52.4734L89.7429 49.7314L86.0869 61.5129C86.0869 61.5129 72.7059 60.8457 68.4558 74.4734C64.3885 87.5162 75.1372 94.1975 80.1459 95.7605C83.9481 96.9487 97.3017 100.093 102.045 84.3081Z" fill="#F5F5F5"/>
<path d="M90.9376 45.546L99.8895 48.3394L102.498 39.9807L93.5458 37.1874L90.9376 45.546Z" fill="#F5F5F5"/>
<path d="M126.659 61.6038L130.233 60.6898C130.124 60.284 130.098 59.8603 130.155 59.444C130.213 59.0278 130.354 58.6274 130.57 58.2667C130.786 57.9061 131.072 57.5925 131.411 57.3445C131.75 57.0966 132.136 56.9195 132.545 56.8236C133.141 56.6438 133.777 56.6537 134.367 56.8519C134.957 57.05 135.47 57.4266 135.836 57.9295C136.147 58.3471 136.354 58.8322 136.441 59.3453C136.529 59.8584 136.494 60.3849 136.339 60.8818C136 62.0425 134.913 63.3038 132.39 63.5141L134.52 71.5664L138.048 70.6524L136.805 65.9362C138.143 65.1292 139.178 63.9046 139.751 62.4511C140.324 60.9976 140.403 59.3959 139.976 57.893C138.605 52.6649 133.578 52.6923 131.595 53.2133C130.059 53.5698 124.932 55.3155 126.659 61.6038Z" fill="#EBEBEB"/>
<path d="M139.292 71.8267L135.693 72.7915L136.594 76.1516L140.193 75.1868L139.292 71.8267Z" fill="#EBEBEB"/>
<path d="M421.708 154.109L425.181 155.361C425.327 154.968 425.55 154.608 425.837 154.302C426.124 153.996 426.469 153.751 426.852 153.581C427.235 153.41 427.649 153.318 428.068 153.31C428.488 153.302 428.904 153.378 429.294 153.533C429.879 153.722 430.391 154.086 430.761 154.577C431.131 155.068 431.34 155.661 431.359 156.275C431.381 156.8 431.278 157.321 431.059 157.798C430.839 158.275 430.51 158.693 430.098 159.017C429.184 159.776 427.548 160.187 425.354 158.926L422.512 166.759L425.949 168.002L427.612 163.432C429.172 163.529 430.721 163.111 432.02 162.242C433.319 161.374 434.298 160.103 434.805 158.624C436.633 153.542 432.511 150.718 430.564 150.014C429.074 149.429 423.865 147.958 421.708 154.109Z" fill="#EBEBEB"/>
<path d="M425.435 169.591L421.946 168.327L420.766 171.584L424.255 172.848L425.435 169.591Z" fill="#EBEBEB"/>
<path d="M53.1097 193.887L60.4217 191.053C60.4217 191.053 58.0453 184.884 64.4159 182.297C65.6351 181.781 66.9844 181.656 68.2777 181.94C69.5709 182.223 70.7444 182.9 71.6365 183.878C72.3954 184.692 72.9516 185.673 73.2597 186.742C73.5679 187.811 73.6192 188.937 73.4097 190.03C72.9527 192.571 70.9419 195.514 65.6498 196.528L72.0478 213.099L79.3598 210.302L75.6124 200.595C75.6124 200.595 84.7524 194.033 80.4657 182.791C76.307 172.042 65.6681 173.267 61.5825 174.848C58.4292 176.064 47.973 180.972 53.1097 193.887Z" fill="#F5F5F5"/>
<path d="M80.7451 213.676L73.3676 216.518L76.0226 223.409L83.4001 220.567L80.7451 213.676Z" fill="#F5F5F5"/>
<path d="M424.568 221.773L419.359 223.775C419.359 223.775 421.04 228.153 416.525 229.981C415.661 230.342 414.706 230.429 413.79 230.229C412.875 230.03 412.043 229.554 411.407 228.866C410.869 228.289 410.475 227.594 410.258 226.836C410.04 226.078 410.005 225.28 410.155 224.506C410.484 222.678 411.91 220.63 415.639 219.936L411.16 208.154L406.005 210.138L408.656 217.02C406.78 218.455 405.427 220.467 404.806 222.746C404.185 225.025 404.33 227.445 405.219 229.633C408.153 237.247 415.666 236.388 418.591 235.264C420.803 234.395 428.206 230.922 424.568 221.773Z" fill="#F5F5F5"/>
<path d="M404.985 207.751L410.213 205.736L408.334 200.858L403.106 202.872L404.985 207.751Z" fill="#F5F5F5"/>
<path d="M439.284 423.886C439.284 424.023 348.935 424.123 237.509 424.123C126.083 424.123 35.7162 424.023 35.7162 423.886C35.7162 423.748 126.047 423.648 237.509 423.648C348.971 423.648 439.284 423.758 439.284 423.886Z" fill="#263238"/>
<path d="M93.6729 400.149C94.5869 396.785 92.3293 393.413 89.8615 391.009C87.3937 388.605 84.4415 386.393 83.1527 383.167C81.0688 377.939 83.8656 371.175 80.3193 366.815C78.2263 364.256 74.4789 363.397 72.6234 360.655C71.7656 359.144 71.1982 357.485 70.9508 355.765C68.9786 347.081 64.7073 339.088 58.5844 332.623C58.1717 340.357 59.8481 348.06 63.4377 354.924C64.8727 357.666 66.6459 360.335 67.0937 363.397C67.8706 368.36 65.0921 373.451 66.3168 378.35C67.7153 383.925 73.9762 387.664 74.2686 393.404C74.5246 398.257 70.2927 402.544 70.6126 407.369C70.869 409.436 71.6181 411.411 72.7971 413.128C76.5445 419.37 82.0651 423.666 90.419 423.529L100.656 423.885L93.6729 400.149Z" fill="#004866"/>
<g opacity="0.3">
<path d="M93.6729 400.149C94.5869 396.785 92.3293 393.413 89.8615 391.009C87.3937 388.605 84.4415 386.393 83.1527 383.167C81.0688 377.939 83.8656 371.175 80.3193 366.815C78.2263 364.256 74.4789 363.397 72.6234 360.655C71.7656 359.144 71.1982 357.485 70.9508 355.765C68.9786 347.081 64.7073 339.088 58.5844 332.623C58.1717 340.357 59.8481 348.06 63.4377 354.924C64.8727 357.666 66.6459 360.335 67.0937 363.397C67.8706 368.36 65.0921 373.451 66.3168 378.35C67.7153 383.925 73.9762 387.664 74.2686 393.404C74.5246 398.257 70.2927 402.544 70.6126 407.369C70.869 409.436 71.6181 411.411 72.7971 413.128C76.5445 419.37 82.0651 423.666 90.419 423.529L100.656 423.885L93.6729 400.149Z" fill="black"/>
</g>
<path d="M102.722 424.096C103.659 424.241 104.615 424.222 105.546 424.041C106.676 423.869 107.788 423.588 108.864 423.2C110.35 422.684 111.74 421.924 112.977 420.952C113.721 420.353 114.303 419.577 114.668 418.694C114.973 417.705 115.133 416.677 115.143 415.642C115.163 414.535 115.246 413.43 115.39 412.333C115.582 411.165 116.005 410.046 116.633 409.042C117.839 406.922 119.85 404.911 120.49 402.032C121.13 399.153 120.691 396.137 120.216 393.066C119.74 389.995 119.302 386.668 120.453 383.45C121.605 380.233 123.798 377.354 124.923 373.753C126.047 370.152 125.517 366.185 125.754 362.319C125.825 360.355 126.278 358.424 127.089 356.634C127.911 354.806 129.063 353.115 129.959 351.214C131.787 347.357 132.098 342.988 132.591 338.701C132.838 336.544 133.076 334.36 133.322 332.166C133.478 329.948 133.861 327.752 134.465 325.613C135.158 323.456 135.976 321.341 136.914 319.279C137.397 318.212 137.795 317.109 138.103 315.979C138.275 314.81 138.385 313.632 138.432 312.451C138.541 310.086 138.449 307.717 138.157 305.367C137.883 303.009 137.454 300.669 137.198 298.302C137.198 298.156 137.198 298.019 137.198 297.891L137.143 297.425L136.732 297.626C134.57 298.735 132.694 300.327 131.248 302.278C129.829 304.189 128.687 306.291 127.857 308.521C126.147 312.917 125.535 317.524 124.676 321.92C123.817 326.316 122.72 330.64 120.471 334.296C119.347 336.124 117.985 337.787 116.815 339.56C115.545 341.291 114.677 343.283 114.275 345.392C113.662 349.724 116.048 353.526 115.554 357.365C115.331 359.245 114.708 361.056 113.726 362.675C112.812 364.311 111.706 365.829 110.664 367.346C109.608 368.834 108.69 370.416 107.922 372.071C107.199 373.691 106.772 375.428 106.661 377.199C106.414 380.654 106.899 383.926 106.661 387.015C106.376 389.96 105.515 392.82 104.129 395.433C102.895 397.947 101.515 400.222 100.363 402.434C99.7876 403.531 99.2484 404.61 98.8096 405.697C98.3945 406.741 98.0882 407.826 97.8956 408.933C97.5897 410.866 97.5651 412.833 97.8225 414.773C98.0911 417.479 99.1034 420.057 100.747 422.222C100.999 422.55 101.277 422.855 101.579 423.136C101.781 423.348 102.005 423.538 102.246 423.703C102.63 423.986 102.831 424.114 102.831 424.114C102.101 423.537 101.435 422.881 100.848 422.158C99.2786 419.985 98.3307 417.426 98.1059 414.755C97.8731 412.839 97.9162 410.9 98.2338 408.997C98.4263 407.916 98.7327 406.859 99.1478 405.843C99.6109 404.744 100.133 403.67 100.711 402.626C101.872 400.433 103.261 398.166 104.522 395.634C105.95 392.98 106.838 390.069 107.136 387.07C107.41 383.917 106.935 380.626 107.191 377.263C107.309 375.549 107.726 373.869 108.425 372.3C109.198 370.679 110.116 369.131 111.167 367.675C112.209 366.158 113.315 364.64 114.265 362.968C115.309 361.287 115.976 359.401 116.221 357.438C116.715 353.352 114.348 349.532 114.96 345.501C115.361 343.485 116.2 341.581 117.419 339.926C118.579 338.18 119.95 336.517 121.075 334.643C123.405 330.886 124.53 326.481 125.38 322.066C126.23 317.652 126.86 313.082 128.542 308.768C129.351 306.599 130.462 304.556 131.842 302.699C133.233 300.826 135.038 299.3 137.115 298.238L136.649 297.973C136.649 298.11 136.649 298.247 136.695 298.394C136.951 300.788 137.38 303.128 137.609 305.468C137.898 307.781 137.986 310.114 137.874 312.442C137.828 313.586 137.724 314.727 137.563 315.86C137.268 316.953 136.883 318.02 136.412 319.05C135.468 321.134 134.645 323.27 133.944 325.448C133.335 327.621 132.949 329.851 132.792 332.102C132.555 334.305 132.308 336.489 132.07 338.646C131.577 342.951 131.257 347.247 129.511 350.967C128.597 352.795 127.5 354.541 126.65 356.405C125.814 358.262 125.348 360.265 125.279 362.301C125.051 366.249 125.562 370.115 124.493 373.607C123.424 377.098 121.203 380.005 120.078 383.304C118.954 386.604 119.366 390.095 119.859 393.157C120.353 396.219 120.846 399.235 120.188 401.95C119.53 404.664 117.647 406.694 116.422 408.869C115.777 409.916 115.345 411.081 115.152 412.296C115.014 413.406 114.941 414.523 114.933 415.642C114.934 416.651 114.786 417.655 114.494 418.621C114.155 419.458 113.612 420.197 112.913 420.769C111.709 421.74 110.353 422.506 108.9 423.036C107.838 423.445 106.74 423.751 105.619 423.95C104.934 424.074 104.24 424.141 103.544 424.151C102.968 424.096 102.722 424.096 102.722 424.096Z" fill="#263238"/>
<path d="M135.059 303.539C135.01 303.637 134.976 303.742 134.958 303.85L134.739 304.764C134.538 305.577 134.291 306.793 133.907 308.31C133.523 309.827 132.582 311.546 131.787 313.657C130.855 316.034 130.044 318.456 129.355 320.914C128.569 323.656 127.884 326.672 127.153 329.926C126.531 333.392 125.43 336.754 123.881 339.916C123.04 341.58 122.053 343.261 121.349 345.108C120.611 346.993 120.116 348.965 119.877 350.976C119.357 355.14 118.619 359.274 117.665 363.36C115.618 371.742 113.662 379.73 111.88 387.006C110.097 394.281 108.416 400.789 107.026 406.291C105.637 411.793 104.586 416.18 103.818 419.315C103.462 420.814 103.178 421.993 102.977 422.862C102.895 423.236 102.822 423.538 102.767 423.776C102.757 423.882 102.757 423.989 102.767 424.096C102.82 424.001 102.86 423.9 102.886 423.794C102.95 423.547 103.041 423.255 103.151 422.88C103.379 422.03 103.699 420.851 104.111 419.361C104.933 416.254 106.094 411.839 107.529 406.401C108.964 400.962 110.637 394.382 112.51 387.152C114.384 379.922 116.285 371.879 118.351 363.488C119.298 359.391 120.019 355.244 120.508 351.067C120.741 349.105 121.22 347.179 121.934 345.336C122.656 343.508 123.579 341.872 124.42 340.19C126.248 336.854 126.97 333.271 127.692 330.045C128.414 326.819 129.054 323.766 129.803 321.042C130.553 318.318 131.339 315.887 132.125 313.785C132.911 311.683 133.779 309.946 134.154 308.374C134.529 306.802 134.702 305.632 134.867 304.791C134.928 304.413 134.983 304.109 135.031 303.877C135.059 303.649 135.077 303.539 135.059 303.539Z" fill="#263238"/>
<path d="M104.531 424.141C111.213 420.166 113.132 408.101 110.344 400.844C107.557 393.586 102.676 386.951 101.926 379.209C101.341 373.259 103.297 367.154 101.926 361.341C100.053 353.489 92.3934 347.411 92.4848 339.341C92.5305 334.816 95.108 330.557 94.8977 326.033C94.651 320.494 90.3917 316.088 87.7594 311.208C83.7195 303.722 83.4545 294.884 82.0743 286.53C80.6942 278.176 77.5043 269.164 70.0644 265.042C68.9676 272.162 67.0939 277.042 67.6788 286.685C67.8982 290.149 71.9198 296.739 72.4682 304.371C72.7972 308.941 73.0166 313.456 73.2999 317.99C73.5833 322.523 73.8575 326.91 75.4387 331.041C76.6543 334.213 78.6011 337.092 79.506 340.364C81.1969 346.515 78.9667 353.16 80.3377 359.412C81.4985 364.695 85.1545 369.237 85.904 374.594C86.9459 382.116 82.0835 389.94 84.5695 397.114C85.8126 400.679 88.7374 403.512 89.5691 407.214C90.2181 410.066 89.5143 413.091 90.0993 415.952C91.0133 420.577 99.8425 424.178 104.55 423.876" fill="#004866"/>
<path d="M71.8923 272.07C71.8798 272.204 71.8798 272.338 71.8923 272.472C71.8923 272.774 71.9837 273.157 72.0385 273.642C72.1939 274.675 72.3676 276.183 72.7149 278.139C73.0622 280.095 74.1042 282.307 74.9085 284.975C75.7128 287.644 76.6085 290.697 77.358 294.115C78.1075 297.534 78.7656 301.345 79.4328 305.431C80.1 309.516 80.8312 313.968 82.8603 318.227C83.7743 320.356 84.8528 322.495 85.6023 324.78C86.3702 327.119 86.8431 329.545 87.0098 332.001C87.3835 337.212 88.0395 342.399 88.9749 347.539C91.0223 358.086 92.9691 368.131 94.7423 377.28C96.5154 386.429 98.2978 394.592 99.7236 401.501C101.149 408.411 102.319 413.932 103.133 417.825L104.047 422.258C104.156 422.734 104.239 423.108 104.312 423.401C104.337 423.535 104.373 423.666 104.422 423.794C104.438 423.66 104.438 423.525 104.422 423.392C104.367 423.09 104.303 422.715 104.22 422.231C104.019 421.171 103.736 419.672 103.38 417.771C102.612 413.868 101.552 408.292 100.171 401.41C98.7913 394.528 97.1552 386.274 95.3364 377.162C93.5175 368.049 91.6804 357.968 89.6239 347.429C88.6879 342.289 88.0288 337.102 87.6497 331.891C87.4757 329.384 86.9874 326.909 86.1964 324.524C85.3829 322.203 84.3136 320.055 83.3721 317.934C81.3613 313.739 80.6301 309.361 79.9355 305.294C79.2408 301.226 78.5736 297.406 77.7784 293.969C76.9833 290.533 76.115 287.462 75.2192 284.829C74.3235 282.197 73.3273 279.967 72.9251 278.057C72.523 276.146 72.331 274.611 72.1391 273.596C72.0477 273.121 71.9745 272.737 71.9197 272.435C71.9178 272.313 71.9086 272.191 71.8923 272.07Z" fill="#263238"/>
<path d="M394.224 81.136H390.568C390.57 81.5507 390.489 81.9616 390.33 82.3445C390.171 82.7274 389.937 83.0745 389.641 83.3651C389.345 83.6558 388.994 83.8841 388.608 84.0366C388.223 84.189 387.81 84.2626 387.396 84.2528C386.784 84.2747 386.18 84.1051 385.669 83.7676C385.158 83.4301 384.765 82.9415 384.544 82.3699C384.352 81.894 384.274 81.3792 384.319 80.8677C384.363 80.3561 384.528 79.8624 384.8 79.4268C385.422 78.4032 386.774 77.48 389.224 77.9096V69.6836H385.632V74.4912C384.158 74.9252 382.867 75.8308 381.957 77.069C381.048 78.3073 380.569 79.8099 380.596 81.3462C380.596 86.6657 385.367 87.8996 387.414 87.8996C388.977 87.9362 394.297 87.5614 394.224 81.136Z" fill="#004866"/>
<path d="M385.605 68.02H389.251V64.6108H385.605V68.02Z" fill="#004866"/>
<path d="M414.158 76.2729C414.17 76.1178 414.17 75.9619 414.158 75.8068C414.158 75.4777 414.158 75.0299 414.158 74.4541C414.158 74.1616 414.158 73.8234 414.112 73.4578C414.067 73.0922 414.012 72.69 413.948 72.2696C413.884 71.8492 413.82 71.3556 413.747 70.8712L413.363 69.3174C412.684 66.6415 411.572 64.0945 410.072 61.7769C407.894 58.3446 404.958 55.4575 401.49 53.3374C398.021 51.2174 394.113 49.9209 390.065 49.5476C388.849 49.4402 387.628 49.4158 386.409 49.4744C385.797 49.4744 385.166 49.4744 384.581 49.5933L382.698 49.8766C380.115 50.3567 377.615 51.2096 375.276 52.4084C372.835 53.7001 370.592 55.3344 368.613 57.2617C366.588 59.3144 364.895 61.6704 363.595 64.2447C362.197 66.8987 361.281 69.7798 360.89 72.754C360.776 73.5076 360.712 74.2678 360.698 75.0299C360.637 75.793 360.622 76.5591 360.652 77.324C360.851 82.2271 362.384 86.9831 365.085 91.0797V90.7964C363.815 93.9679 362.563 97.0847 361.338 100.119L361.118 100.677L361.694 100.512L371.657 97.7702L371.419 97.7154C374.775 100.255 378.683 101.966 382.826 102.706C384.748 103.064 386.706 103.184 388.657 103.062C389.598 103.048 390.536 102.96 391.463 102.797L392.825 102.587C393.273 102.505 393.739 102.368 394.141 102.267C400.281 100.711 405.666 97.0209 409.332 91.8566C410.699 89.9541 411.797 87.8719 412.595 85.6688C412.769 85.1844 412.933 84.7548 413.089 84.2796C413.244 83.8043 413.326 83.3656 413.427 82.9543C413.527 82.543 413.637 82.1225 413.728 81.7386C413.82 81.3548 413.847 80.98 413.902 80.6236C413.984 79.9198 414.112 79.2983 414.14 78.7956C414.167 78.2929 414.14 77.8084 414.14 77.4246C414.14 77.0407 414.14 76.803 414.14 76.5928C414.14 76.3826 414.14 76.3095 414.14 76.3095C414.126 76.4034 414.126 76.4989 414.14 76.5928C414.14 76.803 414.14 77.0772 414.076 77.4246C414.012 77.7719 414.021 78.2563 413.984 78.7864C413.948 79.3165 413.811 79.9381 413.701 80.6144C412.829 85.673 410.507 90.3697 407.017 94.1339C403.527 97.8982 399.019 100.568 394.041 101.819C393.611 101.92 393.182 102.048 392.743 102.13L391.399 102.331C390.493 102.482 389.576 102.565 388.657 102.578C386.742 102.679 384.821 102.553 382.936 102.203C378.89 101.459 375.074 99.7777 371.794 97.2949L371.684 97.2035H371.547L361.575 99.9455L361.923 100.339L365.679 91.0249L365.734 90.8786L365.652 90.7415C363.852 88.0185 362.575 84.9841 361.886 81.7935C361.571 80.3132 361.381 78.8089 361.32 77.2966C361.289 76.5499 361.304 75.8021 361.365 75.0573C361.371 74.3134 361.432 73.571 361.548 72.8363C361.899 69.9318 362.762 67.1126 364.098 64.5097C365.368 61.9939 367.018 59.6881 368.988 57.673C370.924 55.781 373.122 54.1772 375.514 52.9111C377.8 51.722 380.248 50.8751 382.78 50.3976L384.608 50.1142C385.221 50.0228 385.833 50.032 386.436 49.9863C387.628 49.9296 388.821 49.951 390.01 50.0503C393.991 50.3988 397.841 51.65 401.267 53.7088C404.692 55.7676 407.604 58.58 409.78 61.9323C411.288 64.2094 412.418 66.7157 413.125 69.3539L413.536 70.8895C413.619 71.3739 413.692 71.8034 413.765 72.2605C413.838 72.7175 413.893 73.0831 413.957 73.4487C414.021 73.8143 414.003 74.1433 414.03 74.4358C414.03 75.0025 414.103 75.4503 414.13 75.7794C414.113 75.9443 414.122 76.1109 414.158 76.2729Z" fill="#263238"/>
<path d="M141.594 184.061H194.378C194.378 184.061 194.378 139.741 240.434 138.955C264.353 138.535 276.756 154.21 281.802 166.211C287.651 180.149 285.878 196.035 278.036 208.968C269.088 223.729 249.803 238.563 214.23 232.293L213.892 349.897H266.09V280.178C266.09 280.178 339.292 261.258 339.292 180.552C339.292 103.364 276.875 86.6929 243.322 85.6144C224.658 85.0203 217.895 84.216 194.807 87.4972C165.386 91.7016 140.973 125.867 141.594 184.061Z" fill="#004866"/>
<path d="M266.721 374.411H213.745V423.885H266.721V374.411Z" fill="#004866"/>
<path opacity="0.1" d="M266.721 374.411H213.745V423.885H266.721V374.411Z" fill="black"/>
<path opacity="0.1" d="M141.594 184.061H194.378C194.378 184.061 194.378 139.741 240.434 138.955C264.353 138.535 276.756 154.21 281.802 166.211C287.651 180.149 285.878 196.035 278.036 208.968C269.088 223.729 249.803 238.563 214.23 232.293L213.892 349.897H266.09V280.178C266.09 280.178 339.292 261.258 339.292 180.552C339.292 103.364 276.875 86.6929 243.322 85.6144C224.658 85.0203 217.895 84.216 194.807 87.4972C165.386 91.7016 140.973 125.867 141.594 184.061Z" fill="black"/>
<path d="M119.722 184.062H172.515C172.515 184.062 172.515 139.742 218.571 138.956C242.491 138.535 254.894 154.21 259.93 166.211C265.788 180.15 264.015 196.035 256.173 208.968C247.225 223.729 227.601 237.147 192.029 230.904V349.898H244.227V280.178C244.227 280.178 317.429 261.258 317.429 180.552C317.429 103.364 248.203 85.4409 218.58 85.4409C195.922 85.4683 118.726 90.9432 119.722 184.062Z" fill="#004866"/>
<path opacity="0.3" d="M119.722 184.062H172.515C172.515 184.062 172.515 139.742 218.571 138.956C242.491 138.535 254.894 154.21 259.93 166.211C265.788 180.15 264.015 196.035 256.173 208.968C247.225 223.729 227.601 237.147 192.029 230.904V349.898H244.227V280.178C244.227 280.178 317.429 261.258 317.429 180.552C317.429 103.364 248.203 85.4409 218.58 85.4409C195.922 85.4683 118.726 90.9432 119.722 184.062Z" fill="black"/>
<path d="M244.858 374.411H191.882V423.885H244.858V374.411Z" fill="#004866"/>
<path opacity="0.3" d="M244.858 374.411H191.882V423.885H244.858V374.411Z" fill="black"/>
<path d="M224.53 139.193C224.269 139.216 224.006 139.216 223.744 139.193C223.223 139.193 222.474 139.019 221.496 139.01C218.731 138.875 215.959 138.991 213.215 139.358C209.146 139.873 205.142 140.813 201.269 142.164C198.986 142.962 196.762 143.921 194.615 145.034C192.294 146.193 190.108 147.607 188.098 149.247C186.102 150.903 184.313 152.793 182.77 154.877C181.307 156.805 179.973 158.826 178.775 160.928C176.777 164.509 175.191 168.305 174.05 172.243C173.276 174.902 172.744 177.624 172.46 180.378C172.35 181.347 172.323 182.115 172.295 182.626C172.296 182.89 172.271 183.153 172.222 183.412C172.198 183.151 172.198 182.888 172.222 182.626C172.222 182.105 172.222 181.338 172.304 180.36C172.514 177.576 173.001 174.821 173.758 172.134C174.857 168.15 176.421 164.309 178.419 160.69C179.619 158.565 180.959 156.522 182.431 154.576C183.987 152.457 185.799 150.539 187.824 148.863C189.859 147.2 192.072 145.769 194.423 144.595C196.584 143.462 198.823 142.484 201.123 141.67C205.031 140.325 209.073 139.406 213.178 138.928C215.941 138.589 218.73 138.524 221.505 138.736C222.259 138.784 223.01 138.876 223.753 139.01C224.016 139.053 224.276 139.114 224.53 139.193Z" fill="#263238"/>
<path d="M304.067 129.788C304.067 129.788 304.003 129.724 303.893 129.587C303.783 129.45 303.619 129.212 303.436 128.947L301.69 126.48C301.316 125.949 300.913 125.337 300.438 124.706L298.793 122.705L296.91 120.392C296.225 119.588 295.42 118.811 294.616 117.961C293.812 117.111 292.989 116.206 292.057 115.338C291.124 114.47 290.128 113.583 289.105 112.669C288.593 112.212 288.09 111.755 287.542 111.271L285.842 109.927C284.681 109.013 283.529 108.099 282.277 107.185C276.819 103.28 271.03 99.8609 264.975 96.9665L260.158 94.7912L255.378 92.9632C253.815 92.3143 252.225 91.8573 250.689 91.3454C249.154 90.8336 247.655 90.3126 246.119 89.9561L241.75 88.8136C240.333 88.4389 238.926 88.2104 237.582 87.8996C236.239 87.5889 234.941 87.3147 233.67 87.1593L230.014 86.6292C227.702 86.2362 225.582 86.1539 223.735 85.9711C222.821 85.898 221.907 85.7974 221.149 85.7609L218.973 85.706L215.957 85.6055H215.171H214.906C214.994 85.5918 215.083 85.5918 215.171 85.6055H215.957H218.973H221.158C221.953 85.6055 222.821 85.7152 223.754 85.7792C225.582 85.9345 227.739 85.9985 230.051 86.3733L233.707 86.8668C234.977 87.0131 236.275 87.3421 237.628 87.5889C238.981 87.8357 240.37 88.0916 241.823 88.5029L246.211 89.6362C247.728 89.9836 249.227 90.5502 250.781 91.0164C252.334 91.4825 253.916 91.9304 255.478 92.625L260.286 94.453L265.13 96.6375C271.217 99.5384 277.029 102.983 282.496 106.929C283.758 107.843 284.909 108.821 286.07 109.726L287.77 110.96C288.318 111.417 288.821 111.874 289.333 112.367L292.276 115.109C293.19 116.023 294.013 116.937 294.826 117.769C295.64 118.601 296.417 119.414 297.102 120.228L298.93 122.559L300.557 124.588C301.023 125.227 301.416 125.849 301.782 126.416C302.495 127.485 303.052 128.326 303.445 128.929L303.875 129.596C303.947 129.652 304.011 129.716 304.067 129.788Z" fill="#263238"/>
<path d="M298.564 243.124C298.456 243.321 298.324 243.506 298.171 243.672L296.91 245.162C296.389 245.829 295.731 246.624 294.918 247.511C294.104 248.397 293.236 249.439 292.176 250.518C291.115 251.596 289.982 252.803 288.693 254.018C287.404 255.234 286.006 256.514 284.516 257.848C277.982 263.552 270.819 268.492 263.165 272.573C261.392 273.487 259.719 274.401 258.102 275.104C256.484 275.808 254.976 276.53 253.586 277.115C252.197 277.7 250.918 278.185 249.803 278.614C248.687 279.044 247.709 279.391 246.905 279.647L245.077 280.241C244.865 280.325 244.644 280.387 244.419 280.424C244.616 280.311 244.824 280.219 245.041 280.15L246.869 279.473C247.664 279.19 248.623 278.824 249.729 278.367C250.835 277.91 252.115 277.453 253.486 276.804C254.857 276.156 256.374 275.543 257.955 274.748C259.537 273.953 261.228 273.112 262.992 272.189C266.474 270.269 270.23 268.021 274.024 265.425C277.817 262.829 281.226 260.097 284.26 257.519C285.75 256.203 287.176 254.969 288.446 253.726C289.717 252.483 290.905 251.359 291.956 250.28C293.007 249.202 293.93 248.205 294.753 247.328C295.576 246.451 296.252 245.683 296.8 245.043L298.08 243.59C298.229 243.421 298.391 243.266 298.564 243.124Z" fill="#263238"/>
<path d="M243.304 345.748C243.167 345.748 243.057 331.07 243.057 312.963C243.057 294.857 243.167 280.169 243.304 280.169C243.441 280.169 243.542 294.848 243.542 312.963C243.542 331.079 243.432 345.748 243.304 345.748Z" fill="#263238"/>
<path d="M245.315 420.531C245.178 420.531 245.077 410.23 245.077 397.526C245.077 384.821 245.178 374.511 245.315 374.511C245.452 374.511 245.552 384.812 245.552 397.526C245.552 410.239 245.443 420.531 245.315 420.531Z" fill="#263238"/>
<path d="M297.276 177.051C296.362 178.879 299.771 180.378 301.736 180.972C303.741 181.464 305.815 181.606 307.869 181.392C310.611 181.246 313.417 180.99 315.784 179.638C317.857 178.353 319.514 176.496 320.555 174.291C321.581 172.092 322.393 169.8 322.977 167.445C322.977 167.445 301.379 168.852 297.276 177.051Z" fill="#004866"/>
<g opacity="0.4">
<path d="M297.276 177.051C296.362 178.879 299.771 180.378 301.736 180.972C303.741 181.464 305.815 181.606 307.869 181.392C310.611 181.246 313.417 180.99 315.784 179.638C317.857 178.353 319.514 176.496 320.555 174.291C321.581 172.092 322.393 169.8 322.977 167.445C322.977 167.445 301.379 168.852 297.276 177.051Z" fill="black"/>
</g>
<path d="M358.276 171.201C361.837 173.727 366.104 175.064 370.469 175.022C372.561 175.138 374.625 174.488 376.273 173.194C376.976 172.545 377.507 171.722 378.229 171.101C378.722 170.68 379.298 170.36 379.764 169.912C380.01 169.701 380.2 169.431 380.316 169.128C380.433 168.825 380.472 168.498 380.431 168.176C380.251 167.382 379.806 166.673 379.17 166.165C376.693 164.757 373.732 164.812 370.88 164.876C368.026 165 365.207 165.551 362.517 166.512C360.305 167.262 357.993 168.34 356.868 170.351" fill="#004866"/>
<g opacity="0.4">
<path d="M380.431 168.176C380.108 167.405 379.539 166.762 378.814 166.348C376.337 164.94 373.732 164.812 370.88 164.876C368.026 165 365.207 165.551 362.517 166.512C360.305 167.262 357.993 168.34 356.868 170.351L358.276 171.201C361.837 173.727 366.104 175.064 370.469 175.022C372.561 175.138 374.625 174.488 376.273 173.194C376.976 172.545 377.507 171.722 378.229 171.1C378.722 170.68 379.298 170.36 379.764 169.912C380.01 169.7 380.2 169.431 380.316 169.128C380.433 168.825 380.472 168.498 380.431 168.176Z" fill="black"/>
</g>
<path d="M316.104 204.005L361.667 204.608C361.76 204.608 361.851 204.586 361.934 204.544C362.016 204.502 362.088 204.441 362.143 204.366C362.198 204.292 362.235 204.205 362.251 204.114C362.267 204.023 362.261 203.929 362.233 203.84L356.887 187.169C356.887 187.169 357.673 178.833 358.76 168.816C360.415 153.597 362.617 134.467 362.645 134.522C359.528 125.784 341.138 124.304 341.138 124.304L320.18 125.547L319.449 124.313L313.417 127.119C312.101 127.731 310.836 128.446 309.633 129.258C305.648 131.917 296.051 138.032 294.296 144.841C290.247 160.608 297.102 178.202 297.102 178.202L301.507 174.757C302.617 173.901 303.784 173.123 304.999 172.426L313.828 196.089C313.303 196.421 312.858 196.865 312.526 197.39C312.194 197.915 311.983 198.507 311.909 199.124C311.836 201.043 312.823 203.346 316.104 204.005Z" fill="#004866"/>
<g opacity="0.3">
<path d="M335.654 176.109C337.098 168.34 336.34 160.352 335.563 152.491C333.04 158.889 333.132 166.201 330.454 172.544C330.125 173.214 329.886 173.924 329.741 174.656C329.671 175.023 329.689 175.402 329.794 175.761C329.899 176.12 330.087 176.449 330.344 176.721C331.075 177.389 332.172 177.023 333.141 176.913C334.008 176.748 334.852 176.478 335.654 176.109Z" fill="black"/>
</g>
<g opacity="0.4">
<path d="M318.846 194.097C322.502 195.367 326.395 193 330.262 192.58C332.821 192.305 335.38 192.89 337.921 193.302C343.059 194.133 348.286 194.262 353.459 193.685C354.253 193.642 355.03 193.44 355.744 193.091C356.113 192.84 356.415 192.502 356.624 192.107C356.833 191.711 356.942 191.271 356.941 190.825C348.331 189.911 339.731 189.417 331.121 188.531C328.978 188.165 326.783 188.236 324.668 188.741C322.072 189.545 320.098 191.583 318.27 193.603" fill="black"/>
</g>
<path d="M379.115 165.178C375.395 156.796 362.279 133.617 362.279 133.617L352.125 146.349L354.492 171.347C354.492 171.347 359.857 165.36 374.856 165.242C375.946 165.285 377.012 165.572 377.977 166.081C378.942 166.591 379.78 167.309 380.431 168.185L379.115 165.178Z" fill="#004866"/>
<path d="M318.142 160.745C317.418 158.968 316.843 157.133 316.424 155.261C315.856 153.437 315.44 151.569 315.181 149.676C315.895 151.456 316.466 153.29 316.89 155.16C317.458 156.985 317.877 158.852 318.142 160.745Z" fill="#263238"/>
<path d="M351.357 144.659C351.688 144.892 351.994 145.159 352.271 145.454C353.078 146.234 353.836 147.064 354.538 147.94C356.901 150.829 358.562 154.227 359.391 157.866C359.821 159.878 359.917 161.947 359.674 163.99C359.446 165.863 359.089 167.509 358.852 168.898C358.614 170.287 358.468 171.421 358.395 172.207C358.393 172.615 358.35 173.022 358.267 173.422C358.202 173.014 358.184 172.6 358.212 172.188C358.252 171.068 358.356 169.951 358.523 168.843C358.715 167.445 359.035 165.781 359.245 163.944C359.456 161.947 359.348 159.929 358.925 157.967C358.106 154.395 356.519 151.045 354.273 148.15C352.6 145.902 351.284 144.732 351.357 144.659Z" fill="#263238"/>
<path d="M342.052 201.994C341.735 202.136 341.4 202.234 341.056 202.287C340.666 202.39 340.269 202.466 339.868 202.515C339.402 202.579 338.872 202.68 338.278 202.707C336.885 202.835 335.484 202.835 334.091 202.707C332.388 202.532 330.704 202.195 329.064 201.702C327.433 201.177 325.854 200.501 324.348 199.682C323.128 199.001 321.969 198.215 320.884 197.333C320.409 196.967 320.025 196.583 319.678 196.263C319.378 195.993 319.094 195.707 318.828 195.404C318.574 195.169 318.355 194.898 318.179 194.6C318.243 194.536 319.221 195.633 321.094 197.068C322.189 197.9 323.347 198.646 324.558 199.298C326.047 200.08 327.6 200.731 329.202 201.245C330.813 201.73 332.465 202.073 334.137 202.268C335.503 202.415 336.878 202.458 338.25 202.396C340.599 202.268 342.034 201.921 342.052 201.994Z" fill="#263238"/>
<path d="M356.119 196.802C356.334 197.216 356.456 197.671 356.475 198.137C356.621 199.251 356.537 200.383 356.229 201.464C355.915 202.569 355.278 203.555 354.401 204.297C353.733 204.855 353.222 205.028 353.194 204.983C353.167 204.937 353.596 204.635 354.172 204.069C354.911 203.298 355.448 202.356 355.735 201.327C356.466 198.914 355.945 196.811 356.119 196.802Z" fill="#263238"/>
<path d="M353.642 200.02C353.84 200.96 353.761 201.937 353.414 202.833C353.066 203.729 352.466 204.504 351.686 205.065C351.585 204.964 352.436 204.059 352.966 202.661C353.496 201.263 353.505 200.029 353.642 200.02Z" fill="#263238"/>
<path d="M345.489 169.949C345.005 170.768 344.461 171.55 343.862 172.289C343.39 173.115 342.855 173.903 342.263 174.647C342.438 173.683 342.853 172.778 343.469 172.015C343.956 171.166 344.651 170.455 345.489 169.949Z" fill="#263238"/>
<path d="M314.212 147.812C313.516 147.403 312.841 146.958 312.192 146.478C308.941 144.342 305.252 142.965 301.398 142.447C300.591 142.388 299.788 142.282 298.994 142.127C299.804 142.016 300.625 142.016 301.434 142.127C305.394 142.465 309.186 143.878 312.402 146.213C313.077 146.66 313.686 147.198 314.212 147.812Z" fill="#263238"/>
<path d="M362.279 133.316C360.643 134.633 359.115 136.079 357.709 137.639C356.415 139.304 355.256 141.071 354.245 142.922C354.353 142.3 354.567 141.7 354.876 141.149C355.538 139.778 356.366 138.495 357.344 137.328C358.324 136.164 359.448 135.129 360.689 134.248C361.161 133.848 361.699 133.533 362.279 133.316Z" fill="#263238"/>
<path d="M343.469 125.784C343.552 125.916 343.62 126.057 343.67 126.205C343.849 126.619 343.992 127.047 344.1 127.484C344.485 129.113 344.485 130.809 344.1 132.438C343.531 134.87 342.229 137.068 340.371 138.736C338.025 140.723 335.036 141.788 331.962 141.733C328.885 141.744 325.888 140.76 323.416 138.928C321.447 137.424 319.849 135.488 318.745 133.27C318.002 131.784 317.479 130.199 317.192 128.563C317.108 128.122 317.053 127.676 317.027 127.228C317.001 127.071 317.001 126.91 317.027 126.753C317.027 126.753 317.128 127.393 317.384 128.526C317.739 130.116 318.301 131.653 319.056 133.096C320.171 135.248 321.755 137.122 323.69 138.58C326.072 140.344 328.953 141.304 331.916 141.322C334.879 141.377 337.763 140.365 340.042 138.471C341.837 136.864 343.11 134.757 343.698 132.42C344.104 130.843 344.16 129.195 343.862 127.594C343.688 126.387 343.414 125.802 343.469 125.784Z" fill="#263238"/>
<g opacity="0.3">
<path d="M346.668 171.567C346.668 171.11 346.595 170.57 346.193 170.342C346.065 170.278 345.924 170.244 345.781 170.244C345.639 170.244 345.498 170.278 345.37 170.342C345.115 170.48 344.888 170.666 344.703 170.89C343.628 172.009 342.797 173.337 342.263 174.793L346.741 174.4C346.714 173.477 346.695 172.508 346.668 171.567Z" fill="black"/>
</g>
<g opacity="0.3">
<path d="M361.539 162.143C361.089 159.58 359.966 157.183 358.285 155.197C360.223 161.522 359.574 165.095 358.486 169.428L358.724 168.825C359.976 166.293 361.877 164.702 361.539 162.143Z" fill="black"/>
</g>
<path d="M352.591 374.612L349.858 415.605L332.035 415.395L329.229 372.775L352.591 374.612Z" fill="#FFBE9D"/>
<path d="M350.361 410.212V411.4C350.361 411.4 370.469 419.48 370.661 423.282L330.728 423.063L331.349 409.783C337.3 412.57 343.524 412.918 350.361 410.212Z" fill="#004866"/>
<path d="M335.398 414.042C335.019 414.157 334.695 414.405 334.487 414.742C334.278 415.079 334.199 415.48 334.265 415.87C334.363 416.26 334.608 416.597 334.949 416.81C335.29 417.023 335.7 417.095 336.093 417.012C336.5 416.891 336.847 416.622 337.066 416.259C337.286 415.896 337.363 415.464 337.281 415.047C337.137 414.653 336.844 414.33 336.465 414.147C336.086 413.965 335.651 413.937 335.252 414.069" fill="white"/>
<path d="M330.728 423.063L330.874 419.873L369.116 421.262C369.116 421.262 370.889 422.048 370.679 423.291L330.728 423.063Z" fill="#263238"/>
<path d="M350.507 411.51C350.507 411.702 349.52 411.784 348.56 412.424C347.6 413.064 347.079 413.859 346.906 413.786C346.732 413.713 347.025 412.58 348.204 411.848C349.383 411.117 350.553 411.3 350.507 411.51Z" fill="#263238"/>
<path d="M354.684 413.265C354.73 413.457 353.88 413.777 353.212 414.599C352.545 415.422 352.353 416.29 352.152 416.281C351.951 416.272 351.841 415.166 352.691 414.17C353.541 413.174 354.675 413.128 354.684 413.265Z" fill="#263238"/>
<path d="M357.033 418.292C356.85 418.292 356.585 417.378 357.097 416.29C357.609 415.202 358.514 414.809 358.596 414.965C358.678 415.12 358.111 415.696 357.682 416.583C357.252 417.469 357.234 418.273 357.033 418.292Z" fill="#263238"/>
<path d="M349.337 74.8107C350.37 72.2515 349.118 69.153 346.897 67.4987C344.556 65.9578 341.702 65.4027 338.954 65.954C336.243 66.5224 333.619 67.4443 331.148 68.696C330 67.5374 328.551 66.7209 326.965 66.3377C325.379 65.9545 323.718 66.0197 322.167 66.526C320.616 67.0322 319.236 67.9597 318.182 69.2048C317.127 70.4498 316.439 71.9635 316.195 73.5768C315.207 73.328 314.17 73.3531 313.195 73.6492C312.22 73.9453 311.344 74.5014 310.661 75.2577C309.978 76.0139 309.513 76.9419 309.318 77.942C309.122 78.9422 309.203 79.9766 309.551 80.9345L321.908 85.276L335.398 109.04C337.392 110.741 339.937 111.659 342.557 111.621C345.178 111.584 347.695 110.595 349.64 108.838C351.585 107.081 352.824 104.677 353.127 102.074C353.429 99.4705 352.774 96.846 351.284 94.6902C352.04 94.018 352.682 93.2278 353.185 92.3503C354.263 91.7128 355.204 90.8674 355.952 89.8632C356.7 88.859 357.242 87.716 357.545 86.5007C358.742 81.2087 354.647 75.4322 349.337 74.8107Z" fill="#263238"/>
<path d="M341.157 124.304C340.389 120.438 339.859 117.787 339.868 117.814C339.877 117.842 347.18 114.981 346.65 104.808C346.394 99.7446 344.465 91.7654 342.674 85.2943C341.065 79.4629 335.627 73.0375 329.878 74.8929L312.448 83.3931C310.702 83.9598 310.401 85.605 310.812 87.3873V88.3013L317.585 116.325L320.445 128.846C321.055 131.418 322.606 133.667 324.791 135.153C326.977 136.638 329.639 137.251 332.254 136.871C333.683 136.67 335.055 136.18 336.286 135.43C337.518 134.679 338.583 133.685 339.417 132.508C340.251 131.331 340.835 129.997 341.134 128.586C341.433 127.175 341.441 125.718 341.157 124.304Z" fill="#FFBE9D"/>
<path d="M342.61 92.058C342.683 92.3823 342.629 92.7224 342.459 93.0081C342.289 93.2938 342.016 93.5034 341.696 93.5935C341.535 93.6386 341.366 93.6506 341.199 93.6287C341.033 93.6068 340.873 93.5515 340.729 93.4661C340.584 93.3807 340.459 93.267 340.36 93.1318C340.26 92.9966 340.19 92.8428 340.151 92.6795C340.078 92.3564 340.132 92.0175 340.303 91.7333C340.473 91.4491 340.746 91.2413 341.065 91.1531C341.226 91.1066 341.395 91.0932 341.561 91.114C341.727 91.1347 341.888 91.1891 342.032 91.2737C342.177 91.3584 342.302 91.4716 342.402 91.6064C342.501 91.7412 342.572 91.8949 342.61 92.058Z" fill="#263238"/>
<path d="M341.815 90.1113C341.687 90.3124 340.581 89.8097 339.228 90.1113C337.875 90.4129 337.016 91.2903 336.834 91.1532C336.651 91.0161 336.834 90.7602 337.208 90.3581C337.711 89.8267 338.365 89.4629 339.082 89.3161C339.789 89.1636 340.526 89.2438 341.184 89.5446C341.696 89.7548 341.87 90.029 341.815 90.1113Z" fill="#263238"/>
<path d="M329.339 95.0558C329.412 95.379 329.357 95.7178 329.187 96.002C329.017 96.2863 328.744 96.494 328.425 96.5822C328.267 96.6282 328.101 96.6423 327.938 96.6239C327.775 96.6055 327.617 96.5549 327.473 96.475C327.329 96.3951 327.203 96.2875 327.101 96.1584C326.999 96.0294 326.924 95.8814 326.88 95.7231C326.807 95.3987 326.861 95.0587 327.031 94.7729C327.201 94.4872 327.474 94.2777 327.794 94.1875C327.952 94.1418 328.118 94.128 328.282 94.1469C328.446 94.1659 328.604 94.2173 328.748 94.2981C328.892 94.3789 329.018 94.4876 329.12 94.6176C329.221 94.7477 329.295 94.8967 329.339 95.0558Z" fill="#263238"/>
<path d="M328.671 93.3374C328.553 93.5385 327.437 93.0266 326.085 93.3374C324.732 93.6481 323.873 94.5073 323.69 94.3793C323.507 94.2514 323.69 93.9863 324.065 93.575C324.57 93.0484 325.224 92.6882 325.939 92.5422C326.645 92.392 327.381 92.4688 328.041 92.7616C328.525 92.9809 328.735 93.2277 328.671 93.3374Z" fill="#263238"/>
<path d="M335.554 101.929C336.224 101.559 336.936 101.271 337.674 101.07C338.013 100.96 338.332 100.823 338.342 100.576C338.294 100.213 338.138 99.8721 337.894 99.5984L336.312 97.1672C334.101 93.7031 332.419 90.8332 332.556 90.7692C332.693 90.7052 334.603 93.4198 336.815 96.8838L338.36 99.3334C338.663 99.7082 338.828 100.176 338.826 100.659C338.799 100.79 338.743 100.914 338.662 101.021C338.582 101.129 338.478 101.217 338.36 101.28C338.181 101.375 337.99 101.446 337.793 101.49C337.07 101.738 336.317 101.886 335.554 101.929Z" fill="#263238"/>
<path d="M339.868 117.814C335.245 118.859 330.423 118.6 325.939 117.065C325.939 117.065 330.728 123.317 340.389 120.328L339.868 117.814Z" fill="#EB996E"/>
<path d="M328.9 91.3996C328.809 91.7926 327.41 91.7834 325.82 92.1765C324.229 92.5695 322.968 93.1636 322.712 92.8528C322.603 92.7066 322.785 92.3227 323.27 91.9388C323.914 91.3966 324.679 91.0173 325.5 90.8329C326.314 90.6397 327.162 90.6397 327.977 90.8329C328.626 90.9517 328.964 91.2168 328.9 91.3996Z" fill="#263238"/>
<path d="M341.294 85.7966C341.074 86.1622 339.904 86.0708 338.552 86.3359C337.199 86.6009 336.13 87.0579 335.81 86.7928C335.663 86.6557 335.81 86.3084 336.203 85.8788C336.806 85.3713 337.536 85.0365 338.314 84.91C339.08 84.7558 339.873 84.8126 340.608 85.0745C341.166 85.3305 341.385 85.6138 341.294 85.7966Z" fill="#263238"/>
<path d="M316.753 76.8491C316.955 77.8392 317.373 78.7726 317.977 79.5831C318.58 80.3935 319.355 81.061 320.246 81.5383C321.137 82.0155 322.122 82.2907 323.131 82.3444C324.14 82.398 325.148 82.2288 326.085 81.8486C327.529 81.2637 329.028 80.1669 330.49 80.697C331.953 81.2271 332.556 83.311 333.954 84.0879C336.011 85.2396 338.524 83.2471 340.819 83.4481C342.647 83.6035 344.027 85.0019 345.443 86.1901C346.86 87.3783 348.816 88.2741 350.416 87.4149C350.049 85.8885 349.506 84.4101 348.798 83.0094C348.083 81.5993 346.9 80.4814 345.452 79.847C344.648 79.5271 343.78 79.4174 343.012 79.0244C341.358 78.1835 340.617 76.2824 339.42 74.8474C338.634 73.9431 337.643 73.2393 336.531 72.7942C335.418 72.3491 334.215 72.1757 333.022 72.2882C331.048 72.4893 329.174 73.4855 327.182 73.4033C325.71 73.3393 324.303 72.6812 322.831 72.7086C319.97 72.7086 317.822 75.2678 316.232 77.6534" fill="#263238"/>
<path d="M326.386 78.9421C325.07 78.8416 322.383 78.5674 321.497 77.6351C320.596 76.6277 319.446 75.8745 318.163 75.4511C316.88 75.0276 315.508 74.9486 314.185 75.2221C312.871 75.6136 311.719 76.4164 310.896 77.5122C310.073 78.6081 309.624 79.9391 309.615 81.3094C308.015 81.6996 306.551 82.5145 305.377 83.668C304.202 84.8215 303.361 86.2708 302.942 87.8627C302.517 89.5293 302.503 91.2742 302.901 92.9475C303.299 94.6208 304.097 96.1724 305.227 97.4689C305.776 98.1554 306.277 98.8792 306.726 99.6351C306.107 100.404 305.562 101.23 305.099 102.103C303.006 106.728 308.682 108.501 308.682 108.501C308.682 111.608 311.561 111.59 313.398 111.581C315.236 111.572 316.25 116.48 317.685 116.288L316.232 101.143C316.445 101.226 316.671 101.269 316.899 101.271C320.363 101.335 319.458 94.7726 318.343 93.0451C319.375 91.7603 320.247 90.3546 320.939 88.859C321.566 86.5727 321.61 84.1655 321.067 81.8578C322.228 81.7115 326.953 78.9787 326.386 78.9421Z" fill="#263238"/>
<path d="M316.689 101.947C316.571 101.466 316.333 101.022 315.997 100.658C315.661 100.293 315.239 100.02 314.769 99.863C314.299 99.7061 313.797 99.6707 313.31 99.7602C312.822 99.8497 312.365 100.061 311.982 100.375C311.068 101.161 310.583 102.477 311.132 104.68C312.613 110.566 318.215 107.87 318.179 107.705C318.142 107.541 317.329 104.378 316.689 101.947Z" fill="#FFBE9D"/>
<path d="M315.821 105.923C315.821 105.923 315.738 106.024 315.583 106.143C315.367 106.308 315.095 106.384 314.824 106.353C314.148 106.28 313.371 105.439 313.079 104.369C312.939 103.87 312.911 103.346 312.996 102.834C313.006 102.635 313.063 102.441 313.163 102.27C313.263 102.098 313.404 101.953 313.572 101.847C313.683 101.787 313.812 101.768 313.935 101.793C314.059 101.818 314.17 101.885 314.248 101.984C314.367 102.121 314.358 102.249 314.395 102.258C314.431 102.267 314.495 102.121 314.395 101.892C314.325 101.757 314.212 101.648 314.075 101.582C313.881 101.503 313.665 101.503 313.472 101.582C313.242 101.691 313.044 101.856 312.895 102.062C312.747 102.268 312.652 102.508 312.622 102.761C312.503 103.336 312.525 103.932 312.686 104.497C312.788 105.028 313.044 105.517 313.423 105.902C313.802 106.288 314.286 106.552 314.815 106.663C314.987 106.67 315.159 106.639 315.317 106.571C315.475 106.503 315.616 106.4 315.729 106.27C315.848 106.069 315.848 105.932 315.821 105.923Z" fill="#EB996E"/>
<path d="M348.249 93.73C348.249 93.73 348.789 93.3187 349.538 92.4047C350.572 91.0878 351.207 89.5016 351.366 87.8347C351.487 86.6968 351.375 85.5462 351.037 84.4529C350.647 83.1989 349.923 82.0743 348.944 81.1991C347.813 80.2117 346.444 79.537 344.972 79.242C343.501 78.947 341.977 79.0419 340.553 79.5173C340.279 79.6087 340.023 79.7458 339.767 79.8555C339.511 79.9652 339.283 80.1297 339.045 80.2668L338.68 80.4679V80.0657C338.672 79.3577 338.409 78.6762 337.939 78.1463C337.458 77.632 336.868 77.2322 336.212 76.9764C334.97 76.4591 333.595 76.3565 332.291 76.6839C329.768 77.2597 327.629 78.4114 325.609 78.649C324.025 78.9243 322.396 78.5984 321.039 77.735C320.682 77.4888 320.372 77.179 320.125 76.821C319.979 76.5742 319.906 76.4371 319.924 76.428C320.256 76.8793 320.66 77.2718 321.122 77.5888C322.456 78.3591 324.024 78.622 325.536 78.3291C326.589 78.1311 327.618 77.8248 328.607 77.4151C329.769 76.9508 330.96 76.563 332.172 76.2543C332.848 76.0908 333.543 76.0201 334.238 76.0441C334.971 76.0829 335.692 76.2499 336.367 76.5377C337.066 76.8363 337.69 77.2857 338.195 77.8538C338.736 78.4726 339.04 79.2625 339.054 80.084L338.689 79.8829L339.447 79.4442C339.731 79.3345 339.996 79.1883 340.288 79.0877C341.789 78.5738 343.399 78.4663 344.954 78.7762C346.51 79.086 347.956 79.8021 349.145 80.8518C350.173 81.7824 350.925 82.9775 351.32 84.3067C351.73 85.7154 351.786 87.2038 351.481 88.6391C351.177 90.0743 350.522 91.412 349.575 92.5327C349.274 92.8762 348.933 93.183 348.56 93.4467C348.468 93.5534 348.364 93.6485 348.249 93.73Z" fill="#455A64"/>
<path d="M347.061 73.0648C346.461 72.7602 345.821 72.5417 345.16 72.4159C344.404 72.3126 343.635 72.3845 342.912 72.6261C341.975 72.9127 341.161 73.5048 340.599 74.3079L340.371 74.6278L340.234 74.2622C339.756 73.1386 338.988 72.1626 338.008 71.4348C337.028 70.707 335.872 70.2538 334.658 70.1217C332.752 70.05 330.874 70.5949 329.302 71.6755C327.963 72.5484 326.539 73.2833 325.052 73.8691C324.027 74.2569 322.922 74.3887 321.835 74.253C321.545 74.1995 321.26 74.12 320.985 74.0154C320.802 73.9331 320.701 73.8874 320.711 73.8691C320.72 73.8509 321.122 73.988 321.862 74.0611C322.914 74.1268 323.966 73.955 324.942 73.5584C326.388 72.9282 327.773 72.1696 329.083 71.2917C329.892 70.7894 330.749 70.3699 331.642 70.0395C332.624 69.6815 333.673 69.5473 334.713 69.6465C336.009 69.788 337.243 70.2784 338.283 71.0654C339.322 71.8525 340.129 72.9067 340.617 74.1159H340.261C340.889 73.257 341.787 72.6328 342.811 72.3428C343.589 72.1172 344.409 72.0765 345.206 72.2239C345.71 72.3197 346.193 72.5055 346.632 72.7723C346.788 72.8489 346.933 72.9474 347.061 73.0648Z" fill="#455A64"/>
<path d="M335.024 104.635C334.81 104.456 334.561 104.325 334.294 104.249C334.026 104.173 333.745 104.155 333.47 104.196C333.148 104.265 332.844 104.4 332.578 104.594C332.312 104.787 332.09 105.035 331.925 105.32C331.925 105.32 331.88 105.366 331.87 105.393C331.745 105.602 331.687 105.845 331.706 106.088C331.746 106.353 331.85 106.604 332.009 106.819C332.169 107.034 332.378 107.207 332.62 107.322C333.006 107.518 333.444 107.589 333.872 107.527C334.301 107.465 334.7 107.272 335.015 106.974C335.313 106.659 335.481 106.241 335.482 105.806C335.484 105.372 335.32 104.953 335.024 104.635Z" fill="#004866"/>
<path d="M335.481 107.477C335.408 107.477 335.325 107.203 335.079 106.828C334.781 106.326 334.337 105.927 333.806 105.685C333.275 105.443 332.682 105.37 332.108 105.475C331.66 105.539 331.386 105.667 331.359 105.603C331.331 105.539 331.541 105.32 332.035 105.146C332.681 104.939 333.381 104.978 334 105.256C334.625 105.534 335.119 106.041 335.38 106.673C335.572 107.148 335.545 107.468 335.481 107.477Z" fill="#263238"/>
<path d="M316.826 108.61C316.826 108.61 317.091 109.067 316.744 109.762C316.547 110.177 316.201 110.504 315.775 110.676C315.509 110.771 315.224 110.803 314.943 110.77C314.663 110.737 314.394 110.639 314.157 110.484C313.917 110.338 313.713 110.138 313.563 109.9C313.412 109.662 313.318 109.393 313.289 109.113C313.261 108.661 313.394 108.215 313.664 107.851C314.139 107.248 314.669 107.23 314.669 107.285C314.669 107.34 314.267 107.495 313.947 108.043C313.762 108.351 313.684 108.711 313.728 109.067C313.762 109.276 313.841 109.474 313.959 109.65C314.077 109.825 314.232 109.972 314.413 110.082C314.591 110.196 314.792 110.271 315.001 110.303C315.211 110.334 315.425 110.321 315.629 110.264C315.966 110.144 316.257 109.92 316.46 109.625C316.817 109.058 316.753 108.61 316.826 108.61Z" fill="#004866"/>
<path d="M313.746 108.254C313.791 108.254 313.746 108.565 313.316 108.766C313.105 108.853 312.873 108.879 312.648 108.839C312.423 108.799 312.214 108.696 312.046 108.541C311.878 108.387 311.757 108.187 311.699 107.966C311.641 107.745 311.647 107.512 311.717 107.294C311.806 107.047 311.977 106.838 312.201 106.7C312.576 106.472 312.859 106.563 312.85 106.618C312.841 106.673 312.631 106.737 312.402 106.965C312.29 107.106 312.221 107.276 312.205 107.455C312.189 107.635 312.227 107.815 312.313 107.973C312.398 108.131 312.529 108.26 312.688 108.344C312.847 108.428 313.027 108.464 313.206 108.446C313.517 108.382 313.682 108.217 313.746 108.254Z" fill="#004866"/>
<path d="M323.791 189.426C323.791 189.426 346.421 190.742 359.802 190.861C370.158 190.962 374.783 188.211 376.848 181.547C378.585 175.963 374.856 165.242 374.856 165.242C367.845 165.242 363.522 166.247 359.016 168.358L360.214 173.257L323.727 176.402L323.791 189.426Z" fill="#FFBE9D"/>
<path d="M367.818 178.486C366.837 177.21 365.69 176.069 364.409 175.095C363.034 174.254 361.552 173.602 360.003 173.157C360.491 173.087 360.989 173.131 361.457 173.285C362.607 173.557 363.697 174.037 364.674 174.702C365.653 175.369 366.499 176.212 367.169 177.188C367.681 177.937 367.873 178.458 367.818 178.486Z" fill="#EB996E"/>
<path d="M315.51 168.322C315.51 168.322 308.509 170.004 303.363 173.441L308.847 188.302C310.675 193.183 316.259 195.614 320.729 193.055C327.611 189.116 330.042 177.636 330.042 177.636L337.601 144.841L325.07 136.99L315.556 168.322" fill="#FFBE9D"/>
<path d="M325.025 136.99L325.536 126.205L322.73 115.237C322.575 114.634 322.502 113.875 322.996 113.509C323.24 113.322 323.543 113.225 323.851 113.235C324.159 113.245 324.454 113.361 324.686 113.564C325.445 114.35 329.101 123.938 329.101 123.938C329.101 123.938 334.649 120.611 335.636 120.447C336.623 120.282 337.857 123.271 337.939 123.499C337.976 124.169 337.976 124.84 337.939 125.51C337.939 125.51 341.367 125.611 341.678 126.077C341.927 127.029 342.059 128.008 342.071 128.993C342.071 128.993 343.524 129.459 343.752 130.555C343.981 131.652 344.456 133.462 343.752 133.864C343.049 134.266 341.623 135.052 341.623 135.052C341.623 135.052 341.047 140.646 340.892 141.158C340.736 141.67 337.528 144.814 337.528 144.814L325.025 136.99Z" fill="#FFBE9D"/>
<path d="M313.362 193.274C313.362 193.274 313.7 193.476 314.413 193.704C315.456 194.031 316.558 194.119 317.639 193.96C319.376 193.712 321.003 192.962 322.319 191.803C324.059 190.225 325.529 188.372 326.67 186.319C327.342 185.112 327.908 183.849 328.361 182.544C328.836 181.108 329.23 179.646 329.54 178.166C330.253 175.086 331.03 171.768 331.852 168.24C333.497 161.193 335.344 153.314 337.336 144.823V144.759H337.382C338.013 144.138 338.643 143.507 339.274 142.849C339.585 142.52 339.895 142.191 340.188 141.853C340.334 141.679 340.489 141.505 340.608 141.332C340.701 141.16 340.754 140.969 340.764 140.774C341.01 138.946 341.202 137.054 341.403 135.144V135.025L341.513 134.97L343.259 133.992C343.387 133.91 343.588 133.819 343.67 133.746C343.758 133.667 343.816 133.56 343.835 133.444C343.877 133.141 343.877 132.833 343.835 132.53C343.746 131.86 343.609 131.197 343.423 130.547C343.113 129.978 342.591 129.555 341.97 129.368L341.815 129.313V129.157C341.815 128.627 341.76 128.079 341.696 127.54C341.671 127.269 341.631 127.001 341.577 126.735C341.556 126.618 341.519 126.504 341.467 126.397C341.467 126.333 341.467 126.397 341.413 126.342C341.363 126.316 341.311 126.295 341.257 126.278C340.158 126.039 339.037 125.913 337.912 125.903H337.674V125.666C337.674 125.099 337.674 124.469 337.674 123.838C337.637 123.623 337.562 123.416 337.455 123.225C337.364 123.006 337.254 122.796 337.144 122.577C336.93 122.153 336.679 121.749 336.395 121.37C336.265 121.193 336.108 121.039 335.929 120.913C335.862 120.857 335.781 120.822 335.695 120.812C335.608 120.802 335.521 120.818 335.444 120.858C335.002 121.028 334.571 121.226 334.155 121.452C332.455 122.366 330.792 123.28 329.165 124.267L328.927 124.414L328.827 124.158C327.968 121.992 327.108 119.853 326.268 117.76C325.847 116.709 325.436 115.658 325.015 114.625C324.951 114.393 324.822 114.185 324.644 114.023C324.466 113.862 324.247 113.753 324.01 113.711C323.792 113.638 323.555 113.642 323.339 113.722C323.123 113.802 322.941 113.952 322.822 114.149C322.708 114.346 322.66 114.573 322.685 114.798C322.685 114.999 322.813 115.31 322.868 115.557C323.014 116.087 323.151 116.608 323.288 117.129C323.562 118.18 323.827 119.213 324.101 120.237C324.638 122.296 325.165 124.307 325.683 126.269V126.333C325.5 130.087 325.326 133.682 325.162 137.118V137.1L316.835 164.191L314.486 171.731C314.212 172.581 314.002 173.249 313.856 173.715C313.709 174.181 313.618 174.382 313.618 174.382C313.618 174.382 313.664 174.144 313.792 173.697L314.367 171.695C314.897 169.931 315.656 167.381 316.616 164.127C318.59 157.583 321.396 148.242 324.787 136.981V137.027C324.945 133.602 325.107 130.007 325.271 126.242V126.306C324.75 124.341 324.211 122.33 323.672 120.282L322.849 117.175C322.712 116.654 322.575 116.124 322.429 115.603C322.35 115.329 322.286 115.051 322.237 114.771C322.203 114.454 322.27 114.134 322.429 113.857C322.598 113.572 322.859 113.353 323.169 113.235C323.476 113.146 323.801 113.135 324.112 113.206C324.424 113.276 324.713 113.425 324.951 113.638C325.181 113.853 325.351 114.124 325.445 114.424L326.697 117.559C327.547 119.661 328.397 121.8 329.266 123.957L328.927 123.838C330.563 122.869 332.209 121.9 333.945 120.995C334.384 120.766 334.836 120.561 335.298 120.383C335.442 120.323 335.6 120.301 335.755 120.319C335.911 120.342 336.061 120.398 336.194 120.483C336.414 120.641 336.608 120.833 336.769 121.05C337.075 121.45 337.341 121.879 337.565 122.33C337.683 122.558 337.793 122.778 337.894 123.006C338.024 123.248 338.11 123.511 338.15 123.783C338.15 124.432 338.15 125.035 338.15 125.611L337.921 125.364C339.096 125.372 340.267 125.507 341.413 125.766C341.491 125.794 341.568 125.827 341.641 125.867C341.742 125.922 341.824 126.004 341.879 126.105C341.95 126.253 342.002 126.409 342.034 126.571C342.089 126.863 342.126 127.137 342.162 127.421C342.217 127.978 342.253 128.527 342.281 129.075L342.116 128.856C342.49 128.965 342.838 129.15 343.138 129.398C343.438 129.646 343.684 129.953 343.862 130.3C344.062 130.994 344.209 131.703 344.301 132.42C344.364 132.786 344.364 133.16 344.301 133.526C344.261 133.748 344.145 133.948 343.972 134.093C343.822 134.193 343.666 134.285 343.506 134.367L341.769 135.272L341.888 135.098C341.678 137.009 341.486 138.882 341.23 140.738L341.175 141.094C341.154 141.238 341.094 141.374 341.001 141.487C340.867 141.687 340.717 141.877 340.553 142.054C340.243 142.401 339.932 142.739 339.639 143.068C339.009 143.726 338.378 144.357 337.738 144.979L337.802 144.869C335.791 153.351 333.927 161.23 332.254 168.277C331.423 171.795 330.627 175.113 329.896 178.184C329.583 179.676 329.181 181.147 328.69 182.59C328.219 183.907 327.638 185.182 326.953 186.401C325.786 188.481 324.281 190.352 322.502 191.94C321.146 193.107 319.478 193.851 317.703 194.079C316.599 194.227 315.475 194.114 314.422 193.75C314.154 193.651 313.895 193.532 313.645 193.393L313.362 193.274Z" fill="#EB996E"/>
<path d="M337.949 125.538C337.949 125.602 337.638 125.639 337.153 125.657C336.538 125.669 335.926 125.742 335.325 125.876C334.746 126.019 334.212 126.305 333.772 126.708C333.443 127.019 333.296 127.284 333.223 127.256C333.15 127.229 333.223 126.9 333.525 126.48C333.951 125.947 334.543 125.574 335.207 125.419C335.846 125.262 336.511 125.231 337.163 125.328C337.656 125.392 337.949 125.474 337.949 125.538Z" fill="#EB996E"/>
<path d="M335.298 125.638C335.179 125.593 335.17 125.309 335.298 125.008C335.426 124.706 335.609 124.496 335.728 124.541C335.846 124.587 335.865 124.87 335.728 125.172C335.59 125.474 335.389 125.684 335.298 125.638Z" fill="#EB996E"/>
<path d="M342.226 128.956C341.339 129.231 340.412 129.357 339.484 129.331C339.192 129.321 338.902 129.382 338.638 129.507C338.374 129.633 338.144 129.82 337.967 130.053C337.729 130.428 337.811 130.739 337.738 130.757C337.665 130.775 337.446 130.455 337.674 129.907C337.8 129.598 338.03 129.343 338.323 129.185C338.662 128.999 339.035 128.887 339.42 128.856C340.353 128.713 341.305 128.747 342.226 128.956Z" fill="#EB996E"/>
<path d="M341.623 132.247C341.751 132.247 341.824 132.923 341.787 133.755C341.751 134.587 341.614 135.245 341.486 135.245C341.358 135.245 341.276 134.559 341.312 133.727C341.349 132.896 341.486 132.238 341.623 132.247Z" fill="#EB996E"/>
<path d="M345.416 156.861L346.229 154.064C346.267 153.936 346.336 153.82 346.432 153.727C346.528 153.634 346.646 153.568 346.775 153.535C346.905 153.501 347.04 153.502 347.169 153.538C347.297 153.573 347.415 153.641 347.509 153.735L348.578 154.822L349.236 152.181C349.275 152.028 349.36 151.891 349.479 151.789C349.598 151.686 349.746 151.622 349.903 151.606C350.059 151.59 350.217 151.623 350.355 151.699C350.492 151.776 350.603 151.893 350.671 152.035L352.161 155.161L345.416 156.861Z" fill="white"/>
<path d="M352.179 156.358C351.157 156.852 350.071 157.203 348.953 157.4C347.871 157.753 346.745 157.95 345.608 157.985C347.712 157.14 349.924 156.592 352.179 156.358Z" fill="white"/>
<path d="M297.824 140.756C297.824 140.756 297.486 141.103 297.01 141.844C296.372 142.898 295.953 144.07 295.777 145.289C295.516 147.105 295.461 148.945 295.612 150.773C295.713 152.848 295.877 155.115 296.133 157.491C296.566 161.55 297.21 165.583 298.062 169.574C298.382 171.11 298.674 172.316 298.875 173.23C298.966 173.614 299.049 173.934 299.113 174.208C299.177 174.482 299.186 174.556 299.186 174.556C299.186 174.556 299.14 174.446 299.076 174.227C299.012 174.007 298.912 173.623 298.811 173.249C298.583 172.399 298.272 171.174 297.897 169.638C297.009 165.648 296.346 161.611 295.914 157.546C295.658 155.17 295.502 152.894 295.411 150.819C295.272 148.989 295.34 147.15 295.612 145.335C295.808 144.099 296.256 142.917 296.928 141.862C297.176 141.455 297.477 141.083 297.824 140.756Z" fill="white"/>
<path d="M317.064 128.307L316.853 128.417L316.25 128.71C315.729 128.956 314.971 129.322 314.066 129.825C311.707 131.14 309.416 132.574 307.202 134.12C304.588 135.948 302.275 137.612 300.584 138.818L298.583 140.235L298.025 140.61C297.963 140.66 297.895 140.702 297.824 140.738C297.876 140.676 297.938 140.624 298.007 140.582L298.537 140.18L300.502 138.709C302.175 137.475 304.478 135.756 307.092 133.965C309.31 132.412 311.618 130.99 314.002 129.706C314.916 129.221 315.684 128.874 316.223 128.646L316.835 128.39C317.018 128.326 317.018 128.298 317.064 128.307Z" fill="white"/>
<path d="M360.652 134.257C360.595 134.226 360.543 134.186 360.497 134.139L360.086 133.782C359.576 133.352 359.042 132.952 358.486 132.585C356.631 131.402 354.662 130.407 352.609 129.614C350.562 128.804 348.472 128.108 346.348 127.53C345.526 127.302 344.867 127.137 344.401 127.028L343.88 126.891C343.817 126.878 343.755 126.856 343.698 126.827H343.889L344.42 126.927C344.886 127.019 345.553 127.165 346.376 127.375C348.52 127.916 350.627 128.597 352.682 129.413C354.747 130.205 356.718 131.223 358.559 132.448C359.326 132.967 360.028 133.574 360.652 134.257Z" fill="white"/>
<path d="M317.32 204.023C317.196 204.001 317.076 203.961 316.963 203.904C316.646 203.764 316.34 203.599 316.049 203.41C315.557 203.115 315.127 202.726 314.786 202.265C314.444 201.804 314.196 201.28 314.057 200.723C313.806 199.599 313.931 198.424 314.413 197.378C314.552 197.053 314.73 196.746 314.943 196.464C315.09 196.272 315.19 196.18 315.199 196.19C314.95 196.579 314.727 196.986 314.532 197.405C314.107 198.432 314.008 199.565 314.249 200.65C314.51 201.721 315.162 202.657 316.077 203.273C316.835 203.821 317.338 203.986 317.32 204.023Z" fill="white"/>
<path d="M314.413 194.125C314.607 194.487 314.752 194.875 314.843 195.276C314.986 195.661 315.072 196.064 315.099 196.473C314.891 196.119 314.743 195.733 314.66 195.331C314.51 194.946 314.427 194.538 314.413 194.125Z" fill="white"/>
<path d="M326.77 399.052L354.647 398.915L354.145 302.534L353.88 204.489L316.104 204.005L309.313 216.801C306.534 221.945 304.763 227.573 304.094 233.381C303.637 237.823 306.964 252.264 308.116 255.92L318.508 288.879L326.77 399.052Z" fill="#263238"/>
<path d="M362.06 204.608L392.697 288.12C394.512 293.501 395.115 299.216 394.463 304.857C393.81 310.499 391.918 315.926 388.922 320.75L353.35 390.214L333.351 365.188L363.111 303.036L336.879 260.49L341.294 204.736L353.651 204.535L362.06 204.608Z" fill="#263238"/>
<path d="M351.339 232.585C351.339 232.585 351.339 232.732 351.339 233.015C351.339 233.298 351.384 233.737 351.421 234.276C351.485 235.401 351.567 237.018 351.677 239.111C351.887 243.343 352.18 249.421 352.591 256.925C353.002 264.429 353.349 273.377 353.806 283.34C354.026 288.312 354.263 293.531 354.501 298.942C354.675 301.684 354.602 304.426 354.629 307.168C354.656 309.91 354.629 312.798 354.629 315.668C354.629 338.637 354.702 359.43 354.73 374.502C354.73 382.015 354.73 388.103 354.73 392.334C354.73 394.427 354.73 396.054 354.73 397.188C354.73 397.718 354.73 398.102 354.73 398.449C354.73 398.796 354.73 398.879 354.73 398.879C354.73 398.879 354.73 398.732 354.73 398.449V397.188C354.73 396.054 354.73 394.446 354.675 392.334C354.675 388.103 354.602 382.024 354.547 374.511C354.483 359.44 354.401 338.646 354.309 315.677C354.309 312.807 354.309 309.974 354.309 307.177C354.309 304.38 354.364 301.62 354.19 298.951C353.962 293.549 353.733 288.33 353.523 283.358C353.103 273.414 352.719 264.466 352.408 256.934C352.097 249.403 351.869 243.352 351.695 239.121C351.622 237.037 351.567 235.41 351.531 234.276C351.531 233.737 351.531 233.362 351.531 233.015C351.531 232.668 351.339 232.585 351.339 232.585Z" fill="#455A64"/>
<path d="M350.635 206.253C350.742 206.547 350.806 206.855 350.827 207.167C350.927 207.752 351.037 208.602 351.165 209.663C351.403 211.774 351.658 214.708 351.805 217.953C351.951 221.197 351.96 224.14 351.914 226.27C351.914 227.33 351.85 228.199 351.805 228.793C351.814 229.101 351.777 229.409 351.695 229.707C351.58 228.565 351.54 227.417 351.576 226.27C351.576 224.14 351.476 221.216 351.329 217.971C351.183 214.726 350.982 211.811 350.827 209.745C350.697 208.586 350.633 207.42 350.635 206.253Z" fill="#455A64"/>
<path d="M344.493 208.136C344.538 208.2 344.018 208.438 343.871 209.178C343.83 209.379 343.842 209.587 343.904 209.782C343.966 209.977 344.078 210.153 344.228 210.293C344.409 210.461 344.634 210.574 344.877 210.618C345.12 210.662 345.371 210.635 345.599 210.54C345.818 210.427 346.001 210.255 346.127 210.043C346.253 209.832 346.317 209.589 346.312 209.343C346.303 209.138 346.243 208.939 346.135 208.765C346.028 208.59 345.878 208.446 345.699 208.346C345.327 208.166 344.913 208.094 344.502 208.136C344.502 208.136 344.593 208.017 344.831 207.944C345.174 207.861 345.535 207.896 345.855 208.045C346.11 208.151 346.33 208.326 346.492 208.55C346.653 208.775 346.749 209.04 346.769 209.315C346.805 209.656 346.734 209.999 346.565 210.296C346.396 210.594 346.138 210.831 345.827 210.974C345.516 211.118 345.168 211.16 344.832 211.095C344.496 211.03 344.189 210.862 343.954 210.613C343.759 210.42 343.622 210.177 343.555 209.911C343.489 209.646 343.497 209.367 343.579 209.105C343.671 208.763 343.877 208.463 344.164 208.255C344.347 208.127 344.484 208.109 344.493 208.136Z" fill="#455A64"/>
<path d="M329.869 206.481C330.003 206.769 330.087 207.079 330.116 207.395C330.263 208.216 330.29 209.053 330.198 209.882C330.066 211.115 329.71 212.314 329.147 213.419C328.466 214.793 327.458 215.979 326.212 216.874C324.966 217.768 323.519 218.342 321.999 218.546C320.783 218.728 319.543 218.681 318.343 218.409C317.532 218.233 316.75 217.94 316.022 217.541C315.747 217.411 315.494 217.238 315.272 217.029C316.283 217.484 317.336 217.836 318.416 218.08C319.716 218.35 321.058 218.348 322.357 218.074C323.656 217.799 324.885 217.259 325.964 216.486C327.044 215.713 327.951 214.724 328.63 213.583C329.308 212.441 329.742 211.172 329.905 209.854C330.013 208.732 330.001 207.601 329.869 206.481Z" fill="#455A64"/>
<path d="M365.734 214.488C365.138 214.557 364.534 214.485 363.97 214.278C362.589 213.843 361.35 213.048 360.378 211.975C359.398 210.906 358.725 209.593 358.431 208.173C358.287 207.594 358.287 206.988 358.431 206.409C358.514 206.409 358.523 207.076 358.797 208.1C359.167 209.422 359.841 210.641 360.764 211.658C361.688 212.675 362.835 213.462 364.116 213.958C365.067 214.333 365.743 214.397 365.734 214.488Z" fill="#455A64"/>
<path d="M376.62 304.517C376.162 305.04 375.614 305.476 375.002 305.806C374.36 306.213 373.661 306.521 372.927 306.72C372.004 306.964 371.031 306.939 370.121 306.647C368.525 306.045 367.157 304.958 366.21 303.539C365.774 303.006 365.415 302.415 365.14 301.784C365.634 302.255 366.08 302.772 366.475 303.329C367.445 304.616 368.756 305.607 370.259 306.19C371.026 306.394 371.827 306.441 372.612 306.326C373.398 306.211 374.152 305.938 374.829 305.522C375.406 305.153 376.004 304.818 376.62 304.517Z" fill="#455A64"/>
<path d="M369.637 309.846C368.557 308.727 367.592 307.502 366.758 306.19C365.797 304.968 364.958 303.655 364.253 302.269C365.341 303.384 366.309 304.609 367.142 305.925C368.11 307.14 368.947 308.454 369.637 309.846Z" fill="#455A64"/>
<path d="M322.804 235.812C322.676 235.858 322.356 235.337 322.072 234.633C321.789 233.929 321.67 233.335 321.789 233.28C321.908 233.225 322.237 233.756 322.511 234.459C322.785 235.163 322.922 235.812 322.804 235.812Z" fill="#FAFAFA"/>
<path d="M340.499 238.353C340.362 238.353 340.261 237.905 340.261 237.348C340.261 236.79 340.362 236.333 340.499 236.333C340.636 236.333 340.736 236.79 340.736 237.348C340.736 237.905 340.627 238.353 340.499 238.353Z" fill="#FAFAFA"/>
<path d="M333.223 247.968C333.095 247.968 332.949 247.42 332.903 246.716C332.858 246.012 332.903 245.445 333.049 245.436C333.196 245.427 333.333 245.985 333.378 246.688C333.424 247.392 333.351 247.959 333.223 247.968Z" fill="#FAFAFA"/>
<path d="M319.934 255.006C319.824 255.088 319.449 254.75 318.956 254.403C318.462 254.055 318.042 253.79 318.042 253.662C318.042 253.534 318.645 253.608 319.202 254.01C319.76 254.412 320.043 255.006 319.934 255.006Z" fill="#FAFAFA"/>
<path d="M343.359 263.973C343.25 263.899 343.359 263.506 343.67 263.059C343.981 262.611 344.264 262.355 344.374 262.428C344.484 262.501 344.374 262.903 344.063 263.342C343.752 263.781 343.469 264.046 343.359 263.973Z" fill="#FAFAFA"/>
<path d="M328.9 266.504C328.772 266.504 328.662 265.745 328.662 264.822C328.662 263.899 328.772 263.131 328.9 263.131C329.028 263.131 329.138 263.89 329.138 264.822C329.138 265.755 329 266.504 328.9 266.504Z" fill="#FAFAFA"/>
<path d="M324.165 276.759C324.092 276.86 323.617 276.65 323.105 276.275C322.593 275.9 322.191 275.516 322.31 275.407C322.429 275.297 322.868 275.516 323.379 275.891C323.891 276.266 324.248 276.65 324.165 276.759Z" fill="#FAFAFA"/>
<path d="M338.808 280.324C338.862 280.442 338.57 280.689 338.15 280.881C337.729 281.073 337.345 281.119 337.29 281C337.236 280.881 337.537 280.634 337.958 280.442C338.378 280.25 338.762 280.205 338.808 280.324Z" fill="#FAFAFA"/>
<path d="M328.9 297.05C328.79 297.105 328.315 296.401 327.849 295.468C327.383 294.536 327.099 293.732 327.218 293.64C327.337 293.549 327.812 294.289 328.269 295.222C328.726 296.154 328.982 296.949 328.9 297.05Z" fill="#FAFAFA"/>
<path d="M345.05 295.496C344.932 295.432 345.142 294.82 345.507 294.116C345.873 293.412 346.284 292.9 346.421 292.964C346.558 293.028 346.33 293.641 345.955 294.345C345.58 295.048 345.16 295.56 345.05 295.496Z" fill="#FAFAFA"/>
<path d="M337.967 309.654C337.83 309.654 337.848 308.914 337.702 308.054C337.556 307.195 337.336 306.51 337.464 306.446C337.592 306.382 338.031 307.031 338.177 307.981C338.323 308.932 338.095 309.681 337.967 309.654Z" fill="#FAFAFA"/>
<path d="M330.381 317.743C330.289 317.835 329.832 317.487 329.366 316.975C328.9 316.463 328.598 315.979 328.699 315.888C328.799 315.796 329.247 316.144 329.713 316.655C330.179 317.167 330.481 317.652 330.381 317.743Z" fill="#FAFAFA"/>
<path d="M348.789 320.814C348.697 320.722 349.035 320.229 349.547 319.708C350.059 319.187 350.534 318.849 350.635 318.94C350.735 319.032 350.388 319.534 349.885 320.046C349.383 320.558 348.889 320.905 348.789 320.814Z" fill="#FAFAFA"/>
<path d="M338.204 332.924C338.077 332.924 338.077 332.202 338.204 331.361C338.332 330.52 338.534 329.862 338.671 329.88C338.808 329.899 338.799 330.593 338.671 331.434C338.543 332.275 338.332 332.942 338.204 332.924Z" fill="#FAFAFA"/>
<path d="M331.085 338.802C330.966 338.866 330.564 338.39 330.171 337.741C329.778 337.092 329.576 336.517 329.686 336.453C329.796 336.389 330.198 336.855 330.6 337.504C331.002 338.153 331.194 338.729 331.085 338.802Z" fill="#FAFAFA"/>
<path d="M348.24 346.214C348.322 346.324 347.856 346.79 347.198 347.256C346.54 347.722 345.964 348.015 345.882 347.905C345.8 347.795 346.275 347.329 346.924 346.863C347.573 346.397 348.167 346.114 348.24 346.214Z" fill="#FAFAFA"/>
<path d="M333.945 355.838C333.817 355.792 333.945 355.061 334.064 354.147C334.183 353.233 334.11 352.483 334.247 352.465C334.384 352.447 334.622 353.215 334.53 354.193C334.439 355.171 334.064 355.893 333.945 355.838Z" fill="#FAFAFA"/>
<path d="M339.658 369.658C339.548 369.74 339.164 369.43 338.79 368.964C338.415 368.497 338.205 368.05 338.305 367.967C338.406 367.885 338.79 368.196 339.164 368.662C339.539 369.128 339.758 369.576 339.658 369.658Z" fill="#FAFAFA"/>
<path d="M333.415 378.926C333.305 378.999 332.803 378.459 332.291 377.71C331.779 376.96 331.459 376.302 331.56 376.229C331.66 376.156 332.172 376.695 332.684 377.445C333.196 378.194 333.525 378.852 333.415 378.926Z" fill="#FAFAFA"/>
<path d="M350.607 367.29C350.489 367.245 350.498 366.907 350.607 366.541C350.717 366.175 350.964 365.901 351.092 365.947C351.22 365.993 351.202 366.331 351.092 366.705C350.982 367.08 350.735 367.345 350.607 367.29Z" fill="#FAFAFA"/>
<path d="M343.021 389.364C342.903 389.3 343.131 388.651 343.314 387.837C343.497 387.024 343.561 386.338 343.698 386.329C343.835 386.32 343.972 387.06 343.78 387.938C343.588 388.815 343.131 389.437 343.021 389.364Z" fill="#FAFAFA"/>
<path d="M347.957 248.114C347.838 248.169 347.546 247.804 347.308 247.292C347.07 246.78 346.97 246.323 347.088 246.268C347.207 246.213 347.5 246.579 347.737 247.091C347.975 247.603 348.094 248.06 347.957 248.114Z" fill="#FAFAFA"/>
<path d="M335.298 219.652C335.371 219.762 334.731 220.273 334.046 221.005C333.36 221.736 332.894 222.412 332.775 222.348C332.657 222.284 332.967 221.434 333.689 220.685C334.411 219.935 335.207 219.533 335.298 219.652Z" fill="#FAFAFA"/>
<path d="M346.567 219.36C346.43 219.36 346.22 218.839 345.9 218.217C345.58 217.596 345.288 217.084 345.388 216.992C345.489 216.901 345.983 217.303 346.302 217.998C346.622 218.692 346.686 219.286 346.567 219.36Z" fill="#FAFAFA"/>
<path d="M311.379 228.601C311.26 228.546 311.379 227.942 311.662 227.248C311.945 226.553 312.256 226.014 312.384 226.069C312.512 226.124 312.384 226.718 312.101 227.422C311.817 228.125 311.534 228.646 311.379 228.601Z" fill="#FAFAFA"/>
<path d="M312.521 242.402C312.43 242.503 311.909 242.21 311.351 241.744C310.793 241.278 310.437 240.83 310.492 240.72C310.547 240.611 311.104 240.912 311.662 241.378C312.219 241.845 312.603 242.302 312.521 242.402Z" fill="#FAFAFA"/>
<path d="M335.609 208.694C335.49 208.694 335.234 208.401 335.051 207.935C334.868 207.469 334.814 207.021 334.932 207.021C335.051 207.021 335.307 207.313 335.49 207.78C335.673 208.246 335.727 208.648 335.609 208.694Z" fill="#FAFAFA"/>
<path d="M357.718 215.439C357.59 215.439 357.599 214.863 357.718 214.214C357.837 213.565 358.075 213.053 358.203 213.081C358.331 213.108 358.322 213.666 358.203 214.315C358.084 214.963 357.846 215.466 357.718 215.439Z" fill="#FAFAFA"/>
<path d="M362.91 225.886C362.791 225.831 362.956 225.154 363.285 224.359C363.614 223.564 363.97 222.97 364.089 223.016C364.208 223.061 364.089 223.747 363.723 224.542C363.358 225.337 363.038 225.931 362.91 225.886Z" fill="#FAFAFA"/>
<path d="M359.208 234.313C359.089 234.368 358.651 233.737 358.23 232.906C357.81 232.074 357.572 231.334 357.691 231.279C357.81 231.224 358.239 231.855 358.66 232.686C359.08 233.518 359.327 234.249 359.208 234.313Z" fill="#FAFAFA"/>
<path d="M367.123 242.74C367.005 242.694 367.123 242.164 367.324 241.561C367.526 240.957 367.845 240.5 367.973 240.546C368.101 240.592 367.973 241.122 367.772 241.725C367.571 242.328 367.288 242.785 367.123 242.74Z" fill="#FAFAFA"/>
<path d="M360.049 250.993C359.939 251.066 359.656 250.819 359.427 250.454C359.199 250.088 359.089 249.723 359.208 249.65C359.327 249.576 359.592 249.823 359.83 250.198C360.067 250.573 360.159 250.929 360.049 250.993Z" fill="#FAFAFA"/>
<path d="M361.557 268.03C361.466 268.113 360.89 267.665 360.287 267.007C359.683 266.349 359.272 265.754 359.373 265.663C359.473 265.572 360.04 266.029 360.643 266.687C361.246 267.345 361.658 267.939 361.557 268.03Z" fill="#FAFAFA"/>
<path d="M370.834 258.242C370.734 258.324 370.231 257.867 369.719 257.209C369.207 256.551 368.878 255.966 368.979 255.883C369.079 255.801 369.582 256.267 370.094 256.916C370.606 257.565 370.944 258.168 370.834 258.242Z" fill="#FAFAFA"/>
<path d="M375.925 271.741C375.806 271.686 376.017 271.001 376.391 270.215C376.766 269.429 377.159 268.826 377.305 268.88C377.452 268.935 377.223 269.63 376.848 270.416C376.474 271.202 376.044 271.805 375.925 271.741Z" fill="#FAFAFA"/>
<path d="M365.103 282.856C364.985 282.92 364.564 282.417 363.979 281.878C363.394 281.338 362.855 280.964 362.91 280.826C362.965 280.689 363.659 280.936 364.299 281.53C364.939 282.124 365.213 282.792 365.103 282.856Z" fill="#FAFAFA"/>
<path d="M365.78 294.308C365.78 294.436 365.323 294.546 364.765 294.546C364.208 294.546 363.76 294.436 363.76 294.308C363.76 294.18 364.208 294.07 364.765 294.07C365.323 294.07 365.78 294.18 365.78 294.308Z" fill="#FAFAFA"/>
<path d="M376.903 291.109C376.784 291.045 377.022 290.469 377.196 289.756C377.369 289.043 377.443 288.422 377.58 288.413C377.717 288.404 377.863 289.071 377.662 289.866C377.461 290.661 377.004 291.182 376.903 291.109Z" fill="#FAFAFA"/>
<path d="M387.953 294.956C387.835 295.002 387.496 294.353 387.204 293.521C386.911 292.689 386.774 291.977 386.893 291.94C387.012 291.903 387.359 292.534 387.652 293.366C387.944 294.198 388.081 294.91 387.953 294.956Z" fill="#FAFAFA"/>
<path d="M386.189 310.678C386.08 310.614 386.363 309.846 386.82 308.959C387.277 308.073 387.734 307.406 387.871 307.47C388.008 307.534 387.707 308.301 387.241 309.179C386.774 310.056 386.308 310.76 386.189 310.678Z" fill="#FAFAFA"/>
<path d="M376.108 319.9C375.989 319.946 375.614 319.315 375.267 318.483C374.92 317.651 374.746 316.938 374.874 316.884C375.002 316.829 375.368 317.469 375.706 318.3C376.044 319.132 376.227 319.9 376.108 319.9Z" fill="#FAFAFA"/>
<path d="M364.939 323.474C364.939 323.602 364.555 323.712 364.089 323.712C363.623 323.712 363.248 323.602 363.248 323.474C363.248 323.346 363.632 323.236 364.089 323.236C364.546 323.236 364.939 323.346 364.939 323.474Z" fill="#FAFAFA"/>
<path d="M371.337 338.18C371.218 338.18 370.962 337.677 370.77 336.983C370.578 336.288 370.542 335.685 370.67 335.657C370.798 335.63 371.045 336.16 371.236 336.855C371.428 337.549 371.465 338.107 371.337 338.18Z" fill="#FAFAFA"/>
<path d="M363.248 333.244C363.138 333.18 363.248 332.751 363.55 332.284C363.851 331.818 364.153 331.498 364.263 331.562C364.372 331.626 364.263 332.065 363.961 332.531C363.659 332.997 363.367 333.317 363.248 333.244Z" fill="#FAFAFA"/>
<path d="M363.084 349.431C362.956 349.431 362.773 348.819 362.682 348.024C362.59 347.229 362.618 346.58 362.745 346.561C362.873 346.543 363.056 347.174 363.148 347.969C363.239 348.764 363.212 349.413 363.084 349.431Z" fill="#FAFAFA"/>
</svg>
