<svg width="549" height="300" viewBox="0 0 549 300" fill="none" xmlns="http://www.w3.org/2000/svg">
<path d="M48.751 269.087C47.5174 269.451 44.6777 269.029 44.6777 269.029C44.6777 269.029 45.5056 267.24 45.5884 267.133C46.4163 265.907 48.6268 263.995 50.2081 264.417C50.4687 264.494 50.7102 264.625 50.917 264.801C51.1237 264.977 51.2911 265.195 51.4082 265.44C51.5253 265.685 51.5896 265.952 51.5968 266.224C51.6039 266.496 51.5539 266.766 51.4499 267.017C51.1771 267.537 50.7944 267.991 50.3284 268.349C49.8623 268.706 49.3241 268.958 48.751 269.087Z" fill="#263238"/>
<path d="M22.2087 267.902C22.2087 267.902 21.9272 265.94 21.9272 265.816C21.9272 264.359 22.7551 261.519 24.2702 260.997C24.5307 260.916 24.8056 260.89 25.0769 260.921C25.3481 260.953 25.6096 261.042 25.8441 261.182C26.0787 261.322 26.281 261.51 26.4378 261.733C26.5946 261.957 26.7023 262.211 26.7539 262.479C26.8141 263.065 26.746 263.656 26.5544 264.212C26.3628 264.768 26.0523 265.276 25.6445 265.7C24.8249 266.685 22.2087 267.902 22.2087 267.902Z" fill="#263238"/>
<path d="M16.1405 262.662C17.2259 263.076 18.3673 263.324 19.5266 263.399C19.7832 263.738 20.0399 264.111 20.3545 264.525C20.8429 265.262 21.3894 266.09 21.9275 267.009C22.0682 267.257 22.209 267.538 22.358 267.836C22.0186 267.439 21.5301 266.901 21.5301 266.851C20.5863 266.023 18.2185 264.856 17.0015 265.56C16.7966 265.682 16.6198 265.847 16.4828 266.042C16.3457 266.238 16.2515 266.46 16.2061 266.694C16.1608 266.929 16.1655 267.17 16.2198 267.402C16.2741 267.635 16.3768 267.853 16.5213 268.043C16.8682 268.427 17.2946 268.73 17.7708 268.932C18.2469 269.133 18.7614 269.229 19.2782 269.211C20.4385 269.08 21.5721 268.773 22.6395 268.3C22.9458 268.888 23.2521 269.509 23.5336 270.171C24.0284 271.357 24.4163 272.584 24.6927 273.839H24.6182C24.3532 273.433 23.7903 272.597 23.724 272.539C22.8961 271.57 20.6856 270.188 19.361 270.759C19.1441 270.859 18.9506 271.003 18.7933 271.183C18.636 271.362 18.5183 271.573 18.448 271.801C18.3777 272.029 18.3563 272.27 18.3852 272.507C18.4141 272.744 18.4927 272.972 18.6159 273.176C18.9183 273.595 19.3083 273.942 19.7588 274.193C20.2092 274.445 20.7092 274.595 21.2238 274.633C22.418 274.621 23.6038 274.431 24.7423 274.071C25.0105 275.34 25.1958 276.626 25.297 277.92C25.3715 278.872 25.4129 279.849 25.4461 280.826C25.2722 280.536 24.5188 279.435 24.4526 279.361C23.6247 278.392 21.4142 277.018 20.0896 277.581C19.8726 277.681 19.6792 277.825 19.5219 278.004C19.3645 278.184 19.2469 278.395 19.1765 278.623C19.1062 278.851 19.0848 279.092 19.1138 279.329C19.1427 279.566 19.2213 279.794 19.3444 279.998C19.6464 280.418 20.0362 280.766 20.4866 281.019C20.937 281.272 21.4372 281.424 21.9523 281.464C23.1412 281.452 24.3217 281.262 25.4543 280.901C25.4543 281.348 25.4543 281.787 25.4543 282.234C25.4543 283.682 25.5206 285.14 25.5951 286.572C25.5951 287.069 25.6613 287.557 25.7027 288.045C25.4212 287.623 24.8748 286.862 24.8748 286.804C24.0469 285.835 21.8364 284.452 20.5118 285.024C20.2949 285.123 20.1014 285.268 19.9441 285.447C19.7868 285.627 19.6691 285.838 19.5988 286.066C19.5285 286.294 19.5071 286.534 19.536 286.771C19.5649 287.008 19.6435 287.237 19.7667 287.441C20.0691 287.859 20.4591 288.206 20.9096 288.458C21.36 288.71 21.86 288.86 22.3745 288.898C23.5234 288.9 24.6657 288.724 25.7607 288.377C25.8352 289.205 25.9262 290.032 26.0587 290.786C26.1167 291.125 26.158 291.473 26.2408 291.796C26.3236 292.119 26.3816 292.45 26.4561 292.764C26.6217 293.427 26.779 294.031 26.9528 294.644C27.0439 294.95 27.1267 295.24 27.2178 295.538C26.9942 295.066 26.6382 294.321 26.5968 294.255C25.9097 293.17 23.9476 291.473 22.5484 291.837C22.3171 291.901 22.1023 292.014 21.9189 292.168C21.7355 292.323 21.588 292.516 21.4864 292.733C21.3848 292.95 21.3317 293.187 21.3307 293.427C21.3296 293.667 21.3807 293.904 21.4804 294.122C21.7162 294.589 22.0521 294.998 22.4643 295.32C22.8765 295.642 23.3547 295.869 23.8648 295.985C25.0338 296.161 26.2226 296.161 27.3916 295.985C27.6069 296.705 27.8221 297.417 28.0457 298.071C28.2692 298.725 28.3851 299.114 28.559 299.595H29.5028C29.2875 299.032 29.0722 298.436 28.8487 297.798C28.6252 297.161 28.4265 296.581 28.2195 295.935C29.288 295.525 30.294 294.968 31.2082 294.28C31.8205 294.669 32.4534 295.026 33.1041 295.348C32.8806 296.068 32.6736 296.78 32.4915 297.45C32.3093 298.121 32.1024 298.916 31.9368 299.578H32.864C32.9965 298.974 33.1455 298.345 33.3194 297.666C33.4932 296.987 33.6422 296.416 33.8244 295.761C34.9745 296.026 36.1579 296.115 37.3347 296.026C37.844 295.947 38.33 295.758 38.7589 295.472C39.1878 295.186 39.5493 294.81 39.8184 294.371C39.9234 294.156 39.9823 293.922 39.9911 293.683C39.9999 293.445 39.9585 293.207 39.8695 292.985C39.7805 292.763 39.646 292.563 39.4746 292.397C39.3032 292.23 39.0988 292.102 38.8746 292.019C37.5085 291.564 35.4305 293.12 34.6771 294.155C34.6274 294.222 34.139 295.066 33.8989 295.505C34.0065 295.107 34.1224 294.718 34.2383 294.304C34.4122 293.717 34.6109 293.096 34.8096 292.491C34.9172 292.185 35.0248 291.87 35.1407 291.556C35.2567 291.241 35.3891 290.943 35.5133 290.628C35.7037 290.181 35.9272 289.726 36.1425 289.262C37.2007 289.681 38.3183 289.929 39.4541 289.999C39.9582 289.983 40.4529 289.859 40.9054 289.636C41.358 289.414 41.7579 289.097 42.0785 288.708C42.2176 288.511 42.3135 288.287 42.3597 288.05C42.4059 287.814 42.4015 287.57 42.3468 287.336C42.292 287.101 42.1882 286.881 42.042 286.689C41.8959 286.497 41.7108 286.339 41.499 286.224C40.224 285.57 37.9308 286.787 37.0284 287.698C37.0284 287.698 36.8214 287.938 36.6227 288.194C36.849 287.753 37.0808 287.314 37.3181 286.878C38.0135 285.636 38.7669 284.394 39.512 283.144L39.9674 282.366C41.0427 282.789 42.1761 283.046 43.3287 283.128C43.8455 283.125 44.3555 283.009 44.8231 282.789C45.2907 282.569 45.7046 282.249 46.0359 281.853C46.175 281.656 46.2708 281.432 46.3171 281.195C46.3633 280.959 46.3589 280.715 46.3041 280.481C46.2494 280.246 46.1455 280.026 45.9994 279.834C45.8533 279.642 45.6682 279.484 45.4564 279.369C44.1731 278.715 41.8881 279.932 40.9774 280.843L40.5138 281.414C40.9112 280.735 41.3417 280.048 41.6563 279.353C42.2884 278.165 42.8415 276.937 43.3121 275.677C44.4135 276.128 45.578 276.408 46.7644 276.505C47.2813 276.502 47.7913 276.386 48.2589 276.166C48.7265 275.946 49.1404 275.626 49.4717 275.23C49.6108 275.033 49.7066 274.809 49.7528 274.572C49.7991 274.336 49.7947 274.092 49.7399 273.858C49.6852 273.623 49.5813 273.402 49.4352 273.211C49.289 273.019 49.104 272.861 48.8921 272.746C47.6089 272.092 45.3239 273.317 44.4132 274.22C44.347 274.286 43.5853 275.205 43.3701 275.544C43.7932 274.297 44.1035 273.014 44.2973 271.711C44.4812 270.549 44.5946 269.377 44.6367 268.201C44.6864 267.108 44.6367 266.106 44.6367 265.22C44.6367 264.74 44.5953 264.31 44.5705 263.896C44.5705 263.896 45.1914 262.24 45.2163 262.157C45.5226 260.915 45.3736 258.324 44.1483 257.571C43.9386 257.453 43.7063 257.38 43.4667 257.359C43.2271 257.337 42.9855 257.366 42.758 257.444C42.5305 257.522 42.322 257.648 42.1464 257.812C41.9708 257.977 41.832 258.176 41.7391 258.398C41.5736 258.888 41.5168 259.407 41.5726 259.92C41.6283 260.433 41.7954 260.928 42.062 261.371C42.7339 262.319 43.5495 263.157 44.4794 263.854C44.4794 264.276 44.4794 264.732 44.5208 265.237C44.5208 266.114 44.5208 267.116 44.4463 268.201C44.4463 268.49 44.3967 268.797 44.3635 269.103C44.3056 268.582 44.2145 267.878 44.198 267.812C43.8916 266.561 42.5422 264.334 41.1264 264.235C40.8884 264.225 40.6509 264.266 40.4293 264.353C40.2078 264.441 40.0071 264.574 39.8402 264.744C39.6733 264.914 39.5438 265.118 39.4602 265.341C39.3766 265.564 39.3407 265.802 39.3547 266.04C39.434 266.549 39.6231 267.035 39.909 267.464C40.195 267.893 40.5708 268.255 41.0105 268.524C42.0523 269.054 43.1691 269.423 44.3221 269.616C44.2559 270.279 44.1648 270.966 44.0324 271.67C43.81 272.955 43.4748 274.218 43.0306 275.445H42.9478C42.9478 274.956 42.9478 273.938 42.9478 273.855C42.774 272.589 41.706 270.221 40.2903 269.964C40.0541 269.929 39.8133 269.944 39.5832 270.008C39.3531 270.071 39.1388 270.182 38.9541 270.333C38.7693 270.485 38.6182 270.673 38.5105 270.886C38.4027 271.099 38.3406 271.332 38.3282 271.57C38.3512 272.086 38.486 272.591 38.7233 273.05C38.9606 273.509 39.2947 273.911 39.7025 274.228C40.704 274.879 41.7981 275.376 42.9478 275.701C42.4707 276.905 41.9176 278.078 41.292 279.212C40.8367 280.04 40.3317 280.868 39.8184 281.695C39.8184 281.356 39.8184 280.04 39.8184 279.932C39.6528 278.657 38.5765 276.298 37.1608 276.041C36.924 275.998 36.6805 276.006 36.4474 276.067C36.2143 276.127 35.9972 276.238 35.8112 276.391C35.6251 276.543 35.4747 276.735 35.3704 276.952C35.266 277.169 35.2103 277.406 35.207 277.647C35.2278 278.164 35.3617 278.669 35.5991 279.128C35.8366 279.588 36.1718 279.989 36.5813 280.305C37.5758 280.951 38.6613 281.445 39.8018 281.77L39.1064 282.896C38.3364 284.129 37.5582 285.38 36.8297 286.597C36.573 287.027 36.3412 287.425 36.1011 287.888C36.1011 287.375 36.1011 286.448 36.1011 286.373C35.9355 285.098 34.8593 282.739 33.4436 282.482C33.2067 282.439 32.9632 282.447 32.7301 282.508C32.497 282.568 32.2799 282.679 32.0939 282.832C31.9079 282.985 31.7575 283.176 31.6531 283.393C31.5488 283.61 31.493 283.847 31.4897 284.088C31.5112 284.604 31.6445 285.108 31.8804 285.567C32.1163 286.026 32.4491 286.428 32.8557 286.746C33.8139 287.378 34.8639 287.858 35.9686 288.17C35.5795 288.898 35.2153 289.618 34.8841 290.347C34.7516 290.662 34.5943 290.976 34.4784 291.291C34.3625 291.605 34.2466 291.912 34.1224 292.218C33.9072 292.864 33.7002 293.46 33.5098 294.056C33.4104 294.362 33.3276 294.652 33.2366 294.95C33.3111 294.429 33.4187 293.609 33.4187 293.534C33.4187 292.251 32.7481 289.759 31.3904 289.287C31.162 289.215 30.921 289.192 30.683 289.219C30.4451 289.247 30.2156 289.324 30.0094 289.445C29.8032 289.567 29.625 289.731 29.4863 289.926C29.3477 290.122 29.2517 290.344 29.2047 290.579C29.18 290.702 29.1634 290.826 29.155 290.951C28.5042 291.891 28.1078 292.984 28.0043 294.122C28.0043 294.197 28.0539 295.174 28.1036 295.67C27.9711 295.281 27.847 294.892 27.7228 294.487C27.5406 293.89 27.3668 293.27 27.1929 292.657C27.1184 292.342 27.0356 292.019 26.9611 291.696C26.8866 291.374 26.8286 291.042 26.7624 290.72C26.6713 290.231 26.6051 289.734 26.5306 289.229C27.6313 288.991 28.6875 288.58 29.6601 288.012C30.0905 287.725 30.4529 287.348 30.7218 286.906C30.9907 286.464 31.1595 285.968 31.2165 285.454C31.229 285.214 31.1888 284.973 31.0988 284.75C31.0087 284.526 30.871 284.325 30.6952 284.16C30.5194 283.995 30.3098 283.871 30.081 283.796C29.8521 283.72 29.6096 283.696 29.3703 283.724C27.9463 283.881 26.7127 286.158 26.4561 287.416C26.4561 287.458 26.4561 287.731 26.3899 288.054C26.3402 287.557 26.2822 287.069 26.2491 286.572C26.1415 285.148 26.0835 283.699 26.0173 282.25L25.9676 281.339C27.097 281.105 28.1833 280.697 29.1882 280.131C29.62 279.843 29.9837 279.464 30.254 279.02C30.5242 278.577 30.6945 278.08 30.7529 277.564C30.7583 277.325 30.7135 277.088 30.6212 276.867C30.5289 276.646 30.3912 276.448 30.2171 276.284C30.043 276.12 29.8363 275.994 29.6106 275.915C29.3848 275.836 29.145 275.806 28.9067 275.826C27.4827 275.983 26.2491 278.268 25.9925 279.526C25.9925 279.568 25.9925 279.891 25.918 280.255C25.8683 279.468 25.8103 278.682 25.7275 277.904C25.5983 276.568 25.377 275.243 25.0652 273.938C26.2247 273.695 27.3411 273.28 28.3768 272.704C28.8046 272.415 29.1645 272.037 29.4318 271.595C29.6991 271.154 29.8674 270.659 29.925 270.146C29.9316 269.908 29.8879 269.67 29.7965 269.45C29.7051 269.229 29.5682 269.03 29.3948 268.866C29.2213 268.702 29.0152 268.576 28.7898 268.497C28.5645 268.418 28.325 268.388 28.087 268.408C26.6548 268.565 25.4212 270.85 25.1646 272.108C25.1646 272.199 25.0404 273.367 25.0238 273.764C25.0238 273.764 25.0238 273.764 25.0238 273.723C24.6914 272.446 24.2453 271.202 23.6909 270.006C23.2018 268.936 22.6489 267.896 22.0351 266.893C21.4804 265.957 20.9092 265.129 20.3793 264.409C20.0978 264.012 19.8412 263.664 19.5928 263.333C19.5928 263.333 19.2203 261.635 19.1789 261.528C18.7484 260.319 17.1919 258.216 15.7514 258.299C15.5132 258.314 15.2808 258.379 15.0695 258.49C14.8582 258.601 14.6726 258.755 14.5249 258.943C14.3773 259.13 14.2708 259.347 14.2125 259.578C14.1542 259.81 14.1454 260.051 14.1866 260.286C14.3128 260.803 14.554 261.286 14.8923 261.697C15.2305 262.109 15.6572 262.438 16.1405 262.662Z" fill="#263238"/>
<path d="M513.269 282.084C512.492 282.203 511.702 282.203 510.926 282.084C510.926 282.084 511.414 281.058 511.456 281C511.903 280.296 513.194 279.195 514.105 279.435C514.247 279.482 514.378 279.556 514.491 279.654C514.604 279.752 514.696 279.872 514.761 280.007C514.827 280.141 514.865 280.287 514.873 280.436C514.881 280.585 514.859 280.735 514.809 280.876C514.655 281.177 514.438 281.441 514.172 281.65C513.906 281.858 513.598 282.007 513.269 282.084Z" fill="#263238"/>
<path d="M498.051 281.405C498.051 281.405 497.886 280.279 497.886 280.213C497.886 279.385 498.341 277.729 499.235 277.448C499.383 277.402 499.538 277.387 499.691 277.405C499.845 277.422 499.993 277.471 500.126 277.549C500.259 277.627 500.375 277.732 500.465 277.857C500.555 277.982 500.619 278.125 500.651 278.276C500.686 278.611 500.647 278.951 500.537 279.27C500.427 279.589 500.248 279.88 500.013 280.122C499.427 280.645 498.766 281.078 498.051 281.405Z" fill="#263238"/>
<path d="M494.557 278.392C495.182 278.626 495.838 278.769 496.503 278.815C496.644 279.005 496.801 279.22 496.958 279.46C497.24 279.883 497.555 280.363 497.861 280.901L498.109 281.356L497.621 280.793C497.074 280.296 495.741 279.651 495.021 280.056C494.903 280.126 494.802 280.22 494.723 280.333C494.644 280.445 494.59 280.572 494.564 280.707C494.538 280.842 494.541 280.98 494.573 281.113C494.605 281.247 494.664 281.372 494.748 281.48C494.947 281.701 495.191 281.875 495.464 281.991C495.738 282.106 496.033 282.161 496.329 282.151C496.992 282.072 497.64 281.894 498.25 281.621C498.439 281.971 498.61 282.33 498.763 282.697C499.067 283.383 499.309 284.095 499.483 284.825H499.434C499.285 284.593 498.954 284.113 498.921 284.072C498.44 283.517 497.182 282.731 496.437 283.053C496.312 283.111 496.2 283.194 496.11 283.297C496.019 283.4 495.951 283.521 495.911 283.653C495.87 283.784 495.858 283.922 495.874 284.059C495.891 284.195 495.936 284.326 496.006 284.444C496.181 284.683 496.406 284.88 496.664 285.023C496.923 285.166 497.21 285.251 497.505 285.272C498.191 285.267 498.872 285.158 499.525 284.949C499.677 285.676 499.782 286.411 499.839 287.151C499.889 287.706 499.914 288.261 499.931 288.807L499.359 287.979C498.871 287.416 497.612 286.63 496.876 286.953C496.751 287.01 496.639 287.093 496.549 287.196C496.458 287.3 496.39 287.421 496.349 287.552C496.309 287.683 496.296 287.822 496.313 287.958C496.329 288.094 496.374 288.226 496.445 288.344C496.62 288.582 496.844 288.78 497.103 288.923C497.362 289.066 497.649 289.151 497.944 289.172C498.624 289.167 499.3 289.059 499.947 288.849V289.619C499.947 290.447 499.989 291.274 500.03 292.102C500.03 292.392 500.03 292.674 500.088 292.93C499.931 292.69 499.624 292.251 499.599 292.218C499.111 291.664 497.853 290.869 497.116 291.2C496.991 291.256 496.879 291.338 496.789 291.441C496.698 291.544 496.631 291.664 496.591 291.795C496.551 291.926 496.539 292.064 496.557 292.2C496.575 292.336 496.621 292.466 496.693 292.583C496.867 292.822 497.091 293.021 497.35 293.164C497.609 293.307 497.897 293.391 498.192 293.41C498.85 293.415 499.504 293.315 500.129 293.112C500.129 293.584 500.22 294.04 500.295 294.495C500.336 294.694 500.361 294.892 500.402 295.074L500.527 295.629C500.626 296.01 500.717 296.358 500.816 296.705C500.866 296.888 500.916 297.053 500.965 297.219C500.841 296.946 500.634 296.523 500.609 296.482C500.212 295.861 499.086 294.892 498.291 295.099C498.159 295.137 498.037 295.202 497.931 295.29C497.826 295.378 497.741 295.488 497.68 295.611C497.62 295.734 497.587 295.869 497.582 296.006C497.578 296.144 497.602 296.28 497.654 296.407C497.789 296.672 497.981 296.903 498.215 297.085C498.45 297.266 498.722 297.394 499.012 297.459C499.681 297.557 500.362 297.557 501.032 297.459C501.156 297.873 501.28 298.287 501.404 298.659C501.528 299.032 501.603 299.255 501.702 299.487H502.24C502.124 299.164 501.992 298.825 501.868 298.461C501.744 298.096 501.628 297.757 501.504 297.384C502.118 297.153 502.697 296.838 503.226 296.449C503.576 296.672 503.938 296.876 504.31 297.061C504.186 297.475 504.062 297.889 503.962 298.262C503.863 298.634 503.731 299.09 503.64 299.487H504.169C504.244 299.139 504.335 298.783 504.434 298.386C504.534 297.989 504.616 297.674 504.724 297.293C505.383 297.447 506.061 297.5 506.736 297.451C507.028 297.403 507.307 297.292 507.553 297.126C507.799 296.961 508.006 296.744 508.16 296.49C508.221 296.367 508.255 296.233 508.26 296.096C508.266 295.959 508.242 295.823 508.191 295.696C508.141 295.568 508.064 295.453 507.966 295.358C507.867 295.262 507.75 295.188 507.622 295.141C506.835 294.884 505.643 295.77 505.213 296.366C505.213 296.407 504.898 296.888 504.765 297.144C504.832 296.912 504.89 296.689 504.964 296.457C505.039 296.225 505.171 295.762 505.287 295.414C505.345 295.232 505.411 295.058 505.477 294.876C505.544 294.694 505.618 294.528 505.693 294.346C505.767 294.164 505.925 293.824 506.057 293.559C506.654 293.799 507.286 293.941 507.928 293.982C508.225 293.979 508.517 293.913 508.786 293.787C509.054 293.662 509.293 293.479 509.484 293.253C509.561 293.14 509.614 293.012 509.638 292.877C509.663 292.742 509.659 292.604 509.627 292.47C509.595 292.337 509.536 292.212 509.453 292.103C509.37 291.994 509.265 291.904 509.145 291.837C508.416 291.465 507.1 292.16 506.579 292.665L506.347 292.947C506.479 292.698 506.612 292.442 506.752 292.193C507.15 291.481 507.58 290.769 508.011 290.057L508.267 289.602C508.884 289.848 509.535 289.996 510.196 290.041C510.493 290.04 510.786 289.975 511.055 289.849C511.324 289.723 511.562 289.54 511.753 289.312C511.83 289.199 511.883 289.072 511.908 288.937C511.933 288.803 511.93 288.665 511.899 288.531C511.868 288.398 511.81 288.273 511.727 288.164C511.645 288.054 511.541 287.963 511.422 287.897C510.685 287.524 509.369 288.219 508.847 288.725L508.582 289.056C508.814 288.658 509.029 288.269 509.236 287.872C509.598 287.19 509.914 286.485 510.18 285.761C510.812 286.015 511.479 286.171 512.159 286.224C512.454 286.222 512.746 286.156 513.013 286.03C513.28 285.905 513.517 285.722 513.707 285.496C513.787 285.384 513.842 285.256 513.868 285.121C513.895 284.986 513.892 284.847 513.861 284.713C513.83 284.579 513.77 284.453 513.687 284.344C513.603 284.235 513.497 284.145 513.376 284.08C512.647 283.699 511.331 284.403 510.809 284.908C510.809 284.908 510.354 285.471 510.213 285.661C510.453 284.947 510.63 284.213 510.743 283.467C510.846 282.801 510.912 282.129 510.942 281.456C510.942 280.826 510.942 280.255 510.942 279.742C510.942 279.469 510.942 279.22 510.942 278.988C510.942 278.988 511.306 278.053 511.314 277.995C511.488 277.275 511.405 275.793 510.701 275.362C510.582 275.295 510.45 275.253 510.314 275.24C510.177 275.227 510.04 275.242 509.91 275.285C509.78 275.328 509.66 275.397 509.558 275.489C509.456 275.581 509.375 275.693 509.319 275.818C509.225 276.099 509.193 276.397 509.226 276.691C509.259 276.986 509.355 277.27 509.509 277.523C509.895 278.066 510.361 278.546 510.892 278.947C510.892 279.19 510.892 279.466 510.892 279.775C510.892 280.28 510.892 280.851 510.892 281.472L510.842 281.985C510.842 281.696 510.759 281.29 510.751 281.249C510.569 280.537 509.807 279.253 508.988 279.195C508.85 279.189 508.713 279.212 508.585 279.263C508.457 279.313 508.341 279.39 508.245 279.489C508.149 279.587 508.075 279.705 508.027 279.834C507.98 279.963 507.96 280.101 507.969 280.239C508.016 280.53 508.126 280.809 508.29 281.055C508.454 281.3 508.67 281.508 508.922 281.663C509.518 281.967 510.157 282.179 510.817 282.292C510.776 282.673 510.726 283.062 510.652 283.467C510.528 284.206 510.337 284.932 510.081 285.636H510.031C510.031 285.355 510.031 284.809 510.031 284.726C509.932 283.997 509.319 282.639 508.508 282.499C508.372 282.478 508.234 282.485 508.101 282.521C507.969 282.557 507.846 282.621 507.74 282.707C507.634 282.794 507.547 282.902 507.485 283.024C507.423 283.147 507.388 283.281 507.382 283.418C507.401 283.716 507.485 284.007 507.628 284.27C507.771 284.533 507.97 284.762 508.21 284.941C508.787 285.306 509.414 285.585 510.072 285.769C509.799 286.46 509.481 287.132 509.12 287.781C508.855 288.269 508.574 288.741 508.292 289.221C508.292 289.031 508.292 288.261 508.292 288.211C508.201 287.474 507.58 286.125 506.769 285.976C506.634 285.956 506.497 285.965 506.365 286.001C506.234 286.038 506.112 286.101 506.007 286.188C505.901 286.274 505.815 286.382 505.754 286.504C505.693 286.626 505.658 286.759 505.651 286.895C505.667 287.194 505.75 287.487 505.893 287.75C506.036 288.014 506.236 288.242 506.479 288.418C507.05 288.785 507.672 289.064 508.325 289.246L507.928 289.892C507.481 290.604 507.034 291.308 506.62 292.02C506.471 292.26 506.338 292.508 506.206 292.756C506.206 292.467 506.206 291.928 506.206 291.887C506.107 291.159 505.494 289.801 504.683 289.652C504.547 289.632 504.408 289.641 504.276 289.678C504.144 289.715 504.021 289.779 503.914 289.866C503.808 289.953 503.722 290.062 503.66 290.185C503.599 290.308 503.563 290.442 503.557 290.579C503.576 290.878 503.661 291.169 503.804 291.432C503.946 291.695 504.145 291.923 504.385 292.102C504.936 292.467 505.539 292.746 506.173 292.93C505.949 293.344 505.734 293.758 505.552 294.172C505.464 294.35 505.387 294.532 505.32 294.718C505.246 294.901 505.179 295.074 505.113 295.248C504.989 295.621 504.865 295.96 504.757 296.308C504.708 296.482 504.658 296.647 504.6 296.813C504.65 296.515 504.708 296.051 504.708 295.985C504.708 295.257 504.318 293.824 503.54 293.551C503.41 293.51 503.272 293.497 503.136 293.513C503 293.528 502.869 293.572 502.751 293.642C502.633 293.711 502.531 293.804 502.452 293.916C502.373 294.027 502.317 294.154 502.29 294.288C502.282 294.36 502.282 294.432 502.29 294.503C501.924 295.04 501.702 295.661 501.644 296.308C501.644 296.358 501.644 296.912 501.702 297.202C501.636 296.979 501.561 296.755 501.487 296.515L501.189 295.472L501.048 294.917C500.999 294.727 500.974 294.545 500.932 294.354C500.891 294.164 500.85 293.791 500.808 293.526C501.439 293.394 502.045 293.165 502.605 292.847C502.849 292.681 503.055 292.464 503.208 292.211C503.361 291.959 503.457 291.676 503.491 291.382C503.494 291.245 503.469 291.109 503.417 290.982C503.365 290.856 503.287 290.742 503.188 290.647C503.089 290.553 502.971 290.48 502.842 290.434C502.713 290.388 502.576 290.37 502.439 290.38C501.611 290.471 500.907 291.779 500.783 292.5C500.783 292.5 500.783 292.682 500.783 292.864C500.783 292.583 500.725 292.301 500.701 292.036C500.643 291.208 500.609 290.38 500.568 289.552V289.031C501.216 288.899 501.84 288.664 502.414 288.335C502.66 288.171 502.867 287.954 503.02 287.701C503.173 287.448 503.269 287.164 503.3 286.87C503.304 286.733 503.279 286.598 503.227 286.471C503.175 286.345 503.096 286.231 502.997 286.138C502.898 286.044 502.78 285.972 502.651 285.927C502.522 285.882 502.385 285.865 502.249 285.877C501.421 285.968 500.717 287.276 500.593 287.996C500.593 287.996 500.593 288.211 500.593 288.418C500.593 287.963 500.527 287.516 500.485 287.069C500.407 286.302 500.28 285.542 500.104 284.792C500.612 284.648 501.101 284.445 501.562 284.188C501.807 284.022 502.015 283.806 502.169 283.553C502.323 283.3 502.421 283.017 502.456 282.722C502.458 282.585 502.432 282.449 502.379 282.323C502.326 282.197 502.247 282.083 502.147 281.989C502.047 281.896 501.929 281.824 501.799 281.779C501.67 281.734 501.532 281.717 501.396 281.729C500.568 281.82 499.864 283.128 499.74 283.848C499.74 283.898 499.666 284.577 499.657 284.817C499.465 284.086 499.207 283.374 498.887 282.689C498.609 282.078 498.293 281.483 497.944 280.909C497.621 280.371 497.298 279.891 497 279.477L496.553 278.864C496.553 278.864 496.337 277.896 496.313 277.829C496.064 277.142 495.17 275.95 494.35 275.975C494.214 275.985 494.081 276.023 493.96 276.087C493.838 276.151 493.732 276.239 493.647 276.347C493.562 276.454 493.501 276.579 493.466 276.711C493.432 276.844 493.426 276.982 493.448 277.117C493.532 277.396 493.674 277.654 493.866 277.874C494.057 278.094 494.293 278.271 494.557 278.392Z" fill="#263238"/>
<path d="M539.802 268.018C538.535 268.399 535.588 267.96 535.588 267.96C535.588 267.96 536.465 266.106 536.532 265.998C537.36 264.723 539.678 262.745 541.317 263.183C541.586 263.264 541.835 263.4 542.048 263.583C542.261 263.766 542.434 263.991 542.555 264.244C542.676 264.498 542.742 264.774 542.75 265.054C542.758 265.335 542.707 265.614 542.6 265.874C542.32 266.415 541.924 266.888 541.441 267.259C540.957 267.63 540.397 267.889 539.802 268.018Z" fill="#263238"/>
<path d="M512.325 266.802C512.325 266.802 512.035 264.773 512.035 264.641C512.035 263.126 512.863 260.195 514.461 259.673C514.73 259.59 515.013 259.565 515.292 259.598C515.571 259.632 515.84 259.724 516.082 259.869C516.323 260.013 516.531 260.207 516.693 260.437C516.854 260.667 516.965 260.929 517.019 261.205C517.077 261.807 517.005 262.413 516.807 262.985C516.61 263.556 516.293 264.078 515.877 264.517C515.049 265.527 512.325 266.802 512.325 266.802Z" fill="#263238"/>
<path d="M506.057 261.337C507.179 261.768 508.36 262.023 509.559 262.091L510.387 263.258C510.892 264.02 511.464 264.914 512.043 265.866C512.192 266.123 512.341 266.412 512.49 266.694C512.142 266.288 511.662 265.725 511.604 265.675C510.627 264.773 508.21 263.614 506.918 264.343C506.706 264.469 506.522 264.639 506.38 264.842C506.237 265.045 506.139 265.275 506.092 265.518C506.045 265.762 506.051 266.012 506.107 266.253C506.164 266.494 506.271 266.721 506.422 266.917C506.782 267.313 507.224 267.626 507.717 267.833C508.21 268.041 508.743 268.138 509.278 268.118C510.479 267.986 511.652 267.668 512.755 267.174C513.07 267.787 513.384 268.424 513.682 269.111C514.219 270.35 514.648 271.632 514.966 272.944H514.891L513.964 271.595C513.086 270.593 510.818 269.169 509.444 269.757C509.222 269.86 509.024 270.009 508.863 270.194C508.701 270.378 508.581 270.594 508.508 270.828C508.436 271.062 508.413 271.309 508.441 271.552C508.47 271.795 508.549 272.03 508.674 272.241C508.987 272.674 509.39 273.034 509.856 273.295C510.322 273.557 510.84 273.714 511.372 273.756C512.609 273.743 513.837 273.545 515.015 273.168C515.292 274.481 515.483 275.812 515.587 277.15C515.669 278.144 515.711 279.145 515.744 280.155C515.562 279.857 514.783 278.723 514.717 278.649C513.84 277.647 511.571 276.215 510.197 276.802C509.976 276.907 509.779 277.056 509.618 277.241C509.458 277.425 509.338 277.641 509.265 277.875C509.193 278.108 509.17 278.355 509.198 278.597C509.226 278.84 509.304 279.075 509.427 279.286C509.74 279.718 510.144 280.077 510.61 280.337C511.076 280.597 511.594 280.753 512.126 280.793C513.357 280.782 514.579 280.587 515.752 280.213C515.752 280.677 515.752 281.132 515.752 281.596C515.752 283.094 515.818 284.601 515.893 286.083C515.893 286.596 515.967 287.11 516.009 287.615C515.719 287.176 515.181 286.381 515.123 286.323C514.245 285.321 511.977 283.889 510.603 284.477C510.381 284.581 510.184 284.731 510.024 284.915C509.864 285.1 509.744 285.316 509.671 285.549C509.599 285.783 509.576 286.029 509.603 286.272C509.631 286.515 509.709 286.75 509.833 286.961C510.146 287.393 510.55 287.751 511.016 288.012C511.482 288.272 511.999 288.427 512.532 288.468C513.72 288.47 514.901 288.288 516.034 287.929C516.116 288.757 516.207 289.585 516.34 290.413C516.406 290.761 516.448 291.125 516.53 291.456L516.754 292.466C516.928 293.145 517.093 293.774 517.275 294.404C517.358 294.718 517.449 295.016 517.54 295.331C517.317 294.842 516.944 294.072 516.895 294.006C516.191 292.88 514.154 291.125 512.755 291.522C512.518 291.591 512.297 291.709 512.108 291.869C511.919 292.028 511.766 292.225 511.658 292.448C511.551 292.67 511.491 292.913 511.483 293.16C511.475 293.407 511.519 293.653 511.613 293.882C511.857 294.358 512.202 294.774 512.624 295.103C513.046 295.432 513.534 295.665 514.055 295.786C515.265 295.971 516.496 295.971 517.706 295.786C517.929 296.54 518.153 297.276 518.377 297.955C518.6 298.634 518.741 299.031 518.915 299.528H519.892C519.676 298.949 519.445 298.328 519.213 297.665C518.981 297.003 518.782 296.407 518.559 295.736C519.662 295.329 520.704 294.772 521.655 294.081C522.288 294.483 522.943 294.851 523.617 295.182C523.394 295.927 523.178 296.664 522.988 297.359C522.798 298.055 522.582 298.874 522.408 299.561H523.369C523.51 298.94 523.658 298.286 523.841 297.583C524.023 296.879 524.172 296.291 524.362 295.612C525.553 295.885 526.778 295.977 527.997 295.885C528.525 295.798 529.028 295.599 529.472 295.3C529.917 295.002 530.291 294.611 530.571 294.155C530.679 293.932 530.739 293.69 530.747 293.442C530.755 293.195 530.711 292.949 530.618 292.72C530.526 292.49 530.386 292.283 530.208 292.111C530.03 291.939 529.818 291.806 529.586 291.721C528.179 291.249 526.026 292.855 525.24 293.932C525.19 293.998 524.685 294.875 524.412 295.331C524.528 294.917 524.644 294.503 524.768 294.089C524.95 293.476 525.157 292.831 525.356 292.21L525.703 291.241C525.811 290.91 525.96 290.612 526.084 290.289C526.283 289.817 526.515 289.345 526.738 288.873C527.822 289.297 528.964 289.554 530.124 289.635C530.659 289.631 531.186 289.51 531.67 289.281C532.153 289.053 532.581 288.721 532.923 288.31C533.065 288.108 533.163 287.878 533.21 287.635C533.257 287.392 533.252 287.143 533.196 286.902C533.139 286.661 533.033 286.435 532.883 286.238C532.733 286.041 532.544 285.879 532.327 285.76C531.002 285.081 528.634 286.34 527.699 287.284C527.699 287.284 527.483 287.532 527.276 287.797C527.517 287.342 527.748 286.886 528.005 286.431C528.725 285.148 529.495 283.864 530.265 282.573C530.431 282.3 530.58 282.026 530.745 281.745C531.854 282.192 533.023 282.471 534.214 282.573C534.75 282.57 535.279 282.449 535.764 282.22C536.249 281.992 536.678 281.66 537.021 281.248C537.162 281.046 537.258 280.815 537.305 280.573C537.351 280.331 537.346 280.081 537.29 279.841C537.233 279.6 537.127 279.374 536.978 279.178C536.829 278.981 536.641 278.818 536.425 278.698C535.1 278.019 532.732 279.278 531.788 280.222L531.308 280.809C531.714 280.106 532.136 279.394 532.492 278.673C533.127 277.445 533.68 276.175 534.148 274.873C535.292 275.328 536.497 275.607 537.724 275.701C538.259 275.697 538.787 275.577 539.27 275.348C539.753 275.119 540.181 274.788 540.523 274.377C540.665 274.174 540.763 273.944 540.81 273.702C540.857 273.459 540.852 273.209 540.796 272.968C540.739 272.727 540.633 272.501 540.483 272.305C540.333 272.108 540.144 271.945 539.927 271.827C538.602 271.148 536.234 272.406 535.29 273.35C535.224 273.416 534.463 274.368 534.206 274.724C534.21 274.708 534.21 274.691 534.206 274.675C534.647 273.384 534.971 272.057 535.175 270.709C535.361 269.505 535.477 268.292 535.522 267.075C535.58 265.949 535.522 264.914 535.522 263.995C535.522 263.498 535.481 263.043 535.456 262.621C535.456 262.621 536.102 260.965 536.127 260.832C536.441 259.541 536.284 256.858 535.017 256.088C534.802 255.967 534.565 255.892 534.319 255.868C534.073 255.844 533.826 255.872 533.591 255.95C533.357 256.028 533.142 256.155 532.96 256.321C532.778 256.487 532.632 256.69 532.534 256.916C532.361 257.421 532.302 257.958 532.359 258.489C532.416 259.019 532.589 259.531 532.865 259.988C533.553 260.968 534.391 261.834 535.348 262.554C535.348 263.001 535.348 263.465 535.39 263.987C535.39 264.906 535.39 265.932 535.307 267.058C535.307 267.356 535.257 267.679 535.233 267.985C535.166 267.455 535.067 266.719 535.05 266.652C534.736 265.361 533.395 263.059 531.88 262.952C531.633 262.942 531.387 262.984 531.157 263.075C530.928 263.166 530.72 263.304 530.547 263.48C530.373 263.657 530.239 263.867 530.152 264.098C530.065 264.329 530.028 264.576 530.042 264.823C530.124 265.352 530.319 265.856 530.615 266.302C530.911 266.748 531.3 267.125 531.755 267.406C532.835 267.951 533.99 268.331 535.183 268.532C535.108 269.219 535.017 269.931 534.885 270.659C534.656 271.991 534.307 273.299 533.842 274.567H533.759C533.759 274.07 533.759 273.019 533.759 272.911C533.585 271.595 532.467 269.153 531.01 268.888C530.766 268.85 530.517 268.865 530.279 268.929C530.041 268.994 529.819 269.109 529.628 269.265C529.437 269.421 529.281 269.615 529.169 269.836C529.058 270.056 528.994 270.297 528.982 270.543C529.006 271.077 529.145 271.598 529.389 272.073C529.633 272.547 529.977 272.963 530.398 273.292C531.436 273.964 532.569 274.478 533.759 274.815C533.263 276.062 532.688 277.276 532.037 278.45C531.565 279.278 531.043 280.189 530.513 281.05C530.513 280.694 530.513 279.311 530.513 279.212C530.34 277.895 529.23 275.453 527.765 275.188C527.521 275.151 527.272 275.165 527.034 275.23C526.796 275.295 526.574 275.409 526.383 275.565C526.191 275.721 526.035 275.916 525.924 276.136C525.813 276.356 525.749 276.597 525.737 276.844C525.759 277.377 525.898 277.899 526.142 278.374C526.387 278.848 526.731 279.264 527.152 279.592C528.173 280.262 529.29 280.773 530.464 281.107C530.224 281.497 529.984 281.894 529.735 282.283C528.907 283.558 528.137 284.825 527.384 286.108C527.119 286.555 526.879 287.002 526.631 287.441C526.631 286.919 526.631 285.959 526.631 285.876C526.457 284.56 525.347 282.118 523.882 281.853C523.638 281.814 523.388 281.827 523.15 281.892C522.911 281.956 522.689 282.07 522.497 282.226C522.306 282.383 522.149 282.578 522.038 282.799C521.928 283.02 521.865 283.261 521.854 283.508C521.876 284.043 522.015 284.566 522.259 285.042C522.503 285.518 522.848 285.935 523.269 286.265C524.261 286.919 525.347 287.416 526.49 287.739C526.093 288.484 525.712 289.237 525.372 289.991C525.232 290.322 525.066 290.645 524.95 290.968C524.834 291.291 524.71 291.614 524.586 291.928C524.354 292.59 524.139 293.211 523.948 293.832C523.841 294.147 523.758 294.445 523.659 294.751C523.741 294.221 523.857 293.369 523.857 293.294C523.857 291.961 523.153 289.378 521.746 288.898C521.511 288.823 521.262 288.799 521.017 288.827C520.771 288.855 520.535 288.935 520.322 289.061C520.109 289.187 519.926 289.356 519.783 289.558C519.641 289.759 519.542 289.989 519.494 290.231C519.461 290.358 519.444 290.489 519.444 290.62C518.786 291.585 518.387 292.702 518.285 293.865C518.285 293.956 518.343 294.967 518.393 295.48C518.261 295.074 518.128 294.652 518.004 294.246C517.814 293.634 517.631 292.988 517.449 292.359C517.375 292.027 517.292 291.696 517.209 291.357C517.126 291.017 517.077 290.686 517.002 290.347C516.911 289.85 516.837 289.328 516.77 288.807C517.906 288.565 518.998 288.149 520.008 287.573C520.451 287.276 520.824 286.885 521.101 286.429C521.378 285.973 521.553 285.463 521.614 284.932C521.62 284.685 521.575 284.439 521.48 284.21C521.385 283.982 521.244 283.776 521.064 283.605C520.884 283.435 520.671 283.305 520.438 283.222C520.204 283.14 519.956 283.108 519.709 283.128C518.227 283.293 516.953 285.653 516.688 286.961C516.688 287.002 516.688 287.284 516.621 287.615C516.563 287.101 516.514 286.596 516.472 286.083C516.365 284.609 516.298 283.111 516.232 281.604L516.183 280.669C517.345 280.423 518.462 279.999 519.494 279.41C519.938 279.114 520.312 278.723 520.589 278.267C520.866 277.811 521.041 277.3 521.1 276.769C521.107 276.522 521.062 276.277 520.967 276.048C520.872 275.82 520.73 275.614 520.55 275.445C520.371 275.275 520.157 275.146 519.924 275.064C519.69 274.983 519.442 274.952 519.196 274.973C517.714 275.13 516.439 277.456 516.174 278.798C516.174 278.839 516.174 279.178 516.1 279.551C516.05 278.723 515.992 277.895 515.901 277.117C515.766 275.737 515.54 274.368 515.222 273.019C516.426 272.767 517.584 272.335 518.658 271.736C519.101 271.438 519.474 271.048 519.751 270.592C520.029 270.136 520.204 269.625 520.264 269.095C520.271 268.847 520.225 268.601 520.13 268.373C520.036 268.144 519.894 267.938 519.714 267.768C519.535 267.597 519.321 267.467 519.088 267.385C518.855 267.302 518.607 267.27 518.36 267.29C516.878 267.455 515.603 269.815 515.338 271.123C515.338 271.214 515.214 272.423 515.189 272.862C515.189 272.862 515.189 272.862 515.189 272.812C514.849 271.491 514.386 270.205 513.807 268.97C513.3 267.864 512.727 266.788 512.093 265.75C511.521 264.781 510.934 263.929 510.437 263.175C510.147 262.77 509.882 262.405 509.609 262.066C509.609 262.066 509.22 260.302 509.179 260.195C508.723 258.945 507.117 256.8 505.627 256.883C505.378 256.895 505.134 256.959 504.912 257.072C504.69 257.185 504.494 257.344 504.338 257.538C504.181 257.732 504.068 257.957 504.004 258.198C503.941 258.439 503.93 258.691 503.971 258.936C504.117 259.467 504.381 259.958 504.742 260.374C505.103 260.789 505.552 261.118 506.057 261.337Z" fill="#263238"/>
<path d="M547.609 299.172H2.5874V300H547.609V299.172Z" fill="#263238"/>
<path d="M283.66 44.8334H118.03C117.953 44.8336 117.877 44.8119 117.811 44.7709C117.745 44.73 117.692 44.6713 117.658 44.6016C117.625 44.531 117.612 44.4527 117.621 44.3752C117.63 44.2978 117.66 44.2243 117.708 44.1628L121.085 39.9405C123.23 37.2664 126.574 38.2848 129.522 39.2286C131.558 39.8578 133.479 40.4621 134.746 39.8246C136.302 39.0464 137.527 37.0346 138.943 34.7082C140.458 32.2245 142.18 29.3931 144.805 27.2075C147.678 24.8066 152.877 27.5883 157.902 30.279C162.265 32.6136 166.785 35.0311 169.418 33.9052C171.902 32.8537 172.614 31.2145 173.475 29.3186C174.609 26.8349 175.892 24.0201 181.265 22.0662C185.529 20.5098 189.826 22.3974 193.609 24.0697C198.353 26.156 202.46 27.9609 205.564 23.0763C207.044 20.5995 208.3 17.995 209.315 15.294C212.254 8.11613 215.035 1.32737 226.998 0.0689604C242.729 -1.58684 261.936 27.0998 263.633 29.6912C266.011 30.1927 268.478 30.0701 270.794 29.3352C273.319 28.6894 275.704 28.085 279.653 30.5522C286.591 34.8904 284.082 44.436 284.057 44.5354C284.032 44.6214 283.98 44.6969 283.908 44.7506C283.837 44.8044 283.749 44.8334 283.66 44.8334ZM118.908 44.0055H283.329C283.676 42.3994 284.984 34.8407 279.189 31.2559C275.538 28.9792 273.526 29.4842 270.968 30.1382C268.471 30.9178 265.814 31.0292 263.26 30.4611C263.154 30.4366 263.062 30.3711 263.004 30.279C262.805 29.9726 242.687 -0.750661 227.056 0.888578C215.59 2.09731 212.899 8.66254 210.051 15.6086C209.021 18.3569 207.744 21.006 206.235 23.5233C202.749 29.004 198.138 26.9757 193.253 24.8231C189.428 23.1673 185.479 21.4039 181.522 22.8444C176.472 24.6741 175.321 27.2075 174.203 29.658C173.309 31.6284 172.465 33.4829 169.716 34.6254C166.719 35.917 162.265 33.5161 157.488 30.9744C152.711 28.4328 147.76 25.7669 145.31 27.8036C142.859 29.8402 141.112 32.6716 139.63 35.1056C138.148 37.5396 136.865 39.6508 135.093 40.5366C133.529 41.3149 131.451 40.6691 129.249 39.9819C126.417 39.1044 123.495 38.1854 121.706 40.4207L118.908 44.0055Z" fill="#263238"/>
<path d="M418.83 27.6381H336.09C336.013 27.6378 335.937 27.6156 335.871 27.5742C335.806 27.5327 335.753 27.4737 335.719 27.4038C335.686 27.3338 335.672 27.2559 335.681 27.1787C335.689 27.1016 335.719 27.0284 335.767 26.9675L337.423 24.8564C338.582 23.4076 340.404 23.9788 341.861 24.4342C342.838 24.7405 343.757 25.022 344.344 24.7405C345.065 24.3845 345.669 23.3993 346.356 22.2568C347.126 20.8221 348.134 19.5287 349.337 18.4319C350.877 17.1487 353.418 18.5064 356.109 19.9469C358.245 21.0894 360.455 22.2733 361.681 21.7435C362.139 21.5391 362.548 21.2379 362.88 20.8607C363.211 20.4834 363.458 20.039 363.601 19.5578C363.928 18.6648 364.461 17.8617 365.158 17.2142C365.854 16.5667 366.694 16.0931 367.608 15.8323C369.819 15.0044 372.004 15.9896 373.933 16.8341C376.566 17.9931 378.255 18.5975 379.646 16.4201C380.379 15.2158 381.005 13.9498 381.517 12.6366C383.007 8.99385 384.423 5.5498 390.516 4.90404C398.381 4.07614 407.853 18.0345 408.962 19.7234C410.094 19.9498 411.266 19.8814 412.365 19.5247C413.123 19.2505 413.937 19.1653 414.737 19.2763C415.536 19.3874 416.296 19.6914 416.951 20.1622C420.552 22.4058 419.261 27.3235 419.244 27.3732C419.213 27.4558 419.155 27.5261 419.081 27.5737C419.006 27.6214 418.919 27.644 418.83 27.6381ZM336.951 26.8102H418.491C418.69 25.7836 419.095 22.4472 416.496 20.8245C415.935 20.4153 415.281 20.1519 414.593 20.0579C413.905 19.964 413.205 20.0425 412.555 20.2864C411.277 20.6929 409.913 20.75 408.606 20.452C408.501 20.4303 408.408 20.3678 408.349 20.2781C408.25 20.1208 398.77 5.65742 391.187 5.65742C390.988 5.64505 390.789 5.64505 390.591 5.65742C384.986 6.24523 383.728 9.31673 382.262 12.8767C381.746 14.2603 381.103 15.5934 380.341 16.8589C378.503 19.7483 376.012 18.6554 373.594 17.5957C371.723 16.7678 369.794 15.9399 367.89 16.6105C367.079 16.8405 366.335 17.2611 365.72 17.8372C365.105 18.4133 364.637 19.1282 364.355 19.9221C364.172 20.5045 363.868 21.0416 363.462 21.4982C363.057 21.9548 362.56 22.3205 362.003 22.5714C360.414 23.2503 358.137 22.0333 355.72 20.7417C353.302 19.4502 350.984 18.2084 349.866 19.1356C348.743 20.1718 347.798 21.3857 347.068 22.7287C346.315 23.9705 345.661 25.0468 344.717 25.5187C343.773 25.9906 342.788 25.6098 341.645 25.2538C339.99 24.7405 338.855 24.4259 338.102 25.4028L336.951 26.8102Z" fill="#263238"/>
<path d="M467.329 72.0799H381.965C381.886 72.0814 381.808 72.0593 381.742 72.0166C381.675 71.9738 381.623 71.9123 381.592 71.8398C381.557 71.7697 381.543 71.6909 381.552 71.613C381.561 71.5352 381.592 71.4615 381.642 71.401L383.38 69.2236C384.572 67.7417 386.361 68.2964 387.942 68.7931C388.952 69.1077 389.904 69.4058 390.492 69.116C391.237 68.7434 391.858 67.7251 392.57 66.5495C393.364 65.0819 394.4 63.7581 395.633 62.6336C397.223 61.3089 399.839 62.7163 402.612 64.1983C404.815 65.3739 407.108 66.5992 408.366 66.0528C408.841 65.8407 409.265 65.5292 409.609 65.1393C409.953 64.7494 410.21 64.2902 410.361 63.7926C410.698 62.8703 411.249 62.0411 411.969 61.3733C412.688 60.7055 413.556 60.218 414.501 59.9512C416.778 59.1233 419.03 60.1167 421.017 60.986C423.749 62.1865 425.495 62.8074 426.928 60.5555C427.681 59.287 428.321 57.9544 428.84 56.5733C430.38 52.8147 431.837 49.263 438.121 48.6007C446.226 47.7314 456.012 62.1699 457.163 63.892C458.336 64.122 459.549 64.0536 460.689 63.6933C461.469 63.407 462.308 63.317 463.131 63.431C463.953 63.5451 464.736 63.8598 465.408 64.3473C469.109 66.6571 467.776 71.7239 467.768 71.7984C467.738 71.8885 467.678 71.9656 467.598 72.0169C467.519 72.0681 467.423 72.0904 467.329 72.0799ZM382.826 71.252H466.998C467.197 70.2005 467.627 66.7317 464.937 65.0427C464.355 64.62 463.677 64.3487 462.965 64.2533C462.252 64.1579 461.527 64.2414 460.855 64.4963C459.538 64.9071 458.136 64.9642 456.79 64.6619C456.737 64.6511 456.687 64.6293 456.642 64.5979C456.598 64.5666 456.561 64.5263 456.533 64.4798C456.426 64.3225 446.102 48.5924 438.195 49.4286C432.4 50.0329 431.1 53.2121 429.594 56.8797C429.057 58.3162 428.392 59.7016 427.607 61.0192C425.719 63.9913 423.152 62.8654 420.669 61.7725C418.731 60.9446 416.728 60.0422 414.774 60.7542C413.938 60.9895 413.169 61.421 412.533 62.0128C411.896 62.6045 411.41 63.3396 411.115 64.1569C410.92 64.7473 410.605 65.2907 410.188 65.7525C409.772 66.2143 409.264 66.5844 408.697 66.8393C407.042 67.543 404.707 66.2846 402.215 64.9517C399.723 63.6188 397.322 62.3272 396.163 63.2959C395.002 64.3629 394.029 65.6165 393.282 67.0049C392.454 68.2881 391.825 69.3975 390.856 69.8777C389.888 70.3578 388.869 69.977 387.702 69.6127C385.988 69.0746 384.804 68.7848 384.026 69.77L382.826 71.252Z" fill="#263238"/>
<path d="M145.392 127.069C159.574 198.947 115.033 169.011 77.5786 169.011C40.1245 169.011 -7.33061 193.384 9.79033 127.069C19.5595 89.1681 40.1494 65.4819 77.6035 65.4819C115.058 65.4819 139.414 96.7517 145.392 127.069Z" fill="#92E3A9"/>
<path opacity="0.3" d="M145.392 127.069C159.574 198.947 115.033 169.011 77.5786 169.011C40.1245 169.011 -7.33061 193.384 9.79033 127.069C19.5595 89.1681 40.1494 65.4819 77.6035 65.4819C115.058 65.4819 139.414 96.7517 145.392 127.069Z" fill="white"/>
<path d="M56.2023 162.486L74.4741 176.42L72.603 299.586H83.6389L81.5195 153.562L107.64 124.834L81.1966 147.427L80.2362 104.641L77.3551 133.965L70.5581 129.031L55.7222 108.011L65.2595 127.119L34.5776 114.741L65.8474 132.409L76.1381 139.545L74.9542 170.658L56.2023 162.486Z" fill="#A1A1A1"/>
<path d="M66.5094 92.6533C66.5094 92.6533 65.5077 97.2813 67.5857 101.123C68.8885 103.495 70.547 105.653 72.5034 107.522C72.5034 107.522 74.5732 100.212 66.5094 92.6533Z" fill="white"/>
<path d="M27.6812 133.56C27.6812 133.56 31.2577 136.672 35.6207 136.714C38.3275 136.718 41.019 136.307 43.6016 135.497C43.6016 135.497 38.1955 130.198 27.6812 133.56Z" fill="white"/>
<path d="M22.209 152.75C22.209 152.75 26.5472 154.67 30.7281 153.404C33.3146 152.607 35.7634 151.417 37.9887 149.877C37.9887 149.877 31.3159 146.383 22.209 152.75Z" fill="white"/>
<path d="M48.1304 154.754C48.1304 154.754 52.8742 154.688 56.1527 151.807C58.1715 150.005 59.9001 147.902 61.2774 145.573C61.2774 145.573 53.669 145.2 48.1304 154.754Z" fill="white"/>
<path d="M37.21 97.438C37.21 97.438 38.2862 102.058 41.8048 104.641C43.9971 106.228 46.4209 107.468 48.9909 108.317C48.9909 108.317 47.7325 100.824 37.21 97.438Z" fill="white"/>
<path d="M114.461 94.019C114.461 94.019 109.767 94.6814 106.878 97.9598C105.107 100.005 103.658 102.308 102.581 104.79C102.581 104.79 110.156 104.202 114.461 94.019Z" fill="white"/>
<path d="M130.713 118.401C130.713 118.401 126.085 117.399 122.244 119.485C119.872 120.788 117.716 122.449 115.853 124.411C115.853 124.411 123.163 126.464 130.713 118.401Z" fill="white"/>
<path d="M129.123 146.094C129.123 146.094 125.812 142.732 121.432 142.385C118.733 142.181 116.018 142.397 113.385 143.022C113.385 143.022 118.394 148.735 129.123 146.094Z" fill="white"/>
<path d="M110.984 160.946C110.984 160.946 109.055 156.617 105.114 154.745C102.663 153.596 100.049 152.831 97.3652 152.477C97.3652 152.477 100.031 159.597 110.984 160.946Z" fill="white"/>
<path d="M101.43 116.016C101.43 116.016 96.7443 116.678 93.8549 119.957C92.0839 122.002 90.635 124.305 89.5581 126.787C89.5581 126.787 97.1334 126.199 101.43 116.016Z" fill="white"/>
<path d="M24.5688 109.906C24.5688 109.906 26.6552 114.162 30.6705 115.884C33.1625 116.934 35.8012 117.596 38.4941 117.846C38.4941 117.846 35.5799 110.833 24.5688 109.906Z" fill="white"/>
<path d="M91.4626 87.4868C91.4626 87.4868 87.6626 90.3265 86.7105 94.5819C86.1324 97.2256 85.9649 99.9426 86.2138 102.637C86.2138 102.637 92.5803 98.4896 91.4626 87.4868Z" fill="white"/>
<path d="M77.1404 74.083C77.1404 74.083 74.9796 78.3053 76.0062 82.5524C76.6528 85.1819 77.7029 87.6954 79.1191 90.0035C79.1191 90.0035 82.9936 83.4631 77.1404 74.083Z" fill="white"/>
<path d="M46.127 78.5947C46.127 78.5947 46.127 83.3303 48.9749 86.6502C50.7488 88.6917 52.8263 90.4481 55.1345 91.8577C55.1345 91.8577 55.6064 84.2741 46.127 78.5947Z" fill="white"/>
<path d="M454.976 145.771C467.618 209.859 427.879 183.184 394.514 183.184C361.15 183.184 318.803 204.916 334.078 145.788C342.787 112.001 361.15 90.873 394.514 90.873C427.879 90.873 449.644 118.74 454.976 145.771Z" fill="#92E3A9"/>
<path opacity="0.3" d="M454.976 145.771C467.618 209.859 427.879 183.184 394.514 183.184C361.15 183.184 318.803 204.916 334.078 145.788C342.787 112.001 361.15 90.873 394.514 90.873C427.879 90.873 449.644 118.74 454.976 145.771Z" fill="white"/>
<path d="M375.457 177.347L391.741 189.774L390.069 299.586H399.913L398.017 169.391L421.306 143.776L397.735 163.919L396.883 125.777L394.308 151.922L388.248 147.526L375.026 128.783L383.529 145.821L356.167 134.777L384.05 150.531L393.223 156.89L392.164 184.633L375.457 177.347Z" fill="#A1A1A1"/>
<path d="M384.638 115.081C384.638 115.081 383.744 119.22 385.598 122.639C386.76 124.754 388.24 126.678 389.986 128.343C389.986 128.343 391.824 121.828 384.638 115.081Z" fill="white"/>
<path d="M350.057 151.558C350.057 151.558 353.244 154.331 357.135 154.364C359.547 154.37 361.946 154.004 364.247 153.28C364.247 153.28 359.395 148.519 350.057 151.558Z" fill="white"/>
<path d="M345.172 168.67C345.172 168.67 349.038 170.376 352.764 169.258C355.071 168.546 357.255 167.482 359.238 166.104C359.238 166.104 353.227 162.991 345.172 168.67Z" fill="white"/>
<path d="M368.27 170.45C368.27 170.45 372.501 170.401 375.423 167.826C377.223 166.22 378.764 164.346 379.993 162.271C379.993 162.271 373.237 161.94 368.27 170.45Z" fill="white"/>
<path d="M358.518 119.353C358.518 119.353 359.478 123.493 362.616 125.778C364.567 127.203 366.725 128.32 369.015 129.089C369.015 129.089 367.898 122.375 358.518 119.353Z" fill="white"/>
<path d="M427.391 116.306C427.391 116.306 423.251 116.894 420.635 119.825C419.052 121.644 417.759 123.696 416.802 125.91C416.802 125.91 423.557 125.38 427.391 116.306Z" fill="white"/>
<path d="M441.887 138.039C441.887 138.039 437.748 137.153 434.329 139.007C432.216 140.172 430.294 141.654 428.633 143.403C428.633 143.403 435.148 145.233 441.887 138.039Z" fill="white"/>
<path d="M440.463 162.734C440.463 162.734 437.491 159.737 433.608 159.423C431.203 159.248 428.785 159.443 426.438 160.002C426.438 160.002 430.901 165.094 440.463 162.734Z" fill="white"/>
<path d="M424.294 175.981C424.294 175.981 422.58 172.123 419.062 170.442C416.877 169.421 414.549 168.742 412.157 168.431C412.157 168.431 414.508 174.772 424.294 175.981Z" fill="white"/>
<path d="M415.775 135.918C415.775 135.918 411.636 136.506 409.02 139.437C407.441 141.258 406.151 143.31 405.195 145.522C405.195 145.522 411.942 144.992 415.775 135.918Z" fill="white"/>
<path d="M347.242 130.471C347.242 130.471 349.105 134.263 352.681 135.803C354.905 136.737 357.259 137.326 359.661 137.55C359.661 137.55 357.061 131.299 347.242 130.471Z" fill="white"/>
<path d="M406.892 110.486C406.892 110.486 403.506 113.011 402.645 116.811C402.131 119.167 401.983 121.588 402.206 123.989C402.206 123.989 407.877 120.263 406.892 110.486Z" fill="white"/>
<path d="M394.117 98.5308C394.117 98.5308 392.196 102.298 393.107 106.081C393.688 108.417 394.624 110.651 395.88 112.704C395.88 112.704 399.333 106.893 394.117 98.5308Z" fill="white"/>
<path d="M366.474 102.555C366.474 102.555 366.474 106.777 369.007 109.733C370.588 111.554 372.439 113.12 374.496 114.378C374.496 114.378 374.893 107.622 366.474 102.555Z" fill="white"/>
<path d="M527.814 172.81C538.237 225.63 505.461 203.633 477.983 203.633C450.505 203.633 415.584 221.548 428.152 172.81C435.33 144.96 450.464 127.549 477.983 127.549C505.502 127.549 523.426 150.531 527.814 172.81Z" fill="#92E3A9"/>
<path opacity="0.3" d="M527.814 172.81C538.237 225.63 505.461 203.633 477.983 203.633C450.505 203.633 415.584 221.548 428.152 172.81C435.33 144.96 450.464 127.549 477.983 127.549C505.502 127.549 523.426 150.531 527.814 172.81Z" fill="white"/>
<path d="M462.278 198.839L475.698 209.08L474.324 299.586H482.429L480.873 192.282L500.072 171.171L480.641 187.77L479.937 156.335L477.818 177.877L472.825 174.259L461.922 158.802L468.926 172.852L446.382 163.753L469.365 176.734L476.924 181.975L476.054 204.842L462.278 198.839Z" fill="#A1A1A1"/>
<path d="M469.845 147.518C469.455 149.628 469.745 151.808 470.673 153.743C471.633 155.486 472.853 157.072 474.291 158.446C474.291 158.446 475.773 153.073 469.845 147.518Z" fill="white"/>
<path d="M441.315 177.579C442.955 178.942 444.983 179.753 447.111 179.897C449.099 179.901 451.076 179.599 452.972 179.003C452.972 179.003 449.04 175.079 441.315 177.579Z" fill="white"/>
<path d="M437.317 191.687C439.3 192.503 441.491 192.671 443.576 192.167C445.476 191.583 447.274 190.709 448.907 189.575C448.907 189.575 443.957 187.001 437.317 191.687Z" fill="white"/>
<path d="M456.342 193.119C458.486 193.039 460.55 192.283 462.237 190.958C463.719 189.633 464.989 188.089 466.004 186.379C466.004 186.379 460.432 186.139 456.342 193.119Z" fill="white"/>
<path d="M448.32 151.036C448.857 153.113 450.04 154.965 451.698 156.326C453.305 157.496 455.084 158.409 456.971 159.034C456.971 159.034 456.028 153.528 448.32 151.036Z" fill="white"/>
<path d="M505.081 148.528C502.967 148.883 501.019 149.897 499.517 151.426C498.213 152.927 497.147 154.619 496.354 156.443C496.354 156.443 501.926 156.004 505.081 148.528Z" fill="white"/>
<path d="M517.027 166.435C514.917 166.047 512.737 166.337 510.802 167.263C509.061 168.221 507.477 169.442 506.107 170.881C506.107 170.881 511.497 172.371 517.027 166.435Z" fill="white"/>
<path d="M515.86 186.793C514.312 185.307 512.332 184.351 510.206 184.061C508.222 183.915 506.228 184.077 504.294 184.541C504.294 184.541 507.979 188.731 515.86 186.793Z" fill="white"/>
<path d="M502.531 197.705C501.622 195.764 500.124 194.159 498.251 193.119C496.45 192.281 494.532 191.723 492.563 191.463C492.563 191.463 494.467 196.72 502.531 197.705Z" fill="white"/>
<path d="M495.51 164.688C493.396 165.043 491.449 166.058 489.947 167.586C488.643 169.087 487.576 170.779 486.784 172.603C486.784 172.603 492.356 172.173 495.51 164.688Z" fill="white"/>
<path d="M439.022 160.201C440.019 162.099 441.59 163.635 443.51 164.589C445.354 165.371 447.309 165.86 449.305 166.038C449.305 166.038 447.119 160.88 439.022 160.201Z" fill="white"/>
<path d="M488.183 143.726C486.498 145.053 485.275 146.878 484.689 148.941C484.266 150.884 484.143 152.881 484.325 154.861C484.325 154.861 489.003 151.806 488.183 143.726Z" fill="white"/>
<path d="M477.66 133.875C476.738 135.811 476.448 137.99 476.832 140.1C477.312 142.031 478.085 143.877 479.126 145.573C479.126 145.573 481.957 140.763 477.66 133.875Z" fill="white"/>
<path d="M454.876 137.186C454.93 139.329 455.66 141.401 456.963 143.105C458.265 144.609 459.792 145.903 461.491 146.938C461.491 146.938 461.823 141.366 454.876 137.186Z" fill="white"/>
<path d="M287.807 82.6684C301.981 154.555 257.448 124.61 219.994 124.61C182.54 124.61 135.085 148.991 152.189 82.6684C161.959 44.7755 182.548 21.0811 220.003 21.0811C257.457 21.0811 281.83 52.3756 287.807 82.6684Z" fill="#92E3A9"/>
<path opacity="0.3" d="M287.807 82.6684C301.981 154.555 257.448 124.61 219.994 124.61C182.54 124.61 135.085 148.991 152.189 82.6684C161.959 44.7755 182.548 21.0811 220.003 21.0811C257.457 21.0811 281.83 52.3756 287.807 82.6684Z" fill="white"/>
<path d="M198.618 118.086L216.881 132.028L215.01 299.586H226.046L223.927 109.17L250.047 80.4415L223.612 103.027L222.652 60.249L219.771 89.5732L212.974 84.6389L198.138 63.6103L207.675 82.7265L176.985 70.3411L208.263 88.0167L218.554 95.1449L217.361 126.257L198.618 118.086Z" fill="#A1A1A1"/>
<path d="M208.924 48.2358C208.924 48.2358 207.923 52.8721 210.001 56.7135C211.302 59.0838 212.961 61.2395 214.918 63.1049C214.918 63.1049 216.98 55.8111 208.924 48.2358Z" fill="white"/>
<path d="M170.096 89.1679C170.096 89.1679 173.664 92.2808 178.036 92.3139C180.743 92.3224 183.435 91.9119 186.017 91.0969C186.017 91.0969 180.611 85.7569 170.096 89.1679Z" fill="white"/>
<path d="M164.657 108.358C164.657 108.358 168.995 110.27 173.176 109.012C175.76 108.212 178.206 107.019 180.429 105.477C180.429 105.477 173.714 101.983 164.657 108.358Z" fill="white"/>
<path d="M190.546 110.329C190.546 110.329 195.281 110.271 198.56 107.382C200.579 105.581 202.31 103.481 203.693 101.156C203.693 101.156 196.109 100.808 190.546 110.329Z" fill="white"/>
<path d="M179.625 53.0464C179.625 53.0464 180.702 57.6578 184.22 60.2408C186.409 61.8315 188.83 63.0742 191.398 63.925C191.398 63.925 190.14 56.4325 179.625 53.0464Z" fill="white"/>
<path d="M256.869 49.6187C256.869 49.6187 252.183 50.2893 249.293 53.5677C247.521 55.6117 246.072 57.9151 244.997 60.3979C244.997 60.3979 252.572 59.8266 256.869 49.6187Z" fill="white"/>
<path d="M273.128 74.0001C273.128 74.0001 268.492 73.0066 264.651 75.0846C262.284 76.3913 260.131 78.0526 258.268 80.0106C258.268 80.0106 265.611 82.0721 273.128 74.0001Z" fill="white"/>
<path d="M271.539 101.694C271.539 101.694 268.227 98.3324 263.839 97.9847C261.142 97.7861 258.431 98.0039 255.8 98.6305C255.8 98.6305 260.809 104.343 271.539 101.694Z" fill="white"/>
<path d="M253.391 116.555C253.391 116.555 251.471 112.225 247.53 110.346C245.079 109.198 242.465 108.435 239.781 108.085C239.781 108.085 242.43 115.205 253.391 116.555Z" fill="white"/>
<path d="M243.846 71.6162C243.846 71.6162 239.152 72.2868 236.27 75.5653C234.494 77.6065 233.045 79.9105 231.974 82.3954C231.974 82.3954 239.549 81.7994 243.846 71.6162Z" fill="white"/>
<path d="M166.983 65.5146C166.983 65.5146 169.07 69.7618 173.085 71.4921C175.577 72.5436 178.216 73.2054 180.909 73.4542C180.909 73.4542 177.994 66.4502 166.983 65.5146Z" fill="white"/>
<path d="M233.877 43.0952C233.877 43.0952 230.077 45.9266 229.117 50.1903C228.544 52.8348 228.379 55.5514 228.628 58.2458C228.628 58.2458 234.978 54.0897 233.877 43.0952Z" fill="white"/>
<path d="M219.555 29.6914C219.555 29.6914 217.394 33.9054 218.421 38.1525C219.069 40.7814 220.119 43.2947 221.534 45.6036C221.534 45.6036 225.4 39.0632 219.555 29.6914Z" fill="white"/>
<path d="M188.542 34.1616C188.542 34.1616 188.542 38.8972 191.39 42.2171C193.162 44.2625 195.24 46.0218 197.55 47.4328C197.55 47.4328 198.021 39.8824 188.542 34.1616Z" fill="white"/>
<path d="M454.596 269.865V216.805H189.809V269.865H299.555C299.646 286.174 310.972 299.354 324.93 299.354H338.64C349.345 299.354 358.51 291.597 362.227 280.619H422.084V273.425H363.842C363.966 272.266 364.032 271.082 364.04 269.881L454.596 269.865Z" fill="#263238"/>
<path d="M338.665 299.768H324.955C310.947 299.768 299.455 286.58 299.166 270.279H189.395V216.391H455.009V270.279H364.454C364.454 271.181 364.379 272.092 364.296 272.994H422.522V281.033H362.549C358.567 292.466 349.229 299.768 338.665 299.768ZM190.222 269.451H299.985V269.865C300.076 285.901 311.278 298.94 324.946 298.94H338.656C348.939 298.94 358.046 291.696 361.837 280.487L361.929 280.205H421.67V273.822H363.377L363.427 273.367C363.551 272.199 363.617 271.024 363.626 269.865V269.451H454.181V217.219H190.222V269.451Z" fill="#263238"/>
<path d="M154.383 269.658C154.383 253.257 143.016 239.961 129 239.961H115.29C101.273 239.961 89.9062 253.257 89.9062 269.658C89.9062 286.058 101.273 299.354 115.29 299.354H129.008C139.713 299.354 148.877 291.597 152.595 280.619H212.452V273.425H154.176C154.313 272.174 154.382 270.916 154.383 269.658Z" fill="#263238"/>
<path d="M129.008 299.768H115.289C101.066 299.768 89.4922 286.265 89.4922 269.658C89.4922 253.05 101.083 239.547 115.289 239.547H129.008C143.231 239.547 154.805 253.05 154.805 269.658C154.805 270.734 154.747 271.851 154.64 272.969H212.866V281.008H152.884C148.877 292.466 139.555 299.768 129.008 299.768ZM115.298 240.375C101.53 240.375 90.3284 253.514 90.3284 269.658C90.3284 285.802 101.53 298.94 115.298 298.94H129.008C139.29 298.94 148.397 291.696 152.189 280.486L152.288 280.205H212.021V273.822H153.712L153.762 273.367C153.899 272.135 153.968 270.897 153.969 269.658C153.969 253.514 142.767 240.375 128.999 240.375H115.298Z" fill="#263238"/>
<path d="M252.174 269.658C252.174 259.168 247.522 249.954 240.501 244.663V239.961H226.791C212.775 239.961 201.408 253.257 201.408 269.658C201.408 286.058 212.775 299.354 226.791 299.354H240.501V294.652C247.522 289.362 252.174 280.147 252.174 269.658Z" fill="#263238"/>
<path d="M240.915 299.768H226.791C212.568 299.768 200.994 286.265 200.994 269.658C200.994 253.05 212.584 239.547 226.791 239.547H240.915V244.448C248.225 250.036 252.588 259.441 252.588 269.641C252.588 279.841 248.225 289.246 240.915 294.834V299.768ZM226.791 240.375C213.023 240.375 201.863 253.555 201.863 269.658C201.863 285.76 213.064 298.94 226.832 298.94H240.128V294.445L240.286 294.321C247.497 288.898 251.802 279.675 251.802 269.658C251.802 259.64 247.497 250.417 240.286 244.994L240.128 244.87V240.375H226.791Z" fill="#263238"/>
<path d="M240.501 299.354C254.519 299.354 265.884 286.059 265.884 269.658C265.884 253.257 254.519 239.961 240.501 239.961C226.482 239.961 215.117 253.257 215.117 269.658C215.117 286.059 226.482 299.354 240.501 299.354Z" fill="white"/>
<path d="M240.501 299.768C226.269 299.768 214.704 286.265 214.704 269.658C214.704 253.05 226.294 239.547 240.501 239.547C254.708 239.547 266.298 253.05 266.298 269.658C266.298 286.265 254.724 299.768 240.501 299.768ZM240.501 240.375C226.725 240.375 215.532 253.514 215.532 269.658C215.532 285.802 226.725 298.94 240.501 298.94C254.277 298.94 265.47 285.81 265.47 269.658C265.47 253.505 254.269 240.375 240.501 240.375Z" fill="#263238"/>
<path d="M240.501 289.569C249.897 289.569 257.514 280.655 257.514 269.658C257.514 258.662 249.897 249.747 240.501 249.747C231.105 249.747 223.488 258.662 223.488 269.658C223.488 280.655 231.105 289.569 240.501 289.569Z" fill="#263238"/>
<path d="M240.501 289.983C230.889 289.983 223.065 280.876 223.065 269.658C223.065 258.44 230.889 249.333 240.501 249.333C250.113 249.333 257.928 258.44 257.928 269.658C257.928 280.876 250.105 289.983 240.501 289.983ZM240.501 250.161C231.344 250.161 223.893 258.912 223.893 269.658C223.893 280.404 231.344 289.155 240.501 289.155C249.658 289.155 257.1 280.404 257.1 269.658C257.1 258.912 249.649 250.161 240.501 250.161Z" fill="#263238"/>
<path d="M240.501 287.01C248.69 287.01 255.329 279.241 255.329 269.657C255.329 260.074 248.69 252.305 240.501 252.305C232.312 252.305 225.673 260.074 225.673 269.657C225.673 279.241 232.312 287.01 240.501 287.01Z" fill="#BABABA"/>
<path d="M240.501 287.425C232.089 287.425 225.251 279.452 225.251 269.658C225.251 259.864 232.089 251.899 240.501 251.899C248.912 251.899 255.742 259.872 255.742 269.666C255.742 279.46 248.904 287.425 240.501 287.425ZM240.501 252.719C232.553 252.719 226.079 260.319 226.079 269.658C226.079 278.997 232.553 286.597 240.501 286.597C248.449 286.597 254.915 278.997 254.915 269.658C254.915 260.319 248.449 252.727 240.501 252.727V252.719Z" fill="#263238"/>
<path d="M430.107 269.658C430.107 259.168 425.454 249.954 418.433 244.663V239.961H404.698C390.674 239.961 379.315 253.257 379.315 269.658C379.315 286.058 390.674 299.354 404.698 299.354H418.408V294.652C425.454 289.362 430.107 280.147 430.107 269.658Z" fill="#263238"/>
<path d="M418.847 299.768H404.698C390.474 299.768 378.9 286.265 378.9 269.658C378.9 253.05 390.491 239.547 404.698 239.547H418.822V244.448C426.132 250.036 430.495 259.441 430.495 269.641C430.495 279.841 426.132 289.246 418.822 294.834L418.847 299.768ZM404.698 240.375C390.93 240.375 379.728 253.514 379.728 269.658C379.728 285.802 390.955 298.94 404.698 298.94H417.994V294.445L418.151 294.321C425.362 288.898 429.667 279.675 429.667 269.658C429.667 259.64 425.362 250.417 418.151 244.994L417.994 244.87V240.375H404.698Z" fill="#263238"/>
<path d="M418.433 299.354C432.452 299.354 443.816 286.059 443.816 269.658C443.816 253.257 432.452 239.961 418.433 239.961C404.414 239.961 393.049 253.257 393.049 269.658C393.049 286.059 404.414 299.354 418.433 299.354Z" fill="white"/>
<path d="M418.433 299.768C404.201 299.768 392.627 286.265 392.627 269.658C392.627 253.05 404.218 239.547 418.433 239.547C432.648 239.547 444.23 253.05 444.23 269.658C444.23 286.265 432.656 299.768 418.433 299.768ZM418.433 240.375C404.656 240.375 393.455 253.514 393.455 269.658C393.455 285.802 404.656 298.94 418.433 298.94C432.209 298.94 443.402 285.81 443.402 269.658C443.402 253.505 432.201 240.375 418.433 240.375Z" fill="#263238"/>
<path d="M418.433 289.569C427.829 289.569 435.447 280.655 435.447 269.658C435.447 258.662 427.829 249.747 418.433 249.747C409.037 249.747 401.42 258.662 401.42 269.658C401.42 280.655 409.037 289.569 418.433 289.569Z" fill="#263238"/>
<path d="M418.433 289.983C408.821 289.983 400.998 280.876 400.998 269.658C400.998 258.44 408.838 249.333 418.433 249.333C428.028 249.333 435.819 258.44 435.819 269.658C435.819 280.876 428.037 289.983 418.433 289.983ZM418.433 250.161C409.277 250.161 401.825 258.912 401.825 269.658C401.825 280.404 409.277 289.155 418.433 289.155C427.59 289.155 434.991 280.404 434.991 269.658C434.991 258.912 427.581 250.161 418.433 250.161Z" fill="#263238"/>
<path d="M418.433 287.01C426.622 287.01 433.261 279.241 433.261 269.657C433.261 260.074 426.622 252.305 418.433 252.305C410.244 252.305 403.605 260.074 403.605 269.657C403.605 279.241 410.244 287.01 418.433 287.01Z" fill="#BABABA"/>
<path d="M418.433 287.425C410.022 287.425 403.183 279.452 403.183 269.658C403.183 259.864 410.022 251.899 418.433 251.899C426.844 251.899 433.675 259.864 433.675 269.658C433.675 279.452 426.836 287.425 418.433 287.425ZM418.433 252.719C410.477 252.719 404.011 260.319 404.011 269.658C404.011 278.997 410.477 286.597 418.433 286.597C426.389 286.597 432.847 278.997 432.847 269.658C432.847 260.319 426.381 252.727 418.433 252.727V252.719Z" fill="#263238"/>
<path d="M203.519 260.112L208.486 240.764C209.301 237.611 211.14 234.818 213.714 232.823C216.288 230.829 219.453 229.746 222.709 229.745H249.98C252.944 229.745 255.838 230.641 258.282 232.317C260.726 233.993 262.606 236.369 263.674 239.133L275.546 269.807H345.147V196.629L335.676 183.325H119.462C116.401 183.3 113.355 183.761 110.438 184.691C107.383 185.684 104.013 187.398 101.977 190.304C97.5476 196.654 97.5476 199.825 97.5476 199.825C97.5476 199.825 71.6178 201.729 65.2595 205.537C58.9013 209.345 63.3554 212.516 66.5262 220.762C69.6971 229.008 70.9637 232.187 70.9637 237.9C70.9637 243.612 67.1637 260.112 67.1637 260.112H203.519Z" fill="#92E3A9"/>
<path d="M345.553 270.221H275.256L263.293 239.283C262.242 236.607 260.412 234.309 258.04 232.685C255.668 231.061 252.863 230.187 249.988 230.176H222.717C219.553 230.175 216.478 231.226 213.977 233.164C211.476 235.102 209.69 237.816 208.9 240.88L203.833 260.543H66.6504L66.7663 260.038C66.7663 259.872 70.5581 243.48 70.5581 237.917C70.5581 232.353 69.3328 229.199 66.3523 221.458L66.1454 220.928C65.4116 219.087 64.5825 217.285 63.6617 215.53C61.4512 211.134 59.9858 208.228 65.036 205.198C71.0631 201.58 93.8882 199.709 97.1419 199.452C97.2743 198.418 97.9698 195.313 101.621 190.081C103.393 187.556 106.307 185.618 110.289 184.285C113.249 183.345 116.339 182.878 119.445 182.903H335.883L345.553 196.489V270.221ZM275.827 269.393H344.725V196.762L335.452 183.739H119.462C116.443 183.718 113.44 184.17 110.562 185.08C106.762 186.33 103.98 188.168 102.283 190.544C98.0029 196.662 97.9201 199.792 97.9201 199.825V200.206H97.5393C97.2826 200.206 71.6426 202.143 65.4499 205.86C61.0621 208.493 62.1383 210.563 64.3902 215.108C65.3108 216.889 66.1397 218.715 66.8739 220.58L67.0726 221.11C70.0944 228.959 71.3363 232.204 71.3363 237.867C71.3363 243.066 68.2896 256.801 67.6356 259.666H203.196L208.097 240.624C208.934 237.382 210.824 234.511 213.471 232.461C216.117 230.411 219.37 229.298 222.717 229.298H249.988C253.032 229.309 256.002 230.236 258.512 231.957C261.022 233.679 262.956 236.116 264.063 238.951L275.827 269.393Z" fill="#263238"/>
<path d="M345.139 196.629V269.89H375.15L377.527 260.112L382.494 240.764C383.307 237.612 385.144 234.819 387.717 232.824C390.29 230.829 393.453 229.746 396.709 229.745H424.03C426.992 229.747 429.886 230.644 432.329 232.32C434.773 233.995 436.653 236.37 437.723 239.133L448.924 269.89H481.121C483.281 269.887 485.352 269.028 486.88 267.501C488.407 265.974 489.266 263.903 489.268 261.743L483.249 203.881C483.249 201.969 482.489 200.135 481.137 198.782C479.785 197.43 477.951 196.67 476.038 196.67L345.139 196.629Z" fill="#92E3A9"/>
<path d="M481.097 270.304H448.577L437.276 239.274C436.224 236.599 434.394 234.302 432.022 232.678C429.65 231.055 426.846 230.18 423.972 230.167H396.651C393.488 230.167 390.414 231.218 387.914 233.156C385.414 235.094 383.63 237.809 382.842 240.872L377.874 260.22L375.39 270.312H344.725V196.215H476.038C478.06 196.218 479.998 197.022 481.427 198.451C482.857 199.881 483.661 201.819 483.663 203.84L489.657 261.694C489.66 262.821 489.441 263.938 489.013 264.981C488.585 266.024 487.955 266.972 487.16 267.772C486.365 268.571 485.42 269.207 484.38 269.641C483.34 270.075 482.224 270.301 481.097 270.304ZM449.189 269.476H481.097C483.147 269.474 485.112 268.659 486.562 267.209C488.012 265.759 488.827 263.794 488.829 261.744L482.835 203.882C482.838 202.986 482.665 202.099 482.325 201.27C481.985 200.442 481.485 199.689 480.854 199.054C480.223 198.418 479.473 197.914 478.646 197.569C477.82 197.224 476.933 197.045 476.038 197.043H345.553V269.476H374.827L377.129 260.013L382.096 240.657C382.93 237.416 384.819 234.544 387.464 232.493C390.11 230.443 393.362 229.33 396.709 229.331H424.029C427.073 229.343 430.042 230.27 432.552 231.992C435.062 233.713 436.996 236.15 438.104 238.985L449.189 269.476Z" fill="#263238"/>
<path d="M164.35 225.018H162.264H89.0365L88.9206 224.794C88.9206 224.794 87.6871 222.385 86.4369 219.231C85.0212 215.687 87.9851 211.241 88.962 209.776C90.2287 207.88 96.9513 199.924 97.241 199.593L97.8702 200.123C97.7957 200.205 90.891 208.402 89.6492 210.24C88.7302 211.614 85.9485 215.786 87.2069 218.924C88.2335 221.482 89.227 223.536 89.5581 224.19H162.281H163.514C163.379 223.361 163.098 222.562 162.686 221.83C162.321 221.168 161.99 220.489 161.693 219.793C161.105 218.419 160.534 217.21 160.037 216.151C157.777 211.382 156.643 208.981 160.997 205.239C163.009 203.5 167.621 202.027 174.823 200.868C180.934 199.891 187.114 199.409 193.302 199.427H243.382L238.919 184.997L239.747 184.757L244.532 200.255H193.277C187.134 200.24 180.999 200.716 174.931 201.679C168.018 202.805 163.382 204.254 161.511 205.868C157.636 209.18 158.555 211.134 160.757 215.803C161.262 216.871 161.842 218.088 162.413 219.479C162.697 220.15 163.018 220.805 163.374 221.441C163.937 222.412 164.265 223.5 164.334 224.62L164.35 225.018Z" fill="#263238"/>
<path d="M173.781 229.596C176.904 229.596 179.436 225.481 179.436 220.406C179.436 215.331 176.904 211.216 173.781 211.216C170.658 211.216 168.126 215.331 168.126 220.406C168.126 225.481 170.658 229.596 173.781 229.596Z" fill="white"/>
<path d="M173.78 230.01C170.469 230.01 167.712 225.705 167.712 220.406C167.712 215.108 170.436 210.803 173.78 210.803C177.125 210.803 179.849 215.108 179.849 220.406C179.849 225.705 177.125 230.01 173.78 230.01ZM173.78 211.631C170.891 211.631 168.54 215.563 168.54 220.406C168.54 225.25 170.891 229.182 173.78 229.182C176.67 229.182 179.021 225.241 179.021 220.406C179.021 215.571 176.67 211.631 173.78 211.631Z" fill="#263238"/>
<path d="M177.953 233.743C177.202 233.762 176.462 233.552 175.834 233.139L176.314 232.46C176.855 232.752 177.459 232.904 178.073 232.904C178.687 232.904 179.292 232.752 179.833 232.46C181.372 231.715 182.316 230.142 182.382 228.039C182.623 222.923 176.968 210.413 175.37 209.503C173.772 208.592 165.51 208.84 164.169 210.181C163.391 210.96 165.825 215.977 168.474 220.166L167.778 220.613C166.387 218.427 161.983 211.2 163.589 209.594C165.195 207.988 173.814 207.656 175.784 208.766C177.755 209.875 183.45 222.923 183.235 228.056C183.078 231.367 181.281 232.675 180.222 233.189C179.518 233.544 178.742 233.734 177.953 233.743Z" fill="#263238"/>
<path d="M75.4509 229.596C78.5738 229.596 81.1055 225.481 81.1055 220.406C81.1055 215.331 78.5738 211.216 75.4509 211.216C72.328 211.216 69.7964 215.331 69.7964 220.406C69.7964 225.481 72.328 229.596 75.4509 229.596Z" fill="white"/>
<path d="M75.4513 230.01C72.1397 230.01 69.3828 225.705 69.3828 220.406C69.3828 215.108 72.1066 210.803 75.4513 210.803C78.796 210.803 81.5198 215.108 81.5198 220.406C81.5198 225.705 78.796 230.01 75.4513 230.01ZM75.4513 211.631C72.5619 211.631 70.2107 215.563 70.2107 220.406C70.2107 225.25 72.5619 229.182 75.4513 229.182C78.3407 229.182 80.6919 225.241 80.6919 220.406C80.6919 215.571 78.3407 211.631 75.4513 211.631Z" fill="#263238"/>
<path d="M79.6241 233.743C78.8726 233.762 78.1332 233.552 77.5047 233.139L77.9849 232.46C78.5262 232.749 79.1305 232.901 79.7442 232.901C80.3579 232.901 80.9621 232.749 81.5035 232.46C83.0434 231.715 83.9872 230.142 84.0534 228.039C84.2935 222.923 78.6389 210.413 77.0411 209.503C75.4432 208.592 67.1808 208.849 65.8396 210.181C65.0614 210.96 67.4954 215.977 70.1447 220.166L69.4493 220.613C68.0584 218.427 63.654 211.2 65.2601 209.594C66.8662 207.988 75.4846 207.656 77.455 208.766C79.4254 209.875 85.1214 222.923 84.9061 228.056C84.7488 231.367 82.9523 232.675 81.8926 233.189C81.1886 233.544 80.4127 233.734 79.6241 233.743Z" fill="#263238"/>
<path d="M104.328 252.711H118.907L115.538 230.813H100.958L104.328 252.711Z" fill="#263238"/>
<path d="M119.396 253.125H103.972L100.479 230.374H115.894L119.396 253.125ZM104.684 252.297H118.427L115.182 231.202H101.447L104.684 252.297Z" fill="#263238"/>
<path d="M132.634 230.813H118.055L121.424 252.711H136.004L132.634 230.813Z" fill="#263238"/>
<path d="M136.459 253.125H121.068L117.566 230.374H132.99L136.459 253.125ZM121.756 252.297H135.49L132.32 231.202H118.576L121.756 252.297Z" fill="#263238"/>
<path d="M98.4499 230.813H93.9378C92.8379 230.815 91.7697 231.181 90.9007 231.856C90.0316 232.53 89.411 233.474 89.136 234.539L86.0728 246.527C85.8879 247.258 85.8721 248.023 86.0268 248.761C86.1814 249.5 86.5023 250.194 86.9652 250.79C87.4281 251.386 88.0207 251.869 88.6981 252.202C89.3755 252.535 90.1198 252.709 90.8746 252.711H101.819L98.4499 230.813Z" fill="#263238"/>
<path d="M102.3 253.124H90.8748C90.0564 253.124 89.2488 252.937 88.5136 252.578C87.7784 252.218 87.1351 251.695 86.6327 251.049C86.1304 250.403 85.7823 249.651 85.6149 248.85C85.4476 248.048 85.4655 247.22 85.6673 246.427L88.7388 234.439C89.0332 233.283 89.7042 232.259 90.6457 231.527C91.5872 230.795 92.7456 230.398 93.938 230.398H98.8061L102.3 253.124ZM93.938 231.201C92.9294 231.202 91.9497 231.538 91.1536 232.157C90.3574 232.776 89.7903 233.643 89.5419 234.621L86.4704 246.609C86.2985 247.279 86.2825 247.981 86.4236 248.659C86.5646 249.337 86.859 249.973 87.2841 250.52C87.7093 251.067 88.2539 251.509 88.8763 251.812C89.4987 252.116 90.1823 252.273 90.8748 252.272H101.331L98.0941 231.201H93.938Z" fill="#263238"/>
<path d="M149.722 230.813H135.143L138.512 252.711H153.091L149.722 230.813Z" fill="#263238"/>
<path d="M153.571 253.125H138.156L134.662 230.374H150.078L153.571 253.125ZM138.868 252.297H152.611L149.366 231.202H135.631L138.868 252.297Z" fill="#263238"/>
<path d="M169.574 246.162L165.485 234.166C165.149 233.189 164.517 232.342 163.678 231.741C162.838 231.14 161.831 230.815 160.799 230.813H152.238L155.608 252.727H164.872C165.661 252.727 166.439 252.539 167.142 252.178C167.844 251.817 168.45 251.294 168.909 250.653C169.369 250.011 169.669 249.269 169.785 248.488C169.901 247.707 169.828 246.91 169.574 246.162Z" fill="#263238"/>
<path d="M164.873 253.125H155.252L151.75 230.374H160.791C161.91 230.375 163.002 230.725 163.912 231.377C164.822 232.029 165.505 232.949 165.866 234.009L169.956 245.996C170.233 246.805 170.313 247.668 170.189 248.513C170.065 249.359 169.741 250.162 169.243 250.857C168.746 251.552 168.09 252.118 167.33 252.508C166.57 252.898 165.727 253.101 164.873 253.1V253.125ZM155.964 252.297H164.873C165.595 252.297 166.306 252.125 166.948 251.796C167.59 251.466 168.145 250.988 168.565 250.401C168.985 249.814 169.259 249.135 169.364 248.421C169.469 247.707 169.403 246.978 169.169 246.295L165.088 234.307C164.782 233.409 164.204 232.63 163.433 232.078C162.663 231.525 161.739 231.228 160.791 231.227H152.719L155.964 252.297Z" fill="#263238"/>
<path d="M206.424 261.387C206.035 258.324 202.757 255.915 201.043 254.847H66.6255C64.92 255.915 61.6581 258.324 61.2442 261.387C60.7143 265.527 62.3204 269.111 65.5244 270.891H202.128C205.356 269.111 206.963 265.543 206.424 261.387Z" fill="#BABABA"/>
<path d="M202.26 271.305H65.4168L65.3175 271.256C61.9562 269.384 60.2839 265.675 60.8386 261.321C61.2442 258.142 64.5062 255.674 66.4103 254.491L66.5097 254.424H201.167L201.267 254.491C203.171 255.674 206.433 258.142 206.838 261.321C207.393 265.667 205.721 269.376 202.36 271.256L202.26 271.305ZM65.6569 270.477H202.045C205.042 268.764 206.524 265.394 206.019 261.437C205.663 258.647 202.707 256.395 200.927 255.261H66.7498C64.9532 256.395 62.0142 258.647 61.6582 261.437C61.1201 265.394 62.6351 268.764 65.6321 270.477H65.6569Z" fill="#263238"/>
<path d="M340.751 199.03H255.602V199.858H340.751V199.03Z" fill="#263238"/>
<path d="M335.668 183.324L324.235 141.242C323.126 137.158 321.028 133.41 318.125 130.331C314.767 126.776 310.221 124.578 305.35 124.154L294.679 123.244C252.952 121.704 217.378 123.591 192.739 127.019C192.173 127.23 191.634 127.508 191.133 127.847C186.951 130.357 183.742 134.209 182.026 138.775L165.17 182.943L335.668 183.324Z" fill="#92E3A9"/>
<path d="M336.206 183.738H335.668L164.541 183.308L181.604 138.601C183.361 133.949 186.637 130.025 190.901 127.466C191.44 127.117 192.022 126.838 192.632 126.638C220.275 122.747 256.504 121.422 294.67 122.83L305.35 123.749C310.329 124.172 314.977 126.415 318.406 130.049C321.356 133.179 323.491 136.986 324.623 141.135L336.206 183.738ZM165.741 182.488L335.121 182.91L323.837 141.35C322.749 137.321 320.681 133.624 317.818 130.587C314.529 127.098 310.069 124.944 305.292 124.535L294.587 123.658C256.504 122.25 220.308 123.592 192.756 127.425C192.251 127.625 191.766 127.871 191.307 128.162C187.198 130.637 184.046 134.431 182.366 138.924L165.741 182.488Z" fill="#263238"/>
<path d="M171.711 172.901L186.133 135.994C187.308 132.997 189.875 131.076 192.706 131.076L205.638 130.248C213.934 129.691 222.256 129.646 230.558 130.116L248.225 131.109C253.449 131.109 258.16 134.901 259.94 140.613L268.525 167.735C269.176 169.752 269.289 171.903 268.854 173.976C268.418 176.05 267.449 177.974 266.041 179.558C265.113 180.6 263.942 181.399 262.633 181.884C261.324 182.369 259.916 182.525 258.532 182.339C249.02 180.94 225.59 177.827 207.724 178.423C197.443 178.774 187.191 179.742 177.026 181.321C173.068 181.917 170.038 177.182 171.711 172.901Z" fill="#263238"/>
<path d="M259.766 182.82C259.348 182.818 258.93 182.788 258.516 182.729C249.227 181.354 225.682 178.217 207.783 178.813C197.524 179.166 187.295 180.131 177.15 181.702C176.243 181.836 175.316 181.722 174.468 181.372C173.62 181.022 172.882 180.45 172.332 179.715C171.571 178.743 171.079 177.588 170.906 176.366C170.733 175.144 170.885 173.897 171.347 172.753L185.802 135.853C187.036 132.707 189.768 130.67 192.756 130.67L205.663 129.843C213.976 129.289 222.315 129.245 230.633 129.71L248.292 130.704C253.657 130.704 258.516 134.644 260.371 140.498L268.923 167.586C269.613 169.664 269.747 171.886 269.311 174.032C268.875 176.177 267.885 178.171 266.439 179.815C265.595 180.75 264.567 181.5 263.418 182.017C262.269 182.534 261.026 182.808 259.766 182.82ZM212.46 177.91C229.639 177.91 250.121 180.651 258.641 181.909C259.959 182.083 261.3 181.932 262.547 181.469C263.794 181.005 264.908 180.244 265.794 179.252C267.152 177.722 268.086 175.863 268.501 173.859C268.917 171.856 268.799 169.779 268.161 167.835L259.576 140.713C257.829 135.199 253.284 131.498 248.259 131.498L230.567 130.505C222.293 130.041 213.998 130.085 205.73 130.637L192.806 131.465C191.42 131.523 190.084 131.999 188.974 132.831C187.864 133.663 187.032 134.812 186.589 136.126L172.133 173.017C171.73 174.027 171.594 175.124 171.739 176.202C171.884 177.28 172.305 178.302 172.961 179.169C173.424 179.784 174.045 180.263 174.758 180.554C175.47 180.846 176.248 180.939 177.01 180.825C187.192 179.249 197.46 178.281 207.758 177.927C209.314 177.935 210.863 177.91 212.46 177.91Z" fill="#263238"/>
<path d="M259.973 140.589C258.516 135.986 255.188 132.624 251.206 131.482L186.53 179.989C192.599 179.277 199.835 178.647 207.774 178.382C216.249 178.208 224.726 178.518 233.166 179.31L264.626 155.301L259.973 140.589Z" fill="white"/>
<path d="M185.057 180.592L251.123 131.026L251.322 131.084C255.502 132.268 258.88 135.77 260.362 140.447L265.106 155.416L264.874 155.59L233.323 179.748H233.166C224.741 178.95 216.276 178.641 207.816 178.82C200.836 179.052 193.741 179.59 186.613 180.427L185.057 180.592ZM251.288 131.953L188.004 179.417C194.627 178.688 201.25 178.2 207.758 177.984C216.196 177.801 224.639 178.108 233.042 178.903L264.137 155.126L259.576 140.712C258.201 136.374 255.113 133.112 251.288 131.953Z" fill="#263238"/>
<path d="M176.621 160.384L216.633 129.793C212.974 129.837 209.32 129.981 205.672 130.223L195.579 130.894L184.875 139.306L176.621 160.384Z" fill="white"/>
<path d="M175.693 161.658L184.535 139.081L195.422 130.529L205.646 129.85C209.206 129.61 212.907 129.47 216.624 129.42H217.874L175.693 161.658ZM185.222 139.553L177.539 159.175L215.382 130.198C212.071 130.264 208.85 130.397 205.696 130.612L195.761 131.274L185.222 139.553Z" fill="#263238"/>
<path d="M310.699 131.738H279.528C278.019 131.739 276.531 132.091 275.182 132.766C273.833 133.442 272.659 134.422 271.754 135.629C270.828 136.861 270.209 138.296 269.949 139.815C269.688 141.334 269.793 142.894 270.256 144.364L279.528 174.077C280.214 176.259 281.578 178.165 283.421 179.52C285.264 180.875 287.49 181.607 289.778 181.611H323.779C324.477 181.61 325.165 181.447 325.789 181.135C326.413 180.823 326.956 180.37 327.375 179.812C327.795 179.254 328.078 178.606 328.204 177.92C328.33 177.234 328.295 176.527 328.101 175.857L316.626 136.217C316.257 134.929 315.479 133.796 314.41 132.988C313.341 132.181 312.039 131.742 310.699 131.738Z" fill="#263238"/>
<path d="M323.779 182H289.777C287.4 182.008 285.083 181.252 283.167 179.844C281.252 178.435 279.84 176.449 279.139 174.177L269.858 144.488C269.384 142.971 269.274 141.363 269.536 139.796C269.798 138.228 270.425 136.743 271.366 135.462C272.307 134.181 273.536 133.139 274.954 132.421C276.371 131.702 277.938 131.326 279.528 131.325H310.698C312.124 131.331 313.509 131.796 314.648 132.653C315.788 133.509 316.621 134.71 317.023 136.077L328.531 175.733C328.741 176.465 328.779 177.235 328.641 177.984C328.503 178.732 328.193 179.438 327.735 180.047C327.278 180.655 326.685 181.149 326.005 181.489C325.324 181.83 324.573 182.007 323.812 182.009L323.779 182ZM279.528 132.153C278.064 132.152 276.621 132.497 275.316 133.158C274.01 133.82 272.879 134.78 272.013 135.961C271.148 137.141 270.573 138.509 270.335 139.953C270.098 141.397 270.204 142.877 270.645 144.273L279.925 173.961C280.575 176.065 281.883 177.905 283.656 179.209C285.43 180.513 287.576 181.213 289.777 181.206H323.779C324.413 181.205 325.037 181.057 325.604 180.773C326.17 180.49 326.663 180.079 327.044 179.572C327.424 179.066 327.682 178.478 327.797 177.855C327.911 177.231 327.879 176.59 327.703 175.982L316.22 136.342C315.865 135.151 315.137 134.106 314.143 133.36C313.148 132.615 311.941 132.209 310.698 132.202L279.528 132.153Z" fill="#263238"/>
<path d="M319.979 147.783L281.655 177.869C282.664 179.033 283.911 179.968 285.312 180.609C286.713 181.251 288.236 181.584 289.777 181.586H295.647L323.563 160.234L319.979 147.783Z" fill="white"/>
<path d="M295.788 182H289.778C288.177 181.999 286.596 181.654 285.14 180.988C283.685 180.323 282.389 179.352 281.342 178.142L281.06 177.811L320.203 147.079L324.061 160.392L295.788 182ZM282.26 177.918C283.224 178.946 284.389 179.765 285.682 180.325C286.975 180.884 288.369 181.173 289.778 181.172H295.515L323.109 160.077L319.748 148.487L282.26 177.918Z" fill="#263238"/>
<path d="M488.125 247.495H481.85C481.85 247.495 482.057 265.328 476.882 269.807H488.738C488.738 269.807 492.546 269.037 494.45 264.401V264.359C495.184 262.455 495.283 260.364 494.732 258.398L492.124 248.464C492.127 248.334 492.105 248.204 492.058 248.083C492.011 247.961 491.94 247.851 491.85 247.757C491.76 247.663 491.652 247.588 491.533 247.536C491.414 247.484 491.285 247.456 491.155 247.454L488.125 247.495Z" fill="#BABABA"/>
<path d="M476.866 270.221H475.756L476.584 269.492C481.552 265.187 481.419 247.669 481.419 247.495V247.081H491.147C491.511 247.085 491.859 247.231 492.117 247.488C492.375 247.744 492.523 248.091 492.53 248.455L495.129 258.291C495.698 260.345 495.59 262.528 494.823 264.517C492.844 269.343 488.953 270.179 488.787 270.213L476.866 270.221ZM477.851 269.393H488.672C489.077 269.294 492.339 268.416 494.053 264.243C494.763 262.411 494.862 260.399 494.334 258.506L491.71 248.571V248.505C491.713 248.43 491.701 248.355 491.674 248.286C491.647 248.216 491.606 248.152 491.553 248.099C491.501 248.046 491.44 248.002 491.371 247.973C491.303 247.943 491.23 247.927 491.155 247.926H482.264C482.264 250.558 482.048 264.384 477.851 269.393Z" fill="#263238"/>
<path d="M340.643 263.349H275.844V262.952C275.844 262.529 273.716 220.042 272.151 210.653C270.636 201.546 265.652 200.421 265.594 200.412L265.305 200.354V200.048L263.798 184.608H264.261C264.336 184.608 272.027 184.566 274.519 181.586C277.011 178.605 276.547 176.676 276.547 176.66C276.1 175.435 265.305 145.547 265.305 139.727C265.305 133.733 271.1 130.505 271.332 130.372L271.729 131.101C271.671 131.101 266.133 134.23 266.133 139.727C266.133 145.407 277.226 176.113 277.342 176.42C277.342 176.552 277.897 178.821 275.148 182.116C272.756 184.98 266.472 185.378 264.717 185.427L266.099 199.684C267.292 200.073 271.58 202.027 272.996 210.513C274.486 219.462 276.465 258.175 276.688 262.521H339.865V204.858L335.643 195.859C335.643 195.784 334.053 188.052 331.553 186.057L332.075 185.411C334.724 187.522 336.289 194.898 336.446 195.644L340.693 204.75L340.643 263.349Z" fill="#263238"/>
<path d="M334.409 195.776H319.607C319.187 195.776 318.783 195.61 318.486 195.314C318.188 195.017 318.019 194.615 318.017 194.195C318.017 193.773 318.185 193.369 318.483 193.071C318.781 192.773 319.185 192.605 319.607 192.605H334.409C334.828 192.61 335.228 192.779 335.523 193.077C335.817 193.374 335.983 193.776 335.982 194.195C335.98 194.612 335.814 195.012 335.52 195.308C335.226 195.604 334.827 195.772 334.409 195.776Z" fill="white"/>
<path d="M334.409 196.19H319.606C319.333 196.208 319.059 196.169 318.801 196.077C318.543 195.984 318.307 195.84 318.107 195.653C317.907 195.465 317.748 195.239 317.639 194.987C317.53 194.736 317.474 194.465 317.474 194.191C317.474 193.917 317.53 193.646 317.639 193.395C317.748 193.143 317.907 192.917 318.107 192.73C318.307 192.542 318.543 192.398 318.801 192.305C319.059 192.213 319.333 192.174 319.606 192.192H334.409C334.683 192.174 334.957 192.213 335.214 192.305C335.472 192.398 335.708 192.542 335.908 192.73C336.108 192.917 336.267 193.143 336.376 193.395C336.485 193.646 336.541 193.917 336.541 194.191C336.541 194.465 336.485 194.736 336.376 194.987C336.267 195.239 336.108 195.465 335.908 195.653C335.708 195.84 335.472 195.984 335.214 196.077C334.957 196.169 334.683 196.208 334.409 196.19ZM319.606 193.02C319.444 193.006 319.281 193.026 319.127 193.079C318.973 193.131 318.832 193.215 318.712 193.326C318.592 193.436 318.497 193.569 318.431 193.718C318.366 193.867 318.332 194.028 318.332 194.191C318.332 194.354 318.366 194.515 318.431 194.664C318.497 194.813 318.592 194.946 318.712 195.056C318.832 195.167 318.973 195.251 319.127 195.303C319.281 195.356 319.444 195.376 319.606 195.362H334.409C334.571 195.376 334.734 195.356 334.888 195.303C335.042 195.251 335.184 195.167 335.303 195.056C335.423 194.946 335.519 194.813 335.584 194.664C335.65 194.515 335.683 194.354 335.683 194.191C335.683 194.028 335.65 193.867 335.584 193.718C335.519 193.569 335.423 193.436 335.303 193.326C335.184 193.215 335.042 193.131 334.888 193.079C334.734 193.026 334.571 193.006 334.409 193.02H319.606Z" fill="#263238"/>
<path d="M266.811 218.543H226.244L221.384 220.025C221.231 220.07 221.096 220.163 221 220.29C220.904 220.418 220.852 220.574 220.852 220.733C220.852 220.893 220.904 221.048 221 221.176C221.096 221.304 221.231 221.397 221.384 221.441L226.219 222.749H266.786C267.206 222.747 267.609 222.579 267.905 222.281C268.201 221.983 268.368 221.58 268.367 221.16V220.125C268.368 219.71 268.204 219.311 267.913 219.015C267.622 218.719 267.226 218.55 266.811 218.543Z" fill="white"/>
<path d="M266.811 223.163H226.145L221.31 221.855C221.069 221.788 220.857 221.645 220.705 221.446C220.554 221.247 220.472 221.004 220.472 220.754C220.472 220.504 220.554 220.261 220.705 220.062C220.857 219.863 221.069 219.719 221.31 219.653L226.277 218.146H266.844C267.106 218.146 267.366 218.198 267.608 218.298C267.85 218.398 268.07 218.545 268.255 218.73C268.44 218.916 268.587 219.136 268.688 219.378C268.788 219.62 268.84 219.879 268.84 220.141V221.176C268.837 221.44 268.783 221.701 268.68 221.943C268.577 222.186 268.427 222.406 268.238 222.591C268.05 222.776 267.827 222.921 267.582 223.019C267.337 223.117 267.075 223.166 266.811 223.163ZM226.31 222.335H266.811C267.122 222.333 267.418 222.208 267.637 221.988C267.856 221.768 267.979 221.47 267.979 221.16V220.125C267.979 219.815 267.856 219.518 267.637 219.299C267.418 219.08 267.121 218.957 266.811 218.957H226.319L221.517 220.423C221.448 220.44 221.388 220.481 221.347 220.539C221.306 220.597 221.287 220.667 221.293 220.737C221.291 220.807 221.313 220.876 221.355 220.931C221.397 220.987 221.457 221.027 221.525 221.044L226.31 222.335Z" fill="#263238"/>
<path d="M100.089 202.308H135.2C135.2 202.308 132.783 205.487 131.375 205.487H125.737L123.212 208.65C122.681 209.313 122.009 209.848 121.244 210.216C120.478 210.585 119.64 210.776 118.791 210.777H112.863C111.764 210.776 110.69 210.454 109.771 209.851C108.852 209.248 108.128 208.391 107.689 207.383L106.704 205.131H104.766C103.962 205.136 103.167 204.949 102.448 204.588C101.728 204.227 101.104 203.701 100.627 203.053L100.089 202.308Z" fill="white"/>
<path d="M118.783 211.192H112.855C111.676 211.19 110.522 210.845 109.535 210.198C108.548 209.551 107.772 208.631 107.3 207.549L106.423 205.537H104.767C103.901 205.536 103.048 205.332 102.274 204.943C101.501 204.553 100.829 203.988 100.313 203.294L99.2778 201.886H136.045L135.54 202.557C135.283 202.896 132.957 205.868 131.4 205.868H125.961L123.552 208.882C122.983 209.603 122.259 210.185 121.433 210.585C120.607 210.985 119.701 211.192 118.783 211.192ZM100.909 202.722L100.975 202.813C101.414 203.403 101.985 203.882 102.642 204.213C103.298 204.544 104.023 204.716 104.759 204.718H106.969L108.062 207.201C108.468 208.135 109.138 208.931 109.989 209.489C110.841 210.048 111.837 210.346 112.855 210.347H118.783C119.571 210.349 120.348 210.173 121.058 209.831C121.767 209.49 122.391 208.993 122.881 208.377L125.539 205.065H131.375C132.096 205.065 133.404 203.807 134.339 202.714L100.909 202.722Z" fill="#263238"/>
<path d="M109.23 204.709H122.112C122.112 204.709 121.226 208.021 119.446 208.708C117.666 209.395 111.457 208.708 111.457 208.708C110.729 208.34 110.128 207.762 109.732 207.05C109.335 206.337 109.16 205.522 109.23 204.709Z" fill="#263238"/>
<path d="M116.589 209.445C114.262 209.445 111.621 209.172 111.448 209.155L111.323 209.114C110.518 208.71 109.852 208.075 109.41 207.291C108.967 206.506 108.769 205.607 108.84 204.709V204.329H122.641L122.508 204.85C122.508 204.991 121.54 208.394 119.586 209.13C118.608 209.382 117.598 209.489 116.589 209.445ZM111.621 208.336C113.385 208.518 117.988 208.865 119.354 208.336C120.439 207.93 121.233 206.2 121.606 205.14H109.635C109.642 205.797 109.826 206.44 110.167 207.002C110.507 207.564 110.993 208.025 111.572 208.336H111.621Z" fill="#263238"/>
<path d="M184.659 266.802C157.868 268.855 141.898 262.662 100.172 262.662C78.4812 262.662 67.6523 265.146 62.2461 267.572C63.004 268.974 64.1549 270.125 65.5577 270.883H202.161C203.319 270.232 204.308 269.316 205.047 268.212C205.787 267.107 206.256 265.844 206.416 264.525C201.201 265.253 194.13 266.048 184.659 266.802Z" fill="white"/>
<path d="M202.26 271.305H65.4169L65.3176 271.256C63.8601 270.446 62.6672 269.233 61.8818 267.762L61.6748 267.364L62.0805 267.191C67.1472 264.93 77.8685 262.223 100.164 262.223C115.8 262.249 131.423 263.159 146.957 264.947C159.789 266.263 170.875 267.431 184.618 266.346C192.897 265.709 200.224 264.955 206.342 264.102L206.888 264.028L206.814 264.574C206.643 265.957 206.151 267.28 205.376 268.438C204.601 269.595 203.565 270.555 202.351 271.239L202.26 271.305ZM65.657 270.477H202.045C203.043 269.9 203.905 269.113 204.571 268.172C205.237 267.23 205.691 266.155 205.903 265.021C199.884 265.849 192.748 266.561 184.692 267.182C170.866 268.25 159.756 267.108 146.882 265.783C131.375 264.003 115.781 263.096 100.172 263.068C78.6467 263.068 67.9917 265.551 62.8339 267.762C63.5188 268.892 64.4823 269.827 65.6322 270.477H65.657Z" fill="#263238"/>
<path d="M255.328 269.658C255.328 269.202 255.328 268.755 255.27 268.316C250.551 266.57 244.508 265.626 240.501 269.658C237.032 273.126 231.568 274.973 226.691 275.958C228.844 282.416 234.209 287.01 240.501 287.01C248.689 287.01 255.328 279.22 255.328 269.658Z" fill="#263238"/>
<path d="M240.501 287.425C234.167 287.425 228.596 282.971 226.302 276.083L226.153 275.644L226.609 275.553C232.768 274.303 237.371 272.241 240.203 269.368C243.581 265.991 248.838 265.494 255.411 267.928L255.66 268.019V268.284C255.66 268.739 255.718 269.195 255.718 269.658C255.742 279.452 248.904 287.425 240.501 287.425ZM227.254 276.265C229.523 282.557 234.706 286.597 240.501 286.597C248.449 286.597 254.914 278.997 254.914 269.658C254.914 269.302 254.915 268.954 254.873 268.615C250.535 267.05 244.665 266.073 240.799 269.948C237.885 272.854 233.323 274.982 227.238 276.265H227.254Z" fill="#263238"/>
<path d="M433.186 271.33C427.3 267.522 418.714 267.621 413.383 272.986C411.158 275.289 408.177 276.712 404.988 276.993C407.347 282.921 412.439 287.044 418.433 287.044C426.132 287.011 432.466 280.131 433.186 271.33Z" fill="#263238"/>
<path d="M418.433 287.425C412.522 287.425 407.099 283.377 404.607 277.11L404.4 276.596L404.955 276.547C408.047 276.275 410.936 274.896 413.093 272.664C418.226 267.531 426.96 266.81 433.409 271.008L433.616 271.149V271.389C432.846 280.52 426.323 287.425 418.433 287.425ZM405.584 277.308C408.067 282.971 413.035 286.597 418.433 286.597C425.818 286.597 431.944 280.14 432.747 271.546C426.646 267.721 418.482 268.433 413.705 273.252C411.539 275.49 408.674 276.921 405.584 277.308Z" fill="#263238"/>
</svg>
