<svg width="28" height="29" viewBox="0 0 28 29" fill="none" xmlns="http://www.w3.org/2000/svg">
<rect y="0.600098" width="28" height="27.8" rx="13.9" fill="#6B8AFD"/>
<path d="M14.5456 19C14.4517 19 14.3749 18.9701 14.3152 18.9104C14.264 18.8507 14.2384 18.7781 14.2384 18.6928V12.0624L12.2928 13.56C12.216 13.6112 12.1392 13.6325 12.0624 13.624C11.9856 13.6069 11.9173 13.56 11.8576 13.4832L11.32 12.792C11.2688 12.7152 11.2475 12.6341 11.256 12.5488C11.2731 12.4635 11.32 12.3952 11.3968 12.344L14.264 10.1296C14.3152 10.0869 14.3664 10.0613 14.4176 10.0528C14.4688 10.0443 14.5243 10.04 14.584 10.04H15.7104C15.7957 10.04 15.8683 10.0699 15.928 10.1296C15.9877 10.1893 16.0176 10.2619 16.0176 10.3472V18.6928C16.0176 18.7781 15.9877 18.8507 15.928 18.9104C15.8683 18.9701 15.7957 19 15.7104 19H14.5456Z" fill="white"/>
</svg>
