<svg width="31" height="31" viewBox="0 0 31 31" fill="none" xmlns="http://www.w3.org/2000/svg">
<path d="M26.2246 11.3526C27.3296 11.7076 28.0996 12.7626 28.0996 13.9739V19.3314C28.0996 20.7514 27.0409 21.9564 25.6246 22.0726C25.1996 22.1064 24.7746 22.1376 24.3496 22.1626V26.0264L20.5996 22.2764C18.9071 22.2764 17.2321 22.2076 15.5746 22.0726C15.2138 22.0435 14.8628 21.9405 14.5434 21.7701M26.2246 11.3526C26.0315 11.2905 25.8318 11.2506 25.6296 11.2339C22.282 10.956 18.9172 10.956 15.5696 11.2339C14.1559 11.3514 13.0996 12.5551 13.0996 13.9739V19.3314C13.0996 20.3776 13.6746 21.3064 14.5434 21.7701M26.2246 11.3526V9.01012C26.2246 6.98387 24.7846 5.22762 22.7746 4.96637C20.1881 4.63111 17.5827 4.46326 14.9746 4.46387C12.3309 4.46387 9.72711 4.63512 7.17461 4.96637C5.16461 5.22762 3.72461 6.98387 3.72461 9.01012V16.7926C3.72461 18.8189 5.16461 20.5751 7.17461 20.8364C7.89586 20.9301 8.62086 21.0114 9.34961 21.0789V26.9639L14.5434 21.7701" stroke="white" stroke-width="1.5" stroke-linecap="round" stroke-linejoin="round"/>
</svg>
