<svg width="26" height="27" viewBox="0 0 26 27" fill="none" xmlns="http://www.w3.org/2000/svg">
<path d="M17.2427 17.7427C16.6855 18.2998 16.0241 18.7418 15.2961 19.0433C14.5682 19.3449 13.7879 19.5001 13 19.5001C12.2121 19.5001 11.4318 19.3449 10.7039 19.0433C9.97592 18.7418 9.31449 18.2998 8.75733 17.7427M25 13.5C25 15.0759 24.6896 16.6363 24.0866 18.0922C23.4835 19.5481 22.5996 20.871 21.4853 21.9853C20.371 23.0996 19.0481 23.9835 17.5922 24.5866C16.1363 25.1896 14.5759 25.5 13 25.5C11.4241 25.5 9.86371 25.1896 8.4078 24.5866C6.95189 23.9835 5.62902 23.0996 4.51472 21.9853C3.40042 20.871 2.5165 19.5481 1.91345 18.0922C1.31039 16.6363 1 15.0759 1 13.5C1 10.3174 2.26428 7.26516 4.51472 5.01472C6.76516 2.76428 9.8174 1.5 13 1.5C16.1826 1.5 19.2348 2.76428 21.4853 5.01472C23.7357 7.26516 25 10.3174 25 13.5ZM10 10.5C10 11.052 9.776 11.5 9.5 11.5C9.224 11.5 9 11.052 9 10.5C9 9.948 9.224 9.5 9.5 9.5C9.776 9.5 10 9.948 10 10.5ZM9.5 10.5H9.51067V10.52H9.5V10.5ZM17 10.5C17 11.052 16.776 11.5 16.5 11.5C16.224 11.5 16 11.052 16 10.5C16 9.948 16.224 9.5 16.5 9.5C16.776 9.5 17 9.948 17 10.5ZM16.5 10.5H16.5107V10.52H16.5V10.5Z" stroke="#0A506E" stroke-width="1.5" stroke-linecap="round" stroke-linejoin="round"/>
</svg>
