<svg width="257" height="307" viewBox="0 0 257 307" fill="none" xmlns="http://www.w3.org/2000/svg">
<line x1="0.719421" y1="160.586" x2="236.719" y2="0.586142" stroke="black"/>
<path d="M125.471 181.015C125.471 186.314 121.747 191.206 115.521 194.801C109.308 198.388 100.691 200.623 91.1466 200.623C81.6019 200.623 72.9853 198.388 66.7721 194.801C60.5457 191.206 56.8223 186.314 56.8223 181.015C56.8223 175.717 60.5457 170.825 66.7721 167.23C72.9853 163.643 81.6019 161.408 91.1466 161.408C100.691 161.408 109.308 163.643 115.521 167.23C121.747 170.825 125.471 175.717 125.471 181.015Z" fill="#FAFAFA" stroke="black"/>
<path d="M185.087 148.635C185.087 153.291 181.814 157.602 176.315 160.776C170.829 163.943 163.217 165.918 154.783 165.918C146.348 165.918 138.736 163.943 133.25 160.776C127.751 157.602 124.478 153.291 124.478 148.635C124.478 143.979 127.751 139.668 133.25 136.494C138.736 133.327 146.348 131.353 154.783 131.353C163.217 131.353 170.829 133.327 176.315 136.494C181.814 139.668 185.087 143.979 185.087 148.635Z" fill="white" stroke="black"/>
<path d="M76.2231 97.8399C75.9662 97.5137 75.6203 97.0838 75.2139 96.5806C75.0596 96.3896 74.8964 96.1878 74.7257 95.9767C73.8234 94.861 72.7109 93.4854 71.5975 92.0735C70.2723 90.3931 68.9526 88.6699 67.9893 87.28C67.5066 86.5836 67.1214 85.9823 66.8703 85.5176C66.7442 85.2842 66.6595 85.0992 66.6122 84.9623C66.5837 84.8797 66.5765 84.8361 66.5742 84.8216C67.439 81.5533 71.3899 69.2744 73.358 64.4766C75.191 60.0081 78.1533 58.0507 80.7732 58.3851L77.4718 75.2799L74.0805 84.1565L73.9898 84.3941L74.1283 84.6073L79.2986 92.5647C79.1974 92.7346 79.0532 92.977 78.8805 93.268C78.5348 93.8506 78.0748 94.6285 77.6185 95.4084C77.1625 96.1877 76.7087 96.9716 76.3758 97.5654C76.3218 97.6617 76.2707 97.7535 76.2231 97.8399Z" fill="#B16668" stroke="black"/>
<path d="M74.1359 175.364L74.136 175.362C74.1659 174.558 74.2079 174 74.2855 173.628C74.3447 173.344 74.406 173.264 74.4194 173.248C74.5405 173.198 74.6334 173.111 74.6748 173.072C74.7373 173.013 74.8041 172.941 74.8713 172.864C75.0068 172.709 75.1718 172.502 75.3538 172.268C75.517 172.058 75.6989 171.819 75.8914 171.566C75.9147 171.535 75.9381 171.504 75.9617 171.473C76.181 171.185 76.4136 170.88 76.6518 170.575C77.13 169.961 77.6225 169.354 78.0641 168.884C78.2851 168.648 78.4852 168.456 78.6578 168.316C78.8409 168.168 78.952 168.113 78.9974 168.101L78.9974 168.101L79.0033 168.099C79.418 167.98 79.9034 167.722 80.3822 167.451C80.5314 167.366 80.6818 167.28 80.8336 167.192C81.1913 166.986 81.5568 166.775 81.9336 166.579C82.4676 166.301 82.9847 166.074 83.4603 165.957C83.9356 165.84 84.3228 165.846 84.6314 165.975C85.2141 166.226 85.5034 166.495 85.637 166.83C85.7798 167.188 85.7916 167.735 85.5453 168.646L85.5451 168.647C85.0843 170.365 83.9535 171.566 82.7126 172.885C82.5472 173.06 82.3799 173.238 82.2119 173.419L82.2118 173.419L82.204 173.428C80.9622 174.834 79.7919 176.301 78.6977 177.825C78.3488 178.252 77.7461 178.545 77.0167 178.674C76.2883 178.802 75.5026 178.754 74.8773 178.569C74.461 178.445 74.2305 178.078 74.1343 177.417C74.056 176.879 74.0879 176.284 74.1173 175.736C74.1241 175.609 74.1308 175.485 74.1359 175.364Z" fill="#263238" stroke="black"/>
<path d="M76.6761 173.516C75.9908 173.497 75.3214 173.313 74.7241 172.982V171.763L79.045 171.2C79.0114 171.398 78.9728 171.624 78.933 171.853C78.8746 172.189 78.814 172.528 78.763 172.793C78.7427 172.898 78.7244 172.99 78.7086 173.064C78.0797 173.38 77.3815 173.535 76.6761 173.516ZM78.6701 173.227C78.6701 173.227 78.6703 173.227 78.6706 173.226L78.6701 173.227Z" fill="#B16668" stroke="black"/>
<path d="M92.1683 191.246L92.1649 191.246C90.9515 191.255 89.9878 191.117 89.2936 190.887C88.5837 190.653 88.2371 190.35 88.1146 190.092C88.0487 189.954 87.9986 189.737 87.9777 189.439C87.9572 189.148 87.9667 188.81 87.9973 188.452C88.0585 187.734 88.2004 186.972 88.3224 186.391C88.5234 185.459 88.7658 184.537 89.0487 183.626L94.8846 183.743C96.2064 185.135 98.1707 186.422 99.8021 187.36C100.655 187.851 101.43 188.254 101.995 188.534C102.277 188.675 102.509 188.785 102.672 188.86C102.753 188.898 102.819 188.928 102.867 188.948C102.891 188.959 102.912 188.968 102.93 188.975C102.938 188.978 102.95 188.983 102.962 188.987C105.575 190.1 106.935 190.746 107.605 191.213C107.94 191.447 108.023 191.585 108.044 191.642C108.056 191.677 108.069 191.735 107.995 191.921C107.951 192.034 107.815 192.22 107.538 192.453C107.272 192.678 106.914 192.913 106.49 193.134C105.639 193.579 104.569 193.945 103.53 194.069L103.515 194.071L103.5 194.074C101.715 194.398 99.8728 194.143 98.2428 193.347C97.3664 192.858 96.2901 192.338 95.2232 191.939C94.1629 191.543 93.0645 191.246 92.1683 191.246Z" fill="#263238" stroke="black"/>
<path d="M89.1851 181.526L94.6066 181.641V183.247V183.26L94.6073 183.273C94.6226 183.564 94.5714 183.774 94.4884 183.931C94.4056 184.087 94.2744 184.222 94.0791 184.339C93.6698 184.582 93.0231 184.715 92.1588 184.749C89.7707 184.829 89.1851 183.694 89.1851 183.281V183.276V183.271V183.266V183.262V183.257V183.252V183.247V183.242V183.237V183.232V183.227V183.222V183.217V183.212V183.207V183.202V183.197V183.192V183.187V183.182V183.176V183.171V183.166V183.161V183.156V183.151V183.146V183.14V183.135V183.13V183.125V183.119V183.114V183.109V183.104V183.098V183.093V183.088V183.082V183.077V183.072V183.066V183.061V183.056V183.05V183.045V183.04V183.034V183.029V183.023V183.018V183.013V183.007V183.002V182.996V182.991V182.985V182.98V182.974V182.969V182.963V182.958V182.952V182.947V182.941V182.935V182.93V182.924V182.919V182.913V182.907V182.902V182.896V182.891V182.885V182.879V182.874V182.868V182.862V182.857V182.851V182.845V182.84V182.834V182.828V182.823V182.817V182.811V182.805V182.8V182.794V182.788V182.782V182.777V182.771V182.765V182.759V182.754V182.748V182.742V182.736V182.731V182.725V182.719V182.713V182.707V182.702V182.696V182.69V182.684V182.678V182.672V182.667V182.661V182.655V182.649V182.643V182.637V182.631V182.626V182.62V182.614V182.608V182.602V182.596V182.59V182.584V182.579V182.573V182.567V182.561V182.555V182.549V182.543V182.537V182.531V182.526V182.52V182.514V182.508V182.502V182.496V182.49V182.484V182.478V182.472V182.466V182.461V182.455V182.449V182.443V182.437V182.431V182.425V182.419V182.413V182.407V182.401V182.395V182.39V182.384V182.378V182.372V182.366V182.36V182.354V182.348V182.342V182.336V182.33V182.325V182.319V182.313V182.307V182.301V182.295V182.289V182.283V182.277V182.272V182.266V182.26V182.254V182.248V182.242V182.236V182.23V182.225V182.219V182.213V182.207V182.201V182.195V182.19V182.184V182.178V182.172V182.166V182.16V182.155V182.149V182.143V182.137V182.131V182.126V182.12V182.114V182.108V182.102V182.097V182.091V182.085V182.079V182.074V182.068V182.062V182.056V182.051V182.045V182.039V182.034V182.028V182.022V182.017V182.011V182.005V182V181.994V181.988V181.983V181.977V181.971V181.966V181.96V181.954V181.949V181.943V181.938V181.932V181.927V181.921V181.915V181.91V181.904V181.899V181.893V181.888V181.882V181.877V181.871V181.866V181.86V181.855V181.849V181.844V181.839V181.833V181.828V181.822V181.817V181.812V181.806V181.801V181.795V181.79V181.785V181.779V181.774V181.769V181.764V181.758V181.753V181.748V181.742V181.737V181.732V181.727V181.722V181.716V181.711V181.706V181.701V181.696V181.691V181.686V181.68V181.675V181.67V181.665V181.66V181.655V181.65V181.645V181.64V181.635V181.63V181.625V181.62V181.615V181.61V181.605V181.6V181.596V181.591V181.586V181.581V181.576V181.571V181.566V181.562V181.557V181.552V181.547V181.543V181.538V181.533V181.529V181.526Z" fill="#B16668" stroke="black"/>
<path d="M72.803 144.446L72.8031 144.446L72.8041 144.438C73.2172 141.064 74.0055 137.746 75.1545 134.547L75.1952 134.434L75.18 134.315L74.684 134.378L75.1799 134.315L75.1799 134.315L75.1798 134.314L75.1792 134.309L75.1768 134.291L75.1676 134.217C75.1594 134.153 75.1474 134.056 75.1318 133.931C75.1006 133.68 75.0554 133.313 74.9993 132.846C74.887 131.912 74.731 130.58 74.5561 128.99C74.2062 125.81 73.7811 121.601 73.4793 117.479L73.4792 117.477C72.9135 110.081 72.8613 105.207 73.306 101.365C73.7368 97.6422 74.6359 94.8719 76.0123 91.6953C76.1915 91.6794 76.4501 91.6579 76.7772 91.634C77.4524 91.5848 78.4192 91.5259 79.582 91.4873C81.9097 91.4102 85.0142 91.4151 88.1363 91.7403C91.267 92.0664 94.3733 92.7107 96.7292 93.8889C99.0769 95.0629 100.602 96.7216 100.774 99.0711L100.774 99.0712C101.717 111.892 100.467 136.712 100.127 141.248C99.8394 145.079 99.4928 147.116 98.4121 153.467C98.2206 154.592 98.0061 155.852 97.7649 157.282C97.1495 160.905 96.3691 166.862 95.7433 171.905C95.4301 174.428 95.1553 176.725 94.9588 178.392C94.8606 179.225 94.7819 179.901 94.7278 180.368L94.6755 180.821C93.8135 181.214 92.873 181.408 91.9236 181.388C90.9716 181.368 90.0376 181.132 89.1911 180.701C89.1765 180.55 89.156 180.337 89.1304 180.069C89.0754 179.494 88.9971 178.666 88.9038 177.656C88.7172 175.637 88.4707 172.89 88.2308 169.98C87.7495 164.142 87.3 157.7 87.4049 155.12L87.4049 155.119C87.5531 151.287 88.2014 147.49 89.3333 143.826L89.3611 143.736L89.3542 143.642L88.8556 143.679C89.3542 143.642 89.3542 143.642 89.3542 143.642L89.3542 143.641L89.3539 143.638L89.3531 143.627L89.3498 143.582L89.3368 143.406L89.2871 142.734C89.2441 142.155 89.1821 141.323 89.1064 140.314C88.9549 138.297 88.7484 135.572 88.528 132.743C88.088 127.095 87.5906 121.002 87.3669 119.315L86.3747 119.322L86.8712 119.381L86.3746 119.322L86.3746 119.323L86.3745 119.324L86.3741 119.327L86.3724 119.342L86.3657 119.399L86.3402 119.618C86.3181 119.809 86.2861 120.087 86.2467 120.435C86.1678 121.13 86.0591 122.104 85.9397 123.221C85.7011 125.452 85.4194 128.256 85.2484 130.534C85.0807 132.769 84.6612 134.961 84.1156 137.672C84.0693 137.902 84.0221 138.135 83.9741 138.373C83.4577 140.931 82.8491 143.945 82.2551 147.818C81.6835 151.482 80.8675 157.405 80.1948 162.409C79.8583 164.912 79.5575 167.186 79.3408 168.835C79.2324 169.659 79.1451 170.327 79.0849 170.788L79.0251 171.247C77.6056 171.953 76.5063 171.878 75.7682 171.649C75.3725 171.526 75.0682 171.354 74.8651 171.215C74.7962 171.168 74.7392 171.125 74.6949 171.089L74.6885 171.041C74.6682 170.889 74.6386 170.665 74.6012 170.378C74.5265 169.803 74.4207 168.974 74.2964 167.959C74.0479 165.929 73.7258 163.158 73.4314 160.189C73.1369 157.219 72.8706 154.056 72.733 151.242C72.5949 148.418 72.5887 145.981 72.803 144.446Z" fill="#BA68C8" stroke="black"/>
<g opacity="0.35">
<path d="M72.803 144.446L72.8031 144.446L72.8041 144.438C73.2172 141.064 74.0055 137.746 75.1545 134.547L75.1952 134.434L75.18 134.315L74.684 134.378L75.1799 134.315L75.1799 134.315L75.1798 134.314L75.1792 134.309L75.1768 134.291L75.1676 134.217C75.1594 134.153 75.1474 134.056 75.1318 133.931C75.1006 133.68 75.0554 133.313 74.9993 132.846C74.887 131.912 74.731 130.58 74.5561 128.99C74.2062 125.81 73.7811 121.601 73.4793 117.479L73.4792 117.477C72.9135 110.081 72.8613 105.207 73.306 101.365C73.7368 97.6422 74.6359 94.8719 76.0123 91.6953C76.1915 91.6794 76.4501 91.6579 76.7772 91.634C77.4524 91.5848 78.4192 91.5259 79.582 91.4873C81.9097 91.4102 85.0142 91.4151 88.1363 91.7403C91.267 92.0664 94.3733 92.7107 96.7292 93.8889C99.0769 95.0629 100.602 96.7216 100.774 99.0711L100.774 99.0712C101.717 111.892 100.467 136.712 100.127 141.248C99.8394 145.079 99.4928 147.116 98.4121 153.467C98.2206 154.592 98.0061 155.852 97.7649 157.282C97.1495 160.905 96.3691 166.862 95.7433 171.905C95.4301 174.428 95.1553 176.725 94.9588 178.392C94.8606 179.225 94.7819 179.901 94.7278 180.368L94.6755 180.821C93.8135 181.214 92.873 181.408 91.9236 181.388C90.9716 181.368 90.0376 181.132 89.1911 180.701C89.1765 180.55 89.156 180.337 89.1304 180.069C89.0754 179.494 88.9971 178.666 88.9038 177.656C88.7172 175.637 88.4707 172.89 88.2308 169.98C87.7495 164.142 87.3 157.7 87.4049 155.12L87.4049 155.119C87.5531 151.287 88.2014 147.49 89.3333 143.826L89.3611 143.736L89.3542 143.642L88.8556 143.679C89.3542 143.642 89.3542 143.642 89.3542 143.642L89.3542 143.641L89.3539 143.638L89.3531 143.627L89.3498 143.582L89.3368 143.406L89.2871 142.734C89.2441 142.155 89.1821 141.323 89.1064 140.314C88.9549 138.297 88.7484 135.572 88.528 132.743C88.088 127.095 87.5906 121.002 87.3669 119.315L86.3747 119.322L86.8712 119.381L86.3746 119.322L86.3746 119.323L86.3745 119.324L86.3741 119.327L86.3724 119.342L86.3657 119.399L86.3402 119.618C86.3181 119.809 86.2861 120.087 86.2467 120.435C86.1678 121.13 86.0591 122.104 85.9397 123.221C85.7011 125.452 85.4194 128.256 85.2484 130.534C85.0807 132.769 84.6612 134.961 84.1156 137.672C84.0693 137.902 84.0221 138.135 83.9741 138.373C83.4577 140.931 82.8491 143.945 82.2551 147.818C81.6835 151.482 80.8675 157.405 80.1948 162.409C79.8583 164.912 79.5575 167.186 79.3408 168.835C79.2324 169.659 79.1451 170.327 79.0849 170.788L79.0251 171.247C77.6056 171.953 76.5063 171.878 75.7682 171.649C75.3725 171.526 75.0682 171.354 74.8651 171.215C74.7962 171.168 74.7392 171.125 74.6949 171.089L74.6885 171.041C74.6682 170.889 74.6386 170.665 74.6012 170.378C74.5265 169.803 74.4207 168.974 74.2964 167.959C74.0479 165.929 73.7258 163.158 73.4314 160.189C73.1369 157.219 72.8706 154.056 72.733 151.242C72.5949 148.418 72.5887 145.981 72.803 144.446Z" fill="black" stroke="black"/>
</g>
<path d="M85.8624 53.4285L93.5076 55.0329L92.4547 63.6946L84.9956 63.0247L85.8624 53.4285Z" fill="#B16668" stroke="black"/>
<path d="M75.6563 62.9418L75.6563 62.9418C76.0826 61.7685 77.0372 60.5123 78.2753 59.625C79.5111 58.7393 80.9761 58.2569 82.4275 58.5274L82.4295 58.5277L84.4537 58.8964C84.7193 60.129 85.9909 60.9288 87.4541 61.2961C89.0896 61.7067 91.2067 61.661 93.3077 61.0109C94.4874 61.353 95.5764 61.7016 96.5378 62.049L96.5392 62.0494C97.7944 62.499 98.7687 63.7895 99.4355 66.1325C100.098 68.4619 100.419 71.7068 100.466 75.8411C100.513 79.996 100.75 87.2137 100.974 93.3872C101.087 96.4751 101.196 99.3037 101.277 101.36C101.318 102.389 101.352 103.224 101.375 103.802L101.396 104.32L98.7412 105.162L97.2588 99.6459L96.278 99.7304L95.6551 106.582C91.8902 107.404 87.9857 107.357 84.2386 106.444L84.2387 106.444L84.227 106.441C79.8405 105.483 76.9852 103.826 75.2345 102.427C74.3582 101.726 73.7562 101.088 73.3765 100.63C73.1865 100.402 73.0522 100.218 72.9668 100.094C72.9603 100.085 72.9541 100.076 72.9482 100.067C74.0396 94.6326 76.1701 89.4595 79.2233 84.8318L79.3635 84.6193L79.2741 84.3809C74.8109 72.482 74.3536 66.5262 75.6563 62.9418Z" fill="#EBEBEB" stroke="black"/>
<path d="M99.2758 35.5741L99.2756 35.5741L99.2828 35.5847C99.9361 36.5535 100.333 37.6721 100.438 38.8359C100.539 39.9709 100.359 41.1128 99.9131 42.1606L89.7272 52.7529C89.6317 52.565 89.5112 52.3854 89.3755 52.2152C89.0016 51.7466 88.4682 51.2933 87.857 50.853C86.8558 50.1318 85.5646 49.3899 84.2502 48.6348C83.9632 48.4699 83.6751 48.3044 83.3887 48.1383C81.7693 47.1993 80.1933 46.2373 79.0423 45.2276C77.874 44.2027 77.2668 43.2355 77.3291 42.2963L77.3292 42.2964L77.3297 42.2869C77.437 40.0297 78.2386 37.8606 79.6251 36.0761C81.0098 34.2939 82.9104 32.9821 85.0677 32.3195C91.471 30.6027 96.6229 31.4155 99.2758 35.5741Z" fill="#263238" stroke="black"/>
<path d="M101.627 47.1516C101.486 47.2242 101.342 47.2884 101.194 47.3439L101.165 46.1857C101.324 46.4825 101.467 46.7666 101.565 46.9977C101.59 47.0554 101.61 47.1067 101.627 47.1516Z" fill="#9A4A4D" stroke="black"/>
<path d="M100.162 44.7112L100.162 44.7113C100.802 51.5299 99.206 53.6927 98.4066 54.4213L98.4047 54.4231C98.3903 54.4364 98.3346 54.476 98.2065 54.5252C98.0849 54.5719 97.9253 54.6168 97.7304 54.6567C97.3408 54.7364 96.8472 54.7883 96.3111 54.8053C95.2286 54.8395 94.0552 54.7288 93.2922 54.4708C92.2806 54.124 90.6524 53.3636 89.0248 52.2463C87.3945 51.1271 85.8019 49.675 84.8185 47.9593C83.638 45.8956 82.9629 43.5192 82.9405 41.4261C82.918 39.3214 83.5505 37.6044 84.8575 36.6947L84.8575 36.6947L84.8602 36.6928C86.3103 35.6691 87.9968 35.0306 89.7613 34.8373C91.5169 34.6449 93.2924 34.8994 94.9231 35.5769C95.8006 36.0622 96.9339 36.7236 97.9363 38.0449C98.9469 39.3771 99.8537 41.4212 100.162 44.7112Z" fill="#B16668" stroke="black"/>
<path d="M80.2619 50.661L80.2615 50.6606C77.8901 47.9871 76.9233 44.3071 77.4576 41.0318C77.9896 37.7708 79.9994 34.9411 83.5742 33.8674C87.2404 32.7663 90.1871 33.2613 92.2131 34.0217C93.2286 34.4028 94.015 34.8517 94.5449 35.203C94.8097 35.3785 95.0099 35.5293 95.1419 35.6345C95.1688 35.6558 95.1928 35.6753 95.214 35.6927C95.2201 35.7235 95.227 35.7586 95.2345 35.7977C95.2683 35.9728 95.3146 36.2288 95.3641 36.5489C95.4633 37.1895 95.5749 38.0836 95.625 39.096C95.7109 40.8339 95.6116 42.8608 95.0011 44.5531C94.8982 44.4164 94.7795 44.2745 94.6447 44.1364C94.0416 43.5186 93.065 42.9375 91.759 43.3345C90.4527 43.7316 89.8417 44.8179 89.8004 45.9656C89.76 47.0872 90.2522 48.3041 91.1645 49.1458C91.6444 49.6341 92.252 49.9777 92.918 50.1373C93.2555 50.2181 93.6009 50.2501 93.9441 50.2336C93.2872 51.5949 92.4078 52.8394 91.3405 53.9151C91.3 53.931 91.2447 53.9519 91.1756 53.9764C91.0065 54.0362 90.7551 54.1167 90.4351 54.1957C89.7943 54.3538 88.8836 54.5044 87.8113 54.472C85.6804 54.4076 82.882 53.6214 80.2619 50.661Z" fill="#263238" stroke="black"/>
<path d="M77.396 36.4574L77.396 36.4574L77.3986 36.4596C77.5958 36.6289 77.7179 36.8695 77.738 37.1287C77.7443 37.2101 77.7404 37.2913 77.7268 37.3704L76.4461 36.2692C76.5235 36.2432 76.6039 36.2269 76.6857 36.2209C76.8138 36.2115 76.9426 36.2275 77.0645 36.2681C77.1864 36.3087 77.2991 36.373 77.396 36.4574Z" fill="#263238" stroke="black"/>
<path d="M121.356 82.1545L118.684 76.8757C118.94 76.5267 119.158 76.1223 119.355 75.6978C119.587 75.1985 119.803 74.6438 120.02 74.0854C120.037 74.0401 120.055 73.9948 120.073 73.9494C120.551 72.7208 121.052 71.4747 121.812 70.4745C122.225 69.9315 122.573 69.4259 122.868 68.9946C122.879 68.979 122.889 68.9636 122.9 68.9483C123.185 68.5315 123.411 68.2018 123.606 67.9601C123.707 67.8362 123.787 67.7501 123.852 67.6937C123.858 67.6886 123.864 67.6839 123.869 67.6795C123.873 67.6851 123.877 67.691 123.882 67.6975C123.996 67.8631 124.041 68.1042 123.995 68.4494C123.95 68.7941 123.821 69.1785 123.665 69.5683C123.592 69.7497 123.516 69.9251 123.443 70.0949C123.438 70.1055 123.434 70.1161 123.429 70.1266C123.353 70.3024 123.278 70.4772 123.219 70.6329C123.163 70.7805 123.107 70.9516 123.089 71.1117C123.075 71.2384 123.065 71.5774 123.368 71.772C123.369 71.7734 123.371 71.775 123.373 71.7768C123.39 71.7956 123.417 71.8274 123.452 71.8756C123.522 71.9718 123.61 72.1093 123.712 72.2843C123.913 72.6328 124.151 73.1015 124.382 73.6228C124.851 74.6806 125.263 75.8807 125.336 76.6977C125.347 76.8141 125.319 76.9992 125.216 77.2628C125.117 77.5199 124.96 77.8157 124.758 78.1394C124.352 78.7868 123.789 79.5004 123.209 80.1714C122.631 80.8399 122.047 81.4545 121.606 81.9027C121.516 81.994 121.432 82.0782 121.356 82.1545ZM123.36 71.7643C123.36 71.7643 123.361 71.7647 123.362 71.7656C123.361 71.7648 123.36 71.7643 123.36 71.7643Z" fill="#B16668" stroke="black"/>
<path d="M126.37 77.9163C125.724 78.2744 125.024 78.662 124.328 79.0899C124.294 78.2064 124.239 76.7935 124.183 75.4066C124.14 74.31 124.096 73.2219 124.063 72.408L124.028 71.535C124.153 71.5257 124.298 71.5151 124.459 71.5038C125.011 71.4655 125.754 71.4195 126.522 71.3889C127.292 71.3582 128.078 71.3433 128.719 71.3658C129.041 71.3771 129.316 71.3975 129.53 71.4278C129.637 71.4429 129.722 71.4595 129.785 71.4764C129.845 71.4921 129.87 71.504 129.874 71.5058C129.874 71.506 129.874 71.5061 129.874 71.506C129.916 71.5306 130.009 71.6242 130.081 71.9012C130.15 72.1653 130.179 72.5195 130.164 72.9322C130.134 73.7564 129.934 74.7113 129.66 75.4264C129.555 75.699 129.331 75.985 128.961 76.2981C128.593 76.6096 128.114 76.9207 127.545 77.2541C127.186 77.4644 126.789 77.6841 126.37 77.9163Z" fill="#B16668" stroke="black"/>
<path d="M96.3899 77.7465L96.3878 77.7439L96.3806 77.734C96.3725 77.723 96.3598 77.7054 96.3428 77.6812C96.3089 77.633 96.2582 77.5588 96.1945 77.4597C96.0672 77.2614 95.8882 76.9638 95.6882 76.5754C95.2881 75.7981 94.8057 74.66 94.484 73.2272C93.8594 70.4462 93.8345 66.5346 96.2305 61.9621C97.2958 62.3452 98.2699 62.7803 99.2259 63.5367C100.3 64.3868 101.382 65.6678 102.517 67.8003C104 70.5924 106.095 74.7247 107.821 78.1622C108.683 79.8803 109.453 81.4236 110.007 82.5374C110.284 83.0943 110.507 83.5438 110.661 83.8541L110.838 84.211L110.884 84.3036L110.896 84.3272L110.898 84.3332L110.899 84.3346L110.899 84.335C110.899 84.3351 110.899 84.3351 111.348 84.1135L110.899 84.3351L111.222 84.9865L111.715 84.4528L118.46 77.1541L118.482 77.1304L118.494 77.113C118.496 77.1115 118.498 77.1092 118.5 77.1063C118.511 77.0948 118.53 77.0769 118.556 77.0591C118.606 77.0252 118.676 76.9938 118.777 77.0006C118.988 77.0149 119.571 77.2266 120.467 78.7086C121.355 80.1778 121.567 81.0579 121.59 81.5289C121.601 81.7608 121.566 81.8914 121.545 81.9478C121.539 81.9641 121.533 81.9752 121.53 81.9816L121.516 82.0004L121.917 82.2994C121.516 82.0004 121.516 82.0004 121.516 82.0005L121.516 82.0008L121.515 82.0022L121.51 82.0079L121.494 82.0304L121.428 82.1184L121.177 82.4538C120.96 82.7435 120.648 83.1589 120.269 83.6616C119.512 84.6671 118.487 86.0214 117.418 87.4172C116.348 88.8135 115.235 90.2494 114.301 91.4187C113.354 92.6033 112.62 93.4764 112.293 93.7797C111.749 94.285 111.012 94.3747 110.169 94.0643C109.316 93.7502 108.411 93.0368 107.679 92.0439C106.897 90.9828 104.068 87.4004 101.445 84.0954C100.131 82.4402 98.8654 80.8507 97.9284 79.6752C97.4599 79.0874 97.0736 78.603 96.8043 78.2656L96.4926 77.8751L96.4109 77.7727L96.3899 77.7465Z" fill="#B16668" stroke="black"/>
<path opacity="0.2" d="M85.8873 124.165L85.8209 121.616L85.8206 121.605L85.8198 121.593L85.3599 115.206L85.3345 114.853L84.9929 114.76C84.2297 114.551 83.5544 114.302 82.9601 114.033C83.9279 114.359 84.9218 114.609 85.9331 114.781L86.3688 119.363L85.8873 124.165Z" fill="black" stroke="black"/>
<path d="M69.7162 44.3592L69.7162 44.358C69.7158 43.3832 69.9462 42.4221 70.3884 41.5534C70.8307 40.6847 71.4722 39.933 72.2606 39.3597C73.0491 38.7865 73.962 38.408 74.9247 38.2551C75.7687 38.1211 76.6299 38.1639 77.4542 38.3792V51.2816C77.4532 52.366 77.2383 53.4394 76.8219 54.4406C76.4055 55.4417 75.7957 56.3509 75.0275 57.1162C74.2593 57.8814 73.3477 58.4876 72.3449 58.9001C71.4965 59.2491 70.5968 59.4537 69.6832 59.5065L69.7162 44.3592Z" fill="#263238" stroke="black"/>
<path d="M97.6917 80.7954C97.8414 80.9967 97.99 81.1958 98.1363 81.3912C98.8403 82.3314 99.4955 83.1927 99.9748 83.819C100.214 84.1322 100.41 84.3866 100.546 84.5629L100.659 84.7092L100.743 87.2393L97.6917 80.7954Z" fill="#E0E0E0" stroke="black"/>
<path d="M137.877 54.7996L138.276 55.1001L138.338 55.0177L138.363 54.9175L137.877 54.7996ZM137.877 54.7996C138.363 54.9175 138.363 54.9174 138.363 54.9173L138.363 54.9168L138.363 54.9146L138.365 54.9058L138.374 54.8711L138.407 54.7349C138.436 54.6152 138.479 54.439 138.535 54.2126C138.646 53.7599 138.806 53.1071 139.004 52.3067C139.401 50.7058 139.949 48.515 140.554 46.1549C141.767 41.4266 143.204 36.0446 144.116 33.3536C144.813 31.3093 145.76 30.1712 146.631 29.5382C147.283 29.0638 147.912 28.8587 148.397 28.7792C148.399 28.7946 148.4 28.8102 148.402 28.8262C148.437 29.1383 148.465 29.5666 148.445 30.0344C148.402 30.9981 148.154 31.9977 147.466 32.5821C147.151 32.8497 146.929 33.2833 146.759 33.7434C146.583 34.2203 146.437 34.801 146.314 35.4353C146.069 36.7054 145.908 38.2478 145.801 39.7297C145.694 41.2144 145.64 42.652 145.614 43.7173C145.6 44.2503 145.593 44.6908 145.59 44.9984C145.588 45.1522 145.588 45.2728 145.587 45.3552L145.587 45.4244L142.407 59.1026C142.407 59.1032 142.407 59.1038 142.407 59.1043C142.145 60.1891 141.6 61.1851 140.829 61.9909L140.828 61.9918C137.694 65.2785 134.358 68.3651 130.838 71.2333C130.651 70.9645 130.394 70.7694 130.104 70.638C129.625 70.4209 129.06 70.3761 128.564 70.3919C128.058 70.4081 127.57 70.4895 127.214 70.5648C127.074 70.5944 126.953 70.6234 126.856 70.648L125.447 69.608C125.694 69.4225 126.007 69.1857 126.346 68.9244C127.133 68.3183 128.08 67.5669 128.669 67.0217C129.214 66.5198 130.089 65.5152 131.076 64.3195C132.072 63.114 133.204 61.6874 134.27 60.3227C135.336 58.9575 136.338 57.652 137.073 56.688C137.44 56.2059 137.741 55.8091 137.95 55.5327C138.054 55.3945 138.136 55.2865 138.191 55.2129L138.255 55.129L138.271 55.1074L138.275 55.1019L138.276 55.1006L138.276 55.1002C138.276 55.1001 138.276 55.1001 137.877 54.7996Z" fill="#FFA8A7" stroke="black"/>
<path d="M134.05 69.0192C133.959 69.1016 133.88 69.1733 133.814 69.2334C132.149 68.4481 130.812 67.1017 130.039 65.43L137.881 55.2236L137.948 55.1368L137.973 55.03L137.485 54.9189C137.973 55.03 137.973 55.03 137.973 55.0299L137.973 55.0295L137.973 55.0281L137.974 55.0221L137.98 54.9986L138.001 54.906L138.082 54.5501C138.153 54.241 138.256 53.7937 138.383 53.2413C138.637 52.1364 138.99 50.611 139.383 48.9286C140.171 45.562 141.122 41.5735 141.776 39.0681C141.796 38.9889 141.817 38.9096 141.838 38.8302C142.478 36.3739 143.134 33.8605 144.19 31.8711C145.206 29.9563 146.551 28.6041 148.549 28.2445C149.049 29.5924 149.642 30.9044 150.322 32.1712C150.324 32.1776 150.325 32.1872 150.327 32.2005C150.334 32.2506 150.339 32.3269 150.338 32.4343C150.338 32.6484 150.316 32.9431 150.274 33.3149C150.191 34.0563 150.029 35.0583 149.811 36.2423C149.375 38.6079 148.718 41.6648 148.025 44.7414C147.332 47.8166 146.604 50.9061 146.025 53.335C145.781 54.3573 145.563 55.2646 145.385 56.0047C145.142 57.0186 144.973 57.7185 144.917 57.9699C144.912 57.9951 144.881 58.0781 144.786 58.2336C144.697 58.3797 144.57 58.5593 144.406 58.7706C144.079 59.1926 143.624 59.7131 143.081 60.2995C141.994 61.4707 140.577 62.8774 139.166 64.2357C137.756 65.593 136.358 66.8971 135.312 67.8623C134.789 68.3448 134.354 68.7424 134.05 69.0192Z" fill="#BA68C8" stroke="black"/>
<path opacity="0.1" d="M134.05 69.0192C133.959 69.1016 133.88 69.1733 133.814 69.2334C132.149 68.4481 130.812 67.1017 130.039 65.43L137.881 55.2236L137.948 55.1368L137.973 55.03L137.485 54.9189C137.973 55.03 137.973 55.03 137.973 55.0299L137.973 55.0295L137.973 55.0281L137.974 55.0221L137.98 54.9986L138.001 54.906L138.082 54.5501C138.153 54.241 138.256 53.7937 138.383 53.2413C138.637 52.1364 138.99 50.611 139.383 48.9286C140.171 45.562 141.122 41.5735 141.776 39.0681C141.796 38.9889 141.817 38.9096 141.838 38.8302C142.478 36.3739 143.134 33.8605 144.19 31.8711C145.206 29.9563 146.551 28.6041 148.549 28.2445C149.049 29.5924 149.642 30.9044 150.322 32.1712C150.324 32.1776 150.325 32.1872 150.327 32.2005C150.334 32.2506 150.339 32.3269 150.338 32.4343C150.338 32.6484 150.316 32.9431 150.274 33.3149C150.191 34.0563 150.029 35.0583 149.811 36.2423C149.375 38.6079 148.718 41.6648 148.025 44.7414C147.332 47.8166 146.604 50.9061 146.025 53.335C145.781 54.3573 145.563 55.2646 145.385 56.0047C145.142 57.0186 144.973 57.7185 144.917 57.9699C144.912 57.9951 144.881 58.0781 144.786 58.2336C144.697 58.3797 144.57 58.5593 144.406 58.7706C144.079 59.1926 143.624 59.7131 143.081 60.2995C141.994 61.4707 140.577 62.8774 139.166 64.2357C137.756 65.593 136.358 66.8971 135.312 67.8623C134.789 68.3448 134.354 68.7424 134.05 69.0192Z" fill="black" stroke="black"/>
<path d="M167.316 145.342V136.854H171.852V145.342H167.316Z" fill="#FFA8A7" stroke="black"/>
<path d="M149.198 129.138V138.172L144.648 138.332L144.403 129.293L149.198 129.138Z" fill="#FFA8A7" stroke="black"/>
<path d="M171.943 104.707L171.443 104.713L171.443 104.731L171.445 104.749C171.481 105.182 171.611 105.682 171.766 106.233C171.809 106.382 171.853 106.536 171.9 106.697C172.029 107.146 172.172 107.642 172.317 108.209C172.705 109.737 173.092 111.746 173.147 114.426C173.227 118.383 172.962 125.036 172.676 130.715C172.532 133.551 172.384 136.139 172.272 138.018C172.216 138.957 172.168 139.719 172.135 140.247C172.122 140.461 172.111 140.637 172.102 140.77C171.283 141.13 170.399 141.325 169.502 141.342C168.599 141.36 167.702 141.197 166.865 140.864L166.86 140.837L166.72 139.983C166.6 139.244 166.426 138.179 166.214 136.876C165.791 134.27 165.216 130.713 164.61 126.911C163.398 119.302 162.065 110.72 161.572 106.791C161.145 103.349 160.179 97.0407 159.322 91.6007C158.892 88.8788 158.49 86.3716 158.195 84.5449C158.047 83.6316 157.926 82.8883 157.842 82.3733L157.745 81.7794L157.72 81.6244L157.714 81.5849L157.712 81.5749L157.712 81.5724L157.711 81.5717C157.711 81.5716 157.711 81.5715 157.218 81.6524L157.711 81.5715L156.726 81.5622L152.468 104.778L152.45 104.878L152.472 104.977C153.103 107.819 153.332 110.736 153.151 113.641C153.02 115.43 152.118 120.862 151.24 125.888C150.802 128.393 150.372 130.785 150.052 132.55C149.892 133.433 149.759 134.159 149.667 134.665L149.564 135.22C148.717 135.664 147.787 135.932 146.831 136.006C145.912 136.077 144.988 135.967 144.113 135.683L144.103 134.797L144.064 131.509C144.032 128.773 143.989 125.091 143.943 121.304C143.853 113.732 143.755 105.739 143.725 104.068L143.725 104.067C143.687 102.185 144.082 93.0679 144.488 84.3873C144.691 80.0545 144.896 75.8405 145.05 72.7097C145.128 71.1444 145.192 69.8498 145.237 68.9466L145.284 68.0272L171.078 69.1351C171.087 72.2676 171.173 80.7675 171.26 88.6702C171.306 92.8462 171.352 96.8568 171.386 99.8234C171.403 101.307 171.417 102.529 171.427 103.381L171.439 104.366L171.442 104.624L171.443 104.69L171.443 104.707L171.443 104.711L171.443 104.712C171.443 104.713 171.443 104.713 171.943 104.707Z" fill="#37474F" stroke="black"/>
<path d="M169.624 144.349C170.656 144.365 171.665 144.051 172.504 143.455C172.59 143.74 172.676 144.068 172.763 144.401L172.763 144.402C172.773 144.438 172.782 144.474 172.792 144.51C172.934 145.051 173.074 145.582 173.136 146.109C173.202 146.661 173.175 147.168 172.993 147.625C172.715 148.209 172.379 148.763 171.988 149.278L171.987 149.279C171.225 150.289 170.716 151.468 170.505 152.716L170.503 152.729L170.502 152.742C170.473 152.988 170.464 153.238 170.456 153.465C170.455 153.496 170.454 153.526 170.453 153.556C170.443 153.816 170.431 154.047 170.394 154.268L170.394 154.271C170.272 155.035 169.934 155.748 169.419 156.326C168.905 156.903 168.235 157.321 167.49 157.53L167.49 157.53L167.486 157.532C165.32 158.163 162.312 158.107 160.392 156.821L160.114 157.237L160.393 156.822L160.393 156.822C160.393 156.822 160.379 156.812 160.358 156.778C160.336 156.741 160.311 156.686 160.288 156.607C160.241 156.449 160.216 156.238 160.216 156.001C160.216 155.528 160.315 155.082 160.418 154.875C160.924 154.207 161.472 153.571 162.056 152.97L162.074 152.952L162.089 152.932C162.267 152.709 162.433 152.501 162.591 152.305C164.015 150.525 164.662 149.718 165.396 147.908C165.801 146.968 166.131 145.997 166.381 145.004C166.489 144.597 166.58 144.185 166.653 143.77C166.739 143.84 166.829 143.893 166.904 143.932C167.163 144.065 167.49 144.153 167.805 144.212C168.437 144.332 169.169 144.366 169.624 144.349Z" fill="#263238" stroke="black"/>
<path d="M139.691 140.587L139.913 141.035C139.913 141.035 139.913 141.035 139.914 141.035C139.914 141.034 139.914 141.034 139.915 141.034L139.691 140.587ZM143.645 138.21L143.649 138.311L143.91 138.444C144.771 138.881 146.115 138.952 147.274 138.811C147.867 138.74 148.447 138.609 148.933 138.421C149.26 138.295 149.584 138.128 149.837 137.907C149.868 138.007 149.899 138.116 149.931 138.232C150.083 138.785 150.222 139.436 150.355 140.054C150.409 140.305 150.461 140.55 150.513 140.781L150.513 140.782C150.53 140.856 150.547 140.929 150.563 141.002C150.714 141.664 150.859 142.296 150.868 142.861C150.879 143.472 150.729 143.88 150.359 144.136C150.147 144.282 149.824 144.413 149.4 144.517C148.982 144.62 148.499 144.691 147.991 144.736C146.975 144.826 145.9 144.809 145.137 144.763C144.657 144.735 144.145 144.846 143.647 145.008C143.145 145.172 142.619 145.402 142.103 145.638C141.941 145.712 141.781 145.787 141.623 145.86C140.74 146.27 139.912 146.654 139.181 146.819L143.645 138.21Z" fill="#263238" stroke="black"/>
<path d="M155.173 90.188L155.953 82.6832L155.986 82.3611L155.706 82.1988C154.697 81.6145 153.844 81.0205 153.131 80.4532C154.254 81.072 155.434 81.5884 156.657 81.9944L155.173 90.188Z" fill="#263238" stroke="black"/>
<path d="M169.365 47.2383L169.365 47.2406L169.365 47.2434L169.71 68.8215C168.816 69.4014 167.387 69.9394 165.586 70.3391C163.649 70.7688 161.326 71.0286 158.868 71.0228C154.03 71.0114 148.746 69.9717 144.868 67.2556L144.869 67.2293L144.9 66.3897C144.927 65.6643 144.966 64.6236 145.012 63.362C145.105 60.8388 145.228 57.4318 145.352 53.8971C145.598 46.8344 145.846 39.2424 145.846 37.1871C145.846 35.2269 146.39 33.0913 147.659 31.4119C148.913 29.752 150.898 28.5031 153.87 28.3193L161.903 28.564C162.024 28.5932 162.151 28.6227 162.282 28.6533C163.203 28.8685 164.344 29.1351 165.397 29.6907C166.595 30.3235 167.638 31.3129 168.023 33.0138L168.023 33.0139C168.525 35.2242 168.862 38.7694 169.072 41.79C169.178 43.2944 169.251 44.6588 169.298 45.6472C169.321 46.1413 169.338 46.5412 169.349 46.8174C169.355 46.9555 169.359 47.0626 169.361 47.1351L169.364 47.2175L169.365 47.2383Z" fill="#F5F5F5" stroke="black"/>
<path d="M149.038 72.537C149.028 72.5346 149.017 72.5323 149.007 72.5299C148.619 72.4413 148.083 72.3085 147.492 72.132C146.378 71.7994 145.132 71.3292 144.29 70.7396L144.29 70.6655L144.298 69.7331C144.305 68.9274 144.316 67.771 144.329 66.3682C144.357 63.5626 144.397 59.7717 144.449 55.8304C144.554 47.9356 144.705 39.4714 144.891 37.0815C144.904 36.9093 144.917 36.7403 144.93 36.5745C145.054 34.9709 145.156 33.6639 145.347 32.5735C145.558 31.3757 145.868 30.5 146.392 29.8275C147.367 28.5756 149.209 27.8664 153.169 27.4473C151.614 28.9004 150.484 30.7545 149.907 32.8109L149.903 32.8219L149.901 32.8331C149.793 33.2965 149.707 34.2814 149.632 35.5939C149.556 36.9259 149.49 38.6437 149.432 40.6077C149.316 44.5363 149.233 49.4623 149.175 54.2826C149.116 59.1034 149.082 63.8206 149.062 67.3324C149.052 69.0884 149.045 70.5432 149.041 71.5589C149.04 71.9541 149.039 72.2828 149.038 72.537Z" fill="#BA68C8" stroke="black"/>
<mask id="path-36-inside-1_432_859" fill="white">
<path d="M163.622 26.8652C163.622 26.8652 158.402 30.076 158.342 42.8594C158.291 53.931 157.925 73.1529 157.925 73.1529C157.925 73.1529 166.569 74.4219 172.045 71.1515C172.045 71.1515 172.701 44.3583 172.59 40.2107C172.471 35.4585 171.364 29.318 169.84 28.7048C167.816 27.9378 165.738 27.3229 163.622 26.8652Z"/>
</mask>
<path d="M163.622 26.8652C163.622 26.8652 158.402 30.076 158.342 42.8594C158.291 53.931 157.925 73.1529 157.925 73.1529C157.925 73.1529 166.569 74.4219 172.045 71.1515C172.045 71.1515 172.701 44.3583 172.59 40.2107C172.471 35.4585 171.364 29.318 169.84 28.7048C167.816 27.9378 165.738 27.3229 163.622 26.8652Z" fill="#BA68C8"/>
<path d="M163.622 26.8652L163.834 25.8879L163.441 25.8028L163.099 26.0134L163.622 26.8652ZM158.342 42.8594L157.342 42.8547L157.342 42.8548L158.342 42.8594ZM157.925 73.1529L156.925 73.1339L156.908 74.0144L157.78 74.1423L157.925 73.1529ZM172.045 71.1515L172.558 72.0101L173.032 71.7273L173.045 71.176L172.045 71.1515ZM172.59 40.2107L171.591 40.2358L171.591 40.2374L172.59 40.2107ZM169.84 28.7048L170.213 27.7771L170.203 27.7733L170.194 27.7697L169.84 28.7048ZM163.622 26.8652C163.099 26.0134 163.098 26.0139 163.097 26.0144C163.097 26.0146 163.096 26.015 163.095 26.0154C163.094 26.0161 163.093 26.0169 163.092 26.0177C163.089 26.0193 163.086 26.0211 163.083 26.0232C163.076 26.0273 163.069 26.0322 163.06 26.0381C163.042 26.0497 163.019 26.0649 162.992 26.0838C162.938 26.1216 162.866 26.1742 162.778 26.2432C162.603 26.3813 162.367 26.585 162.091 26.867C161.538 27.4316 160.829 28.3061 160.127 29.5888C158.722 32.1579 157.373 36.325 157.342 42.8547L159.342 42.8641C159.371 36.6104 160.662 32.7804 161.882 30.5483C162.493 29.4304 163.092 28.7032 163.52 28.2663C163.734 28.0475 163.907 27.9005 164.018 27.8131C164.073 27.7694 164.113 27.7406 164.135 27.725C164.146 27.7173 164.153 27.7129 164.155 27.7116C164.156 27.711 164.156 27.7111 164.154 27.712C164.154 27.7125 164.153 27.7131 164.151 27.714C164.151 27.7144 164.15 27.7149 164.149 27.7154C164.149 27.7156 164.148 27.716 164.148 27.7162C164.147 27.7166 164.146 27.717 163.622 26.8652ZM157.342 42.8548C157.317 48.3845 157.212 55.9531 157.114 62.1422C157.065 65.2361 157.018 67.9841 156.983 69.9587C156.965 70.946 156.951 71.7399 156.941 72.2869C156.936 72.5604 156.932 72.7722 156.929 72.9156C156.928 72.9873 156.927 73.0419 156.926 73.0785C156.926 73.0969 156.925 73.1107 156.925 73.12C156.925 73.1246 156.925 73.1281 156.925 73.1304C156.925 73.1316 156.925 73.1324 156.925 73.133C156.925 73.1333 156.925 73.1335 156.925 73.1337C156.925 73.1338 156.925 73.1339 157.925 73.1529C158.925 73.172 158.925 73.1719 158.925 73.1717C158.925 73.1716 158.925 73.1714 158.925 73.1711C158.925 73.1705 158.925 73.1696 158.925 73.1684C158.925 73.1661 158.925 73.1626 158.925 73.1579C158.925 73.1486 158.925 73.1347 158.926 73.1164C158.926 73.0796 158.927 73.0249 158.929 72.9531C158.931 72.8095 158.935 72.5975 158.94 72.3238C158.951 71.7764 158.965 70.9821 158.983 69.9943C159.018 68.0187 159.065 65.2693 159.114 62.1738C159.212 55.984 159.317 48.4058 159.342 42.864L157.342 42.8548ZM157.925 73.1529C157.78 74.1423 157.78 74.1423 157.78 74.1424C157.78 74.1424 157.781 74.1425 157.781 74.1425C157.781 74.1426 157.782 74.1427 157.783 74.1428C157.785 74.143 157.787 74.1434 157.789 74.1437C157.795 74.1445 157.802 74.1456 157.812 74.1469C157.831 74.1495 157.858 74.1533 157.893 74.1578C157.963 74.167 158.064 74.1797 158.193 74.1946C158.452 74.2242 158.823 74.2622 159.286 74.2972C160.209 74.3671 161.497 74.4253 162.964 74.3781C165.865 74.2848 169.6 73.7764 172.558 72.0101L171.533 70.293C169.014 71.797 165.69 72.2893 162.899 72.3791C161.52 72.4235 160.306 72.3688 159.437 72.3029C159.003 72.2701 158.656 72.2346 158.421 72.2076C158.303 72.1941 158.213 72.1827 158.154 72.1749C158.124 72.171 158.102 72.168 158.088 72.166C158.081 72.165 158.076 72.1643 158.073 72.1639C158.071 72.1637 158.07 72.1636 158.07 72.1635C158.07 72.1635 158.07 72.1634 158.07 72.1634C158.07 72.1634 158.07 72.1635 158.07 72.1635C158.07 72.1635 158.07 72.1635 157.925 73.1529ZM172.045 71.1515C173.045 71.176 173.045 71.1759 173.045 71.1757C173.045 71.1755 173.045 71.1752 173.045 71.1747C173.045 71.1739 173.045 71.1727 173.045 71.1711C173.045 71.1678 173.045 71.1629 173.046 71.1565C173.046 71.1436 173.046 71.1243 173.047 71.0989C173.048 71.048 173.05 70.9725 173.052 70.8738C173.057 70.6765 173.064 70.3865 173.073 70.016C173.091 69.2751 173.116 68.2121 173.146 66.9235C173.206 64.3463 173.284 60.8667 173.359 57.2573C173.509 50.0573 173.646 42.2885 173.59 40.184L171.591 40.2374C171.645 42.2806 171.51 49.9822 171.36 57.2157C171.285 60.823 171.206 64.3009 171.146 66.8771C171.116 68.1651 171.091 69.2277 171.074 69.9682C171.065 70.3385 171.058 70.6282 171.053 70.8254C171.051 70.924 171.049 70.9994 171.048 71.0502C171.047 71.0756 171.046 71.0948 171.046 71.1077C171.046 71.1141 171.046 71.119 171.046 71.1222C171.046 71.1238 171.046 71.125 171.046 71.1258C171.046 71.1262 171.046 71.1265 171.046 71.1267C171.046 71.1269 171.046 71.127 172.045 71.1515ZM173.59 40.1857C173.529 37.7537 173.216 34.9668 172.719 32.692C172.471 31.5582 172.169 30.5144 171.813 29.6943C171.635 29.2847 171.43 28.9007 171.191 28.5814C170.96 28.2721 170.642 27.9496 170.213 27.7771L169.466 29.6326C169.418 29.6133 169.468 29.6169 169.59 29.7793C169.704 29.9318 169.837 30.1652 169.979 30.4917C170.262 31.144 170.531 32.0473 170.765 33.1192C171.232 35.2561 171.532 37.9155 171.591 40.2358L173.59 40.1857ZM170.194 27.7697C168.124 26.9851 165.998 26.3561 163.834 25.8879L163.411 27.8426C165.478 28.2898 167.508 28.8906 169.485 29.6399L170.194 27.7697Z" fill="black" mask="url(#path-36-inside-1_432_859)"/>
<path d="M182.555 56.3323L182.555 56.333C183.273 59.247 183.66 63.398 184.11 68.2195C184.182 68.9838 184.255 69.7651 184.331 70.5609C184.47 72.7866 184.448 75.0196 184.263 77.242L184.263 77.242L184.262 77.2529C184.076 80.2838 183.593 82.2523 182.884 83.532C182.193 84.7803 181.275 85.3955 180.12 85.6998L180.119 85.6999C179.125 85.9627 178.404 86.0527 177.903 86.0184C177.406 85.9843 177.204 85.8364 177.112 85.7004C177.008 85.5455 176.946 85.2622 177.032 84.7624C177.116 84.273 177.327 83.6579 177.654 82.922C178.243 81.6265 178.649 80.2553 178.859 78.8479L179.14 76.9758L177.972 78.4654C177.577 78.9688 177.114 79.4153 176.597 79.7921L176.59 79.7976L176.582 79.8035C176.396 79.9501 176.162 80.0218 175.925 80.0042C175.777 79.9932 175.635 79.9477 175.51 79.8727C175.528 79.8484 175.549 79.821 175.574 79.79C175.593 79.7658 175.613 79.7404 175.634 79.7138C175.847 79.4452 176.157 79.0539 176.453 78.5111L176.455 78.5086C176.748 77.9645 176.943 77.4553 177.117 77.0037C177.179 76.8401 177.239 76.6841 177.3 76.5368C177.531 75.9739 177.801 75.4497 178.34 74.8642C178.867 74.3011 179.171 73.5657 179.197 72.7948L179.197 72.7948L179.197 72.7863C179.258 69.0409 178.213 63.5774 177.304 59.3287C176.776 56.8332 174.87 52.1422 173.123 48.1235C172.244 46.1031 171.398 44.2357 170.772 42.8736C170.459 42.1925 170.2 41.6374 170.02 41.2526C169.93 41.0601 169.86 40.9102 169.812 40.8083L169.757 40.6922L169.743 40.6624L169.739 40.6548L169.738 40.6529L169.738 40.6524C169.738 40.6523 169.738 40.6522 169.286 40.8666L169.738 40.6522L169.718 40.611L169.692 40.574C168.298 38.6416 167.464 36.0557 167.21 33.6766C167.084 32.49 167.103 31.3719 167.261 30.4288C167.4 29.5932 167.643 28.9293 167.958 28.4729C169.329 28.4974 170.565 28.8976 171.733 29.7638C172.979 30.6888 174.169 32.1621 175.348 34.3344C177.71 38.6874 179.957 45.7115 182.555 56.3323Z" fill="#FFA8A7" stroke="black"/>
<path d="M169.005 42.084L169.454 41.8647L169.439 41.8337L169.42 41.8052L169.42 41.8052L169.42 41.805L169.42 41.8048L169.418 41.8021L169.409 41.789C169.401 41.7769 169.389 41.7581 169.373 41.7328C169.341 41.6822 169.293 41.6057 169.232 41.5048C169.11 41.3032 168.937 41.0047 168.736 40.6228C168.334 39.8584 167.821 38.7635 167.382 37.4453C166.531 34.8876 165.969 31.53 166.98 28.1202C167.066 28.1215 167.167 28.1241 167.279 28.1289C167.69 28.1464 168.26 28.1927 168.897 28.3076C170.186 28.54 171.677 29.0403 172.703 30.078C174.884 32.283 177.911 37.0108 180.864 47.5082C183.76 57.8004 184.686 65.3627 184.856 71.1991C184.777 71.2278 184.684 71.2602 184.578 71.2943C184.199 71.4166 183.657 71.561 183.014 71.6478C181.78 71.8144 180.204 71.7653 178.681 70.9731C178.673 70.9251 178.664 70.8702 178.654 70.8088C178.609 70.5478 178.545 70.1696 178.463 69.7007C178.3 68.7628 178.068 67.4615 177.794 66.0071C177.246 63.1035 176.528 59.5725 175.849 57.1106C175.165 54.6288 173.558 50.8059 172.138 47.6296C171.425 46.0357 170.754 44.595 170.262 43.5529C170.016 43.0317 169.814 42.6101 169.674 42.3185C169.604 42.1727 169.549 42.0595 169.512 41.9826L169.469 41.895L169.458 41.8725L169.455 41.8668L169.455 41.8653L169.454 41.8649C169.454 41.8648 169.454 41.8647 169.005 42.084Z" fill="#BA68C8" stroke="black"/>
<path opacity="0.1" d="M169.005 42.084L169.454 41.8647L169.439 41.8337L169.42 41.8052L169.42 41.8052L169.42 41.805L169.42 41.8048L169.418 41.8021L169.409 41.789C169.401 41.7769 169.389 41.7581 169.373 41.7328C169.341 41.6822 169.293 41.6057 169.232 41.5048C169.11 41.3032 168.937 41.0047 168.736 40.6228C168.334 39.8584 167.821 38.7635 167.382 37.4453C166.531 34.8876 165.969 31.53 166.98 28.1202C167.066 28.1215 167.167 28.1241 167.279 28.1289C167.69 28.1464 168.26 28.1927 168.897 28.3076C170.186 28.54 171.677 29.0403 172.703 30.078C174.884 32.283 177.911 37.0108 180.864 47.5082C183.76 57.8004 184.686 65.3627 184.856 71.1991C184.777 71.2278 184.684 71.2602 184.578 71.2943C184.199 71.4166 183.657 71.561 183.014 71.6478C181.78 71.8144 180.204 71.7653 178.681 70.9731C178.673 70.9251 178.664 70.8702 178.654 70.8088C178.609 70.5478 178.545 70.1696 178.463 69.7007C178.3 68.7628 178.068 67.4615 177.794 66.0071C177.246 63.1035 176.528 59.5725 175.849 57.1106C175.165 54.6288 173.558 50.8059 172.138 47.6296C171.425 46.0357 170.754 44.595 170.262 43.5529C170.016 43.0317 169.814 42.6101 169.674 42.3185C169.604 42.1727 169.549 42.0595 169.512 41.9826L169.469 41.895L169.458 41.8725L169.455 41.8668L169.455 41.8653L169.454 41.8649C169.454 41.8648 169.454 41.8647 169.005 42.084Z" fill="black" stroke="black"/>
<g opacity="0.1">
<mask id="path-41-inside-2_432_859" fill="white">
<path d="M164.21 33.8574L161.817 36.8127L163.018 40.1852L159.875 48.2419L163.657 40.1852L162.337 37L164.21 33.8574Z"/>
</mask>
<path d="M164.21 33.8574L161.817 36.8127L163.018 40.1852L159.875 48.2419L163.657 40.1852L162.337 37L164.21 33.8574Z" fill="black"/>
<path d="M164.21 33.8574L165.069 34.3695L163.433 33.2281L164.21 33.8574ZM161.817 36.8127L161.04 36.1834L160.687 36.6195L160.875 37.1481L161.817 36.8127ZM163.018 40.1852L163.95 40.5486L164.085 40.2012L163.96 39.8498L163.018 40.1852ZM159.875 48.2419L158.944 47.8785L160.781 48.6668L159.875 48.2419ZM163.657 40.1852L164.562 40.6101L164.75 40.2103L164.581 39.8024L163.657 40.1852ZM162.337 37L161.478 36.4879L161.221 36.9191L161.413 37.3829L162.337 37ZM163.433 33.2281L161.04 36.1834L162.594 37.442L164.988 34.4867L163.433 33.2281ZM160.875 37.1481L162.076 40.5207L163.96 39.8498L162.759 36.4772L160.875 37.1481ZM162.086 39.8218L158.944 47.8785L160.807 48.6053L163.95 40.5486L162.086 39.8218ZM160.781 48.6668L164.562 40.6101L162.752 39.7604L158.97 47.8171L160.781 48.6668ZM164.581 39.8024L163.261 36.6172L161.413 37.3829L162.733 40.5681L164.581 39.8024ZM163.196 37.5121L165.069 34.3695L163.352 33.3453L161.478 36.4879L163.196 37.5121Z" fill="black" mask="url(#path-41-inside-2_432_859)"/>
</g>
<g opacity="0.1">
<mask id="path-43-inside-3_432_859" fill="white">
<path d="M147.347 32.9033L147.867 35.9608L145.797 38.6605L148.676 47.7222L146.445 38.7627L148.352 36.2418L147.347 32.9033Z"/>
</mask>
<path d="M147.347 32.9033L147.867 35.9608L145.797 38.6605L148.676 47.7222L146.445 38.7627L148.352 36.2418L147.347 32.9033Z" fill="black"/>
<path d="M147.347 32.9033L148.305 32.6151L146.362 33.0708L147.347 32.9033ZM147.867 35.9608L148.661 36.5692L148.926 36.2231L148.853 35.7933L147.867 35.9608ZM145.797 38.6605L145.004 38.0522L144.686 38.4662L144.844 38.9633L145.797 38.6605ZM148.676 47.7222L147.723 48.025L149.646 47.4805L148.676 47.7222ZM146.445 38.7627L145.647 38.1593L145.359 38.5405L145.474 39.0044L146.445 38.7627ZM148.352 36.2418L149.15 36.8453L149.456 36.4401L149.31 35.9536L148.352 36.2418ZM146.362 33.0708L146.881 36.1283L148.853 35.7933L148.333 32.7358L146.362 33.0708ZM147.073 35.3524L145.004 38.0522L146.591 39.2689L148.661 36.5692L147.073 35.3524ZM144.844 38.9633L147.723 48.025L149.629 47.4194L146.75 38.3578L144.844 38.9633ZM149.646 47.4805L147.415 38.5211L145.474 39.0044L147.706 47.9639L149.646 47.4805ZM147.242 39.3662L149.15 36.8453L147.555 35.6384L145.647 38.1593L147.242 39.3662ZM149.31 35.9536L148.305 32.6151L146.39 33.1916L147.395 36.5301L149.31 35.9536Z" fill="black" mask="url(#path-43-inside-3_432_859)"/>
</g>
<path d="M154.156 2.84904C158.034 3.47855 160.668 7.13269 160.038 11.0108C159.409 14.8889 155.754 17.5224 151.876 16.8929C147.998 16.2634 145.365 12.6093 145.994 8.73115C146.624 4.85305 150.278 2.21954 154.156 2.84904Z" fill="#263238" stroke="black"/>
<path d="M165.221 17.2489C165.153 17.5466 165.081 17.8604 165.006 18.1791C164.823 18.9616 164.626 19.7701 164.446 20.4405C164.265 21.117 164.115 21.6001 164.023 21.7947C163.88 22.0423 163.69 22.2564 163.467 22.4265L163.531 19.3469L165.221 17.2489Z" fill="#263238" stroke="black"/>
<path d="M165.782 14.828L164.366 14.9887L165.076 7.45676C165.299 7.47003 165.521 7.51522 165.733 7.59153C166.071 7.71329 166.377 7.91106 166.627 8.16962L166.627 8.16962L166.629 8.17109C166.778 8.32384 166.907 8.60011 166.969 9.0449C167.03 9.48321 167.019 10.035 166.934 10.6765C166.774 11.8838 166.364 13.3426 165.782 14.828Z" fill="#263238" stroke="black"/>
<path d="M162.632 15.4382L162.632 15.438L162.632 15.4378L162.633 15.4348L162.636 15.4207C162.638 15.412 162.64 15.4001 162.643 15.3852C162.645 15.3778 162.646 15.3697 162.648 15.3609C162.659 15.3074 162.674 15.2271 162.693 15.1231C162.73 14.9152 162.778 14.6129 162.822 14.2408C162.912 13.4951 162.986 12.4764 162.926 11.3779C162.806 9.15039 162.15 6.75216 160.163 5.5029C158.062 4.1824 155.052 3.53808 152.49 4.05894C151.217 4.3178 150.075 4.8599 149.204 5.72721C148.338 6.59046 147.712 7.80337 147.512 9.45757L162.632 15.4382ZM162.632 15.4382L162.632 15.4382M162.632 15.4382L162.632 15.4382M162.632 15.4382L162.553 15.7948L162.869 15.9787C163.158 16.1471 163.458 16.1118 163.689 16.0192C163.907 15.9321 164.104 15.7816 164.266 15.6364C164.481 15.4453 164.718 15.1844 164.924 14.9568C165.019 14.8523 165.108 14.7548 165.185 14.6743L165.195 14.6637L165.204 14.6525C165.373 14.4538 165.591 14.302 165.835 14.2117C166.08 14.1213 166.344 14.0955 166.601 14.1367C166.859 14.1779 167.101 14.2847 167.305 14.4469C167.51 14.6091 167.669 14.8211 167.767 15.0625L167.772 15.0754L167.778 15.088C168.163 15.898 168.011 16.8903 167.539 17.7827C167.061 18.6866 166.335 19.337 165.784 19.5055L165.781 19.5065C164.608 19.874 164.057 19.647 163.81 19.4595C163.674 19.3566 163.591 19.2374 163.542 19.1445C163.517 19.0982 163.502 19.06 163.494 19.0365C163.49 19.0248 163.488 19.0171 163.487 19.0142M162.632 15.4382L163.484 19.0218M163.484 19.0218C163.488 19.0208 163.488 19.0207 163.488 19.0206L163.488 19.0199L163.488 19.0186L163.487 19.0165L163.487 19.0142M163.484 19.0218L162.501 19.1221L162.317 28.4146C161.472 29.4526 160.145 30.5837 158.769 31.4224C158.054 31.8578 157.341 32.2057 156.689 32.4211C156.029 32.6391 155.474 32.7075 155.058 32.6326L155.056 32.6322C154.515 32.5375 154.086 32.0168 153.997 31.1428C153.91 30.2873 154.183 29.2364 154.905 28.4013L155.027 28.2605V28.0744V25.298V24.7121L154.448 24.8042C153.366 24.9764 152.268 25.0322 151.174 24.9705C149.583 24.7143 148.522 23.4605 147.982 21.543C147.092 18.366 146.743 15.8109 147.512 9.45774L163.484 19.0218ZM163.487 19.0142L163.487 19.0137L163.487 19.0142Z" fill="#FFA8A7" stroke="black"/>
<path d="M146.155 1.99818C147.681 2.58622 149.327 2.65029 150.961 2.52504C151.883 2.45432 152.815 2.32197 153.729 2.1831C153.903 2.15671 154.076 2.13013 154.248 2.10366C154.987 1.98997 155.712 1.87851 156.425 1.79493L156.425 1.79486C158.891 1.50278 160.444 1.72684 161.493 2.1348C162.533 2.53914 163.127 3.14171 163.661 3.72961L163.661 3.72965L163.666 3.73509C164.039 4.1331 164.283 4.63418 164.366 5.17292C164.45 5.71166 164.369 6.26302 164.134 6.75503L164.067 6.89481L164.091 7.04783L164.585 6.97037L164.091 7.04784L164.091 7.04801L164.091 7.04878L164.092 7.05211L164.094 7.06579L164.102 7.12021C164.11 7.16814 164.12 7.23883 164.134 7.32924C164.16 7.51009 164.197 7.76968 164.239 8.08362C164.324 8.71209 164.428 9.55574 164.507 10.4204C164.586 11.2882 164.639 12.1633 164.624 12.8595C164.617 13.2091 164.593 13.4963 164.552 13.708C164.532 13.8137 164.51 13.8878 164.49 13.9358C164.482 13.9547 164.476 13.966 164.473 13.9717C164.175 14.251 163.819 14.7286 163.528 15.1198C163.5 15.1567 163.473 15.1929 163.447 15.2281C163.325 15.3909 163.216 15.5355 163.121 15.6527C163.109 15.6264 163.097 15.5974 163.083 15.5656C162.956 15.2565 162.835 14.8035 162.716 14.2557C162.61 13.7671 162.51 13.2281 162.41 12.684C162.399 12.624 162.388 12.564 162.377 12.504C162.267 11.9077 162.155 11.3101 162.033 10.7971C161.805 9.68106 161.628 8.83572 161.387 8.29451C161.263 8.01505 161.095 7.75264 160.837 7.58035C160.566 7.39907 160.264 7.36211 159.967 7.40254C157.257 7.70849 154.524 7.759 151.805 7.55341L151.805 7.55333L151.796 7.55281C150.45 7.47552 149.133 7.12992 147.922 6.5365C147.182 5.94881 146.63 5.1567 146.336 4.25801C146.096 3.52716 146.035 2.75245 146.155 1.99818ZM163.25 15.8669C163.251 15.8677 163.252 15.8681 163.252 15.8681C163.252 15.8682 163.251 15.8678 163.25 15.8669Z" fill="#263238" stroke="black"/>
<path d="M166.685 5.81153L164.947 6.74612C164.947 6.62672 164.964 6.50695 165 6.39085C165.088 6.10212 165.282 5.85734 165.542 5.70493C165.666 5.64033 165.802 5.60098 165.942 5.5892C166.084 5.57718 166.228 5.59411 166.363 5.63897C166.48 5.67749 166.588 5.73592 166.685 5.81153Z" fill="#263238" stroke="black"/>
<path d="M155.044 25.7947V25.7092C156.578 25.3964 158.088 24.974 159.562 24.4454C159.505 24.4714 159.447 24.4976 159.386 24.5238C158.755 24.7971 157.999 25.0435 157.262 25.2514C156.528 25.4587 155.824 25.6246 155.304 25.7387C155.211 25.7591 155.124 25.7777 155.044 25.7947Z" fill="#F28F8F" stroke="black"/>
<path d="M156.152 14.7478C156.086 14.6818 156.049 14.5924 156.049 14.4991C156.049 14.4059 156.086 14.3164 156.152 14.2505C156.218 14.1845 156.307 14.1475 156.4 14.1475C156.494 14.1475 156.583 14.1845 156.649 14.2505C156.715 14.3164 156.752 14.4058 156.752 14.4991C156.752 14.5924 156.715 14.6818 156.649 14.7478L157.003 15.1013L156.649 14.7478C156.583 14.8137 156.494 14.8508 156.4 14.8508C156.307 14.8508 156.218 14.8137 156.152 14.7478Z" fill="#263238" stroke="black"/>
<path d="M157.561 11.3326C157.626 11.3715 157.682 11.4223 157.727 11.4818L157.356 11.277C157.363 11.2773 157.37 11.2778 157.377 11.2785C157.441 11.2844 157.504 11.3027 157.561 11.3326Z" fill="#263238" stroke="black"/>
<path d="M153.91 21.1941L154.315 21.0422C154.261 21.0961 154.197 21.1394 154.126 21.1689C154.065 21.1903 154 21.1996 153.936 21.1962C153.927 21.1957 153.918 21.195 153.91 21.1941Z" fill="#F28F8F" stroke="black"/>
<path d="M148.776 10.8664C148.778 10.8658 148.781 10.8652 148.783 10.8646L148.461 11.113C148.497 11.0513 148.544 10.996 148.6 10.9504C148.653 10.9111 148.712 10.8825 148.776 10.8664Z" fill="#263238" stroke="black"/>
<path d="M149.186 14.4753C149.12 14.4094 149.083 14.3199 149.083 14.2267C149.083 14.1334 149.12 14.044 149.186 13.978C149.251 13.912 149.341 13.875 149.434 13.875C149.527 13.875 149.617 13.9121 149.683 13.978C149.749 14.0439 149.786 14.1334 149.786 14.2267C149.786 14.3199 149.749 14.4094 149.683 14.4753L150.036 14.8289L149.683 14.4753C149.617 14.5413 149.527 14.5783 149.434 14.5783C149.341 14.5783 149.251 14.5413 149.186 14.4753Z" fill="#263238" stroke="black"/>
<path d="M150.737 17.3485L152.255 15.1849L152.113 17.816L150.737 17.3485Z" fill="#F28F8F" stroke="black"/>
<path d="M154.383 31.3664L154.524 32.7578L154.613 33.6383L155.321 33.1077L157.691 31.3316L159.13 32.7644C158.638 33.1477 158.087 33.4511 157.497 33.6624C156.749 33.9306 155.954 34.0447 155.161 33.9979C154.339 33.8945 153.755 33.7333 153.327 33.4853C153.012 33.3031 152.765 33.0643 152.569 32.7306L154.383 31.3664Z" fill="#BA68C8" stroke="black"/>
<path opacity="0.1" d="M154.383 31.3664L154.524 32.7578L154.613 33.6383L155.321 33.1077L157.691 31.3316L159.13 32.7644C158.638 33.1477 158.087 33.4511 157.497 33.6624C156.749 33.9306 155.954 34.0447 155.161 33.9979C154.339 33.8945 153.755 33.7333 153.327 33.4853C153.012 33.3031 152.765 33.0643 152.569 32.7306L154.383 31.3664Z" fill="black" stroke="black"/>
<path d="M154.804 33.2008L154.934 33.2631L155.077 33.247L156.835 33.0496C156.776 33.5091 156.648 33.9582 156.453 34.3809C156.192 34.9468 155.818 35.4529 155.354 35.8682C155.149 35.9306 154.934 35.9508 154.72 35.9271C154.506 35.9033 154.299 35.836 154.113 35.7296C153.779 35.2655 153.568 34.7242 153.5 34.156C153.457 33.642 153.492 33.1255 153.604 32.6239L154.804 33.2008Z" fill="#BA68C8" stroke="black"/>
<path d="M154.124 36.8557L154.162 36.6435L155.123 36.728L155.141 36.9844C155.171 37.4193 155.214 38.0419 155.267 38.7926C155.371 40.2941 155.509 42.3082 155.647 44.3586C155.785 46.4092 155.922 48.4954 156.023 50.1415C156.125 51.8045 156.187 52.9822 156.182 53.2469C156.177 53.4404 156.075 53.8342 155.861 54.3673C155.656 54.8799 155.371 55.464 155.054 56.0132C154.735 56.565 154.395 57.0636 154.081 57.4148C153.924 57.5911 153.786 57.7159 153.673 57.7922C153.595 57.8452 153.55 57.8611 153.533 57.8659C153.517 57.8595 153.478 57.84 153.412 57.7843C153.308 57.6964 153.182 57.5547 153.042 57.3557C152.761 56.9595 152.468 56.4039 152.203 55.7927C151.939 55.1845 151.711 54.5405 151.557 53.9772C151.398 53.3938 151.335 52.9588 151.354 52.7395C151.407 52.1384 152.124 48.0265 152.838 44.0156C153.193 42.0211 153.544 40.0659 153.807 38.6092C153.938 37.8809 154.048 37.2773 154.124 36.8557Z" fill="#BA68C8" stroke="black"/>
<g opacity="0.1">
<mask id="path-62-inside-4_432_859" fill="white">
<path d="M155.609 36.3099C155.311 36.4414 154.984 36.4918 154.661 36.4559C154.338 36.42 154.03 36.2991 153.769 36.1055V36.3524C154.035 36.5645 154.348 36.7093 154.681 36.7745C155.015 36.8398 155.359 36.8235 155.685 36.7272L155.609 36.3099Z"/>
</mask>
<path d="M155.609 36.3099C155.311 36.4414 154.984 36.4918 154.661 36.4559C154.338 36.42 154.03 36.2991 153.769 36.1055V36.3524C154.035 36.5645 154.348 36.7093 154.681 36.7745C155.015 36.8398 155.359 36.8235 155.685 36.7272L155.609 36.3099Z" fill="black"/>
<path d="M155.609 36.3099L156.592 36.1292L156.363 34.8826L155.204 35.3953L155.609 36.3099ZM153.769 36.1055L154.364 35.3021L152.769 34.1196V36.1055H153.769ZM153.769 36.3524H152.769V36.8338L153.145 37.134L153.769 36.3524ZM155.685 36.7272L155.969 37.6862L156.831 37.4312L156.669 36.5465L155.685 36.7272ZM155.204 35.3953C155.068 35.4554 154.919 35.4784 154.772 35.462L154.551 37.4498C155.05 37.5052 155.554 37.4274 156.013 37.2244L155.204 35.3953ZM154.772 35.462C154.624 35.4456 154.484 35.3904 154.364 35.3021L153.174 36.9089C153.577 37.2077 154.052 37.3943 154.551 37.4498L154.772 35.462ZM152.769 36.1055V36.3524H154.769V36.1055H152.769ZM153.145 37.134C153.537 37.4465 153.998 37.6598 154.489 37.7559L154.873 35.7931C154.698 35.7588 154.533 35.6825 154.393 35.5709L153.145 37.134ZM154.489 37.7559C154.981 37.8521 155.488 37.8281 155.969 37.6862L155.402 35.7682C155.23 35.8189 155.049 35.8275 154.873 35.7931L154.489 37.7559ZM156.669 36.5465L156.592 36.1292L154.625 36.4905L154.702 36.9078L156.669 36.5465Z" fill="black" mask="url(#path-62-inside-4_432_859)"/>
</g>
<path d="M156.77 32.0476L163.159 27.1865L163.356 27.0364V26.7885V25.999C163.385 26.0291 163.414 26.0609 163.444 26.0943C163.867 26.5732 164.367 27.4144 164.573 28.8413C163.422 31.3185 161.536 33.3769 159.174 34.7382L157.774 32.2415L157.611 31.9517L157.281 31.9894L156.77 32.0476Z" fill="#E0E0E0" stroke="black"/>
<path d="M154.161 29.8827C154.228 30.5227 154.305 31.2542 154.373 31.9139L153.482 31.4683L153.175 31.3151L152.922 31.5456L151.867 32.5045C151.866 32.0726 151.872 31.5499 151.892 31.0031C151.919 30.3126 151.969 29.5931 152.059 28.973C152.15 28.3456 152.272 27.8934 152.406 27.6616C152.817 27.1081 153.382 26.6953 154.025 26.4705L153.976 28.1109L153.975 28.1452L153.979 28.1793L154.476 28.1257L153.979 28.1794L153.979 28.1795L153.979 28.1799L153.979 28.1815L153.98 28.1879L153.982 28.2133L153.993 28.3112L154.032 28.673C154.065 28.9796 154.11 29.4055 154.161 29.8827Z" fill="#E0E0E0" stroke="black"/>
<path d="M126.539 79.5509C125.945 79.8611 125.341 79.9874 124.691 79.8012C125.266 78.8246 125.605 77.7237 125.676 76.587C125.712 76.3771 125.906 76.0772 126.317 75.7374C126.718 75.4054 127.251 75.0993 127.79 74.8722C128.336 74.6428 128.846 74.5119 129.201 74.497C129.336 74.4914 129.421 74.5038 129.468 74.5162C129.485 74.6538 129.505 74.7872 129.525 74.9137L129.529 74.9402C129.549 75.0772 129.569 75.2051 129.585 75.3318C129.619 75.6004 129.634 75.8414 129.611 76.0791C129.567 76.5295 129.379 77.0418 128.744 77.7039C128.042 78.4361 127.316 79.1444 126.539 79.5509Z" fill="#FFA8A7" stroke="black"/>
<path d="M124.569 69.9416L124.588 69.9171L124.604 69.8904C124.657 69.8007 124.797 69.6598 125.04 69.4857C125.271 69.3206 125.55 69.1572 125.827 69.0103C126.03 68.9029 126.226 68.807 126.393 68.7285C126.416 68.9076 126.43 69.1142 126.446 69.3424C126.45 69.4059 126.455 69.4711 126.46 69.5378C126.483 69.8534 126.514 70.207 126.583 70.4992C126.597 70.5584 126.613 70.6199 126.633 70.6815C126.556 70.7326 126.481 70.7873 126.409 70.8455C125.854 71.2844 125.414 71.8499 125.124 72.4945C124.813 73.1706 124.231 74.0767 123.584 74.7919C123.26 75.1494 122.935 75.4425 122.635 75.6355C122.326 75.8344 122.102 75.8895 121.96 75.8747C121.848 75.8631 121.776 75.8465 121.732 75.8329C121.76 75.7449 121.822 75.6189 121.927 75.4436C121.999 75.3242 122.074 75.2088 122.155 75.0834C122.21 74.9975 122.269 74.9069 122.332 74.807C122.5 74.5398 122.66 74.1668 122.816 73.7725C122.905 73.5474 123 73.294 123.099 73.033C123.172 72.8379 123.247 72.6385 123.322 72.4437C123.688 71.494 124.092 70.5573 124.569 69.9416ZM126.321 68.3843C126.32 68.3818 126.319 68.3805 126.319 68.3804C126.319 68.3803 126.32 68.3815 126.321 68.3843Z" fill="#FFA8A7" stroke="black"/>
<rect x="1.5" y="1.5" width="254.186" height="199" stroke="black"/>
<path d="M72.4359 262C72.0839 262 71.7959 261.888 71.5719 261.664C71.3479 261.44 71.2359 261.152 71.2359 260.8V235.936H62.6919C62.3399 235.936 62.0519 235.824 61.8279 235.6C61.6039 235.344 61.4919 235.056 61.4919 234.736V229.6C61.4919 229.248 61.6039 228.96 61.8279 228.736C62.0519 228.512 62.3399 228.4 62.6919 228.4H88.5159C88.8679 228.4 89.1559 228.512 89.3799 228.736C89.6039 228.96 89.7159 229.248 89.7159 229.6V234.736C89.7159 235.056 89.6039 235.344 89.3799 235.6C89.1559 235.824 88.8679 235.936 88.5159 235.936H79.9719V260.8C79.9719 261.152 79.8599 261.44 79.6359 261.664C79.4119 261.888 79.1239 262 78.7719 262H72.4359ZM92.2659 262C91.9139 262 91.6259 261.888 91.4019 261.664C91.1779 261.44 91.0659 261.152 91.0659 260.8V238.24C91.0659 237.92 91.1779 237.648 91.4019 237.424C91.6259 237.168 91.9139 237.04 92.2659 237.04H97.7859C98.1379 237.04 98.4259 237.168 98.6499 237.424C98.8739 237.648 98.9859 237.92 98.9859 238.24V240.16C99.8499 239.168 100.874 238.4 102.058 237.856C103.274 237.312 104.634 237.04 106.138 237.04H108.25C108.57 237.04 108.842 237.152 109.066 237.376C109.322 237.6 109.45 237.888 109.45 238.24V243.184C109.45 243.504 109.322 243.792 109.066 244.048C108.842 244.272 108.57 244.384 108.25 244.384H103.594C102.282 244.384 101.258 244.752 100.522 245.488C99.8179 246.192 99.4659 247.2 99.4659 248.512V260.8C99.4659 261.152 99.3379 261.44 99.0819 261.664C98.8579 261.888 98.5699 262 98.2179 262H92.2659ZM119.929 262.48C118.201 262.48 116.649 262.16 115.273 261.52C113.929 260.848 112.857 259.952 112.057 258.832C111.257 257.712 110.857 256.448 110.857 255.04C110.857 252.768 111.785 250.976 113.641 249.664C115.497 248.32 117.961 247.408 121.033 246.928L127.033 246.016V245.344C127.033 244.192 126.793 243.312 126.313 242.704C125.833 242.096 124.953 241.792 123.673 241.792C122.777 241.792 122.041 241.968 121.465 242.32C120.921 242.672 120.489 243.152 120.169 243.76C119.881 244.176 119.481 244.384 118.969 244.384H113.593C113.241 244.384 112.969 244.288 112.777 244.096C112.585 243.872 112.505 243.616 112.537 243.328C112.537 242.752 112.745 242.096 113.161 241.36C113.609 240.592 114.281 239.84 115.177 239.104C116.073 238.368 117.225 237.76 118.633 237.28C120.041 236.8 121.737 236.56 123.721 236.56C125.801 236.56 127.577 236.8 129.049 237.28C130.521 237.76 131.705 238.432 132.601 239.296C133.529 240.16 134.217 241.184 134.665 242.368C135.113 243.52 135.337 244.8 135.337 246.208V260.8C135.337 261.152 135.209 261.44 134.953 261.664C134.729 261.888 134.457 262 134.137 262H128.569C128.217 262 127.929 261.888 127.705 261.664C127.481 261.44 127.369 261.152 127.369 260.8V259.12C126.953 259.728 126.393 260.288 125.689 260.8C124.985 261.312 124.153 261.712 123.193 262C122.265 262.32 121.177 262.48 119.929 262.48ZM122.185 257.008C123.113 257.008 123.945 256.816 124.681 256.432C125.449 256.016 126.041 255.392 126.457 254.56C126.905 253.696 127.129 252.624 127.129 251.344V250.672L123.049 251.392C121.545 251.648 120.441 252.048 119.737 252.592C119.065 253.104 118.729 253.712 118.729 254.416C118.729 254.96 118.889 255.424 119.209 255.808C119.529 256.192 119.945 256.496 120.457 256.72C120.969 256.912 121.545 257.008 122.185 257.008ZM150.065 262.48C148.529 262.48 147.137 262.24 145.889 261.76C144.673 261.248 143.617 260.512 142.721 259.552C141.857 258.56 141.185 257.376 140.705 256C140.225 254.592 139.953 252.992 139.889 251.2C139.857 250.56 139.841 250 139.841 249.52C139.841 249.008 139.857 248.448 139.889 247.84C139.953 246.112 140.225 244.56 140.705 243.184C141.185 241.808 141.857 240.624 142.721 239.632C143.585 238.64 144.641 237.888 145.889 237.376C147.137 236.832 148.529 236.56 150.065 236.56C151.665 236.56 153.041 236.832 154.193 237.376C155.345 237.888 156.321 238.56 157.121 239.392V229.12C157.121 228.768 157.233 228.48 157.457 228.256C157.681 228.032 157.969 227.92 158.321 227.92H164.177C164.497 227.92 164.769 228.032 164.993 228.256C165.249 228.48 165.377 228.768 165.377 229.12V260.8C165.377 261.152 165.249 261.44 164.993 261.664C164.769 261.888 164.497 262 164.177 262H158.753C158.401 262 158.113 261.888 157.889 261.664C157.665 261.44 157.553 261.152 157.553 260.8V259.264C156.785 260.192 155.793 260.96 154.577 261.568C153.361 262.176 151.857 262.48 150.065 262.48ZM152.657 256.048C153.745 256.048 154.593 255.824 155.201 255.376C155.841 254.896 156.305 254.288 156.593 253.552C156.913 252.816 157.089 252.016 157.121 251.152C157.153 250.512 157.169 249.904 157.169 249.328C157.169 248.752 157.153 248.16 157.121 247.552C157.089 246.752 156.913 246.016 156.593 245.344C156.273 244.64 155.793 244.08 155.153 243.664C154.513 243.216 153.681 242.992 152.657 242.992C151.601 242.992 150.753 243.216 150.113 243.664C149.505 244.112 149.073 244.72 148.817 245.488C148.561 246.256 148.401 247.104 148.337 248.032C148.241 249.024 148.241 250.016 148.337 251.008C148.401 251.936 148.561 252.784 148.817 253.552C149.073 254.32 149.505 254.928 150.113 255.376C150.753 255.824 151.601 256.048 152.657 256.048ZM182.555 262.48C178.779 262.48 175.771 261.456 173.531 259.408C171.291 257.36 170.123 254.32 170.027 250.288C170.027 250.064 170.027 249.776 170.027 249.424C170.027 249.072 170.027 248.8 170.027 248.608C170.123 246.08 170.683 243.92 171.707 242.128C172.763 240.304 174.203 238.928 176.027 238C177.883 237.04 180.043 236.56 182.507 236.56C185.323 236.56 187.643 237.12 189.467 238.24C191.323 239.36 192.715 240.88 193.643 242.8C194.571 244.72 195.035 246.912 195.035 249.376V250.528C195.035 250.88 194.907 251.168 194.651 251.392C194.427 251.616 194.155 251.728 193.835 251.728H178.475C178.475 251.76 178.475 251.808 178.475 251.872C178.475 251.936 178.475 252 178.475 252.064C178.507 252.992 178.667 253.84 178.955 254.608C179.243 255.376 179.691 255.984 180.299 256.432C180.907 256.88 181.643 257.104 182.507 257.104C183.147 257.104 183.675 257.008 184.091 256.816C184.539 256.592 184.907 256.352 185.195 256.096C185.483 255.808 185.707 255.568 185.867 255.376C186.155 255.056 186.379 254.864 186.539 254.8C186.731 254.704 187.019 254.656 187.403 254.656H193.355C193.675 254.656 193.931 254.752 194.123 254.944C194.347 255.104 194.443 255.344 194.411 255.664C194.379 256.208 194.107 256.864 193.595 257.632C193.083 258.4 192.331 259.168 191.339 259.936C190.379 260.672 189.163 261.28 187.691 261.76C186.219 262.24 184.507 262.48 182.555 262.48ZM178.475 246.976H186.587V246.88C186.587 245.856 186.427 244.96 186.107 244.192C185.819 243.424 185.355 242.832 184.715 242.416C184.107 242 183.371 241.792 182.507 241.792C181.643 241.792 180.907 242 180.299 242.416C179.723 242.832 179.275 243.424 178.955 244.192C178.635 244.96 178.475 245.856 178.475 246.88V246.976Z" fill="black"/>
<path d="M11.7499 296C11.5419 296 11.3819 295.952 11.2699 295.856C11.1579 295.76 11.0619 295.608 10.9819 295.4L7.59792 284.264C7.56592 284.168 7.54992 284.08 7.54992 284C7.54992 283.872 7.59792 283.76 7.69392 283.664C7.78992 283.568 7.90192 283.52 8.02992 283.52H8.48592C8.64592 283.52 8.76592 283.568 8.84592 283.664C8.94192 283.744 8.99792 283.816 9.01392 283.88L11.9659 293.864L15.1099 284C15.1419 283.904 15.2059 283.8 15.3019 283.688C15.3979 283.576 15.5499 283.52 15.7579 283.52H16.2379C16.4459 283.52 16.5979 283.576 16.6939 283.688C16.8059 283.8 16.8699 283.904 16.8859 284L20.0299 293.864L22.9819 283.88C22.9979 283.816 23.0459 283.744 23.1259 283.664C23.2219 283.568 23.3499 283.52 23.5099 283.52H23.9659C24.0939 283.52 24.2059 283.568 24.3019 283.664C24.3979 283.76 24.4459 283.872 24.4459 284C24.4459 284.08 24.4299 284.168 24.3979 284.264L21.0139 295.4C20.9499 295.608 20.8619 295.76 20.7499 295.856C20.6379 295.952 20.4699 296 20.2459 296H19.8379C19.6299 296 19.4539 295.952 19.3099 295.856C19.1819 295.76 19.0859 295.608 19.0219 295.4L15.9979 285.944L12.9739 295.4C12.9099 295.608 12.8139 295.76 12.6859 295.856C12.5579 295.952 12.3819 296 12.1579 296H11.7499ZM27.9051 296C27.7451 296 27.6171 295.952 27.5211 295.856C27.4251 295.76 27.3771 295.632 27.3771 295.472V284.048C27.3771 283.888 27.4251 283.76 27.5211 283.664C27.6171 283.568 27.7451 283.52 27.9051 283.52H28.3131C28.4731 283.52 28.6011 283.568 28.6971 283.664C28.7931 283.76 28.8411 283.888 28.8411 284.048V295.472C28.8411 295.632 28.7931 295.76 28.6971 295.856C28.6011 295.952 28.4731 296 28.3131 296H27.9051ZM27.6411 280.952C27.4811 280.952 27.3531 280.904 27.2571 280.808C27.1611 280.712 27.1131 280.584 27.1131 280.424V279.512C27.1131 279.352 27.1611 279.224 27.2571 279.128C27.3531 279.016 27.4811 278.96 27.6411 278.96H28.5531C28.7131 278.96 28.8411 279.016 28.9371 279.128C29.0491 279.224 29.1051 279.352 29.1051 279.512V280.424C29.1051 280.584 29.0491 280.712 28.9371 280.808C28.8411 280.904 28.7131 280.952 28.5531 280.952H27.6411ZM36.9209 296C36.0889 296 35.4329 295.824 34.9529 295.472C34.4729 295.12 34.1369 294.64 33.9449 294.032C33.7529 293.424 33.6569 292.744 33.6569 291.992V284.912H31.7849C31.6249 284.912 31.4969 284.864 31.4009 284.768C31.3049 284.672 31.2569 284.544 31.2569 284.384V284.048C31.2569 283.888 31.3049 283.76 31.4009 283.664C31.4969 283.568 31.6249 283.52 31.7849 283.52H33.6569V279.488C33.6569 279.328 33.7049 279.2 33.8009 279.104C33.8969 279.008 34.0249 278.96 34.1849 278.96H34.5929C34.7529 278.96 34.8809 279.008 34.9769 279.104C35.0729 279.2 35.1209 279.328 35.1209 279.488V283.52H38.0969C38.2569 283.52 38.3849 283.568 38.4809 283.664C38.5769 283.76 38.6249 283.888 38.6249 284.048V284.384C38.6249 284.544 38.5769 284.672 38.4809 284.768C38.3849 284.864 38.2569 284.912 38.0969 284.912H35.1209V291.896C35.1209 292.744 35.2569 293.408 35.5289 293.888C35.8169 294.368 36.3209 294.608 37.0409 294.608H38.3369C38.4969 294.608 38.6249 294.656 38.7209 294.752C38.8169 294.848 38.8649 294.976 38.8649 295.136V295.472C38.8649 295.632 38.8169 295.76 38.7209 295.856C38.6249 295.952 38.4969 296 38.3369 296H36.9209ZM41.8979 296C41.7379 296 41.6099 295.952 41.5139 295.856C41.4179 295.76 41.3699 295.632 41.3699 295.472V279.488C41.3699 279.328 41.4179 279.2 41.5139 279.104C41.6099 279.008 41.7379 278.96 41.8979 278.96H42.3059C42.4659 278.96 42.5939 279.008 42.6899 279.104C42.7859 279.2 42.8339 279.328 42.8339 279.488V285.176C43.2659 284.616 43.7859 284.16 44.3939 283.808C45.0179 283.456 45.8419 283.28 46.8659 283.28C47.9539 283.28 48.8579 283.52 49.5779 284C50.3139 284.464 50.8579 285.104 51.2099 285.92C51.5779 286.72 51.7619 287.632 51.7619 288.656V295.472C51.7619 295.632 51.7139 295.76 51.6179 295.856C51.5219 295.952 51.3939 296 51.2339 296H50.8259C50.6659 296 50.5379 295.952 50.4419 295.856C50.3459 295.76 50.2979 295.632 50.2979 295.472V288.776C50.2979 287.496 49.9859 286.496 49.3619 285.776C48.7379 285.04 47.8259 284.672 46.6259 284.672C45.4899 284.672 44.5699 285.04 43.8659 285.776C43.1779 286.496 42.8339 287.496 42.8339 288.776V295.472C42.8339 295.632 42.7859 295.76 42.6899 295.856C42.5939 295.952 42.4659 296 42.3059 296H41.8979ZM65.073 296.24C64.305 296.24 63.593 296.08 62.937 295.76C62.297 295.44 61.777 295.016 61.377 294.488C60.977 293.944 60.777 293.336 60.777 292.664C60.777 291.576 61.217 290.704 62.097 290.048C62.977 289.392 64.121 288.968 65.529 288.776L69.321 288.248V287.408C69.321 286.56 69.057 285.896 68.529 285.416C68.017 284.92 67.193 284.672 66.057 284.672C65.225 284.672 64.553 284.84 64.041 285.176C63.529 285.496 63.177 285.92 62.985 286.448C62.905 286.688 62.753 286.808 62.529 286.808H62.145C61.953 286.808 61.817 286.76 61.737 286.664C61.657 286.552 61.617 286.424 61.617 286.28C61.617 286.056 61.697 285.776 61.857 285.44C62.033 285.104 62.297 284.776 62.649 284.456C63.001 284.12 63.457 283.84 64.017 283.616C64.577 283.392 65.257 283.28 66.057 283.28C67.001 283.28 67.777 283.408 68.385 283.664C69.009 283.92 69.489 284.256 69.825 284.672C70.177 285.072 70.425 285.52 70.569 286.016C70.713 286.512 70.785 287 70.785 287.48V295.472C70.785 295.632 70.737 295.76 70.641 295.856C70.545 295.952 70.417 296 70.257 296H69.849C69.689 296 69.561 295.952 69.465 295.856C69.369 295.76 69.321 295.632 69.321 295.472V294.344C69.129 294.632 68.857 294.92 68.505 295.208C68.153 295.496 67.697 295.744 67.137 295.952C66.593 296.144 65.905 296.24 65.073 296.24ZM65.313 294.848C66.049 294.848 66.721 294.688 67.329 294.368C67.937 294.048 68.417 293.56 68.769 292.904C69.137 292.232 69.321 291.392 69.321 290.384V289.568L66.225 290C64.913 290.176 63.921 290.48 63.249 290.912C62.577 291.344 62.241 291.888 62.241 292.544C62.241 293.072 62.393 293.504 62.697 293.84C63.001 294.176 63.385 294.432 63.849 294.608C64.329 294.768 64.817 294.848 65.313 294.848ZM84.7277 296.24C83.8957 296.24 83.1757 296.128 82.5677 295.904C81.9757 295.68 81.4877 295.416 81.1037 295.112C80.7197 294.792 80.4317 294.48 80.2397 294.176C80.0637 293.872 79.9677 293.64 79.9517 293.48C79.9357 293.304 79.9917 293.176 80.1197 293.096C80.2477 293 80.3677 292.952 80.4797 292.952H80.8397C80.9357 292.952 81.0157 292.968 81.0797 293C81.1597 293.032 81.2557 293.12 81.3677 293.264C81.5757 293.536 81.8157 293.8 82.0877 294.056C82.3597 294.296 82.7037 294.488 83.1197 294.632C83.5517 294.776 84.0877 294.848 84.7277 294.848C85.6877 294.848 86.4797 294.664 87.1037 294.296C87.7277 293.928 88.0397 293.384 88.0397 292.664C88.0397 292.216 87.9117 291.856 87.6557 291.584C87.4157 291.312 86.9997 291.072 86.4077 290.864C85.8157 290.656 85.0157 290.44 84.0077 290.216C82.9997 289.976 82.2237 289.688 81.6797 289.352C81.1517 289.016 80.7917 288.632 80.5997 288.2C80.4077 287.752 80.3117 287.272 80.3117 286.76C80.3117 286.2 80.4717 285.656 80.7917 285.128C81.1117 284.584 81.5837 284.144 82.2077 283.808C82.8477 283.456 83.6477 283.28 84.6077 283.28C85.3917 283.28 86.0557 283.384 86.5997 283.592C87.1597 283.8 87.6157 284.056 87.9677 284.36C88.3197 284.648 88.5757 284.936 88.7357 285.224C88.9117 285.512 89.0077 285.744 89.0237 285.92C89.0397 286.08 88.9917 286.208 88.8797 286.304C88.7677 286.4 88.6397 286.448 88.4957 286.448H88.1357C88.0077 286.448 87.9037 286.424 87.8237 286.376C87.7437 286.312 87.6717 286.232 87.6077 286.136C87.4477 285.88 87.2557 285.64 87.0317 285.416C86.8077 285.192 86.5037 285.016 86.1197 284.888C85.7517 284.744 85.2477 284.672 84.6077 284.672C83.6477 284.672 82.9357 284.872 82.4717 285.272C82.0077 285.656 81.7757 286.152 81.7757 286.76C81.7757 287.112 81.8717 287.424 82.0637 287.696C82.2557 287.952 82.6157 288.192 83.1437 288.416C83.6717 288.624 84.4397 288.848 85.4477 289.088C86.4717 289.312 87.2797 289.592 87.8717 289.928C88.4637 290.248 88.8797 290.632 89.1197 291.08C89.3757 291.528 89.5037 292.056 89.5037 292.664C89.5037 293.304 89.3197 293.896 88.9517 294.44C88.5997 294.984 88.0637 295.424 87.3437 295.76C86.6397 296.08 85.7677 296.24 84.7277 296.24ZM93.1322 300.56C92.9722 300.56 92.8442 300.512 92.7482 300.416C92.6522 300.32 92.6042 300.192 92.6042 300.032V284.048C92.6042 283.888 92.6522 283.76 92.7482 283.664C92.8442 283.568 92.9722 283.52 93.1322 283.52H93.5402C93.7002 283.52 93.8282 283.568 93.9242 283.664C94.0202 283.76 94.0682 283.888 94.0682 284.048V285.176C94.4682 284.632 94.9882 284.184 95.6282 283.832C96.2842 283.464 97.1082 283.28 98.1002 283.28C99.0442 283.28 99.8362 283.448 100.476 283.784C101.116 284.104 101.636 284.536 102.036 285.08C102.436 285.624 102.732 286.232 102.924 286.904C103.116 287.576 103.22 288.264 103.236 288.968C103.252 289.208 103.26 289.472 103.26 289.76C103.26 290.048 103.252 290.312 103.236 290.552C103.22 291.256 103.116 291.944 102.924 292.616C102.732 293.288 102.436 293.896 102.036 294.44C101.636 294.984 101.116 295.424 100.476 295.76C99.8362 296.08 99.0442 296.24 98.1002 296.24C97.1082 296.24 96.2842 296.056 95.6282 295.688C94.9882 295.32 94.4682 294.872 94.0682 294.344V300.032C94.0682 300.192 94.0202 300.32 93.9242 300.416C93.8282 300.512 93.7002 300.56 93.5402 300.56H93.1322ZM97.9562 294.848C98.9002 294.848 99.6442 294.64 100.188 294.224C100.732 293.808 101.124 293.264 101.364 292.592C101.604 291.92 101.74 291.2 101.772 290.432C101.788 289.984 101.788 289.536 101.772 289.088C101.74 288.32 101.604 287.6 101.364 286.928C101.124 286.256 100.732 285.712 100.188 285.296C99.6442 284.88 98.9002 284.672 97.9562 284.672C97.0442 284.672 96.3082 284.888 95.7482 285.32C95.1882 285.752 94.7722 286.296 94.5002 286.952C94.2442 287.592 94.1002 288.24 94.0682 288.896C94.0522 289.136 94.0442 289.448 94.0442 289.832C94.0442 290.216 94.0522 290.528 94.0682 290.768C94.0842 291.408 94.2282 292.04 94.5002 292.664C94.7882 293.288 95.2122 293.808 95.7722 294.224C96.3482 294.64 97.0762 294.848 97.9562 294.848ZM111.158 296.24C109.606 296.24 108.374 295.736 107.462 294.728C106.55 293.704 106.03 292.368 105.902 290.72C105.886 290.48 105.878 290.16 105.878 289.76C105.878 289.36 105.886 289.04 105.902 288.8C105.982 287.712 106.238 286.752 106.67 285.92C107.102 285.088 107.694 284.44 108.446 283.976C109.214 283.512 110.118 283.28 111.158 283.28C112.278 283.28 113.23 283.528 114.014 284.024C114.798 284.52 115.398 285.232 115.814 286.16C116.246 287.088 116.462 288.192 116.462 289.472V289.832C116.462 289.992 116.406 290.12 116.294 290.216C116.198 290.312 116.07 290.36 115.91 290.36H107.366C107.366 290.36 107.366 290.392 107.366 290.456C107.366 290.52 107.366 290.568 107.366 290.6C107.398 291.32 107.566 292.008 107.87 292.664C108.174 293.304 108.606 293.832 109.166 294.248C109.726 294.648 110.39 294.848 111.158 294.848C111.846 294.848 112.414 294.744 112.862 294.536C113.326 294.328 113.694 294.104 113.966 293.864C114.238 293.608 114.414 293.416 114.494 293.288C114.638 293.08 114.75 292.96 114.83 292.928C114.91 292.88 115.038 292.856 115.214 292.856H115.598C115.742 292.856 115.862 292.904 115.958 293C116.07 293.08 116.118 293.192 116.102 293.336C116.086 293.56 115.958 293.84 115.718 294.176C115.494 294.496 115.166 294.816 114.734 295.136C114.318 295.456 113.806 295.72 113.198 295.928C112.59 296.136 111.91 296.24 111.158 296.24ZM107.366 289.016H114.998V288.92C114.998 288.12 114.846 287.4 114.542 286.76C114.238 286.12 113.798 285.616 113.222 285.248C112.646 284.864 111.958 284.672 111.158 284.672C110.358 284.672 109.67 284.864 109.094 285.248C108.534 285.616 108.102 286.12 107.798 286.76C107.51 287.4 107.366 288.12 107.366 288.92V289.016ZM123.587 296.24C122.755 296.24 122.035 296.128 121.427 295.904C120.835 295.68 120.347 295.416 119.963 295.112C119.579 294.792 119.291 294.48 119.099 294.176C118.923 293.872 118.827 293.64 118.811 293.48C118.795 293.304 118.851 293.176 118.979 293.096C119.107 293 119.227 292.952 119.339 292.952H119.699C119.795 292.952 119.875 292.968 119.939 293C120.019 293.032 120.115 293.12 120.227 293.264C120.435 293.536 120.675 293.8 120.947 294.056C121.219 294.296 121.563 294.488 121.979 294.632C122.411 294.776 122.947 294.848 123.587 294.848C124.547 294.848 125.339 294.664 125.963 294.296C126.587 293.928 126.899 293.384 126.899 292.664C126.899 292.216 126.771 291.856 126.515 291.584C126.275 291.312 125.859 291.072 125.267 290.864C124.675 290.656 123.875 290.44 122.867 290.216C121.859 289.976 121.083 289.688 120.539 289.352C120.011 289.016 119.651 288.632 119.459 288.2C119.267 287.752 119.171 287.272 119.171 286.76C119.171 286.2 119.331 285.656 119.651 285.128C119.971 284.584 120.443 284.144 121.067 283.808C121.707 283.456 122.507 283.28 123.467 283.28C124.251 283.28 124.915 283.384 125.459 283.592C126.019 283.8 126.475 284.056 126.827 284.36C127.179 284.648 127.435 284.936 127.595 285.224C127.771 285.512 127.867 285.744 127.883 285.92C127.899 286.08 127.851 286.208 127.739 286.304C127.627 286.4 127.499 286.448 127.355 286.448H126.995C126.867 286.448 126.763 286.424 126.683 286.376C126.603 286.312 126.531 286.232 126.467 286.136C126.307 285.88 126.115 285.64 125.891 285.416C125.667 285.192 125.363 285.016 124.979 284.888C124.611 284.744 124.107 284.672 123.467 284.672C122.507 284.672 121.795 284.872 121.331 285.272C120.867 285.656 120.635 286.152 120.635 286.76C120.635 287.112 120.731 287.424 120.923 287.696C121.115 287.952 121.475 288.192 122.003 288.416C122.531 288.624 123.299 288.848 124.307 289.088C125.331 289.312 126.139 289.592 126.731 289.928C127.323 290.248 127.739 290.632 127.979 291.08C128.235 291.528 128.363 292.056 128.363 292.664C128.363 293.304 128.179 293.896 127.811 294.44C127.459 294.984 126.923 295.424 126.203 295.76C125.499 296.08 124.627 296.24 123.587 296.24ZM131.968 296C131.808 296 131.68 295.952 131.584 295.856C131.488 295.76 131.44 295.632 131.44 295.472V284.048C131.44 283.888 131.488 283.76 131.584 283.664C131.68 283.568 131.808 283.52 131.968 283.52H132.376C132.536 283.52 132.664 283.568 132.76 283.664C132.856 283.76 132.904 283.888 132.904 284.048V295.472C132.904 295.632 132.856 295.76 132.76 295.856C132.664 295.952 132.536 296 132.376 296H131.968ZM131.704 280.952C131.544 280.952 131.416 280.904 131.32 280.808C131.224 280.712 131.176 280.584 131.176 280.424V279.512C131.176 279.352 131.224 279.224 131.32 279.128C131.416 279.016 131.544 278.96 131.704 278.96H132.616C132.776 278.96 132.904 279.016 133 279.128C133.112 279.224 133.168 279.352 133.168 279.512V280.424C133.168 280.584 133.112 280.712 133 280.808C132.904 280.904 132.776 280.952 132.616 280.952H131.704ZM138.487 296C138.327 296 138.199 295.952 138.103 295.856C138.007 295.76 137.959 295.632 137.959 295.472V284.912H135.823C135.663 284.912 135.535 284.864 135.439 284.768C135.343 284.672 135.295 284.544 135.295 284.384V284.048C135.295 283.888 135.343 283.76 135.439 283.664C135.535 283.568 135.663 283.52 135.823 283.52H137.959V282.152C137.959 281.432 138.055 280.776 138.247 280.184C138.455 279.592 138.815 279.12 139.327 278.768C139.855 278.416 140.607 278.24 141.583 278.24H144.247C144.407 278.24 144.535 278.288 144.631 278.384C144.727 278.48 144.775 278.608 144.775 278.768V279.104C144.775 279.264 144.727 279.392 144.631 279.488C144.535 279.584 144.407 279.632 144.247 279.632H141.583C140.735 279.632 140.159 279.864 139.855 280.328C139.567 280.776 139.423 281.424 139.423 282.272V283.52H144.247C144.407 283.52 144.535 283.568 144.631 283.664C144.727 283.76 144.775 283.888 144.775 284.048V295.472C144.775 295.632 144.727 295.76 144.631 295.856C144.535 295.952 144.407 296 144.247 296H143.839C143.679 296 143.551 295.952 143.455 295.856C143.359 295.76 143.311 295.632 143.311 295.472V284.912H139.423V295.472C139.423 295.632 139.375 295.76 139.279 295.856C139.183 295.952 139.055 296 138.895 296H138.487ZM153.394 296.24C152.274 296.24 151.322 296.024 150.538 295.592C149.754 295.144 149.154 294.504 148.738 293.672C148.338 292.84 148.122 291.856 148.09 290.72C148.074 290.48 148.066 290.16 148.066 289.76C148.066 289.36 148.074 289.04 148.09 288.8C148.122 287.648 148.338 286.664 148.738 285.848C149.154 285.016 149.754 284.384 150.538 283.952C151.322 283.504 152.274 283.28 153.394 283.28C154.242 283.28 154.97 283.4 155.578 283.64C156.202 283.864 156.714 284.168 157.114 284.552C157.514 284.92 157.818 285.328 158.026 285.776C158.234 286.224 158.346 286.664 158.362 287.096C158.378 287.256 158.33 287.384 158.218 287.48C158.106 287.576 157.978 287.624 157.834 287.624H157.498C157.338 287.624 157.218 287.592 157.138 287.528C157.074 287.448 157.002 287.312 156.922 287.12C156.586 286.208 156.122 285.576 155.53 285.224C154.954 284.856 154.242 284.672 153.394 284.672C152.306 284.672 151.402 285.008 150.682 285.68C149.978 286.336 149.602 287.416 149.554 288.92C149.522 289.48 149.522 290.04 149.554 290.6C149.602 292.104 149.978 293.192 150.682 293.864C151.402 294.52 152.306 294.848 153.394 294.848C154.242 294.848 154.954 294.672 155.53 294.32C156.122 293.952 156.586 293.312 156.922 292.4C157.002 292.208 157.074 292.08 157.138 292.016C157.218 291.936 157.338 291.896 157.498 291.896H157.834C157.978 291.896 158.106 291.944 158.218 292.04C158.33 292.136 158.378 292.264 158.362 292.424C158.346 292.776 158.274 293.128 158.146 293.48C158.018 293.832 157.818 294.176 157.546 294.512C157.29 294.848 156.97 295.144 156.586 295.4C156.202 295.656 155.738 295.856 155.194 296C154.666 296.16 154.066 296.24 153.394 296.24ZM168.273 300.56C168.113 300.56 167.985 300.512 167.889 300.416C167.793 300.32 167.745 300.192 167.745 300.032V284.048C167.745 283.888 167.793 283.76 167.889 283.664C167.985 283.568 168.113 283.52 168.273 283.52H168.681C168.841 283.52 168.969 283.568 169.065 283.664C169.161 283.76 169.209 283.888 169.209 284.048V285.176C169.609 284.632 170.129 284.184 170.769 283.832C171.425 283.464 172.249 283.28 173.241 283.28C174.185 283.28 174.977 283.448 175.617 283.784C176.257 284.104 176.777 284.536 177.177 285.08C177.577 285.624 177.873 286.232 178.065 286.904C178.257 287.576 178.361 288.264 178.377 288.968C178.393 289.208 178.401 289.472 178.401 289.76C178.401 290.048 178.393 290.312 178.377 290.552C178.361 291.256 178.257 291.944 178.065 292.616C177.873 293.288 177.577 293.896 177.177 294.44C176.777 294.984 176.257 295.424 175.617 295.76C174.977 296.08 174.185 296.24 173.241 296.24C172.249 296.24 171.425 296.056 170.769 295.688C170.129 295.32 169.609 294.872 169.209 294.344V300.032C169.209 300.192 169.161 300.32 169.065 300.416C168.969 300.512 168.841 300.56 168.681 300.56H168.273ZM173.097 294.848C174.041 294.848 174.785 294.64 175.329 294.224C175.873 293.808 176.265 293.264 176.505 292.592C176.745 291.92 176.881 291.2 176.913 290.432C176.929 289.984 176.929 289.536 176.913 289.088C176.881 288.32 176.745 287.6 176.505 286.928C176.265 286.256 175.873 285.712 175.329 285.296C174.785 284.88 174.041 284.672 173.097 284.672C172.185 284.672 171.449 284.888 170.889 285.32C170.329 285.752 169.913 286.296 169.641 286.952C169.385 287.592 169.241 288.24 169.209 288.896C169.193 289.136 169.185 289.448 169.185 289.832C169.185 290.216 169.193 290.528 169.209 290.768C169.225 291.408 169.369 292.04 169.641 292.664C169.929 293.288 170.353 293.808 170.913 294.224C171.489 294.64 172.217 294.848 173.097 294.848ZM182.194 296C182.034 296 181.906 295.952 181.81 295.856C181.714 295.76 181.666 295.632 181.666 295.472V284.072C181.666 283.912 181.714 283.784 181.81 283.688C181.906 283.576 182.034 283.52 182.194 283.52H182.578C182.738 283.52 182.866 283.576 182.962 283.688C183.074 283.784 183.13 283.912 183.13 284.072V285.176C183.418 284.616 183.834 284.2 184.378 283.928C184.922 283.656 185.594 283.52 186.394 283.52H187.282C187.442 283.52 187.57 283.568 187.666 283.664C187.762 283.76 187.81 283.888 187.81 284.048V284.384C187.81 284.544 187.762 284.672 187.666 284.768C187.57 284.864 187.442 284.912 187.282 284.912H186.25C185.29 284.912 184.53 285.192 183.97 285.752C183.41 286.312 183.13 287.072 183.13 288.032V295.472C183.13 295.632 183.074 295.76 182.962 295.856C182.866 295.952 182.738 296 182.578 296H182.194ZM194.481 296.24C193.329 296.24 192.361 296 191.577 295.52C190.809 295.04 190.217 294.384 189.801 293.552C189.401 292.72 189.185 291.792 189.153 290.768C189.137 290.528 189.129 290.192 189.129 289.76C189.129 289.328 189.137 288.992 189.153 288.752C189.185 287.712 189.401 286.784 189.801 285.968C190.217 285.136 190.809 284.48 191.577 284C192.361 283.52 193.329 283.28 194.481 283.28C195.633 283.28 196.593 283.52 197.361 284C198.145 284.48 198.737 285.136 199.137 285.968C199.553 286.784 199.777 287.712 199.809 288.752C199.825 288.992 199.833 289.328 199.833 289.76C199.833 290.192 199.825 290.528 199.809 290.768C199.777 291.792 199.553 292.72 199.137 293.552C198.737 294.384 198.145 295.04 197.361 295.52C196.593 296 195.633 296.24 194.481 296.24ZM194.481 294.848C195.601 294.848 196.513 294.488 197.217 293.768C197.921 293.048 198.297 292.008 198.345 290.648C198.361 290.408 198.369 290.112 198.369 289.76C198.369 289.408 198.361 289.112 198.345 288.872C198.297 287.496 197.921 286.456 197.217 285.752C196.513 285.032 195.601 284.672 194.481 284.672C193.361 284.672 192.449 285.032 191.745 285.752C191.041 286.456 190.665 287.496 190.617 288.872C190.601 289.112 190.593 289.408 190.593 289.76C190.593 290.112 190.601 290.408 190.617 290.648C190.665 292.008 191.041 293.048 191.745 293.768C192.449 294.488 193.361 294.848 194.481 294.848ZM207.623 296.24C206.695 296.24 205.903 296.072 205.247 295.736C204.607 295.4 204.087 294.952 203.687 294.392C203.287 293.832 202.991 293.208 202.799 292.52C202.623 291.832 202.519 291.136 202.487 290.432C202.471 290.192 202.463 289.968 202.463 289.76C202.463 289.552 202.471 289.328 202.487 289.088C202.519 288.384 202.623 287.688 202.799 287C202.991 286.312 203.287 285.688 203.687 285.128C204.087 284.568 204.607 284.12 205.247 283.784C205.903 283.448 206.695 283.28 207.623 283.28C208.615 283.28 209.431 283.464 210.071 283.832C210.727 284.2 211.255 284.648 211.655 285.176V279.488C211.655 279.328 211.703 279.2 211.799 279.104C211.895 279.008 212.023 278.96 212.183 278.96H212.591C212.751 278.96 212.879 279.008 212.975 279.104C213.071 279.2 213.119 279.328 213.119 279.488V295.472C213.119 295.632 213.071 295.76 212.975 295.856C212.879 295.952 212.751 296 212.591 296H212.183C212.023 296 211.895 295.952 211.799 295.856C211.703 295.76 211.655 295.632 211.655 295.472V294.344C211.255 294.888 210.727 295.344 210.071 295.712C209.431 296.064 208.615 296.24 207.623 296.24ZM207.767 294.848C208.679 294.848 209.415 294.632 209.975 294.2C210.535 293.768 210.951 293.232 211.223 292.592C211.495 291.936 211.639 291.28 211.655 290.624C211.671 290.384 211.679 290.072 211.679 289.688C211.679 289.304 211.671 288.992 211.655 288.752C211.639 288.112 211.487 287.48 211.199 286.856C210.927 286.232 210.511 285.712 209.951 285.296C209.391 284.88 208.663 284.672 207.767 284.672C206.839 284.672 206.095 284.88 205.535 285.296C204.991 285.712 204.599 286.256 204.359 286.928C204.119 287.6 203.983 288.32 203.951 289.088C203.935 289.536 203.935 289.984 203.951 290.432C203.983 291.2 204.119 291.92 204.359 292.592C204.599 293.264 204.991 293.808 205.535 294.224C206.095 294.64 206.839 294.848 207.767 294.848ZM221.713 296.24C220.625 296.24 219.721 296.008 219.001 295.544C218.297 295.064 217.769 294.416 217.417 293.6C217.081 292.784 216.913 291.872 216.913 290.864V284.048C216.913 283.888 216.961 283.76 217.057 283.664C217.153 283.568 217.281 283.52 217.441 283.52H217.849C218.009 283.52 218.137 283.568 218.233 283.664C218.329 283.76 218.377 283.888 218.377 284.048V290.744C218.377 293.48 219.569 294.848 221.953 294.848C223.089 294.848 224.001 294.488 224.689 293.768C225.377 293.032 225.721 292.024 225.721 290.744V284.048C225.721 283.888 225.769 283.76 225.865 283.664C225.961 283.568 226.089 283.52 226.249 283.52H226.657C226.817 283.52 226.945 283.568 227.041 283.664C227.137 283.76 227.185 283.888 227.185 284.048V295.472C227.185 295.632 227.137 295.76 227.041 295.856C226.945 295.952 226.817 296 226.657 296H226.249C226.089 296 225.961 295.952 225.865 295.856C225.769 295.76 225.721 295.632 225.721 295.472V294.344C225.289 294.904 224.769 295.36 224.161 295.712C223.569 296.064 222.753 296.24 221.713 296.24ZM235.8 296.24C234.68 296.24 233.728 296.024 232.944 295.592C232.16 295.144 231.56 294.504 231.144 293.672C230.744 292.84 230.528 291.856 230.496 290.72C230.48 290.48 230.472 290.16 230.472 289.76C230.472 289.36 230.48 289.04 230.496 288.8C230.528 287.648 230.744 286.664 231.144 285.848C231.56 285.016 232.16 284.384 232.944 283.952C233.728 283.504 234.68 283.28 235.8 283.28C236.648 283.28 237.376 283.4 237.984 283.64C238.608 283.864 239.12 284.168 239.52 284.552C239.92 284.92 240.224 285.328 240.432 285.776C240.64 286.224 240.752 286.664 240.768 287.096C240.784 287.256 240.736 287.384 240.624 287.48C240.512 287.576 240.384 287.624 240.24 287.624H239.904C239.744 287.624 239.624 287.592 239.544 287.528C239.48 287.448 239.408 287.312 239.328 287.12C238.992 286.208 238.528 285.576 237.936 285.224C237.36 284.856 236.648 284.672 235.8 284.672C234.712 284.672 233.808 285.008 233.088 285.68C232.384 286.336 232.008 287.416 231.96 288.92C231.928 289.48 231.928 290.04 231.96 290.6C232.008 292.104 232.384 293.192 233.088 293.864C233.808 294.52 234.712 294.848 235.8 294.848C236.648 294.848 237.36 294.672 237.936 294.32C238.528 293.952 238.992 293.312 239.328 292.4C239.408 292.208 239.48 292.08 239.544 292.016C239.624 291.936 239.744 291.896 239.904 291.896H240.24C240.384 291.896 240.512 291.944 240.624 292.04C240.736 292.136 240.784 292.264 240.768 292.424C240.752 292.776 240.68 293.128 240.552 293.48C240.424 293.832 240.224 294.176 239.952 294.512C239.696 294.848 239.376 295.144 238.992 295.4C238.608 295.656 238.144 295.856 237.6 296C237.072 296.16 236.472 296.24 235.8 296.24ZM248.14 296C247.308 296 246.652 295.824 246.172 295.472C245.692 295.12 245.356 294.64 245.164 294.032C244.972 293.424 244.876 292.744 244.876 291.992V284.912H243.004C242.844 284.912 242.716 284.864 242.62 284.768C242.524 284.672 242.476 284.544 242.476 284.384V284.048C242.476 283.888 242.524 283.76 242.62 283.664C242.716 283.568 242.844 283.52 243.004 283.52H244.876V279.488C244.876 279.328 244.924 279.2 245.02 279.104C245.116 279.008 245.244 278.96 245.404 278.96H245.812C245.972 278.96 246.1 279.008 246.196 279.104C246.292 279.2 246.34 279.328 246.34 279.488V283.52H249.316C249.476 283.52 249.604 283.568 249.7 283.664C249.796 283.76 249.844 283.888 249.844 284.048V284.384C249.844 284.544 249.796 284.672 249.7 284.768C249.604 284.864 249.476 284.912 249.316 284.912H246.34V291.896C246.34 292.744 246.476 293.408 246.748 293.888C247.036 294.368 247.54 294.608 248.26 294.608H249.556C249.716 294.608 249.844 294.656 249.94 294.752C250.036 294.848 250.084 294.976 250.084 295.136V295.472C250.084 295.632 250.036 295.76 249.94 295.856C249.844 295.952 249.716 296 249.556 296H248.14Z" fill="black"/>
</svg>
