<svg width="550" height="367" viewBox="0 0 550 367" fill="none" xmlns="http://www.w3.org/2000/svg">
<path d="M520.857 42.3242H447.274V142.799H520.857V42.3242Z" fill="#E0E0E0"/>
<path d="M518.261 45.0718H449.834V140.161H518.261V45.0718Z" fill="#FAFAFA"/>
<path d="M495.213 67.3311H472.89V121.8H495.213V67.3311Z" fill="#E0E0E0"/>
<path d="M79.0606 323.298C96.338 314.916 103.077 295.331 105.343 277.139C105.725 274.098 106.561 270.962 105.549 268.083C104.537 265.203 101.457 262.858 98.5453 263.686C96.1326 264.382 94.7393 266.837 93.1406 268.815C91.0009 271.427 88.1667 273.383 84.964 274.457C82.8813 275.146 80.3953 275.38 78.6646 274.032C76.2813 272.178 76.5526 268.522 77.044 265.518C77.9777 259.93 78.9066 254.335 79.8306 248.732C80.3293 245.728 80.828 242.658 80.344 239.661C79.86 236.665 78.2173 233.675 75.482 232.422C72.7466 231.169 68.948 232.254 67.87 235.097C67.4226 236.284 67.474 237.595 67.188 238.826C66.902 240.057 66.11 241.346 64.8633 241.508C63.6166 241.669 62.5386 240.628 61.7833 239.603C59.158 236.071 57.6766 231.829 56.3273 227.63C54.978 223.432 53.6946 219.138 51.4066 215.38C49.1186 211.621 45.6353 208.412 41.3673 207.445C37.0993 206.477 32.0833 208.412 30.316 212.493C28.5486 216.574 30.316 221.285 32.516 225.11C35.6877 230.835 39.6747 236.07 44.352 240.65C45.1953 241.478 46.1046 242.365 46.288 243.537C46.6253 245.647 44.4033 247.333 42.3206 247.677C39.9593 248.065 37.5613 247.45 35.1706 247.355C32.78 247.259 30.0373 247.882 28.8346 249.956C27.1113 252.835 29.172 256.462 31.3646 258.975C35.7615 264.008 40.9934 268.246 46.8306 271.504C48.9133 272.662 51.128 273.746 52.6973 275.585C54.2666 277.424 54.8973 280.297 53.4673 282.238C52.0373 284.18 49.1773 284.436 46.926 283.623C44.6746 282.81 42.7973 281.242 40.722 280.055C36.8353 277.857 31.4526 277.278 28.2553 280.421C26.1433 282.495 25.4686 285.74 25.9013 288.679C26.334 291.617 27.742 294.306 29.282 296.833C34.672 305.626 42.1593 313.253 51.2233 318.082C60.2873 322.91 69.0286 325.24 79.09 323.276" fill="#EBEBEB"/>
<path d="M76.6114 324.258C77.1027 316.982 77.4254 320.756 76.1934 311.201C74.7579 300.86 72.7256 290.609 70.1067 280.502L68.1047 272.53C67.4667 269.958 66.7774 267.328 66 264.829C64.452 260.04 62.6378 255.341 60.566 250.754C58.6227 246.358 56.6207 242.262 54.6994 238.445C52.778 234.627 50.9374 231.125 49.1334 227.982C46.2812 223.015 43.0395 218.281 39.4387 213.826C38.17 212.244 37.1434 211.057 36.4394 210.258L35.6254 209.357C35.5384 209.251 35.4427 209.153 35.3394 209.064C35.4089 209.181 35.4899 209.292 35.5814 209.393L36.3147 210.331C36.9894 211.152 37.9867 212.368 39.248 213.958C42.7761 218.455 45.9627 223.208 48.7814 228.18C50.578 231.323 52.3967 234.847 54.2887 238.665C56.1807 242.482 58.1607 246.592 60.082 250.974C62.1304 255.549 63.9249 260.233 65.4574 265.005C66.2567 267.489 66.924 270.053 67.5694 272.676C68.2147 275.299 68.8967 277.952 69.5714 280.641C72.1821 290.727 74.224 300.952 75.6874 311.267C76.9414 320.792 76.6627 316.982 76.2227 324.236" fill="#E0E0E0"/>
<path d="M65.8237 264.785C66.032 264.393 66.1991 263.981 66.3224 263.554C66.6084 262.748 66.9897 261.569 67.4444 260.103C68.3464 257.173 69.4537 253.099 70.6564 248.593C71.8591 244.087 73.0251 240.027 73.9637 237.126C74.4331 235.661 74.8291 234.496 75.1077 233.69C75.2773 233.279 75.4026 232.852 75.4817 232.415C75.2429 232.792 75.0485 233.195 74.9024 233.616C74.5577 234.4 74.1104 235.551 73.5971 236.994C72.5484 239.874 71.3237 243.933 70.1137 248.446L67.0631 259.993C66.6817 261.378 66.3297 262.551 66.1097 263.488C65.9668 263.909 65.8709 264.344 65.8237 264.785Z" fill="#E0E0E0"/>
<path d="M28.292 251.414C28.781 251.604 29.2867 251.749 29.8027 251.846C30.778 252.088 32.2007 252.439 33.9387 252.923C37.422 253.868 42.1813 255.341 47.366 257.202C52.5507 259.063 57.1707 260.953 60.4707 262.419C62.128 263.151 63.4553 263.752 64.372 264.177C64.8394 264.428 65.3307 264.632 65.8387 264.785C65.4105 264.478 64.9566 264.208 64.482 263.979C63.5947 263.496 62.282 262.822 60.6467 262.052C57.3833 260.492 52.7707 258.535 47.5713 256.667C43.1371 255.06 38.6237 253.681 34.0487 252.535C32.296 252.095 30.8587 251.802 29.8613 251.626C29.3462 251.505 28.8207 251.434 28.292 251.414Z" fill="#E0E0E0"/>
<path d="M75.8267 310.418C75.8267 310.418 75.966 310.278 76.1713 309.985C76.3767 309.692 76.6993 309.209 77.0513 308.696C77.7847 307.567 78.8773 305.904 80.1607 303.838C82.7347 299.713 86.108 293.895 89.738 287.426C93.368 280.956 96.69 275.109 99.176 270.933L102.109 265.994L102.909 264.639C103.085 264.331 103.173 264.163 103.151 264.148C103.021 264.277 102.907 264.423 102.813 264.58C102.571 264.932 102.285 265.357 101.926 265.87C101.193 266.998 100.107 268.654 98.824 270.72C96.25 274.853 92.8767 280.67 89.2393 287.147C85.602 293.624 82.2947 299.457 79.8087 303.633L76.8753 308.571L76.076 309.927C75.9719 310.079 75.888 310.244 75.8267 310.418Z" fill="#E0E0E0"/>
<path d="M27.0674 285.689C27.2118 285.808 27.3722 285.907 27.5441 285.982L28.952 286.715L34.1734 289.374C38.5734 291.616 44.6307 294.789 51.3187 298.299C58.0067 301.808 64.0861 304.937 68.5447 307.091C70.7447 308.168 72.5854 309.018 73.8467 309.582L75.3134 310.227C75.4794 310.309 75.654 310.373 75.834 310.417C75.834 310.417 75.6801 310.3 75.3574 310.124L73.9494 309.392L68.7281 306.739C64.3281 304.49 58.2707 301.317 51.5827 297.808C44.8947 294.298 38.8081 291.206 34.3494 289.008C32.1494 287.931 30.3161 287.074 29.0474 286.51L27.5807 285.872C27.4185 285.788 27.2459 285.727 27.0674 285.689Z" fill="#E0E0E0"/>
<path d="M95.5971 104.369H37.4878V161.409H95.5971V104.369Z" fill="#E0E0E0"/>
<path d="M93.5437 105.929H39.5117V159.914H93.5437V105.929Z" fill="#FAFAFA"/>
<path d="M75.3427 124.122H57.7134V141.736H75.3427V124.122Z" fill="#E0E0E0"/>
<path d="M503.551 324.09C503.551 324.192 401.214 324.28 275.007 324.28C148.801 324.28 46.4492 324.178 46.4492 324.09C46.4492 324.002 148.764 323.899 275.007 323.899C401.251 323.899 503.551 323.98 503.551 324.09Z" fill="#263238"/>
<path d="M423.361 62.4001H126.639C124.183 62.4001 121.827 63.3751 120.09 65.1106C118.353 66.846 117.377 69.1998 117.377 71.6541V281.044C117.377 283.498 118.353 285.852 120.09 287.587C121.827 289.323 124.183 290.298 126.639 290.298H240.533C240.533 290.298 247.779 312.682 225.324 324.258H331.804C331.804 324.258 306.453 315.576 312.972 290.298H423.361C425.817 290.298 428.173 289.323 429.91 287.587C431.647 285.852 432.623 283.498 432.623 281.044V71.6541C432.623 69.1998 431.647 66.846 429.91 65.1106C428.173 63.3751 425.817 62.4001 423.361 62.4001Z" fill="#455A64"/>
<path d="M278.96 268.28C283.001 274.039 276.68 280.355 270.894 276.34C270.702 276.207 270.535 276.041 270.402 275.849C266.376 270.083 272.683 263.782 278.469 267.789C278.659 267.925 278.825 268.091 278.96 268.28Z" fill="#263238"/>
<path d="M422.906 74.9512H126.471C125.146 74.9512 124.073 76.0239 124.073 77.3471V251.077C124.073 252.4 125.146 253.472 126.471 253.472H422.906C424.23 253.472 425.304 252.4 425.304 251.077V77.3471C425.304 76.0239 424.23 74.9512 422.906 74.9512Z" fill="#FAFAFA"/>
<path d="M422.906 253.839H126.478C125.744 253.839 125.04 253.548 124.521 253.03C124.001 252.513 123.708 251.81 123.706 251.077V77.3472C123.708 76.614 124.001 75.9114 124.521 75.3936C125.04 74.8757 125.744 74.585 126.478 74.585H422.906C423.639 74.585 424.342 74.876 424.861 75.394C425.379 75.912 425.671 76.6146 425.671 77.3472V251.077C425.671 251.809 425.379 252.512 424.861 253.03C424.342 253.548 423.639 253.839 422.906 253.839ZM126.478 75.3177C125.939 75.3177 125.421 75.5312 125.039 75.9117C124.657 76.2921 124.441 76.8083 124.439 77.3472V251.077C124.441 251.616 124.657 252.132 125.039 252.512C125.421 252.893 125.939 253.106 126.478 253.106H422.906C423.445 253.106 423.961 252.892 424.342 252.512C424.723 252.131 424.937 251.615 424.937 251.077V77.3472C424.937 76.809 424.723 76.2927 424.342 75.9121C423.961 75.5315 423.445 75.3177 422.906 75.3177H126.478Z" fill="white"/>
<path d="M148.779 81.8459C148.782 82.3218 148.643 82.7879 148.381 83.185C148.118 83.5821 147.743 83.8924 147.304 84.0766C146.865 84.2607 146.381 84.3104 145.913 84.2194C145.446 84.1283 145.016 83.9006 144.678 83.5651C144.34 83.2295 144.11 82.8014 144.016 82.3348C143.922 81.8682 143.968 81.3842 144.15 80.9443C144.332 80.5043 144.64 80.1281 145.036 79.8633C145.432 79.5986 145.897 79.4573 146.374 79.4573C147.009 79.4573 147.619 79.7084 148.069 80.156C148.52 80.6035 148.775 81.211 148.779 81.8459Z" fill="#455A64"/>
<path d="M134.2 81.8459C134.2 82.3212 134.059 82.7858 133.795 83.181C133.531 83.5762 133.155 83.8843 132.715 84.0662C132.276 84.2481 131.792 84.2957 131.326 84.2029C130.859 84.1102 130.431 83.8813 130.094 83.5452C129.758 83.2091 129.529 82.7809 129.436 82.3147C129.343 81.8485 129.391 81.3653 129.573 80.9262C129.755 80.4871 130.063 80.1117 130.459 79.8476C130.854 79.5836 131.319 79.4426 131.795 79.4426C132.433 79.4426 133.045 79.6958 133.496 80.1465C133.947 80.5972 134.2 81.2085 134.2 81.8459Z" fill="#455A64"/>
<path d="M141.196 81.8459C141.196 82.3212 141.055 82.7858 140.791 83.181C140.526 83.5762 140.151 83.8843 139.711 84.0662C139.272 84.2481 138.788 84.2957 138.321 84.2029C137.855 84.1102 137.426 83.8813 137.09 83.5452C136.753 83.2091 136.524 82.7809 136.431 82.3147C136.339 81.8485 136.386 81.3653 136.568 80.9262C136.75 80.4871 137.059 80.1117 137.454 79.8476C137.85 79.5836 138.315 79.4426 138.791 79.4426C139.429 79.4426 140.04 79.6958 140.491 80.1465C140.943 80.5972 141.196 81.2085 141.196 81.8459Z" fill="#455A64"/>
<path d="M425.524 89.0628C425.524 89.1654 357.984 89.2533 274.7 89.2533C191.415 89.2533 123.86 89.1654 123.86 89.0628C123.86 88.9602 191.378 88.8723 274.7 88.8723C358.021 88.8723 425.524 88.9822 425.524 89.0628Z" fill="#263238"/>
<path d="M408.997 105.064L354.577 105.169L354.66 148.639L409.081 148.535L408.997 105.064Z" fill="#F5F5F5"/>
<path d="M407.059 107.808L356.459 107.905L356.532 145.903L407.132 145.806L407.059 107.808Z" fill="#EBEBEB"/>
<path d="M356.525 145.928L374.154 122.276L385.132 137.04L392.539 129.119L407.125 145.84L356.525 145.928Z" fill="#E0E0E0"/>
<path d="M389.745 119.36C389.742 120.147 389.506 120.915 389.067 121.568C388.628 122.221 388.005 122.73 387.277 123.03C386.549 123.33 385.749 123.408 384.976 123.254C384.204 123.101 383.494 122.722 382.937 122.166C382.38 121.61 382 120.902 381.844 120.131C381.689 119.36 381.766 118.56 382.065 117.832C382.364 117.104 382.872 116.481 383.525 116.041C384.177 115.601 384.946 115.364 385.733 115.359C386.26 115.357 386.783 115.458 387.27 115.658C387.758 115.858 388.201 116.152 388.574 116.524C388.947 116.896 389.242 117.338 389.443 117.825C389.644 118.312 389.747 118.833 389.745 119.36Z" fill="#E0E0E0"/>
<path d="M409.007 198.138L354.587 198.243L354.67 241.713L409.091 241.609L409.007 198.138Z" fill="#F5F5F5"/>
<path d="M407.07 200.882L356.47 200.979L356.543 238.977L407.143 238.88L407.07 200.882Z" fill="#EBEBEB"/>
<path d="M356.525 239.002L374.154 215.35L385.132 230.107L392.539 222.194L407.125 238.907L356.525 239.002Z" fill="#E0E0E0"/>
<path d="M389.745 212.427C389.748 213.216 389.516 213.988 389.08 214.645C388.643 215.303 388.021 215.816 387.292 216.12C386.564 216.424 385.761 216.505 384.986 216.352C384.211 216.2 383.499 215.822 382.94 215.265C382.38 214.708 381.999 213.998 381.844 213.224C381.689 212.451 381.767 211.649 382.068 210.92C382.37 210.19 382.881 209.567 383.538 209.128C384.194 208.69 384.966 208.456 385.755 208.456C386.278 208.455 386.796 208.557 387.28 208.756C387.763 208.955 388.203 209.247 388.573 209.616C388.944 209.984 389.238 210.423 389.439 210.905C389.64 211.387 389.744 211.904 389.745 212.427Z" fill="#E0E0E0"/>
<path d="M190.817 105.08L136.396 105.184L136.48 148.655L190.9 148.55L190.817 105.08Z" fill="#F5F5F5"/>
<path d="M188.878 107.824L138.278 107.921L138.351 145.918L188.951 145.821L188.878 107.824Z" fill="#EBEBEB"/>
<path d="M138.336 145.928L155.965 122.276L166.943 137.04L174.35 129.119L188.936 145.84L138.336 145.928Z" fill="#E0E0E0"/>
<path d="M171.556 119.36C171.552 120.146 171.315 120.912 170.875 121.563C170.435 122.215 169.812 122.721 169.085 123.019C168.357 123.317 167.557 123.393 166.787 123.238C166.016 123.082 165.308 122.703 164.753 122.146C164.198 121.589 163.821 120.881 163.668 120.111C163.515 119.34 163.594 118.541 163.895 117.815C164.196 117.09 164.706 116.469 165.359 116.032C166.012 115.595 166.781 115.361 167.567 115.359C168.092 115.358 168.613 115.461 169.098 115.662C169.583 115.863 170.024 116.158 170.395 116.53C170.766 116.902 171.059 117.343 171.259 117.829C171.458 118.315 171.559 118.835 171.556 119.36Z" fill="#E0E0E0"/>
<path d="M190.826 151.936L136.405 152.04L136.489 195.511L190.909 195.406L190.826 151.936Z" fill="#F5F5F5"/>
<path d="M188.888 154.672L138.288 154.769L138.361 192.767L188.961 192.67L188.888 154.672Z" fill="#EBEBEB"/>
<path d="M138.336 192.783L155.965 169.125L166.943 183.888L174.35 175.975L188.936 192.688L138.336 192.783Z" fill="#E0E0E0"/>
<path d="M171.556 166.209C171.561 166.996 171.331 167.767 170.896 168.424C170.462 169.081 169.842 169.594 169.115 169.899C168.388 170.204 167.587 170.286 166.814 170.136C166.04 169.985 165.328 169.609 164.769 169.054C164.21 168.499 163.828 167.791 163.671 167.019C163.515 166.247 163.592 165.447 163.891 164.718C164.191 163.99 164.7 163.367 165.354 162.928C166.009 162.489 166.779 162.253 167.567 162.252C168.62 162.25 169.632 162.665 170.38 163.407C171.127 164.148 171.55 165.156 171.556 166.209Z" fill="#E0E0E0"/>
<path d="M190.829 199.202L136.408 199.306L136.492 242.777L190.912 242.673L190.829 199.202Z" fill="#F5F5F5"/>
<path d="M188.89 201.946L138.291 202.043L138.364 240.04L188.963 239.943L188.89 201.946Z" fill="#EBEBEB"/>
<path d="M138.336 240.05L155.965 216.398L166.943 231.155L174.35 223.242L188.936 239.962L138.336 240.05Z" fill="#E0E0E0"/>
<path d="M171.556 213.475C171.558 214.262 171.326 215.031 170.889 215.686C170.453 216.341 169.832 216.852 169.105 217.155C168.378 217.457 167.577 217.538 166.805 217.385C166.032 217.233 165.322 216.856 164.764 216.3C164.206 215.745 163.825 215.037 163.67 214.265C163.515 213.494 163.593 212.694 163.893 211.966C164.193 211.239 164.702 210.616 165.356 210.178C166.01 209.74 166.779 209.505 167.567 209.503C168.622 209.503 169.635 209.921 170.383 210.666C171.13 211.41 171.552 212.42 171.556 213.475Z" fill="#E0E0E0"/>
<path d="M417.157 147.84C415.439 147.582 413.685 147.745 412.044 148.312C410.403 148.88 408.924 149.837 407.733 151.1C403.898 154.947 387.933 168.993 387.933 168.993L364.775 164.362L361.533 174.708C361.533 174.708 388.887 183.207 390.867 182.474C392.847 181.742 407.733 171.711 407.733 171.711L417.157 147.84Z" fill="#FF725E"/>
<path d="M393.863 112.215L282.37 127.336L294.468 216.392L405.961 201.271L393.863 112.215Z" fill="#EBEBEB"/>
<path d="M393.866 112.179L393.331 112.26L391.776 112.487L385.733 113.33L362.927 116.473L282.407 127.463L282.575 127.244C286.183 153.753 290.327 184.137 294.705 216.288L294.463 216.105L405.929 201.011L405.775 201.217L397.1 136.608C396.066 128.826 395.252 122.723 394.694 118.561C394.423 116.48 394.211 114.898 394.071 113.799C393.932 112.7 393.866 112.157 393.866 112.157C393.866 112.157 393.954 112.692 394.101 113.755C394.247 114.817 394.475 116.414 394.768 118.473C395.34 122.628 396.183 128.731 397.261 136.468C399.395 152.038 402.461 174.312 406.149 201.187V201.371H405.966L294.499 216.537H294.279V216.317C289.916 184.159 285.795 153.775 282.194 127.266V127.075H282.385L363.051 116.231L385.829 113.191L391.842 112.399L393.382 112.201L393.866 112.179Z" fill="#263238"/>
<path d="M389.705 120.032L286.141 133.619L296.362 211.393L399.926 197.806L389.705 120.032Z" fill="#FF725E"/>
<path d="M297.564 210.236L327.191 156.94L353.73 184.167L366.74 165.915L401.221 196.168L297.564 210.236Z" fill="#FF725E"/>
<path d="M358.329 146.675C358.548 148.288 358.283 149.929 357.568 151.392C356.853 152.854 355.72 154.072 354.312 154.891C352.904 155.71 351.285 156.094 349.659 155.993C348.033 155.893 346.474 155.313 345.178 154.326C343.882 153.34 342.908 151.992 342.379 150.453C341.85 148.913 341.79 147.252 342.206 145.678C342.622 144.105 343.496 142.69 344.718 141.612C345.939 140.535 347.452 139.844 349.067 139.626C351.23 139.335 353.421 139.913 355.158 141.235C356.895 142.557 358.035 144.513 358.329 146.675Z" fill="#FF725E"/>
<g opacity="0.2">
<path d="M297.564 210.236L327.191 156.94L353.73 184.167L366.74 165.915L401.221 196.168L297.564 210.236Z" fill="black"/>
</g>
<g opacity="0.2">
<path d="M358.329 146.675C358.548 148.288 358.283 149.929 357.568 151.392C356.853 152.854 355.72 154.072 354.312 154.891C352.904 155.71 351.285 156.094 349.659 155.993C348.033 155.893 346.474 155.313 345.178 154.326C343.882 153.34 342.908 151.992 342.379 150.453C341.85 148.913 341.79 147.252 342.206 145.678C342.622 144.105 343.496 142.69 344.718 141.612C345.939 140.535 347.452 139.844 349.067 139.626C351.23 139.335 353.421 139.913 355.158 141.235C356.895 142.557 358.035 144.513 358.329 146.675Z" fill="black"/>
</g>
<path d="M443.476 159.387C444.532 152.141 441.166 149.862 435.878 147.664C429.278 144.931 416.694 146.294 412.412 150.118L407.572 164.45C405.541 166.817 405.863 170.429 407.036 173.323C408.21 176.217 410.102 178.811 410.974 181.8C412.668 187.596 411.48 192.717 411.077 198.733C410.989 200.125 409.918 202.689 410.945 203.627C411.972 204.565 413.314 204.521 414.612 204.47C424.729 204.056 434.65 201.549 443.747 197.106C440.293 190.146 436.487 182.086 438.709 176.752C441.003 171.18 442.604 165.348 443.476 159.387Z" fill="#FF725E"/>
<path d="M397.804 174.209L394.533 185.332C394.533 185.332 411.613 191.538 420.86 191.428C429.528 191.318 432.007 190.336 435.057 183.368C438.108 176.4 441.569 168.341 442.295 163.717C442.814 162.184 443.182 160.603 443.395 158.999C444.664 149.51 433.129 147.012 431.42 156.434L430.041 161.483C430.041 161.483 426.895 168.59 426.749 168.985C425.355 172.649 422.943 178.576 421.197 179.243C419.452 179.91 397.804 174.209 397.804 174.209Z" fill="#FF725E"/>
<path d="M439.508 174.708C439.488 174.799 439.459 174.887 439.42 174.972L439.12 175.704C438.856 176.371 438.445 177.346 437.851 178.577C437.147 180.092 436.346 181.56 435.453 182.973C434.283 184.85 432.881 186.574 431.28 188.102C430.815 188.532 430.325 188.935 429.814 189.311C429.273 189.691 428.712 190.043 428.134 190.366L427.203 190.791L426.726 190.996L426.22 191.135L425.194 191.421L424.116 191.553C421.038 191.723 417.95 191.504 414.927 190.9C407.989 189.591 401.151 187.804 394.46 185.552L394.291 185.493L394.342 185.317L394.753 183.911L397.606 174.195L397.657 174.019L397.833 174.063C404.081 175.734 409.992 177.192 415.367 178.174C416.716 178.408 418.029 178.613 419.305 178.716C419.927 178.778 420.553 178.778 421.175 178.716C421.318 178.698 421.458 178.664 421.593 178.613C421.716 178.569 421.821 178.487 421.894 178.379C422.074 178.148 422.236 177.903 422.378 177.646C423.58 175.572 424.504 173.528 425.377 171.697C427.093 168.033 428.406 165.036 429.322 162.992C429.77 161.988 430.122 161.197 430.371 160.647C430.481 160.391 430.576 160.193 430.642 160.039C430.708 159.885 430.745 159.834 430.752 159.841C430.76 159.849 430.752 159.915 430.679 160.054C430.606 160.193 430.532 160.413 430.43 160.669L429.454 162.985C428.582 165.051 427.298 168.04 425.612 171.74C424.754 173.587 423.852 175.624 422.678 177.734C422.526 178.007 422.355 178.269 422.165 178.518C422.057 178.661 421.913 178.773 421.747 178.84C421.591 178.9 421.429 178.939 421.263 178.958C420.62 179.027 419.97 179.027 419.327 178.958C418.029 178.862 416.709 178.657 415.36 178.43C409.955 177.47 404.044 176.027 397.76 174.364L397.987 174.232L395.142 183.955L394.731 185.361L394.606 185.127C401.277 187.375 408.093 189.167 415.008 190.49C418.001 191.098 421.058 191.327 424.108 191.172L425.157 191.054L426.154 190.783L426.646 190.651L427.115 190.446L428.024 190.043C428.591 189.732 429.139 189.39 429.667 189.017C430.178 188.655 430.667 188.263 431.134 187.845C432.728 186.346 434.128 184.652 435.299 182.804C436.201 181.418 437.019 179.979 437.748 178.496C438.364 177.28 438.79 176.298 439.083 175.653L439.413 174.92C439.436 174.846 439.468 174.775 439.508 174.708Z" fill="#263238"/>
<path d="M410.139 161.746C409.787 162.446 409.39 163.121 408.951 163.769C407.932 165.329 407.22 167.07 406.853 168.897C406.624 170.747 406.937 172.623 407.755 174.297C408.105 174.997 408.413 175.716 408.679 176.452C408.538 176.293 408.419 176.116 408.327 175.924C408.03 175.433 407.758 174.927 407.513 174.407C407.132 173.64 406.832 172.834 406.619 172.004C406.354 170.97 406.304 169.893 406.472 168.839C406.846 166.961 407.613 165.183 408.723 163.622C409.135 162.954 409.609 162.326 410.139 161.746Z" fill="#263238"/>
<g opacity="0.2">
<path d="M411.649 190.094C411.635 190.73 411.758 191.361 412.011 191.944C412.265 192.527 412.641 193.048 413.116 193.472C414.07 194.315 415.211 194.92 416.445 195.238C418.369 195.781 420.383 195.923 422.364 195.655C424.345 195.386 426.249 194.713 427.958 193.677C431.361 191.604 433.678 187.816 434.617 183.969C434.617 183.969 432.468 186.673 431.053 188.079C429.285 189.861 426.952 190.973 424.453 191.223C420.148 191.831 415.792 190.959 411.539 190.087" fill="black"/>
</g>
<path d="M410.322 151.342C410.731 151.504 411.128 151.695 411.51 151.914L414.509 153.482L414.781 153.628L414.517 153.797C413.871 154.214 413.175 154.676 412.441 155.145C411.708 155.614 411.121 155.995 410.513 156.376L410.234 156.559V156.236C410.234 154.808 410.234 153.584 410.234 152.72C410.209 152.258 410.239 151.796 410.322 151.342C410.415 151.795 410.462 152.257 410.461 152.72C410.505 153.584 410.549 154.8 410.593 156.229L410.307 156.083L412.236 154.83C412.969 154.353 413.703 153.906 414.333 153.489V153.797C411.935 152.463 410.256 151.437 410.322 151.342Z" fill="#FAFAFA"/>
<path d="M402.167 158.588C402.574 158.755 402.971 158.945 403.355 159.16L406.354 160.735L406.618 160.874L406.362 161.043L404.286 162.398L402.358 163.629L402.079 163.805V163.483C402.079 162.061 402.079 160.838 402.079 159.973C402.055 159.51 402.084 159.045 402.167 158.588C402.259 159.042 402.303 159.503 402.299 159.966C402.35 160.83 402.394 162.054 402.438 163.475L402.152 163.329L404.081 162.076L406.178 160.735V161.05C403.78 159.717 402.101 158.698 402.167 158.588Z" fill="#FAFAFA"/>
<path d="M423.984 161.072C423.978 160.631 424.008 160.19 424.072 159.754C424.167 158.808 424.285 157.673 424.417 156.39V156.09L424.673 156.273L426.697 157.695L428.56 159.021L428.831 159.219L428.531 159.343C427.211 159.885 426.074 160.34 425.267 160.647C424.849 160.843 424.408 160.985 423.955 161.072C424.338 160.815 424.749 160.601 425.179 160.435C425.964 160.069 427.079 159.57 428.391 158.97V159.292L426.507 157.966C425.773 157.46 425.121 156.969 424.483 156.5L424.769 156.376C424.424 159.16 424.094 161.094 423.984 161.072Z" fill="#FAFAFA"/>
<path d="M409.581 169.638C409.834 169.278 410.114 168.938 410.417 168.619L412.654 166.077L412.859 165.857L412.962 166.15C413.218 166.883 413.497 167.659 413.783 168.48L414.516 170.678L414.619 170.993L414.304 170.913C412.918 170.59 411.73 170.297 410.894 170.077C410.439 169.993 409.996 169.855 409.574 169.667C410.034 169.685 410.491 169.748 410.938 169.857C411.796 170.019 412.991 170.26 414.384 170.59L414.179 170.832C413.937 170.151 413.68 169.425 413.446 168.634C413.211 167.843 412.888 167.022 412.639 166.282L412.94 166.348C411.048 168.333 409.662 169.718 409.581 169.638Z" fill="#FAFAFA"/>
<path d="M420.838 170.788C420.841 170.347 420.871 169.907 420.926 169.469C421.021 168.517 421.139 167.381 421.271 166.106V165.806L421.527 165.982L423.559 167.403L425.414 168.736L425.685 168.927L425.385 169.052C424.072 169.594 422.935 170.048 422.121 170.356C421.701 170.548 421.261 170.692 420.809 170.788C421.191 170.529 421.602 170.315 422.033 170.151C422.818 169.784 423.94 169.286 425.245 168.722V169.037L423.361 167.711L421.344 166.245L421.63 166.121C421.278 168.846 420.933 170.803 420.838 170.788Z" fill="#FAFAFA"/>
<path d="M416.834 177.639C416.837 177.198 416.867 176.757 416.922 176.32C417.025 175.375 417.142 174.239 417.267 172.957V172.656L417.516 172.839L419.547 174.254L421.41 175.587L421.681 175.785L421.381 175.909C420.061 176.452 418.924 176.899 418.11 177.206C417.692 177.403 417.251 177.549 416.797 177.639C417.182 177.383 417.592 177.17 418.022 177.001C418.814 176.635 419.929 176.137 421.234 175.572V175.887L419.357 174.569L417.333 173.103L417.619 172.979C417.267 175.734 416.951 177.639 416.834 177.639Z" fill="#FAFAFA"/>
<path d="M425.15 200.718C425.143 200.277 425.17 199.836 425.231 199.4C425.333 198.447 425.451 197.319 425.583 196.036V195.736L425.839 195.912L427.863 197.333L429.733 198.667L430.005 198.857L429.704 198.982C428.384 199.524 427.247 199.978 426.441 200.286C426.02 200.477 425.58 200.622 425.128 200.718C425.51 200.459 425.921 200.245 426.353 200.081C427.137 199.715 428.252 199.216 429.565 198.652V198.967L427.68 197.648L425.656 196.183L425.942 196.066C425.583 198.806 425.26 200.74 425.15 200.718Z" fill="#FAFAFA"/>
<path d="M432.373 155.138C432.372 154.696 432.401 154.256 432.461 153.819C432.556 152.866 432.674 151.731 432.806 150.456V150.155L433.062 150.331L435.086 151.753L436.949 153.086L437.22 153.277L436.92 153.401C435.607 153.943 434.47 154.398 433.656 154.705C433.236 154.896 432.796 155.041 432.344 155.138C432.724 154.875 433.135 154.661 433.568 154.5C434.353 154.134 435.475 153.636 436.78 153.035V153.357L434.866 152.06L432.85 150.595L433.136 150.47C432.813 153.218 432.49 155.152 432.373 155.138Z" fill="#FAFAFA"/>
<path d="M414.333 163.219C414.327 162.778 414.356 162.337 414.421 161.9C414.516 160.948 414.634 159.812 414.766 158.53V158.229L415.022 158.413L417.046 159.834L418.909 161.168L419.18 161.358L418.88 161.483C417.56 162.025 416.423 162.479 415.616 162.787C415.196 162.977 414.755 163.122 414.304 163.219C414.685 162.956 415.096 162.739 415.528 162.574C416.313 162.208 417.428 161.717 418.74 161.146V161.468L416.856 160.142L414.832 158.676L415.118 158.552C414.795 161.299 414.465 163.234 414.333 163.219Z" fill="#FAFAFA"/>
<path d="M415.375 198.813C415.378 198.372 415.408 197.932 415.463 197.495C415.558 196.549 415.675 195.414 415.807 194.131V193.831L416.064 194.014L418.095 195.436L419.951 196.762L420.222 196.96L419.921 197.084C418.609 197.626 417.472 198.073 416.658 198.381C416.241 198.581 415.8 198.727 415.345 198.813C415.73 198.558 416.14 198.344 416.57 198.176C417.355 197.81 418.477 197.311 419.782 196.747V197.062L417.897 195.743L415.881 194.278L416.167 194.153C415.8 196.901 415.492 198.835 415.375 198.813Z" fill="#FAFAFA"/>
<path d="M434.683 169.059C434.687 168.618 434.716 168.177 434.771 167.74C434.866 166.787 434.984 165.652 435.116 164.377V164.069L435.365 164.252L437.396 165.674L439.259 167.007L439.523 167.198L439.23 167.322C437.91 167.864 436.773 168.319 435.959 168.626C435.539 168.818 435.099 168.963 434.646 169.059C435.027 168.796 435.439 168.579 435.871 168.414C436.663 168.055 437.778 167.557 439.083 166.985V167.308L437.206 165.981L435.182 164.516L435.468 164.391C435.123 167.139 434.8 169.073 434.683 169.059Z" fill="#FAFAFA"/>
<path d="M426.323 185.647C426.317 185.206 426.347 184.765 426.411 184.328C426.507 183.376 426.624 182.24 426.756 180.965V180.665L427.013 180.84L429.037 182.262L430.899 183.595L431.171 183.786L430.87 183.91C429.55 184.453 428.413 184.907 427.607 185.215C427.186 185.405 426.746 185.55 426.294 185.647C426.678 185.392 427.089 185.178 427.519 185.009C428.303 184.643 429.418 184.145 430.731 183.581V183.896L428.846 182.577L426.822 181.111L427.108 180.987C426.8 183.735 426.433 185.698 426.323 185.647Z" fill="#FAFAFA"/>
<path d="M433.305 193.333C433.298 192.889 433.325 192.446 433.385 192.007C433.488 191.062 433.605 189.926 433.737 188.644V188.343L433.994 188.526L436.018 189.948C436.671 190.409 437.294 190.864 437.881 191.274L438.152 191.472L437.851 191.596C436.531 192.139 435.395 192.593 434.588 192.901C434.167 193.091 433.727 193.236 433.275 193.333C433.654 193.066 434.065 192.849 434.5 192.688C435.285 192.322 436.399 191.824 437.712 191.223V191.545L435.827 190.219L433.803 188.754L434.089 188.629C433.737 191.413 433.4 193.348 433.305 193.333Z" fill="#FAFAFA"/>
<path d="M428.523 177.214C428.522 176.772 428.551 176.332 428.611 175.895C428.706 174.942 428.824 173.806 428.956 172.532V172.231L429.212 172.407L431.236 173.828L433.099 175.162L433.37 175.352L433.07 175.477C431.757 176.019 430.62 176.474 429.806 176.781C429.385 176.972 428.945 177.117 428.494 177.214C428.874 176.951 429.285 176.737 429.718 176.576C430.503 176.21 431.625 175.712 432.93 175.111V175.426L431.046 174.1L429.029 172.634L429.315 172.51C429 175.301 428.64 177.228 428.523 177.214Z" fill="#FAFAFA"/>
<path d="M406.156 187.09C406.15 186.649 406.18 186.208 406.244 185.771C406.34 184.819 406.457 183.691 406.589 182.408V182.108L406.846 182.284L408.87 183.705L410.732 185.039L411.004 185.229L410.703 185.354C409.383 185.896 408.246 186.35 407.44 186.658C407.019 186.849 406.579 186.994 406.127 187.09C406.511 186.835 406.922 186.621 407.352 186.453C408.136 186.086 409.251 185.588 410.564 185.024V185.339L408.679 184.02L406.655 182.555L406.941 182.438C406.596 185.178 406.266 187.112 406.156 187.09Z" fill="#FAFAFA"/>
<path d="M417.179 184.768C417.182 184.327 417.212 183.886 417.267 183.449C417.369 182.504 417.487 181.368 417.611 180.086V179.785L417.868 179.969L419.892 181.39L421.755 182.716L422.026 182.914L421.725 183.039C420.405 183.581 419.269 184.028 418.455 184.335C418.036 184.533 417.596 184.678 417.142 184.768C417.526 184.512 417.937 184.299 418.367 184.13C419.159 183.764 420.273 183.266 421.586 182.665L421.549 182.98L419.672 181.661L417.648 180.196L417.934 180.071C417.619 182.855 417.267 184.79 417.179 184.768Z" fill="#FAFAFA"/>
<path d="M397.995 182.145C397.998 181.704 398.028 181.263 398.083 180.826C398.178 179.881 398.295 178.745 398.427 177.463V177.162L398.684 177.346L400.708 178.76L402.571 180.093L402.842 180.291L402.541 180.416C401.229 180.958 400.092 181.405 399.278 181.712C398.859 181.908 398.419 182.053 397.965 182.145C398.35 181.889 398.76 181.676 399.19 181.507C399.975 181.141 401.097 180.643 402.402 180.078V180.394L400.517 179.075L398.501 177.609L398.787 177.485C398.435 180.232 398.112 182.167 397.995 182.145Z" fill="#FAFAFA"/>
<path d="M441.239 160.882C440.806 160.808 440.379 160.698 439.963 160.552L436.715 159.592L436.429 159.504L436.649 159.292L438.423 157.563L440.073 155.98L440.315 155.753L440.381 156.068C440.675 157.467 440.909 158.662 441.063 159.519C441.173 159.965 441.232 160.422 441.239 160.882C441.06 160.458 440.927 160.016 440.843 159.563C440.623 158.728 440.345 157.533 440.029 156.149L440.337 156.237C439.817 156.735 439.267 157.277 438.687 157.841L436.891 159.556L436.825 159.255C439.443 160.098 441.283 160.787 441.239 160.882Z" fill="#FAFAFA"/>
<path d="M371.573 315.21L374.792 308.989L386.525 314.939L381.913 324.09L381.179 323.767C377.857 322.302 364.401 316.096 362.575 314.345C360.492 312.389 371.573 315.21 371.573 315.21Z" fill="#FF725E"/>
<g opacity="0.5">
<path d="M377.667 321.84C378.339 320.941 379.321 320.322 380.424 320.104C381.511 319.886 382.64 320.079 383.592 320.646L381.935 323.914L377.667 321.84Z" fill="white"/>
</g>
<g opacity="0.4">
<path d="M366.073 314.008C366.073 314.008 362.076 313.239 362.223 314.008C362.369 314.777 375.723 321.591 381.883 324.068L381.993 323.797L366.344 316.016C366.344 316.016 366.74 314.382 366.073 314.008Z" fill="white"/>
</g>
<path d="M382.184 323.907L381.971 323.826L381.377 323.562L379.177 322.573C377.351 321.73 374.836 320.522 372.093 319.137C369.351 317.752 366.894 316.426 365.127 315.473L363.044 314.308L362.487 313.979C362.355 313.905 362.289 313.861 362.296 313.854L362.501 313.949L363.073 314.257L365.2 315.385C366.982 316.331 369.446 317.627 372.189 319.049C374.931 320.47 377.432 321.657 379.251 322.536L381.399 323.57L381.986 323.855C382.054 323.866 382.12 323.883 382.184 323.907Z" fill="#263238"/>
<path d="M366.256 316.221C366.337 315.82 366.376 315.413 366.373 315.004C366.312 314.601 366.206 314.205 366.058 313.825C366.357 314.139 366.525 314.556 366.527 314.99C366.59 315.419 366.493 315.857 366.256 316.221Z" fill="#263238"/>
<path d="M370.597 316.221C370.553 316.221 370.487 315.942 370.458 315.583C370.405 315.372 370.405 315.15 370.458 314.938C370.502 314.938 370.568 315.217 370.597 315.569C370.65 315.783 370.65 316.007 370.597 316.221Z" fill="#263238"/>
<path d="M371.8 316.206C371.756 316.206 371.639 316.001 371.529 315.715C371.419 315.429 371.36 315.195 371.404 315.18C371.448 315.166 371.565 315.378 371.675 315.664C371.765 315.83 371.808 316.017 371.8 316.206Z" fill="#263238"/>
<path d="M372.959 315.385C372.959 315.429 372.651 315.327 372.306 315.158C372.089 315.075 371.892 314.948 371.727 314.785C371.727 314.741 372.042 314.843 372.379 315.012C372.717 315.18 372.981 315.385 372.959 315.385Z" fill="#263238"/>
<path d="M373.56 314.726C373.289 314.762 373.015 314.71 372.775 314.58C372.517 314.501 372.289 314.345 372.123 314.133C372.376 314.209 372.622 314.31 372.856 314.433C373.098 314.512 373.333 314.61 373.56 314.726Z" fill="#263238"/>
<path d="M370.722 315.004C370.457 314.917 370.21 314.785 369.988 314.616C369.728 314.441 369.483 314.245 369.255 314.03C369.121 313.904 369 313.764 368.896 313.612C368.832 313.515 368.808 313.397 368.83 313.283C368.843 313.22 368.876 313.163 368.923 313.119C368.97 313.076 369.03 313.049 369.094 313.041C369.452 313.046 369.798 313.176 370.072 313.407C370.345 313.638 370.531 313.956 370.597 314.308C370.643 314.513 370.643 314.726 370.597 314.931C370.588 315.01 370.561 315.085 370.516 315.151C370.566 314.88 370.566 314.602 370.516 314.33C370.446 314.05 370.296 313.795 370.084 313.598C369.84 313.35 369.508 313.208 369.16 313.202C368.991 313.202 368.969 313.392 369.057 313.539C369.155 313.682 369.268 313.815 369.394 313.935C369.601 314.15 369.824 314.348 370.062 314.528C370.443 314.829 370.729 314.975 370.722 315.004Z" fill="#263238"/>
<path d="M370.502 314.938C370.49 314.734 370.555 314.533 370.685 314.374C370.811 314.191 370.976 314.038 371.169 313.927C371.29 313.848 371.428 313.801 371.571 313.789C371.715 313.778 371.859 313.803 371.991 313.861C372.059 313.917 372.102 313.998 372.112 314.085C372.122 314.173 372.096 314.261 372.042 314.33C371.963 314.439 371.863 314.531 371.749 314.601C371.566 314.718 371.369 314.809 371.162 314.872C370.976 314.946 370.775 314.976 370.575 314.96C370.575 314.96 370.795 314.902 371.118 314.77C371.311 314.692 371.496 314.594 371.668 314.477C371.851 314.367 372.064 314.118 371.895 313.993C371.788 313.952 371.672 313.936 371.557 313.947C371.443 313.959 371.332 313.997 371.235 314.059C371.057 314.153 370.899 314.283 370.773 314.44C370.67 314.599 370.579 314.765 370.502 314.938Z" fill="#263238"/>
<path d="M383.57 320.58C383.57 320.58 383.254 320.382 382.69 320.177C381.961 319.905 381.172 319.841 380.409 319.994C379.651 320.159 378.951 320.526 378.385 321.056C377.952 321.467 377.762 321.789 377.74 321.789C377.764 321.704 377.804 321.625 377.857 321.555C377.986 321.349 378.136 321.158 378.304 320.983C378.864 320.411 379.582 320.019 380.365 319.857C381.149 319.695 381.964 319.771 382.704 320.075C382.927 320.171 383.14 320.286 383.342 320.419C383.533 320.514 383.577 320.573 383.57 320.58Z" fill="#263238"/>
<path d="M384.831 315.1C384.51 315.94 384.138 316.76 383.716 317.554C383.344 318.374 382.92 319.169 382.448 319.935C382.776 319.097 383.151 318.278 383.57 317.481C383.945 316.664 384.366 315.869 384.831 315.1Z" fill="#263238"/>
<path d="M376.794 319.95C376.164 319.79 375.559 319.543 374.997 319.217C374.411 318.949 373.86 318.612 373.354 318.213C373.354 318.17 374.124 318.609 375.07 319.071C376.016 319.532 376.808 319.906 376.794 319.95Z" fill="#263238"/>
<path d="M379.089 321.115C379.089 321.159 378.943 321.24 378.774 321.379C378.605 321.518 378.488 321.65 378.451 321.628C378.415 321.606 378.451 321.408 378.679 321.254C378.906 321.1 379.082 321.071 379.089 321.115Z" fill="#263238"/>
<path d="M380.497 320.514C380.497 320.558 380.38 320.639 380.196 320.697C380.013 320.756 379.852 320.778 379.837 320.734C379.822 320.69 379.962 320.61 380.145 320.551C380.328 320.492 380.49 320.434 380.497 320.514Z" fill="#263238"/>
<path d="M381.986 320.617C381.986 320.617 381.802 320.566 381.604 320.544C381.406 320.522 381.23 320.544 381.208 320.5C381.186 320.456 381.377 320.346 381.626 320.382C381.876 320.419 382.015 320.58 381.986 320.617Z" fill="#263238"/>
<path d="M382.983 320.829C382.983 320.873 382.881 320.895 382.771 320.888C382.661 320.881 382.558 320.829 382.565 320.785C382.573 320.741 382.668 320.719 382.785 320.727C382.903 320.734 382.991 320.785 382.983 320.829Z" fill="#263238"/>
<path d="M448.382 317.701L445.595 311.275L457.6 305.985L461.78 315.334L461.047 315.715C457.813 317.356 444.495 323.848 441.98 324.156C439.193 324.5 448.382 317.701 448.382 317.701Z" fill="#FF725E"/>
<g opacity="0.5">
<path d="M457.387 317.166C457.117 316.074 457.261 314.92 457.791 313.927C458.306 312.947 459.169 312.194 460.211 311.817L461.677 315.173L457.387 317.166Z" fill="white"/>
</g>
<g opacity="0.4">
<path d="M443.974 321.203C443.974 321.203 440.85 323.811 441.554 324.2C442.258 324.588 455.972 318.536 461.787 315.334L461.648 315.078L445.72 322.28C445.72 322.28 444.686 320.925 443.974 321.203Z" fill="white"/>
</g>
<path d="M461.831 314.99L461.633 315.1L461.061 315.4L458.92 316.455C457.101 317.334 454.578 318.521 451.77 319.767C448.961 321.013 446.38 322.082 444.51 322.83L442.31 323.709L441.701 323.936L441.488 324.002C441.55 323.961 441.617 323.926 441.686 323.899L442.288 323.65L444.488 322.727C446.35 321.95 448.888 320.866 451.726 319.62C454.564 318.375 457.064 317.21 458.89 316.353L461.054 315.341L461.64 315.07L461.831 314.99Z" fill="#263238"/>
<path d="M445.8 322.463C445.545 322.143 445.255 321.853 444.935 321.599C444.583 321.391 444.209 321.221 443.82 321.093C444.253 321.071 444.679 321.203 445.023 321.467C445.398 321.69 445.675 322.046 445.8 322.463Z" fill="#263238"/>
<path d="M448.551 319.1C448.551 319.137 448.265 319.005 447.971 318.807C447.678 318.609 447.451 318.419 447.473 318.382C447.495 318.345 447.759 318.477 448.059 318.675C448.36 318.873 448.573 319.049 448.551 319.1Z" fill="#263238"/>
<path d="M449.298 318.155C449.298 318.199 449.034 318.155 448.748 318.06C448.462 317.964 448.235 317.855 448.25 317.818C448.264 317.781 448.506 317.818 448.8 317.913C449.093 318.008 449.306 318.118 449.298 318.155Z" fill="#263238"/>
<path d="M449.408 316.756C449.408 316.792 449.159 316.953 448.814 317.107C448.47 317.261 448.176 317.364 448.162 317.32C448.147 317.276 448.404 317.122 448.748 316.968C449.093 316.814 449.394 316.712 449.408 316.756Z" fill="#263238"/>
<path d="M449.269 315.862C449.269 315.862 449.049 316.162 448.661 316.374C448.444 316.52 448.188 316.597 447.927 316.594C448.146 316.454 448.376 316.334 448.617 316.235C448.954 316.037 449.233 315.825 449.269 315.862Z" fill="#263238"/>
<path d="M447.678 318.236C447.442 318.391 447.182 318.505 446.908 318.573C446.613 318.658 446.311 318.717 446.006 318.749C445.821 318.771 445.634 318.771 445.449 318.749C445.335 318.737 445.23 318.682 445.155 318.595C445.12 318.542 445.101 318.479 445.101 318.415C445.101 318.351 445.12 318.289 445.155 318.236C445.386 317.962 445.704 317.777 446.055 317.712C446.407 317.646 446.77 317.705 447.084 317.877C447.273 317.974 447.438 318.112 447.568 318.28C447.619 318.336 447.657 318.404 447.678 318.477C447.494 318.274 447.276 318.105 447.033 317.979C446.772 317.85 446.478 317.802 446.189 317.84C445.841 317.875 445.521 318.043 445.295 318.309C445.214 318.455 445.295 318.58 445.5 318.595C445.671 318.613 445.843 318.613 446.013 318.595C446.312 318.567 446.609 318.518 446.901 318.448C447.377 318.316 447.671 318.214 447.678 318.236Z" fill="#263238"/>
<path d="M447.495 318.36C447.495 318.36 447.289 318.228 447.172 317.862C447.118 317.648 447.118 317.424 447.172 317.21C447.186 317.066 447.237 316.928 447.319 316.809C447.401 316.69 447.512 316.593 447.641 316.528C447.727 316.513 447.815 316.531 447.887 316.579C447.959 316.626 448.011 316.7 448.03 316.785C448.063 316.917 448.063 317.055 448.03 317.188C448.005 317.401 447.953 317.61 447.876 317.811C447.819 318.003 447.713 318.177 447.568 318.316C447.568 318.316 447.663 318.111 447.766 317.774C447.828 317.579 447.867 317.377 447.883 317.173C447.883 316.961 447.883 316.638 447.656 316.682C447.429 316.726 447.341 317.034 447.289 317.239C447.245 317.434 447.245 317.637 447.289 317.832C447.341 318.014 447.41 318.191 447.495 318.36Z" fill="#263238"/>
<path d="M460.137 311.81C460.137 311.81 459.778 311.934 459.265 312.235C458.594 312.63 458.046 313.203 457.681 313.891C457.322 314.578 457.164 315.353 457.226 316.125C457.27 316.726 457.402 317.078 457.373 317.085C457.324 317.011 457.289 316.929 457.27 316.843C457.191 316.606 457.14 316.36 457.116 316.111C457.018 315.311 457.165 314.5 457.538 313.786C457.912 313.071 458.493 312.487 459.206 312.11C459.417 311.993 459.641 311.9 459.873 311.832C459.96 311.812 460.049 311.805 460.137 311.81Z" fill="#263238"/>
<path d="M456.683 307.37C457.127 308.152 457.526 308.96 457.878 309.788C458.272 310.596 458.622 311.425 458.927 312.271C458.476 311.492 458.077 310.685 457.732 309.853C457.329 309.049 456.979 308.219 456.683 307.37Z" fill="#263238"/>
<path d="M455.4 316.66C454.885 317.05 454.321 317.368 453.721 317.605C453.147 317.901 452.535 318.116 451.902 318.243C451.902 318.199 452.694 317.899 453.655 317.466C454.615 317.034 455.334 316.624 455.4 316.66Z" fill="#263238"/>
<path d="M457.71 315.62C457.754 315.62 457.71 315.81 457.71 316.03C457.71 316.25 457.71 316.418 457.71 316.433C457.71 316.448 457.563 316.272 457.571 316.023C457.578 315.774 457.673 315.598 457.71 315.62Z" fill="#263238"/>
<path d="M458.113 314.125C458.113 314.125 458.113 314.301 458.062 314.477C458.011 314.653 457.901 314.792 457.864 314.777C457.827 314.763 457.864 314.601 457.915 314.425C457.967 314.25 458.069 314.11 458.113 314.125Z" fill="#263238"/>
<path d="M459.155 313.056C459.155 313.107 459.008 313.173 458.854 313.312C458.7 313.451 458.619 313.605 458.583 313.59C458.546 313.576 458.583 313.363 458.751 313.195C458.92 313.026 459.155 313.019 459.155 313.056Z" fill="#263238"/>
<path d="M459.954 312.455C459.954 312.455 459.954 312.572 459.859 312.66C459.763 312.748 459.69 312.784 459.653 312.748C459.616 312.711 459.653 312.63 459.748 312.542C459.844 312.455 459.925 312.389 459.954 312.455Z" fill="#263238"/>
<path d="M460.643 309.978L443.776 319.584L420.053 272.156C416.533 259.473 413.138 214.83 413.138 214.83L432.666 216.296C432.666 216.296 435.673 248.351 440.396 264.866L460.643 309.978Z" fill="#263238"/>
<path d="M442.376 195.326C442.845 195.326 446.262 208.514 442.097 216.508C441.686 217.285 438.694 221.637 438.694 221.637C428.054 234.173 417.274 258.506 414.26 264.866C408.085 277.981 385.33 321.108 385.33 321.108L370.714 312.748L392.084 257.84L410.417 203.964L442.376 195.326Z" fill="#263238"/>
<path d="M432.777 229.213C432.543 229.555 432.337 229.915 432.161 230.29L430.577 233.324C429.242 235.851 427.365 239.324 425.289 243.164C423.214 247.003 421.366 250.491 420.09 253.062C419.452 254.345 418.946 255.385 418.623 256.11C418.432 256.479 418.267 256.861 418.132 257.253C418.37 256.913 418.579 256.553 418.755 256.176C419.151 255.444 419.687 254.403 420.332 253.18C421.667 250.652 423.544 247.179 425.627 243.34C427.709 239.5 429.55 236.013 430.818 233.441C431.464 232.159 431.97 231.118 432.285 230.393C432.478 230.012 432.643 229.618 432.777 229.213Z" fill="#455A64"/>
<path d="M392.429 182.408C389.844 182.201 387.273 181.849 384.729 181.353C381.597 180.621 381.649 180.313 381.795 179.961C382.177 179.009 387.354 181.082 386.481 179.961C385.609 178.84 379.881 178.173 380.314 177.199C380.878 175.924 386.268 178.195 386.73 178.357C387.192 178.518 387.427 177.836 387.002 177.712C386.378 177.543 379.925 175.565 380.475 174.312C380.776 173.579 381.942 174.312 381.942 174.312C381.942 174.312 387.852 176.613 388.094 176.012C388.336 175.411 384.904 173.931 383.694 173.521C382.484 173.111 382.228 172.385 382.822 172.011C383.225 171.755 386.899 172.927 388.065 173.367C389.231 173.807 392.421 175.052 391.321 173.147C390.221 171.242 390.133 169.396 390.427 168.846C390.72 168.297 391.57 168.568 391.644 169.249C391.793 169.975 392.04 170.678 392.377 171.337C392.63 171.877 392.969 172.372 393.382 172.803C393.741 173.176 394.071 173.492 394.372 173.77L396.99 176.232L395.171 182.636L392.429 182.408Z" fill="#FFBE9D"/>
<path d="M425.267 112.898C424.336 111.432 422.385 110.853 420.611 110.875C418.146 110.974 415.786 111.893 413.904 113.486C412.023 115.079 410.728 117.255 410.227 119.668C409.875 121.653 410.08 123.741 409.493 125.654C408.96 127.016 408.25 128.302 407.381 129.479C406.51 130.653 405.904 132.003 405.607 133.435C405.468 134.155 405.532 134.898 405.791 135.584C406.05 136.269 406.494 136.87 407.073 137.318C406.349 138.051 405.876 138.995 405.724 140.014C405.571 141.033 405.747 142.073 406.225 142.986C406.703 143.898 407.46 144.635 408.385 145.09C409.309 145.545 410.355 145.695 411.371 145.517C412.434 145.334 413.571 144.785 414.539 145.312C414.987 145.621 415.385 145.996 415.719 146.426C417.186 147.928 419.635 148.17 421.586 147.415C423.524 146.555 425.148 145.117 426.235 143.297C426.543 142.836 426.969 142.293 427.497 142.345C427.813 142.423 428.101 142.585 428.333 142.814C429.302 143.577 430.523 143.951 431.754 143.861C432.985 143.771 434.138 143.224 434.986 142.327C435.834 141.43 436.315 140.249 436.335 139.016C436.355 137.782 435.912 136.586 435.094 135.662C435.965 135.385 436.756 134.903 437.402 134.256C438.048 133.61 438.529 132.818 438.805 131.948C439.331 130.189 439.259 128.305 438.599 126.592C437.675 124.049 435.842 121.968 434.045 119.953C432.403 118.1 431.919 115.25 430.276 113.403C429.532 112.379 428.444 111.656 427.211 111.366C425.985 111.263 424.756 111.536 423.691 112.15" fill="#263238"/>
<path d="M421.578 113.777C422.793 113.777 423.996 114.017 425.117 114.485C426.238 114.952 427.255 115.637 428.11 116.499C428.964 117.362 429.639 118.385 430.095 119.51C430.551 120.635 430.78 121.839 430.767 123.053L430.466 148.148C430.432 148.93 430.242 149.698 429.908 150.406C429.573 151.114 429.101 151.749 428.519 152.273C427.937 152.797 427.256 153.201 426.517 153.46C425.777 153.719 424.993 153.828 424.211 153.782C420.75 153.709 417.934 151.034 417.926 147.803C417.926 144.411 417.838 140.843 417.838 140.843C417.838 140.843 413.438 140.11 412.566 134.417C412.331 132.951 412.316 127.727 412.36 122.877C412.382 120.456 413.359 118.142 415.08 116.437C416.801 114.733 419.126 113.777 421.549 113.777H421.578Z" fill="#FFBE9D"/>
<path d="M413.695 126.35C413.695 126.544 413.773 126.731 413.91 126.868C414.048 127.005 414.234 127.083 414.429 127.083C414.611 127.083 414.787 127.016 414.923 126.894C415.058 126.773 415.144 126.604 415.162 126.423C415.162 126.229 415.085 126.042 414.947 125.905C414.81 125.768 414.623 125.69 414.429 125.69C414.246 125.69 414.07 125.757 413.934 125.879C413.799 126 413.714 126.169 413.695 126.35Z" fill="#263238"/>
<path d="M413.534 125.551C413.622 125.647 414.179 125.236 415.001 125.236C415.822 125.236 416.365 125.632 416.467 125.537C416.57 125.441 416.416 125.324 416.167 125.141C415.824 124.905 415.417 124.78 415.001 124.782C414.592 124.78 414.194 124.909 413.864 125.148C413.6 125.332 413.49 125.507 413.534 125.551Z" fill="#263238"/>
<path d="M421.571 126.35C421.571 126.544 421.649 126.731 421.786 126.868C421.924 127.005 422.11 127.083 422.305 127.083C422.396 127.088 422.488 127.076 422.575 127.046C422.662 127.016 422.742 126.969 422.81 126.907C422.879 126.846 422.934 126.771 422.973 126.688C423.012 126.605 423.034 126.515 423.038 126.423C423.038 126.229 422.961 126.042 422.823 125.905C422.686 125.768 422.499 125.69 422.305 125.69C422.122 125.69 421.946 125.757 421.81 125.879C421.675 126 421.59 126.169 421.571 126.35Z" fill="#263238"/>
<path d="M421.27 125.698C421.366 125.793 421.916 125.383 422.737 125.383C423.558 125.383 424.101 125.778 424.204 125.683C424.306 125.588 424.16 125.471 423.903 125.288C423.563 125.051 423.158 124.926 422.744 124.929C422.334 124.927 421.933 125.055 421.6 125.295C421.314 125.478 421.226 125.654 421.27 125.698Z" fill="#263238"/>
<path d="M418.418 131.53C418 131.405 417.57 131.329 417.134 131.303C416.936 131.303 416.746 131.237 416.709 131.105C416.693 130.895 416.742 130.686 416.848 130.504C417.032 130.021 417.23 129.515 417.442 128.98C417.99 127.683 418.436 126.346 418.777 124.98C418.12 126.227 417.566 127.526 417.12 128.863L416.548 130.402C416.423 130.643 416.387 130.92 416.445 131.186C416.474 131.257 416.519 131.32 416.576 131.371C416.633 131.422 416.701 131.458 416.775 131.479C416.887 131.512 417.003 131.529 417.12 131.53C417.551 131.586 417.987 131.586 418.418 131.53Z" fill="#263238"/>
<path d="M417.868 140.843C420.555 140.885 423.2 140.18 425.509 138.806C425.509 138.806 423.661 142.718 417.948 142.191L417.868 140.843Z" fill="#EB996E"/>
<path d="M418.733 133.428C418.886 133.242 419.083 133.096 419.305 133.004C419.528 132.912 419.769 132.877 420.009 132.9C420.182 132.917 420.35 132.968 420.502 133.051C420.655 133.135 420.789 133.248 420.897 133.384C421.004 133.512 421.068 133.671 421.08 133.838C421.091 134.005 421.05 134.172 420.962 134.314C420.837 134.457 420.671 134.559 420.486 134.606C420.302 134.653 420.107 134.643 419.928 134.578C419.556 134.448 419.214 134.244 418.924 133.977C418.834 133.914 418.757 133.835 418.697 133.743C418.669 133.699 418.655 133.648 418.655 133.596C418.655 133.544 418.669 133.494 418.697 133.45" fill="#EB996E"/>
<path d="M420.735 132.072C420.603 132.072 420.603 132.922 419.87 133.538C419.137 134.153 418.227 134.051 418.22 134.168C418.213 134.285 418.425 134.336 418.814 134.344C419.313 134.35 419.798 134.181 420.185 133.867C420.558 133.561 420.797 133.123 420.853 132.644C420.889 132.285 420.794 132.072 420.735 132.072Z" fill="#263238"/>
<path d="M421.241 123.492C421.315 123.705 422.107 123.61 423.031 123.72C423.955 123.829 424.695 124.079 424.82 123.888C424.945 123.698 424.747 123.595 424.446 123.39C424.043 123.132 423.586 122.972 423.111 122.921C422.64 122.864 422.162 122.921 421.718 123.089C421.373 123.221 421.205 123.419 421.241 123.492Z" fill="#263238"/>
<path d="M413.82 123.272C413.959 123.448 414.502 123.272 415.155 123.272C415.807 123.272 416.357 123.39 416.489 123.207C416.621 123.023 416.453 122.935 416.218 122.767C415.893 122.565 415.516 122.463 415.134 122.475C414.751 122.486 414.381 122.611 414.069 122.833C413.835 123.001 413.761 123.185 413.82 123.272Z" fill="#263238"/>
<path d="M432.828 122.899C432.424 119.448 430.796 115.968 427.826 114.15C425.23 112.553 422.568 112.194 419.987 113.601C418.9 113.452 417.793 113.544 416.746 113.872C415.699 114.2 414.737 114.756 413.93 115.499C412.266 117.091 411.226 119.224 410.996 121.514C410.785 123.795 411.14 126.093 412.03 128.204L412.47 122.43C415.404 121.17 418.674 118.686 419.804 115.667C420.379 117.705 421.481 119.556 422.998 121.033C424.516 122.511 426.396 123.564 428.45 124.086C428.174 125.774 428.342 127.506 428.937 129.11C429.532 130.714 430.534 132.136 431.845 133.237C432.564 129.837 433.231 126.35 432.828 122.899Z" fill="#263238"/>
<path d="M429.044 126.35C429.491 128.548 428.728 130.805 428.171 132.988C427.614 135.172 427.276 137.626 428.45 139.582C428.874 140.077 429.149 140.682 429.242 141.326C429.119 141.893 428.919 142.44 428.648 142.953C428.525 143.471 428.569 144.015 428.773 144.506C428.977 144.998 429.331 145.413 429.784 145.693C430.717 146.235 431.823 146.395 432.872 146.14C433.895 145.874 434.881 145.481 435.805 144.968L438.584 143.59C439.007 143.405 439.4 143.158 439.75 142.858C440.288 142.286 440.64 141.566 440.762 140.791C441.36 137.794 440.839 134.682 439.296 132.043C437.829 129.405 438.474 125.031 435.915 123.412" fill="#263238"/>
<path d="M437.191 143.986C437.705 143.86 438.199 143.663 438.658 143.4C439.269 143.011 439.784 142.49 440.165 141.875C440.546 141.259 440.783 140.566 440.858 139.846C440.94 138.843 440.769 137.835 440.359 136.915C440.13 136.411 439.845 135.934 439.509 135.494C439.149 135.04 438.775 134.615 438.306 134.168C437.852 133.711 437.433 133.221 437.052 132.702C436.656 132.137 436.404 131.483 436.319 130.797C436.15 129.391 436.678 128.006 436.451 126.665C436.338 126.008 435.976 125.419 435.439 125.024C434.894 124.643 434.293 124.351 433.657 124.159C432.393 123.812 431.189 123.276 430.085 122.569C428.263 121.334 426.62 119.855 425.201 118.173C423.969 116.752 423.075 115.528 422.466 114.678C422.165 114.246 421.938 113.945 421.784 113.682C421.701 113.567 421.629 113.444 421.571 113.315C421.571 113.315 421.681 113.418 421.85 113.638L422.583 114.59C423.229 115.411 424.153 116.605 425.399 117.99C426.823 119.638 428.458 121.091 430.261 122.313C431.35 122.989 432.531 123.505 433.767 123.844C434.445 124.046 435.086 124.355 435.666 124.76C436.277 125.21 436.69 125.88 436.817 126.628C437.052 128.094 436.517 129.5 436.685 130.79C436.854 132.08 437.749 133.076 438.585 133.955C439.011 134.388 439.415 134.843 439.795 135.318C440.145 135.782 440.438 136.286 440.667 136.82C441.089 137.782 441.254 138.838 441.144 139.883C441.049 140.745 440.722 141.565 440.198 142.257C439.803 142.781 439.304 143.217 438.731 143.539C438.373 143.734 437.987 143.875 437.587 143.957C437.457 143.982 437.324 143.992 437.191 143.986Z" fill="#455A64"/>
<path d="M435.431 121.529C435.226 121.517 435.023 121.475 434.83 121.404C434.287 121.255 433.754 121.076 433.231 120.869C429.752 119.519 426.625 117.397 424.086 114.663C423.61 114.136 423.236 113.689 423.001 113.374C422.766 113.059 422.642 112.868 422.664 112.854C423.231 113.365 423.772 113.905 424.284 114.473C426.889 117.07 429.959 119.155 433.334 120.62C434.624 121.221 435.453 121.47 435.431 121.529Z" fill="#455A64"/>
<path d="M415.375 112.722C415.375 112.685 415.639 112.37 416.211 111.989C416.966 111.447 417.863 111.136 418.792 111.095C419.313 111.082 419.83 111.189 420.303 111.41C420.686 111.599 421.022 111.872 421.285 112.209C421.418 112.352 421.521 112.521 421.588 112.704C421.654 112.888 421.684 113.083 421.674 113.279C421.499 112.964 421.297 112.665 421.073 112.385C420.781 112.079 420.428 111.839 420.035 111.682C419.643 111.525 419.221 111.455 418.799 111.476C417.936 111.52 417.095 111.771 416.35 112.209C416.044 112.415 415.717 112.587 415.375 112.722Z" fill="#455A64"/>
<path d="M90.3685 239.376C90.3685 239.376 95.1938 239.588 93.4998 250.241C91.8058 260.895 90.0531 266.478 90.0531 266.478C90.0531 266.478 89.9211 268.874 91.8131 268.617C93.7051 268.361 97.4451 266.456 98.9485 268.383C100.452 270.31 99.5645 273.058 96.8365 276.025C94.1085 278.992 88.3665 285.697 87.8458 286.283C87.3251 286.869 87.0245 288.078 88.3445 288.114C89.6645 288.151 98.8165 286.187 99.4838 290.584C100.151 294.98 91.1971 301.984 90.2291 302.768C89.2611 303.552 89.1511 304.109 89.4371 304.688C89.7231 305.267 92.7445 304.314 95.3698 303.86C97.9951 303.406 101.119 303.347 101.295 305.919C101.471 308.491 97.0711 315.444 82.9105 321.628L76.1638 324.068L70.5758 319.518C59.2091 309.055 57.3171 301.054 58.3218 298.68C59.3265 296.306 62.2598 297.39 64.5918 298.68C66.9238 299.969 69.4685 301.838 69.9305 301.391C70.3925 300.944 70.4658 300.38 69.8058 299.325C69.1458 298.27 62.9638 288.723 65.0318 284.788C67.0998 280.853 75.1151 285.682 76.3765 286.078C77.6378 286.473 77.7258 285.242 77.4398 284.51C77.1538 283.777 73.9051 275.556 72.3065 271.863C70.7078 268.17 70.6711 265.335 72.7978 263.957C74.9245 262.58 77.7625 265.643 79.4711 266.5C81.1798 267.357 81.8325 265.035 81.8325 265.035C81.8325 265.035 81.9865 259.173 83.8711 248.564C85.7558 237.954 90.4711 239.361 90.4711 239.361" fill="#FF725E"/>
<path d="M88.88 248.923V249.12L88.792 249.692C88.704 250.205 88.5866 250.945 88.4326 251.89C88.1026 253.81 87.6407 256.557 87.0687 259.95C85.9467 266.771 84.392 276.164 82.6687 286.539C80.9453 296.914 79.398 306.322 78.1953 313.121L76.7286 321.181C76.5453 322.112 76.4133 322.844 76.3106 323.379C76.2666 323.621 76.23 323.804 76.2007 323.951C76.1906 324.016 76.1734 324.08 76.1493 324.141C76.1397 324.076 76.1397 324.009 76.1493 323.943L76.2373 323.372C76.318 322.852 76.4426 322.119 76.5966 321.174C76.9193 319.254 77.3886 316.506 77.9606 313.114C79.1046 306.307 80.652 296.907 82.3606 286.517C84.0693 276.128 85.6313 266.734 86.834 259.942L88.3007 251.883C88.4767 250.952 88.616 250.219 88.7113 249.685C88.7627 249.45 88.7993 249.26 88.8286 249.12C88.8382 249.053 88.8554 248.986 88.88 248.923Z" fill="#263238"/>
<path d="M93.8666 271.262C93.4104 271.726 92.9201 272.154 92.3999 272.545L88.8726 275.571C87.4939 276.758 86.2326 277.82 85.3013 278.56C84.8319 278.934 84.4506 279.227 84.1793 279.417C84.0426 279.529 83.8922 279.622 83.7319 279.696C84.195 279.24 84.6847 278.812 85.1986 278.414L88.7113 275.358C90.0899 274.179 91.3586 273.124 92.2973 272.391L93.4266 271.541C93.5617 271.431 93.7094 271.338 93.8666 271.262Z" fill="#263238"/>
<path d="M83.1159 279.41C83.0572 279.454 80.9159 276.816 78.3419 273.548C75.7679 270.281 73.7145 267.533 73.7732 267.482C73.8319 267.43 75.9732 270.075 78.5545 273.38C81.1359 276.684 83.1819 279.359 83.1159 279.41Z" fill="#263238"/>
<path d="M80.9966 297.881C80.8303 297.815 80.6727 297.729 80.5272 297.625C80.2339 297.456 79.7939 297.185 79.3099 296.848C78.2979 296.174 76.9192 295.207 75.4599 294.057C74.0006 292.906 72.7246 291.807 71.7932 290.979C71.3459 290.569 70.9866 290.247 70.7519 289.983C70.6173 289.865 70.4968 289.732 70.3926 289.587C70.928 289.971 71.4398 290.387 71.9252 290.833C72.8492 291.617 74.1252 292.694 75.5919 293.837C77.0586 294.98 78.4079 295.976 79.3832 296.687C79.9469 297.049 80.4859 297.448 80.9966 297.881Z" fill="#263238"/>
<path d="M92.3119 292.672C91.7949 292.993 91.2529 293.272 90.6913 293.507C89.6793 293.991 88.2639 294.636 86.7019 295.332C85.1399 296.028 83.7099 296.65 82.6759 297.09C82.1257 297.349 81.557 297.567 80.9746 297.742C81.4917 297.421 82.0336 297.142 82.5953 296.907C83.6073 296.431 85.0226 295.779 86.5846 295.082C88.1466 294.386 89.5766 293.764 90.6106 293.324C91.1603 293.064 91.729 292.846 92.3119 292.672Z" fill="#263238"/>
<path d="M92.5098 309.187C92.3378 309.306 92.1534 309.407 91.9598 309.487L90.4125 310.22C89.0998 310.821 87.2812 311.627 85.2792 312.506C83.2772 313.385 81.4365 314.169 80.1018 314.704L78.5252 315.341C78.3346 315.43 78.1356 315.498 77.9312 315.547C78.0998 315.422 78.2849 315.321 78.4812 315.246L80.0285 314.513C81.3338 313.92 83.1525 313.107 85.1618 312.227C87.1712 311.348 89.0118 310.572 90.3392 310.029L91.9232 309.385C92.1106 309.297 92.3074 309.23 92.5098 309.187Z" fill="#263238"/>
<path d="M78.217 315.298C78.0162 315.195 77.8248 315.075 77.645 314.939C77.293 314.697 76.7796 314.338 76.1783 313.883C74.9316 312.968 73.245 311.685 71.4263 310.169C69.6076 308.652 68.0236 307.238 66.8943 306.183C66.3296 305.655 65.8823 305.216 65.5816 304.908C65.4146 304.759 65.2623 304.595 65.127 304.417C65.3201 304.533 65.4976 304.673 65.655 304.835C66.0216 305.15 66.4836 305.567 67.0263 306.036C68.185 307.055 69.791 308.454 71.6023 309.956C73.4136 311.458 75.0856 312.777 76.2956 313.73L77.7623 314.851C78.0483 315.122 78.2316 315.276 78.217 315.298Z" fill="#263238"/>
<path d="M482.687 277.432C483.747 277.939 484.694 278.655 485.472 279.536C486.249 280.417 486.841 281.446 487.212 282.561C487.939 284.797 488.145 287.171 487.813 289.499C487.307 294.005 484.74 298.548 481.946 302.153C478.148 298.841 477.275 293.067 477.018 290.107C476.608 285.433 478.712 276.736 482.65 277.432" fill="#FF725E"/>
<path d="M486.398 309.582C486.14 308.296 486.227 306.964 486.649 305.721C487.072 304.478 487.815 303.369 488.803 302.505C489.812 301.656 490.981 301.018 492.24 300.626C493.499 300.235 494.824 300.099 496.137 300.226C497.347 300.321 498.645 300.673 499.341 301.691C499.636 302.177 499.796 302.732 499.805 303.3C499.814 303.868 499.672 304.428 499.393 304.923C498.814 305.904 497.987 306.715 496.995 307.275C493.709 309.341 490.145 310.733 486.427 309.612" fill="#FF725E"/>
<path d="M481.528 323.394C481.547 323.083 481.591 322.774 481.66 322.471C481.785 321.819 481.939 321.005 482.122 319.972C482.557 317.185 483.439 314.486 484.733 311.978C486.073 309.474 488.054 307.37 490.475 305.882C491.211 305.447 491.997 305.101 492.814 304.849C493.036 304.781 493.261 304.725 493.489 304.681C493.567 304.655 493.649 304.643 493.731 304.644C492.638 305.027 491.587 305.518 490.592 306.11C488.257 307.63 486.343 309.714 485.026 312.169C483.756 314.648 482.864 317.303 482.379 320.045C482.152 321.093 481.961 321.943 481.814 322.529C481.748 322.826 481.652 323.116 481.528 323.394Z" fill="#263238"/>
<path d="M481.668 284.195C481.702 284.329 481.719 284.467 481.719 284.605C481.719 284.898 481.756 285.286 481.785 285.763C481.844 286.774 481.903 288.232 481.961 290.034C482.071 293.646 482.167 298.636 482.145 304.146C482.123 309.656 481.983 314.645 481.837 318.25C481.763 320.06 481.69 321.518 481.624 322.522C481.624 322.998 481.565 323.386 481.551 323.687C481.546 323.822 481.529 323.957 481.499 324.09C481.483 323.954 481.483 323.816 481.499 323.68C481.499 323.379 481.499 322.998 481.499 322.522C481.499 321.467 481.558 320.016 481.602 318.243C481.69 314.638 481.793 309.648 481.815 304.146C481.837 298.643 481.815 293.654 481.727 290.041C481.727 288.268 481.675 286.818 481.661 285.77C481.661 285.286 481.661 284.905 481.661 284.605C481.652 284.468 481.655 284.331 481.668 284.195Z" fill="#263238"/>
<path d="M479.827 312.33C479.368 309.599 478.264 307.016 476.606 304.796C474.948 302.577 472.784 300.784 470.294 299.566C469.025 298.958 467.361 298.563 466.327 299.508C465.293 300.453 465.513 302.146 466.026 303.457C467.14 306.177 469.036 308.506 471.474 310.151C473.912 311.795 476.783 312.681 479.725 312.696" fill="#FF725E"/>
<path d="M470.925 303.838C471.205 303.927 471.475 304.045 471.731 304.19C472.044 304.333 472.347 304.495 472.641 304.673C472.978 304.886 473.374 305.091 473.799 305.406C474.257 305.714 474.698 306.047 475.119 306.403C475.615 306.803 476.087 307.231 476.535 307.685C477.556 308.728 478.457 309.883 479.219 311.128C479.96 312.384 480.55 313.721 480.979 315.114C481.165 315.723 481.315 316.342 481.426 316.968C481.536 317.512 481.612 318.063 481.653 318.617C481.702 319.069 481.724 319.524 481.719 319.979C481.739 320.323 481.739 320.668 481.719 321.013C481.718 321.306 481.684 321.599 481.617 321.884C481.543 321.884 481.675 320.632 481.455 318.639C481.397 318.097 481.309 317.559 481.191 317.027C481.068 316.413 480.911 315.806 480.722 315.21C480.28 313.845 479.69 312.533 478.962 311.297C478.212 310.074 477.335 308.935 476.344 307.897C475.914 307.445 475.458 307.017 474.98 306.615C474.568 306.253 474.137 305.913 473.689 305.597C472.032 304.395 470.888 303.904 470.925 303.838Z" fill="#263238"/>
<path d="M342.694 97.8845H196.438V244.013H342.694V97.8845Z" fill="#F5F5F5"/>
<path d="M342.687 244.013C342.687 242.607 342.621 185.486 342.525 97.8846L342.687 98.0531H196.453L196.643 97.8626C196.643 151.349 196.643 201.524 196.643 243.991L196.482 243.823L342.731 243.991L196.482 244.153H196.313V243.991C196.313 201.495 196.313 151.371 196.313 97.8626V97.6721H196.519H342.753H342.921V97.8333C342.753 185.486 342.687 242.607 342.687 244.013Z" fill="#263238"/>
<path d="M329.575 235.302C331.033 235.113 332.505 235.049 333.975 235.111L333.784 235.302V234.43C333.784 234.151 333.784 233.88 333.784 233.609C333.784 233.126 333.784 232.664 333.821 232.21C333.799 231.775 333.846 231.34 333.96 230.92C334.064 231.342 334.109 231.776 334.092 232.21C334.092 232.664 334.092 233.126 334.136 233.609C334.136 233.88 334.136 234.151 334.136 234.43V235.302L333.945 235.492C332.486 235.557 331.023 235.493 329.575 235.302Z" fill="#455A64"/>
<path d="M311.109 235.302C314.182 235.048 317.27 235.048 320.342 235.302C317.27 235.556 314.182 235.556 311.109 235.302Z" fill="#455A64"/>
<path d="M292.644 235.302C295.716 235.048 298.804 235.048 301.877 235.302C298.804 235.556 295.716 235.556 292.644 235.302Z" fill="#455A64"/>
<path d="M274.179 235.302C277.251 235.048 280.339 235.048 283.411 235.302C280.339 235.556 277.251 235.556 274.179 235.302Z" fill="#455A64"/>
<path d="M255.713 235.302C258.786 235.048 261.874 235.048 264.946 235.302C261.874 235.556 258.786 235.556 255.713 235.302Z" fill="#455A64"/>
<path d="M237.248 235.302C240.32 235.048 243.408 235.048 246.481 235.302C243.408 235.556 240.32 235.556 237.248 235.302Z" fill="#455A64"/>
<path d="M218.783 235.302C220.315 235.113 221.86 235.049 223.403 235.111C224.943 235.05 226.486 235.113 228.015 235.302C226.486 235.494 224.943 235.558 223.403 235.492C221.86 235.558 220.315 235.494 218.783 235.302Z" fill="#455A64"/>
<path d="M205.15 230.906C205.339 232.363 205.402 233.834 205.341 235.302L205.15 235.111H206.866L208.26 235.155C208.694 235.139 209.128 235.183 209.55 235.287C209.13 235.401 208.694 235.448 208.26 235.426L206.866 235.463L206.067 235.521H205.18L204.989 235.331C204.916 233.854 204.97 232.373 205.15 230.906Z" fill="#455A64"/>
<path d="M205.15 212.456C205.339 213.987 205.402 215.531 205.341 217.072C205.403 218.611 205.339 220.152 205.15 221.681C204.961 220.152 204.898 218.611 204.959 217.072C204.898 215.531 204.961 213.987 205.15 212.456Z" fill="#455A64"/>
<path d="M205.15 194.007C205.339 195.538 205.402 197.082 205.341 198.623C205.403 200.162 205.339 201.703 205.15 203.231C204.961 201.703 204.898 200.162 204.959 198.623C204.898 197.082 204.961 195.538 205.15 194.007Z" fill="#455A64"/>
<path d="M205.15 175.565C205.339 177.093 205.403 178.635 205.341 180.174C205.402 181.715 205.339 183.259 205.15 184.79C204.961 183.259 204.898 181.715 204.959 180.174C204.898 178.635 204.961 177.093 205.15 175.565Z" fill="#455A64"/>
<path d="M205.15 157.123C205.339 158.652 205.403 160.193 205.341 161.732C205.402 163.273 205.339 164.817 205.15 166.348C204.961 164.817 204.898 163.273 204.959 161.732C204.898 160.193 204.961 158.652 205.15 157.123Z" fill="#455A64"/>
<path d="M205.15 138.667C205.338 140.195 205.402 141.736 205.341 143.275C205.402 144.816 205.339 146.36 205.15 147.891C204.961 146.36 204.898 144.816 204.959 143.275C204.898 141.736 204.962 140.195 205.15 138.667Z" fill="#455A64"/>
<path d="M205.15 120.217C205.338 121.746 205.402 123.287 205.341 124.826C205.402 126.367 205.339 127.911 205.15 129.442C204.961 127.911 204.898 126.367 204.959 124.826C204.898 123.287 204.962 121.746 205.15 120.217Z" fill="#455A64"/>
<path d="M209.55 106.567C208.092 106.755 206.62 106.819 205.15 106.758L205.333 106.567V107.439C205.333 107.717 205.333 107.989 205.333 108.26C205.333 108.743 205.333 109.205 205.297 109.659C205.314 110.093 205.267 110.528 205.157 110.949C205.049 110.528 205.004 110.093 205.025 109.659C205.025 109.205 205.025 108.743 204.981 108.26C204.981 107.989 204.981 107.717 204.981 107.439C204.981 107.293 204.981 107.146 204.981 106.999V106.567L205.172 106.377C206.634 106.312 208.099 106.376 209.55 106.567Z" fill="#455A64"/>
<path d="M228.015 106.567C226.486 106.755 224.943 106.819 223.403 106.758C221.86 106.819 220.315 106.755 218.783 106.567C220.315 106.374 221.86 106.311 223.403 106.377C224.943 106.311 226.486 106.374 228.015 106.567Z" fill="#455A64"/>
<path d="M246.481 106.567C243.408 106.821 240.32 106.821 237.248 106.567C240.32 106.313 243.408 106.313 246.481 106.567Z" fill="#455A64"/>
<path d="M264.946 106.567C261.874 106.821 258.786 106.821 255.713 106.567C258.786 106.313 261.874 106.313 264.946 106.567Z" fill="#455A64"/>
<path d="M283.411 106.567C280.339 106.821 277.251 106.821 274.179 106.567C277.251 106.313 280.339 106.313 283.411 106.567Z" fill="#455A64"/>
<path d="M301.877 106.567C298.804 106.821 295.716 106.821 292.644 106.567C295.716 106.313 298.804 106.313 301.877 106.567Z" fill="#455A64"/>
<path d="M320.342 106.567C317.27 106.821 314.182 106.821 311.109 106.567C314.182 106.313 317.27 106.313 320.342 106.567Z" fill="#455A64"/>
<path d="M333.975 110.963C333.782 109.506 333.718 108.035 333.784 106.567C334.165 106.948 333.887 106.67 333.967 106.758H332.259L330.858 106.714C330.426 106.73 329.994 106.685 329.575 106.582C329.993 106.473 330.426 106.426 330.858 106.443H332.259H333.087H333.967C334.055 106.523 333.784 106.252 334.165 106.633C334.223 108.079 334.159 109.528 333.975 110.963Z" fill="#455A64"/>
<path d="M333.975 129.442C333.782 127.911 333.718 126.367 333.784 124.826C333.718 123.287 333.782 121.745 333.975 120.217C334.163 121.746 334.227 123.287 334.165 124.826C334.227 126.367 334.163 127.911 333.975 129.442Z" fill="#455A64"/>
<path d="M333.975 147.891C333.782 146.361 333.718 144.816 333.784 143.275C333.718 141.736 333.782 140.195 333.975 138.667C334.164 140.195 334.227 141.736 334.165 143.275C334.227 144.816 334.163 146.36 333.975 147.891Z" fill="#455A64"/>
<path d="M333.975 166.34C333.782 164.81 333.718 163.266 333.784 161.724C333.718 160.186 333.782 158.644 333.975 157.116C334.164 158.644 334.227 160.186 334.165 161.724C334.227 163.266 334.163 164.809 333.975 166.34Z" fill="#455A64"/>
<path d="M333.975 184.79C333.782 183.259 333.718 181.715 333.784 180.174C333.718 178.635 333.782 177.093 333.975 175.565C334.164 177.093 334.227 178.635 334.165 180.174C334.227 181.715 334.163 183.259 333.975 184.79Z" fill="#455A64"/>
<path d="M333.975 203.231C333.782 201.703 333.718 200.162 333.784 198.623C333.718 197.082 333.782 195.537 333.975 194.007C334.163 195.538 334.227 197.082 334.165 198.623C334.227 200.162 334.164 201.703 333.975 203.231Z" fill="#455A64"/>
<path d="M333.975 221.681C333.782 220.153 333.718 218.611 333.784 217.072C333.718 215.531 333.782 213.987 333.975 212.456C334.163 213.987 334.227 215.531 334.165 217.072C334.227 218.611 334.164 220.152 333.975 221.681Z" fill="#455A64"/>
<path d="M263.267 146.169C263.019 146.168 262.773 146.136 262.533 146.074C261.815 145.907 261.16 145.536 260.649 145.004C260.229 144.595 259.906 144.097 259.703 143.547C259.5 142.997 259.422 142.408 259.475 141.824C259.566 141.087 259.893 140.398 260.407 139.861C260.974 139.237 261.765 138.863 262.607 138.82L262.46 138.967C262.371 137.875 262.655 136.785 263.267 135.875C263.639 135.403 264.153 135.061 264.733 134.9C265.346 134.757 265.983 134.757 266.596 134.9L266.391 135.091C266.323 134.407 266.421 133.718 266.676 133.08C266.931 132.443 267.337 131.876 267.857 131.427C268.411 130.961 269.059 130.621 269.757 130.431L270.285 130.284L270.827 130.197C271.19 130.129 271.558 130.095 271.927 130.094C273.456 129.959 274.989 130.289 276.327 131.039C277.001 131.491 277.555 132.099 277.941 132.812C278.315 133.535 278.544 134.324 278.615 135.135C278.648 135.488 278.648 135.844 278.615 136.197L278.417 135.985C279.874 135.882 281.321 136.288 282.509 137.135C283.6 137.996 284.434 139.139 284.922 140.44C285.21 141.052 285.339 141.728 285.296 142.403C285.241 143.065 285.022 143.702 284.658 144.257C284.311 144.779 283.855 145.22 283.32 145.549C282.786 145.878 282.187 146.087 281.563 146.162L268.319 146.287H263.619H263.281C263.393 146.274 263.507 146.274 263.619 146.287L264.601 146.243L268.327 146.14L281.527 145.876C282.098 145.804 282.647 145.609 283.136 145.304C283.625 144.999 284.042 144.592 284.357 144.11C284.697 143.601 284.895 143.011 284.934 142.4C284.973 141.789 284.85 141.178 284.577 140.63C284.151 139.346 283.374 138.206 282.333 137.34C281.211 136.552 279.852 136.175 278.483 136.271H278.263V136.051C278.293 135.722 278.293 135.391 278.263 135.062C278.223 134.308 278.012 133.574 277.646 132.914C277.28 132.254 276.769 131.685 276.151 131.252C274.871 130.535 273.404 130.221 271.942 130.35C270.557 130.325 269.202 130.761 268.092 131.589C267.613 132.002 267.242 132.526 267.01 133.114C266.777 133.702 266.691 134.338 266.757 134.966V135.201L266.53 135.15C265.993 134.994 265.424 134.992 264.886 135.144C264.348 135.295 263.863 135.594 263.487 136.007C262.915 136.872 262.656 137.906 262.753 138.938V139.077H262.607C261.837 139.113 261.113 139.45 260.59 140.015C260.102 140.507 259.788 141.145 259.695 141.832C259.62 142.746 259.864 143.657 260.386 144.412C260.907 145.166 261.674 145.717 262.555 145.971C263.025 146.133 263.267 146.133 263.267 146.169Z" fill="#263238"/>
<path d="M275.675 141.736C274.431 140.627 273.271 139.427 272.206 138.146H272.485L272.419 138.219C271.285 139.478 270.059 140.651 268.752 141.729C269.79 140.386 270.93 139.125 272.162 137.956L272.235 137.882L272.375 137.736L272.514 137.89C273.662 139.091 274.719 140.377 275.675 141.736Z" fill="#263238"/>
<path d="M272.345 150.309C272.157 148.268 272.093 146.218 272.155 144.169C272.093 142.12 272.157 140.07 272.345 138.029C272.539 140.07 272.602 142.12 272.536 144.169C272.602 146.218 272.539 148.268 272.345 150.309Z" fill="#263238"/>
<path d="M241.729 163.19H238.37L237.674 164.772H236.742L239.61 158.457H240.534L243.408 164.772H242.462L241.729 163.19ZM241.414 162.457L240.05 159.365L238.686 162.457H241.414Z" fill="#263238"/>
<path d="M248.652 158.075V164.772H247.823V164.04C247.624 164.302 247.365 164.512 247.068 164.652C246.77 164.793 246.443 164.859 246.114 164.846C245.467 164.846 244.846 164.588 244.388 164.131C243.93 163.673 243.672 163.053 243.672 162.406C243.672 161.759 243.93 161.138 244.388 160.68C244.846 160.223 245.467 159.966 246.114 159.966C246.434 159.954 246.752 160.018 247.042 160.151C247.333 160.285 247.588 160.485 247.786 160.735V158.097L248.652 158.075ZM247.794 162.384C247.779 162.068 247.672 161.764 247.486 161.508C247.3 161.253 247.043 161.058 246.747 160.947C246.451 160.836 246.129 160.815 245.82 160.886C245.512 160.957 245.232 161.117 245.014 161.345C244.796 161.574 244.65 161.862 244.594 162.173C244.538 162.484 244.575 162.804 244.7 163.095C244.825 163.385 245.033 163.632 245.297 163.805C245.562 163.978 245.871 164.07 246.188 164.069C246.407 164.075 246.625 164.034 246.828 163.951C247.031 163.867 247.214 163.742 247.365 163.583C247.517 163.424 247.633 163.235 247.707 163.029C247.781 162.822 247.81 162.602 247.794 162.384Z" fill="#263238"/>
<path d="M254.811 158.075V164.772H253.983V164.04C253.784 164.302 253.525 164.512 253.227 164.652C252.93 164.793 252.603 164.859 252.274 164.846C251.626 164.846 251.005 164.588 250.547 164.131C250.089 163.673 249.832 163.053 249.832 162.406C249.832 161.759 250.089 161.138 250.547 160.68C251.005 160.223 251.626 159.966 252.274 159.966C252.593 159.955 252.911 160.019 253.201 160.153C253.491 160.286 253.746 160.486 253.946 160.735V158.097L254.811 158.075ZM253.953 162.384C253.939 162.068 253.832 161.764 253.646 161.508C253.46 161.253 253.203 161.058 252.907 160.947C252.61 160.836 252.288 160.815 251.98 160.886C251.672 160.957 251.391 161.117 251.173 161.345C250.955 161.574 250.809 161.862 250.754 162.173C250.698 162.484 250.735 162.804 250.86 163.095C250.985 163.385 251.193 163.632 251.457 163.805C251.722 163.978 252.031 164.07 252.347 164.069C252.567 164.075 252.785 164.034 252.988 163.951C253.191 163.867 253.374 163.742 253.525 163.583C253.676 163.424 253.793 163.235 253.866 163.029C253.94 162.822 253.97 162.602 253.953 162.384Z" fill="#263238"/>
<path d="M258.728 158.508C258.727 158.432 258.743 158.357 258.773 158.287C258.802 158.217 258.846 158.154 258.901 158.101C258.955 158.048 259.02 158.007 259.091 157.98C259.162 157.953 259.238 157.941 259.314 157.944C259.389 157.94 259.464 157.951 259.535 157.977C259.605 158.002 259.67 158.042 259.725 158.093C259.78 158.145 259.823 158.207 259.854 158.275C259.884 158.344 259.9 158.418 259.901 158.493C259.901 158.649 259.839 158.798 259.729 158.908C259.619 159.018 259.47 159.079 259.314 159.079C259.159 159.079 259.009 159.018 258.899 158.908C258.789 158.798 258.728 158.649 258.728 158.493V158.508ZM258.882 159.973H259.747V164.758H258.867L258.882 159.973Z" fill="#263238"/>
<path d="M264.088 164.494C263.791 164.723 263.422 164.839 263.047 164.824C262.846 164.847 262.643 164.826 262.452 164.761C262.26 164.697 262.086 164.59 261.94 164.45C261.795 164.31 261.683 164.139 261.612 163.951C261.541 163.762 261.512 163.559 261.529 163.358V160.735H260.715V160.003H261.529V158.955H262.394V160.003H263.766V160.735H262.394V163.322C262.384 163.424 262.395 163.527 262.427 163.625C262.46 163.722 262.512 163.812 262.581 163.888C262.65 163.964 262.735 164.024 262.829 164.066C262.923 164.107 263.025 164.128 263.128 164.128C263.374 164.131 263.614 164.051 263.81 163.901L264.088 164.494Z" fill="#263238"/>
<path d="M269.28 162.67H265.401C265.456 163.08 265.666 163.453 265.988 163.713C266.309 163.974 266.719 164.101 267.131 164.069C267.391 164.079 267.649 164.032 267.888 163.932C268.128 163.832 268.342 163.681 268.517 163.49L268.994 164.047C268.642 164.407 268.192 164.657 267.7 164.766C267.209 164.876 266.696 164.84 266.224 164.664C265.751 164.488 265.341 164.179 265.041 163.774C264.741 163.369 264.566 162.886 264.535 162.384C264.521 162.063 264.573 161.743 264.688 161.444C264.803 161.144 264.978 160.872 265.203 160.643C265.428 160.414 265.698 160.234 265.996 160.114C266.293 159.993 266.613 159.936 266.933 159.944C267.255 159.935 267.575 159.993 267.873 160.115C268.171 160.237 268.44 160.42 268.663 160.652C268.886 160.883 269.058 161.159 269.168 161.461C269.278 161.763 269.324 162.085 269.302 162.406C269.302 162.494 269.294 162.582 269.28 162.67ZM265.401 162.047H268.473C268.428 161.671 268.247 161.325 267.964 161.074C267.681 160.823 267.316 160.685 266.937 160.685C266.559 160.685 266.193 160.823 265.91 161.074C265.627 161.325 265.446 161.671 265.401 162.047Z" fill="#263238"/>
<path d="M278.447 162.018V164.772H277.582V162.12C277.582 161.182 277.127 160.721 276.342 160.721C276.135 160.708 275.928 160.741 275.736 160.818C275.543 160.895 275.37 161.014 275.23 161.167C275.089 161.319 274.985 161.501 274.923 161.699C274.862 161.896 274.846 162.106 274.876 162.311V164.772H274.01V162.12C274.01 161.182 273.563 160.721 272.771 160.721C271.979 160.721 271.341 161.27 271.341 162.311V164.772H270.468V159.988H271.334V160.721C271.528 160.473 271.78 160.277 272.067 160.149C272.355 160.022 272.67 159.966 272.984 159.988C273.316 159.965 273.649 160.036 273.943 160.193C274.237 160.35 274.482 160.586 274.648 160.875C274.857 160.586 275.135 160.353 275.456 160.199C275.778 160.044 276.133 159.971 276.489 159.988C276.758 159.968 277.027 160.007 277.279 160.103C277.531 160.199 277.758 160.35 277.945 160.543C278.132 160.737 278.274 160.97 278.36 161.225C278.447 161.479 278.477 161.75 278.447 162.018Z" fill="#263238"/>
<path d="M282.333 158.508C282.333 158.432 282.349 158.357 282.378 158.287C282.408 158.217 282.452 158.154 282.507 158.101C282.561 158.048 282.626 158.007 282.697 157.98C282.768 157.953 282.844 157.941 282.92 157.944C282.995 157.94 283.07 157.951 283.141 157.977C283.211 158.002 283.276 158.042 283.331 158.093C283.386 158.145 283.429 158.207 283.46 158.275C283.49 158.344 283.506 158.418 283.507 158.493C283.507 158.649 283.445 158.798 283.335 158.908C283.225 159.018 283.076 159.079 282.92 159.079C282.765 159.079 282.615 159.018 282.505 158.908C282.395 158.798 282.333 158.649 282.333 158.493V158.508ZM282.487 159.973H283.353V164.758H282.487V159.973Z" fill="#263238"/>
<path d="M292.938 162.018V164.772H292.072V162.12C292.072 161.182 291.618 160.721 290.833 160.721C290.626 160.708 290.419 160.741 290.226 160.818C290.034 160.895 289.861 161.014 289.721 161.167C289.58 161.319 289.475 161.501 289.414 161.699C289.353 161.896 289.336 162.106 289.366 162.311V164.772H288.501V162.12C288.501 161.182 288.054 160.721 287.262 160.721C286.47 160.721 285.832 161.27 285.832 162.311V164.772H284.959V159.988H285.795V160.721C285.99 160.474 286.242 160.278 286.529 160.15C286.817 160.023 287.131 159.967 287.445 159.988C287.778 159.965 288.11 160.036 288.404 160.193C288.699 160.35 288.943 160.586 289.11 160.875C289.319 160.586 289.596 160.353 289.918 160.199C290.239 160.044 290.594 159.971 290.95 159.988C291.221 159.963 291.494 159.999 291.75 160.093C292.005 160.187 292.236 160.337 292.426 160.531C292.617 160.726 292.761 160.96 292.85 161.217C292.938 161.474 292.968 161.747 292.938 162.018Z" fill="#263238"/>
<path d="M298.327 161.886V164.772H297.506V164.142C297.323 164.378 297.083 164.564 296.809 164.683C296.534 164.803 296.235 164.851 295.937 164.824C294.851 164.824 294.162 164.245 294.162 163.417C294.162 162.589 294.661 162.017 296.091 162.017H297.462V161.849C297.462 161.116 297.037 160.691 296.179 160.691C295.628 160.685 295.092 160.868 294.661 161.211L294.301 160.559C294.872 160.141 295.566 159.924 296.274 159.944C297.587 159.944 298.327 160.574 298.327 161.886ZM297.462 163.307V162.64H296.12C295.269 162.64 295.02 162.977 295.02 163.373C295.02 163.769 295.416 164.15 296.076 164.15C296.366 164.172 296.657 164.103 296.905 163.952C297.154 163.801 297.349 163.575 297.462 163.307Z" fill="#263238"/>
<path d="M304.539 159.988V164.12C304.539 165.813 303.681 166.575 302.053 166.575C301.23 166.603 300.424 166.344 299.772 165.842L300.183 165.175C300.711 165.584 301.362 165.804 302.031 165.798C303.16 165.798 303.673 165.271 303.673 164.194V163.813C303.458 164.054 303.192 164.245 302.894 164.371C302.596 164.498 302.274 164.557 301.95 164.545C301.646 164.545 301.344 164.485 301.063 164.369C300.782 164.253 300.527 164.082 300.312 163.867C300.096 163.652 299.926 163.397 299.809 163.116C299.693 162.835 299.633 162.534 299.633 162.23C299.633 161.926 299.693 161.625 299.809 161.344C299.926 161.063 300.096 160.808 300.312 160.593C300.527 160.378 300.782 160.207 301.063 160.091C301.344 159.974 301.646 159.915 301.95 159.915C302.285 159.902 302.618 159.966 302.925 160.102C303.231 160.238 303.502 160.442 303.717 160.699V159.966L304.539 159.988ZM303.688 162.252C303.706 161.922 303.624 161.595 303.453 161.313C303.283 161.03 303.031 160.805 302.731 160.667C302.431 160.529 302.097 160.484 301.771 160.538C301.445 160.592 301.143 160.742 300.904 160.969C300.664 161.197 300.499 161.491 300.428 161.813C300.358 162.136 300.386 162.472 300.509 162.778C300.632 163.084 300.844 163.347 301.118 163.531C301.392 163.715 301.715 163.814 302.045 163.813C302.259 163.829 302.473 163.801 302.674 163.729C302.875 163.658 303.06 163.545 303.214 163.398C303.369 163.25 303.492 163.072 303.573 162.875C303.655 162.678 303.694 162.465 303.688 162.252Z" fill="#263238"/>
<path d="M310.494 162.67H306.614C306.669 163.08 306.879 163.453 307.201 163.713C307.523 163.974 307.932 164.101 308.345 164.069C308.604 164.079 308.862 164.032 309.102 163.932C309.341 163.832 309.556 163.681 309.731 163.49L310.208 164.047C309.855 164.407 309.406 164.657 308.914 164.766C308.422 164.876 307.909 164.84 307.437 164.664C306.965 164.488 306.554 164.179 306.254 163.774C305.955 163.369 305.779 162.886 305.749 162.384C305.735 162.063 305.787 161.743 305.902 161.444C306.016 161.144 306.192 160.872 306.417 160.643C306.642 160.414 306.911 160.234 307.209 160.114C307.507 159.993 307.826 159.936 308.147 159.944C308.469 159.935 308.788 159.993 309.086 160.115C309.384 160.237 309.653 160.42 309.876 160.652C310.099 160.883 310.271 161.159 310.381 161.461C310.491 161.763 310.537 162.085 310.516 162.406C310.515 162.494 310.508 162.582 310.494 162.67ZM306.614 162.047H309.687C309.642 161.671 309.461 161.325 309.177 161.074C308.894 160.823 308.529 160.685 308.151 160.685C307.772 160.685 307.407 160.823 307.124 161.074C306.84 161.325 306.659 161.671 306.614 162.047Z" fill="#263238"/>
<path d="M269.764 198.213H228.441C227.757 198.211 227.101 197.938 226.618 197.455C226.134 196.972 225.861 196.317 225.859 195.634C225.861 194.95 226.134 194.295 226.618 193.812C227.101 193.329 227.757 193.056 228.441 193.054H269.764C270.449 193.054 271.105 193.326 271.589 193.81C272.073 194.294 272.345 194.95 272.345 195.634C272.345 196.318 272.073 196.974 271.589 197.457C271.105 197.941 270.449 198.213 269.764 198.213Z" fill="#FF725E"/>
<path d="M260.224 204.016V206.756H259.747V206.346C259.639 206.489 259.498 206.604 259.336 206.681C259.174 206.758 258.995 206.793 258.816 206.785C258.655 206.803 258.492 206.784 258.34 206.73C258.188 206.676 258.049 206.589 257.936 206.474C257.822 206.359 257.736 206.22 257.684 206.067C257.632 205.914 257.615 205.751 257.635 205.591V204.016H258.134V205.54C258.134 206.074 258.405 206.346 258.867 206.346C258.987 206.353 259.106 206.334 259.217 206.29C259.329 206.246 259.429 206.177 259.51 206.09C259.592 206.002 259.652 205.897 259.688 205.783C259.724 205.669 259.734 205.548 259.718 205.43V204.016H260.224Z" fill="#263238"/>
<path d="M264 205.378C264.009 205.563 263.98 205.748 263.914 205.921C263.848 206.094 263.746 206.252 263.616 206.383C263.485 206.515 263.329 206.618 263.157 206.686C262.984 206.754 262.799 206.785 262.614 206.778C262.431 206.785 262.248 206.748 262.081 206.672C261.915 206.596 261.768 206.481 261.653 206.338V207.752H261.155V204.015H261.631V204.448C261.747 204.299 261.897 204.179 262.067 204.099C262.238 204.019 262.425 203.98 262.614 203.986C262.799 203.979 262.983 204.01 263.155 204.077C263.327 204.145 263.483 204.247 263.613 204.378C263.743 204.509 263.845 204.665 263.912 204.838C263.978 205.01 264.008 205.194 264 205.378ZM263.501 205.378C263.494 205.196 263.434 205.02 263.327 204.872C263.22 204.724 263.073 204.61 262.902 204.545C262.731 204.48 262.545 204.467 262.367 204.507C262.189 204.547 262.026 204.638 261.9 204.77C261.773 204.901 261.688 205.067 261.655 205.246C261.622 205.426 261.642 205.611 261.714 205.779C261.785 205.947 261.904 206.09 262.057 206.191C262.209 206.292 262.388 206.345 262.57 206.345C262.698 206.351 262.825 206.329 262.944 206.282C263.062 206.235 263.17 206.164 263.259 206.073C263.348 205.981 263.417 205.872 263.462 205.753C263.506 205.633 263.524 205.506 263.516 205.378H263.501Z" fill="#263238"/>
<path d="M264.733 202.909H265.232V206.749H264.733V202.909Z" fill="#263238"/>
<path d="M265.9 205.378C265.894 205.096 265.972 204.819 266.124 204.581C266.276 204.343 266.495 204.155 266.754 204.042C267.012 203.928 267.299 203.894 267.577 203.942C267.855 203.991 268.113 204.121 268.317 204.316C268.521 204.511 268.663 204.762 268.725 205.038C268.786 205.313 268.765 205.601 268.663 205.864C268.562 206.127 268.384 206.355 268.153 206.517C267.922 206.68 267.649 206.771 267.366 206.778C267.176 206.792 266.984 206.767 266.804 206.702C266.624 206.638 266.459 206.537 266.321 206.405C266.183 206.273 266.074 206.113 266.001 205.936C265.928 205.76 265.894 205.569 265.9 205.378ZM268.254 205.378C268.265 205.25 268.25 205.12 268.208 204.998C268.167 204.876 268.1 204.763 268.013 204.668C267.926 204.573 267.82 204.496 267.701 204.444C267.583 204.392 267.455 204.365 267.326 204.365C267.197 204.365 267.069 204.392 266.95 204.444C266.832 204.496 266.726 204.573 266.639 204.668C266.551 204.763 266.485 204.876 266.444 204.998C266.402 205.12 266.387 205.25 266.398 205.378C266.387 205.507 266.402 205.637 266.444 205.759C266.485 205.881 266.551 205.994 266.639 206.089C266.726 206.184 266.832 206.26 266.95 206.313C267.069 206.365 267.197 206.391 267.326 206.391C267.455 206.391 267.583 206.365 267.701 206.313C267.82 206.26 267.926 206.184 268.013 206.089C268.1 205.994 268.167 205.881 268.208 205.759C268.25 205.637 268.265 205.507 268.254 205.378Z" fill="#263238"/>
<path d="M271.598 205.093V206.749H271.121V206.389C271.017 206.526 270.879 206.633 270.721 206.701C270.563 206.769 270.39 206.796 270.219 206.778C269.603 206.778 269.207 206.448 269.207 205.972C269.207 205.496 269.493 205.173 270.307 205.173H271.099V205.071C271.099 204.653 270.857 204.411 270.366 204.411C270.05 204.406 269.742 204.51 269.493 204.704L269.288 204.331C269.614 204.09 270.012 203.966 270.417 203.979C271.172 204.016 271.598 204.345 271.598 205.093ZM271.099 205.913V205.532H270.329C269.838 205.532 269.698 205.723 269.698 205.95C269.698 206.177 269.926 206.397 270.307 206.397C270.473 206.41 270.639 206.37 270.781 206.283C270.924 206.196 271.035 206.067 271.099 205.913Z" fill="#263238"/>
<path d="M275.125 202.909V206.749H274.648V206.316C274.536 206.467 274.388 206.588 274.218 206.668C274.048 206.749 273.861 206.786 273.673 206.778C273.301 206.778 272.945 206.63 272.682 206.368C272.42 206.105 272.272 205.75 272.272 205.378C272.272 205.007 272.42 204.651 272.682 204.389C272.945 204.126 273.301 203.979 273.673 203.979C273.855 203.973 274.036 204.009 274.202 204.085C274.367 204.162 274.513 204.276 274.626 204.419V202.909H275.125ZM274.633 205.378C274.625 205.198 274.563 205.024 274.457 204.878C274.35 204.732 274.203 204.621 274.033 204.557C273.864 204.494 273.68 204.482 273.504 204.523C273.327 204.563 273.167 204.654 273.042 204.785C272.917 204.916 272.833 205.08 272.801 205.258C272.769 205.436 272.79 205.619 272.861 205.785C272.932 205.951 273.05 206.093 273.201 206.192C273.352 206.292 273.528 206.345 273.709 206.346C273.835 206.349 273.961 206.326 274.077 206.278C274.194 206.23 274.299 206.158 274.386 206.067C274.473 205.976 274.54 205.867 274.583 205.749C274.625 205.63 274.643 205.504 274.633 205.378Z" fill="#263238"/>
<path d="M275.983 203.158C275.98 203.091 275.997 203.025 276.032 202.967C276.068 202.91 276.119 202.864 276.181 202.837C276.242 202.809 276.31 202.8 276.376 202.811C276.443 202.823 276.504 202.854 276.553 202.9C276.602 202.947 276.635 203.007 276.649 203.072C276.664 203.138 276.658 203.207 276.633 203.269C276.608 203.331 276.565 203.385 276.509 203.423C276.453 203.46 276.387 203.481 276.32 203.481C276.276 203.483 276.233 203.476 276.192 203.461C276.151 203.445 276.114 203.422 276.082 203.392C276.051 203.361 276.026 203.325 276.009 203.285C275.992 203.245 275.983 203.202 275.983 203.158ZM276.071 204.008H276.569V206.749H276.071V204.008Z" fill="#263238"/>
<path d="M280.134 205.173V206.749H279.635V205.232C279.635 204.69 279.364 204.426 278.902 204.426C278.781 204.416 278.661 204.434 278.548 204.476C278.435 204.519 278.333 204.587 278.25 204.674C278.166 204.761 278.103 204.865 278.065 204.979C278.027 205.094 278.014 205.215 278.029 205.335V206.749H277.53V204.016H278.007V204.426C278.125 204.28 278.277 204.163 278.449 204.087C278.621 204.01 278.809 203.976 278.997 203.986C279.153 203.976 279.31 204 279.457 204.056C279.603 204.113 279.735 204.201 279.843 204.314C279.952 204.427 280.034 204.563 280.084 204.711C280.134 204.86 280.151 205.018 280.134 205.173Z" fill="#263238"/>
<path d="M283.69 204.016V206.382C283.719 206.575 283.702 206.772 283.64 206.957C283.579 207.143 283.475 207.311 283.336 207.448C283.198 207.586 283.029 207.689 282.843 207.75C282.658 207.81 282.461 207.826 282.268 207.796C281.796 207.817 281.331 207.672 280.955 207.386L281.19 206.998C281.492 207.236 281.868 207.363 282.253 207.357C282.898 207.357 283.192 207.056 283.192 206.434V206.214C283.069 206.354 282.916 206.465 282.745 206.539C282.574 206.612 282.388 206.646 282.202 206.639C282.019 206.652 281.835 206.628 281.661 206.567C281.488 206.507 281.329 206.411 281.195 206.286C281.06 206.161 280.953 206.01 280.879 205.842C280.806 205.674 280.768 205.492 280.768 205.309C280.768 205.125 280.806 204.944 280.879 204.776C280.953 204.608 281.06 204.456 281.195 204.332C281.329 204.207 281.488 204.111 281.661 204.05C281.835 203.99 282.019 203.965 282.202 203.979C282.395 203.972 282.588 204.009 282.764 204.087C282.941 204.166 283.097 204.284 283.221 204.433V204.016H283.69ZM283.206 205.312C283.215 205.124 283.167 204.937 283.069 204.776C282.97 204.615 282.826 204.487 282.654 204.409C282.482 204.33 282.29 204.305 282.104 204.336C281.918 204.368 281.745 204.454 281.608 204.584C281.472 204.715 281.377 204.883 281.337 205.067C281.297 205.252 281.313 205.444 281.383 205.619C281.453 205.795 281.574 205.945 281.73 206.051C281.887 206.157 282.071 206.214 282.26 206.214C282.384 206.222 282.507 206.204 282.623 206.162C282.739 206.12 282.845 206.054 282.934 205.968C283.023 205.883 283.093 205.78 283.14 205.665C283.187 205.551 283.21 205.429 283.206 205.305V205.312Z" fill="#263238"/>
<path d="M284.409 206.426C284.408 206.38 284.416 206.334 284.433 206.29C284.451 206.247 284.477 206.208 284.51 206.175C284.542 206.142 284.582 206.117 284.625 206.099C284.668 206.082 284.714 206.074 284.761 206.075C284.858 206.075 284.951 206.113 285.02 206.182C285.089 206.251 285.127 206.344 285.127 206.441C285.127 206.538 285.089 206.631 285.02 206.7C284.951 206.769 284.858 206.807 284.761 206.807C284.712 206.809 284.663 206.799 284.617 206.78C284.572 206.761 284.531 206.733 284.498 206.697C284.465 206.66 284.44 206.618 284.424 206.571C284.409 206.524 284.403 206.475 284.409 206.426Z" fill="#263238"/>
<path d="M285.582 206.426C285.581 206.38 285.589 206.334 285.607 206.29C285.624 206.247 285.65 206.208 285.683 206.175C285.716 206.142 285.755 206.117 285.798 206.099C285.841 206.082 285.888 206.074 285.934 206.075C286.031 206.075 286.125 206.113 286.193 206.182C286.262 206.251 286.301 206.344 286.301 206.441C286.301 206.538 286.262 206.631 286.193 206.7C286.125 206.769 286.031 206.807 285.934 206.807C285.885 206.809 285.836 206.799 285.791 206.78C285.745 206.761 285.705 206.733 285.671 206.697C285.638 206.66 285.613 206.618 285.597 206.571C285.582 206.524 285.577 206.475 285.582 206.426Z" fill="#263238"/>
<path d="M286.733 206.426C286.732 206.38 286.741 206.334 286.758 206.29C286.776 206.247 286.801 206.208 286.834 206.175C286.867 206.142 286.906 206.117 286.95 206.099C286.993 206.082 287.039 206.074 287.085 206.075C287.183 206.075 287.276 206.113 287.345 206.182C287.413 206.251 287.452 206.344 287.452 206.441C287.452 206.538 287.413 206.631 287.345 206.7C287.276 206.769 287.183 206.807 287.085 206.807C287.036 206.809 286.987 206.799 286.942 206.78C286.897 206.761 286.856 206.733 286.823 206.697C286.79 206.66 286.764 206.618 286.749 206.571C286.733 206.524 286.728 206.475 286.733 206.426Z" fill="#263238"/>
<path d="M269.192 187.896C269.192 188.761 268.569 189.464 267.278 189.464C266.609 189.479 265.956 189.262 265.43 188.849L265.76 188.285C266.182 188.64 266.719 188.83 267.271 188.82C268.004 188.82 268.466 188.468 268.466 187.918C268.466 187.369 268.107 187.002 266.941 187.002H265.797L266.061 184.365H268.906V184.966H266.67L266.53 186.35H267.095C268.598 186.336 269.192 186.966 269.192 187.896Z" fill="#FF725E"/>
<path d="M269.786 186.849C269.786 185.207 270.666 184.27 271.847 184.27C273.027 184.27 273.9 185.207 273.9 186.849C273.9 188.49 273.02 189.428 271.847 189.428C270.673 189.428 269.786 188.49 269.786 186.849ZM273.181 186.849C273.181 185.559 272.631 184.914 271.847 184.914C271.062 184.914 270.505 185.559 270.505 186.849C270.505 188.138 271.055 188.783 271.847 188.783C272.639 188.783 273.181 188.138 273.181 186.849Z" fill="#FF725E"/>
<path d="M274.516 185.698C274.494 185.529 274.507 185.357 274.555 185.194C274.603 185.03 274.685 184.878 274.796 184.748C274.906 184.618 275.043 184.513 275.197 184.44C275.351 184.366 275.519 184.325 275.69 184.321C276.386 184.321 276.856 184.87 276.856 185.698C276.856 186.526 276.386 187.068 275.69 187.068C275.519 187.065 275.352 187.025 275.198 186.952C275.044 186.88 274.907 186.775 274.796 186.646C274.685 186.516 274.603 186.365 274.555 186.202C274.507 186.039 274.493 185.867 274.516 185.698ZM276.394 185.698C276.394 185.09 276.13 184.731 275.66 184.731C275.191 184.731 274.927 185.097 274.927 185.698C274.927 186.299 275.206 186.658 275.66 186.658C276.115 186.658 276.394 186.262 276.394 185.698ZM278.726 184.365H279.283L275.836 189.406H275.286L278.726 184.365ZM277.714 188.072C277.75 187.848 277.85 187.639 278.002 187.47C278.153 187.302 278.35 187.179 278.569 187.119C278.788 187.058 279.019 187.062 279.236 187.128C279.453 187.195 279.647 187.323 279.793 187.496C279.94 187.669 280.034 187.881 280.064 188.106C280.094 188.331 280.059 188.56 279.962 188.765C279.866 188.971 279.713 189.145 279.521 189.266C279.329 189.387 279.107 189.451 278.88 189.45C278.706 189.445 278.535 189.403 278.379 189.326C278.223 189.25 278.085 189.141 277.975 189.007C277.865 188.873 277.784 188.717 277.739 188.55C277.694 188.382 277.685 188.207 277.714 188.036V188.072ZM279.584 188.072C279.584 187.479 279.312 187.105 278.85 187.105C278.388 187.105 278.117 187.471 278.117 188.072C278.117 188.673 278.381 189.039 278.85 189.039C279.32 189.039 279.584 188.629 279.584 188.036V188.072Z" fill="#FF725E"/>
<path d="M312.818 198.213C312.818 198.213 312.98 198.213 313.288 198.147C313.886 198.026 314.422 197.695 314.798 197.214C315.173 196.733 315.363 196.133 315.334 195.524C315.31 195.015 315.132 194.526 314.823 194.121C314.514 193.716 314.088 193.416 313.603 193.26C313.007 193.127 312.393 193.085 311.784 193.135H309.738H305.089H293.774L228.228 193.186C227.857 193.187 227.492 193.273 227.16 193.438C226.828 193.604 226.538 193.843 226.314 194.139C226.092 194.432 225.94 194.774 225.871 195.135C225.803 195.497 225.819 195.87 225.918 196.225C226.017 196.58 226.198 196.907 226.444 197.18C226.691 197.454 226.998 197.667 227.341 197.802C227.685 197.933 228.052 197.99 228.419 197.971H256.198L285.67 198.015L305.536 198.073H310.934L305.536 198.11L285.67 198.169L256.198 198.213H238.796H228.419C228.002 198.229 227.585 198.162 227.194 198.015C226.596 197.776 226.099 197.336 225.79 196.77C225.481 196.205 225.379 195.549 225.502 194.917C225.624 194.285 225.963 193.715 226.461 193.305C226.959 192.896 227.584 192.672 228.228 192.673L293.774 192.732H305.089H309.738H311.784C312.409 192.689 313.036 192.736 313.647 192.871C314.155 193.043 314.599 193.365 314.921 193.794C315.243 194.223 315.428 194.739 315.451 195.274C315.466 195.663 315.394 196.05 315.24 196.407C315.087 196.765 314.856 197.083 314.564 197.341C314.207 197.658 313.767 197.867 313.295 197.941C313.151 198.056 312.99 198.147 312.818 198.213Z" fill="#263238"/>
</svg>
