<svg width="30" height="30" viewBox="0 0 30 30" fill="none" xmlns="http://www.w3.org/2000/svg">
<path d="M20.1936 7.30769C20.1936 8.58277 19.687 9.80562 18.7854 10.7072C17.8838 11.6089 16.661 12.1154 15.3859 12.1154C14.1108 12.1154 12.888 11.6089 11.9863 10.7072C11.0847 9.80562 10.5782 8.58277 10.5782 7.30769C10.5782 6.03261 11.0847 4.80976 11.9863 3.90814C12.888 3.00652 14.1108 2.5 15.3859 2.5C16.661 2.5 17.8838 3.00652 18.7854 3.90814C19.687 4.80976 20.1936 6.03261 20.1936 7.30769ZM5.77179 25.4077C5.81299 22.885 6.84402 20.4797 8.64253 18.7103C10.441 16.9409 12.8629 15.9493 15.3859 15.9493C17.9088 15.9493 20.3307 16.9409 22.1292 18.7103C23.9278 20.4797 24.9588 22.885 25 25.4077C21.9838 26.7907 18.704 27.5045 15.3859 27.5C11.9551 27.5 8.69871 26.7513 5.77179 25.4077Z" stroke="black" stroke-width="1.5" stroke-linecap="round" stroke-linejoin="round"/>
</svg>
