<svg width="56" height="56" viewBox="0 0 56 56" fill="none" xmlns="http://www.w3.org/2000/svg">
<rect x="0.5" y="0.5" width="55" height="55" rx="27.5" fill="#909090"/>
<path d="M31.75 22C31.75 22.9946 31.3549 23.9484 30.6516 24.6517C29.9484 25.3549 28.9945 25.75 28 25.75C27.0054 25.75 26.0516 25.3549 25.3483 24.6517C24.6451 23.9484 24.25 22.9946 24.25 22C24.25 21.0054 24.6451 20.0516 25.3483 19.3483C26.0516 18.6451 27.0054 18.25 28 18.25C28.9945 18.25 29.9484 18.6451 30.6516 19.3483C31.3549 20.0516 31.75 21.0054 31.75 22ZM20.501 36.118C20.5331 34.1504 21.3373 32.2742 22.7402 30.894C24.143 29.5139 26.0321 28.7405 28 28.7405C29.9679 28.7405 31.857 29.5139 33.2598 30.894C34.6626 32.2742 35.4668 34.1504 35.499 36.118C33.1464 37.1968 30.5881 37.7535 28 37.75C25.324 37.75 22.784 37.166 20.501 36.118Z" stroke="white" stroke-width="1.5" stroke-linecap="round" stroke-linejoin="round"/>
<rect x="0.5" y="0.5" width="55" height="55" rx="27.5" stroke="#004866"/>
</svg>
