<svg width="27" height="27" viewBox="0 0 27 27" fill="none" xmlns="http://www.w3.org/2000/svg">
<path d="M24.8574 15.3572L23.344 13.8439C23.1163 13.6157 22.9267 13.3524 22.7827 13.0639L21.3427 10.1839C21.3035 10.1057 21.2463 10.038 21.1758 9.98628C21.1053 9.93455 21.0235 9.90031 20.9372 9.88638C20.8509 9.87245 20.7625 9.87922 20.6793 9.90615C20.5961 9.93307 20.5205 9.97937 20.4587 10.0412C20.3196 10.1802 20.1459 10.2794 19.9555 10.3287C19.7651 10.3779 19.5651 10.3753 19.376 10.3212L17.6787 9.83724C17.4071 9.76089 17.1172 9.78379 16.861 9.90182C16.6048 10.0198 16.399 10.2253 16.2806 10.4813C16.1621 10.7373 16.1387 11.0272 16.2146 11.2989C16.2905 11.5706 16.4607 11.8063 16.6947 11.9639L17.4774 12.4839C18.264 13.0106 18.376 14.1239 17.7067 14.7932L17.44 15.0599C17.1574 15.3426 17 15.7239 17 16.1212V16.6679C17 17.2132 16.8534 17.7466 16.5734 18.2119L14.82 21.1332C14.5701 21.5501 14.2164 21.8951 13.7935 22.1346C13.3705 22.3741 12.8927 22.5 12.4067 22.4999C12.0336 22.4999 11.6758 22.3517 11.412 22.0879C11.1482 21.8241 11 21.4663 11 21.0932V19.5306C11 18.3039 10.2534 17.2012 9.11469 16.7452L8.24136 16.3972C7.60595 16.1429 7.07661 15.6789 6.7412 15.0823C6.40578 14.4857 6.28446 13.7923 6.39736 13.1172L6.40669 13.0612C6.46867 12.6903 6.59984 12.3344 6.79336 12.0119L6.91336 11.8119C7.23178 11.2817 7.70632 10.8628 8.272 10.6126C8.83768 10.3625 9.46685 10.2933 10.0734 10.4146L11.644 10.7292C12.0136 10.803 12.3975 10.7348 12.7191 10.5384C13.0408 10.342 13.2768 10.0317 13.38 9.66924L13.6574 8.69591C13.7534 8.35965 13.729 8.00039 13.5883 7.68023C13.4476 7.36008 13.1994 7.09915 12.8867 6.94257L12 6.49991L11.8787 6.62124C11.6001 6.89981 11.2694 7.12079 10.9054 7.27155C10.5414 7.42231 10.1513 7.49991 9.75736 7.49991H9.51736C9.18536 7.49991 8.86803 7.63324 8.63469 7.86524C8.42085 8.08102 8.1353 8.21089 7.83212 8.23026C7.52895 8.24962 7.22919 8.15714 6.98963 7.97032C6.75007 7.7835 6.58733 7.51532 6.53224 7.21656C6.47715 6.91781 6.53352 6.60922 6.69069 6.34924L8.57203 3.2119C8.75954 2.90005 8.88876 2.55668 8.95336 2.19857M24.8574 15.3572C25.1803 13.3001 24.9624 11.1943 24.2251 9.24687C23.4877 7.29945 22.2562 5.57741 20.6518 4.25005C19.0473 2.92269 17.1251 2.03568 15.074 1.67623C13.0229 1.31678 10.9136 1.49725 8.95336 2.19991C6.95912 2.91475 5.18967 4.1448 3.82483 5.76505C2.45998 7.38529 1.54839 9.33798 1.1827 11.4247C0.817011 13.5114 1.01025 15.6577 1.74279 17.6455C2.47532 19.6333 3.72104 21.3917 5.35334 22.7421C6.98564 24.0925 8.94635 24.9868 11.0362 25.3339C13.1261 25.681 15.2706 25.4687 17.2518 24.7186C19.233 23.9684 20.9803 22.7071 22.3162 21.0629C23.652 19.4187 24.5288 17.4501 24.8574 15.3572Z" stroke="url(#paint0_linear_421_113)" stroke-width="2" stroke-linecap="round" stroke-linejoin="round"/>
<defs>
<linearGradient id="paint0_linear_421_113" x1="1" y1="-4" x2="30" y2="34" gradientUnits="userSpaceOnUse">
<stop stop-color="#003962"/>
<stop offset="1" stop-color="#266300"/>
</linearGradient>
</defs>
</svg>
